<svg width="248" height="24" viewBox="0 0 248 24" fill="none" xmlns="http://www.w3.org/2000/svg">
<path fill-rule="evenodd" clip-rule="evenodd" d="M236 1.25C234.112 1.25 232.432 1.78956 231.21 2.79605C229.976 3.81212 229.249 5.27368 229.249 6.99997L229.249 7.06208L229.259 7.1211L229.259 7.12165L229.26 7.12305L229.262 7.13916C229.264 7.15521 229.268 7.18165 229.272 7.21754C229.28 7.28939 229.29 7.39857 229.297 7.53749C229.311 7.81639 229.311 8.20915 229.255 8.65699C229.142 9.55999 228.81 10.6285 227.969 11.4696C226.669 12.7693 226.552 14.9416 227.85 16.6961C229.153 18.4562 231.802 19.75 236 19.75C240.197 19.75 242.847 18.4562 244.149 16.696C245.447 14.9416 245.33 12.7692 244.03 11.4696C243.189 10.6285 242.857 9.55999 242.744 8.65699C242.688 8.20915 242.688 7.81639 242.702 7.53749C242.709 7.39857 242.719 7.28939 242.727 7.21754C242.731 7.18165 242.735 7.15521 242.737 7.13916L242.739 7.12305L242.739 7.12283L242.739 7.12239L242.74 7.12169L242.74 7.12162L242.74 7.12138L242.74 7.1211L242.75 7.0621V7C242.75 5.27371 242.023 3.81214 240.789 2.79606C239.567 1.78956 237.888 1.25 236 1.25ZM239.835 3.95394C240.714 4.67777 241.235 5.69779 241.249 6.94759C241.246 6.97425 241.241 7.00792 241.237 7.04809C241.225 7.14811 241.212 7.28893 241.204 7.46251C241.186 7.80861 241.186 8.29085 241.255 8.84301C241.392 9.94001 241.81 11.3715 242.969 12.5304C243.67 13.2308 243.864 14.5584 242.943 15.804C242.026 17.0438 239.925 18.25 236 18.25C232.074 18.25 229.973 17.0438 229.056 15.8039C228.135 14.5584 228.329 13.2307 229.03 12.5304C230.189 11.3715 230.607 9.94001 230.744 8.84301C230.813 8.29085 230.813 7.80861 230.795 7.46251C230.787 7.28893 230.774 7.14811 230.762 7.04809C230.758 7.00793 230.753 6.97426 230.75 6.94761C230.764 5.69781 231.285 4.67779 232.164 3.95395C233.067 3.21044 234.387 2.75 236 2.75C237.612 2.75 238.933 3.21044 239.835 3.95394ZM236 21C235 21 234 21 234 21.6667C234 22.3333 235 23 236 23C237 23 238 22.3333 238 21.6667C238 21 237 21 236 21Z" fill="#18191A"/>
<path d="M188 19.1132V10C188 7.19974 188 5.79961 187.455 4.73005C186.976 3.78924 186.211 3.02433 185.27 2.54497C184.2 2 182.8 2 180 2C177.2 2 175.8 2 174.73 2.54497C173.789 3.02433 173.024 3.78924 172.545 4.73005C172 5.79961 172 7.19974 172 10V19.1132C172 20.0554 172 20.5265 172.197 20.792C172.369 21.0234 172.633 21.1694 172.92 21.1925C173.25 21.219 173.649 20.9694 174.448 20.47L177.456 18.59C178.379 18.0132 178.84 17.7248 179.335 17.6123C179.773 17.5129 180.227 17.5129 180.665 17.6123C181.16 17.7248 181.621 18.0132 182.544 18.59L185.552 20.47C186.351 20.9694 186.75 21.219 187.08 21.1925C187.367 21.1694 187.631 21.0234 187.803 20.792C188 20.5265 188 20.0554 188 19.1132Z" stroke="#18191A" stroke-width="1.5" stroke-linecap="round" stroke-linejoin="round"/>
<path d="M124 22.0001C124.5 22.0001 134 17.0003 134 10.0004C134 6.50057 131.5 4.04405 128.5 4.00064C127 3.97894 125.5 4.50006 124 6.50006C122.5 4.50006 120.974 4.00064 119.5 4.00064C116.5 4.00064 114 6.50057 114 10.0004C114 17.0003 123.5 22.0001 124 22.0001Z" stroke="#18191A" stroke-width="1.5" stroke-linecap="round" stroke-linejoin="round"/>
<path fill-rule="evenodd" clip-rule="evenodd" d="M66.835 1.86678C67.5734 1.52129 68.4271 1.52129 69.1656 1.86678C69.6751 2.10513 70.0398 2.55372 70.3645 3.06239C70.6899 3.57229 71.0474 4.26452 71.4919 5.12487L71.5097 5.1594L71.901 5.91692C72.0894 6.28166 72.1203 6.32569 72.1477 6.35425C72.1877 6.39589 72.2352 6.42946 72.2878 6.45315C72.3239 6.46939 72.3757 6.48378 72.7825 6.53922L73.0248 6.57225L73.0638 6.57756C74.1526 6.72596 75.0213 6.84436 75.6761 6.99435C76.3206 7.14196 76.9197 7.35142 77.3276 7.79317C77.9098 8.42368 78.1643 9.28984 78.0156 10.1351C77.9115 10.7273 77.5209 11.2275 77.0587 11.7002C76.589 12.1806 75.9225 12.75 75.087 13.4638L75.057 13.4894L74.9784 13.5565C74.5899 13.8884 74.5457 13.9403 74.5223 13.9814C74.4879 14.042 74.468 14.1097 74.4642 14.1793C74.4616 14.2266 74.4707 14.2941 74.618 14.7833L74.759 15.2517L74.7703 15.2894C75.1154 16.4358 75.3892 17.3453 75.5356 18.0518C75.6783 18.7403 75.7434 19.4129 75.4888 19.9859C75.1292 20.7947 74.4023 21.3811 73.5356 21.5613C72.9218 21.6889 72.2782 21.4828 71.6355 21.1976C70.976 20.9049 70.1451 20.4448 69.0977 19.8649L69.0632 19.8458L68.567 19.5711C68.1852 19.3596 68.1315 19.3392 68.0907 19.3308C68.031 19.3186 67.9695 19.3186 67.9099 19.3308C67.8691 19.3392 67.8154 19.3596 67.4335 19.5711L66.9374 19.8458L66.9029 19.8649C65.8555 20.4448 65.0246 20.9049 64.3651 21.1976C63.7224 21.4828 63.0788 21.6889 62.465 21.5613C61.5983 21.3811 60.8714 20.7947 60.5118 19.9859C60.2571 19.4129 60.3223 18.7403 60.465 18.0518C60.6114 17.3453 60.8852 16.4358 61.2303 15.2894L61.2416 15.2517L61.3826 14.7833C61.5298 14.2941 61.539 14.2266 61.5364 14.1793C61.5326 14.1097 61.5127 14.042 61.4783 13.9814C61.4549 13.9403 61.4107 13.8884 61.0222 13.5565L60.9436 13.4894L60.9136 13.4638C60.0781 12.75 59.4115 12.1806 58.9419 11.7002C58.4797 11.2275 58.0891 10.7273 57.9849 10.1351C57.8363 9.28984 58.0908 8.42368 58.673 7.79317C59.0809 7.35142 59.68 7.14196 60.3244 6.99435C60.9793 6.84436 61.8479 6.72597 62.9368 6.57757L62.9758 6.57225L63.2181 6.53922C63.6249 6.48378 63.6767 6.46939 63.7128 6.45315C63.7654 6.42946 63.8129 6.39589 63.8529 6.35425C63.8802 6.32569 63.9111 6.28166 64.0996 5.91692L64.4909 5.1594L64.5087 5.12487C64.9531 4.26452 65.3107 3.57229 65.6361 3.06239C65.9607 2.55372 66.3255 2.10513 66.835 1.86678ZM68.53 3.22545C68.1943 3.06841 67.8063 3.06841 67.4706 3.22545C67.3632 3.27569 67.1898 3.41621 66.9006 3.86932C66.6166 4.3144 66.29 4.94493 65.8236 5.84784L65.4323 6.60536C65.4218 6.62565 65.4113 6.64593 65.4009 6.66616C65.2655 6.9294 65.1335 7.186 64.9356 7.39238C64.7626 7.57281 64.5565 7.71831 64.3285 7.82093C64.0678 7.9383 63.7818 7.97681 63.4885 8.01631C63.4659 8.01935 63.4433 8.02239 63.4207 8.02548L63.1784 8.0585C62.0417 8.21344 61.2404 8.32339 60.6593 8.45649C60.06 8.59376 59.8545 8.72468 59.775 8.81077C59.5104 9.09737 59.3947 9.49108 59.4623 9.87527C59.4826 9.99067 59.5846 10.212 60.0144 10.6516C60.4312 11.0778 61.0456 11.6037 61.9179 12.3489L61.9965 12.416C62.0183 12.4346 62.0401 12.4532 62.0618 12.4717C62.3403 12.7086 62.6112 12.9392 62.7823 13.24C62.9315 13.5025 63.0178 13.7961 63.0342 14.0976C63.053 14.4432 62.9499 14.7836 62.8438 15.1336C62.8355 15.1609 62.8272 15.1882 62.8189 15.2157L62.678 15.684C62.319 16.8766 62.0651 17.7225 61.9338 18.3562C61.7971 19.0156 61.8357 19.2713 61.8825 19.3766C62.0459 19.7442 62.3764 20.0108 62.7703 20.0927C62.8831 20.1161 63.1411 20.0997 63.7567 19.8265C64.3482 19.564 65.1212 19.1368 66.2108 18.5335L66.7069 18.2588C66.7282 18.247 66.7495 18.2352 66.7706 18.2234C67.0452 18.0708 67.3127 17.9221 67.6085 17.8614C67.867 17.8084 68.1336 17.8084 68.392 17.8614C68.6878 17.9221 68.9554 18.0708 69.23 18.2234C69.2511 18.2352 69.2724 18.247 69.2937 18.2588L69.7898 18.5335C70.8794 19.1368 71.6523 19.564 72.2439 19.8265C72.8595 20.0997 73.1175 20.1161 73.2303 20.0927C73.6242 20.0108 73.9547 19.7442 74.1181 19.3766C74.1649 19.2713 74.2034 19.0156 74.0668 18.3562C73.9355 17.7225 73.6816 16.8766 73.3226 15.684L73.1816 15.2157C73.1734 15.1882 73.1651 15.1609 73.1568 15.1336C73.0507 14.7836 72.9475 14.4432 72.9664 14.0976C72.9828 13.7961 73.0691 13.5025 73.2183 13.24C73.3894 12.9392 73.6603 12.7086 73.9387 12.4717C73.9605 12.4532 73.9823 12.4347 74.0041 12.416L74.0827 12.3489C74.9549 11.6037 75.5694 11.0778 75.9861 10.6516C76.416 10.212 76.518 9.99067 76.5383 9.87527C76.6059 9.49108 76.4902 9.09737 76.2256 8.81077C76.1461 8.72468 75.9405 8.59376 75.3412 8.45649C74.7602 8.32339 73.9589 8.21344 72.8222 8.0585L72.5799 8.02548C72.5573 8.02239 72.5347 8.01935 72.5121 8.01631C72.2187 7.97681 71.9327 7.9383 71.672 7.82093C71.4441 7.71831 71.238 7.57281 71.065 7.39238C70.8671 7.186 70.7351 6.9294 70.5997 6.66616C70.5892 6.64593 70.5788 6.62565 70.5683 6.60536L70.177 5.84784C69.7106 4.94493 69.384 4.3144 69.1 3.86932C68.8108 3.41621 68.6374 3.27569 68.53 3.22545Z" fill="#18191A"/>
<path fill-rule="evenodd" clip-rule="evenodd" d="M11.7697 3.00752C11.9221 2.97894 12.0784 2.97894 12.2307 3.00752C12.3785 3.03524 12.5323 3.10457 13.0959 3.38638L20.6648 7.17084C21.0352 7.35608 21.4858 7.20591 21.671 6.83543C21.8562 6.46494 21.7061 6.01444 21.3356 5.8292L13.7667 2.04474L13.6884 2.00554C13.2404 1.78116 12.888 1.60468 12.5073 1.53324C12.1722 1.47037 11.8283 1.47036 11.4931 1.53324C11.1124 1.60467 10.76 1.78115 10.312 2.00554L10.2337 2.04473L2.66476 5.8292C2.29427 6.01444 2.1441 6.46494 2.32934 6.83542C2.51458 7.20591 2.96509 7.35608 3.33557 7.17084L10.9045 3.38638C11.4682 3.10457 11.622 3.03524 11.7697 3.00752ZM11.7697 7.00752C11.9221 6.97894 12.0784 6.97894 12.2307 7.00752C12.3785 7.03524 12.5323 7.10457 13.0959 7.38638L18.1243 9.90059C19.0205 10.3487 19.3242 10.5091 19.5472 10.7203C19.831 10.989 20.0399 11.3271 20.1533 11.7011C20.2425 11.995 20.2502 12.3384 20.2502 13.3404V14.75C20.2502 15.9476 20.2465 16.4369 20.1685 16.8292C19.8332 18.5151 18.5152 19.833 16.8293 20.1684C16.4968 20.2345 16.0945 20.2472 15.2502 20.2495V17C15.2502 15.2051 13.7951 13.75 12.0002 13.75C10.2053 13.75 8.75018 15.2051 8.75018 17V20.2495C7.90584 20.2472 7.50361 20.2345 7.17107 20.1684C5.48512 19.833 4.16719 18.5151 3.83183 16.8291C3.7538 16.4369 3.75017 15.9476 3.75017 14.75L3.75017 13.3404C3.75017 12.3384 3.75787 11.995 3.84701 11.7011C3.96045 11.3271 4.16936 10.989 4.45318 10.7203C4.6762 10.5091 4.97985 10.3487 5.87607 9.9006L10.9045 7.38638C11.4682 7.10457 11.622 7.03524 11.7697 7.00752ZM12.5073 5.53324C12.1722 5.47037 11.8283 5.47036 11.4931 5.53324C11.1124 5.60467 10.76 5.78115 10.312 6.00554L10.2337 6.04473L5.20525 8.55895L5.10372 8.60969L5.10371 8.60969C4.3484 8.987 3.82707 9.24743 3.42186 9.6311C2.94883 10.079 2.60063 10.6424 2.41157 11.2658C2.24962 11.7998 2.24983 12.3826 2.25014 13.2269L2.25017 13.3404L2.25017 14.75L2.25016 14.8511C2.25006 15.9163 2.24999 16.5654 2.36065 17.1218C2.81437 19.4028 4.59745 21.1858 6.87844 21.6395C7.43476 21.7502 8.08385 21.7501 9.14908 21.75H9.14915L9.25019 21.75L9.2543 21.7501C9.278 21.7504 9.38379 21.752 9.48552 21.7317C9.86237 21.6568 10.157 21.3622 10.2319 20.9853C10.2522 20.8836 10.2506 20.7778 10.2502 20.7541L10.2502 20.75V17C10.2502 16.0335 11.0337 15.25 12.0002 15.25C12.9667 15.25 13.7502 16.0335 13.7502 17V20.75L13.7501 20.7541C13.7498 20.7779 13.7482 20.8836 13.7684 20.9854C13.8434 21.3622 14.138 21.6568 14.5148 21.7318C14.6166 21.752 14.7224 21.7504 14.7461 21.7501L14.7502 21.75L14.8512 21.75H14.8512C15.9165 21.7501 16.5656 21.7502 17.1219 21.6395C19.4029 21.1858 21.186 19.4028 21.6397 17.1218C21.7504 16.5655 21.7503 15.9164 21.7502 14.8511L21.7502 14.75V13.3404L21.7502 13.2269C21.7505 12.3825 21.7507 11.7998 21.5888 11.2658C21.3997 10.6424 21.0515 10.079 20.5785 9.63111C20.1733 9.24743 19.652 8.987 18.8966 8.60969L18.7951 8.55895L13.7667 6.04474L13.6884 6.00554L13.6884 6.00554C13.2404 5.78116 12.888 5.60467 12.5073 5.53324Z" fill="#18191A"/>
</svg>
