<svg width="43" height="41" viewBox="0 0 43 41" fill="none" xmlns="http://www.w3.org/2000/svg">
<path d="M34.9133 31.1125C34.8032 31.647 34.6844 32.1816 34.5464 32.7154L34.393 33.3092L33.815 33.5139C33.3832 33.6667 32.9498 33.8067 32.5156 33.9403C36.8382 36.9196 40.1786 38.3278 42.6358 38.2201L42.4742 34.5333C40.7488 34.6089 38.0163 33.2301 34.9133 31.1125Z" fill="#47B26B"/>
<path d="M-0.000170912 1.79495C0.204861 4.09768 1.63822 8.95277 2.28177 10.0921L3.66286 12.5372L0.962177 11.7686C0.93276 11.7602 0.903732 11.752 0.874721 11.7442C1.49735 13.6456 3.00441 16.567 4.48428 18.3173L6.65764 20.8879L3.36463 20.1903C3.3453 20.1863 3.32641 20.1823 3.30753 20.1785C4.95651 22.5611 7.98924 25.0015 9.14316 25.93C9.30567 26.0607 9.44254 26.171 9.54868 26.2585L12.0119 28.2875L8.90841 28.3016C13.714 32.0435 21.4815 34.3167 30.1248 32.2092C30.8974 32.0209 31.6761 31.801 32.4612 31.5405C32.6116 30.9064 32.7397 30.2722 32.8477 29.6383C33.1895 27.6333 33.3198 25.6333 33.2336 23.6661C32.9368 16.8939 30.1357 11.5947 27.1736 8.37453L27.3957 11.4189L25.1945 9.17876C25.0981 9.08068 24.9762 8.95376 24.8317 8.80324C23.806 7.73519 21.1095 4.92735 18.5918 3.49312C18.5974 3.51158 18.6031 3.53027 18.6085 3.54897L19.5916 6.76824L16.8407 4.8281C14.9713 3.50956 11.9209 2.26225 9.97712 1.80745C9.98732 1.83537 9.99807 1.8638 10.009 1.89215L11.0107 4.51509L8.45437 3.35364C6.99325 2.68922 1.98643 1.81012 -0.000170912 1.79495Z" fill="#47B26B"/>
<path d="M18.84 16.5445L18.8283 20.0585C18.8246 21.1785 18.4999 21.994 17.8542 22.5052C17.2178 23.0165 16.3817 23.2704 15.3457 23.2669C14.3097 23.2635 13.4752 23.0041 12.8422 22.4886C12.1999 21.9732 11.8806 21.1554 11.8844 20.0354L11.896 16.5355C11.9031 14.3888 13.064 13.3193 15.3786 13.327C17.6933 13.3347 18.8471 14.4072 18.84 16.5445ZM14.2051 16.8091L14.1952 19.7771C14.1934 20.3278 14.2808 20.7247 14.4573 20.968C14.6338 21.2112 14.9321 21.3336 15.3521 21.3349C15.7627 21.3363 16.0571 21.2159 16.2353 20.9739C16.4134 20.7225 16.5034 20.3261 16.5052 19.7848L16.5151 16.8168C16.5168 16.2754 16.4295 15.8832 16.253 15.6399C16.0765 15.3873 15.7829 15.2603 15.3722 15.259C14.9522 15.2576 14.6531 15.3779 14.475 15.62C14.2969 15.8621 14.2069 16.2585 14.2051 16.8091ZM23.2145 21.221L26.1685 21.2308L26.1621 23.1628L20.0721 23.1426L20.0766 21.7706L23.2389 18.0711C23.773 17.4382 24.041 16.8324 24.0429 16.2537C24.044 15.9457 23.9468 15.7027 23.7514 15.5247C23.5653 15.3468 23.3229 15.2573 23.0242 15.2563C22.7349 15.2554 22.4966 15.3433 22.3094 15.52C22.1315 15.6874 22.028 15.9297 21.999 16.2469L19.997 16.2403C19.9997 15.4096 20.3053 14.72 20.9138 14.1713C21.541 13.6227 22.2932 13.3499 23.1706 13.3528C24.0759 13.3558 24.8309 13.6383 25.4358 14.2003C26.0499 14.7624 26.3556 15.4447 26.353 16.2474C26.3516 16.6674 26.2615 17.0824 26.0828 17.4925C25.8853 17.9492 25.7069 18.2799 25.5476 18.4847C25.3788 18.7268 25.1538 19.0061 24.8728 19.3225L23.2145 21.221Z" fill="white"/>
</svg>
