<svg width="284" height="8" viewBox="0 0 284 8" fill="none" xmlns="http://www.w3.org/2000/svg">
<g opacity="0.8">
<path opacity="0.8" d="M6.46094 4L277.5 3.99998" stroke="#1F2024" stroke-width="1.5" stroke-linecap="round" stroke-dasharray="4 4"/>
<path opacity="0.8" d="M279.547 3.28035L274.516 0.152562C273.913 -0.222171 273.136 0.133851 273.016 0.780589C272.995 0.894278 273.02 1.01018 273.059 1.11895L274.098 4.00003L273.059 6.88111C273.02 6.98989 272.995 7.10578 273.016 7.21947C273.134 7.85706 273.893 8.21483 274.495 7.85977L279.527 4.89661C280.149 4.53065 280.16 3.66082 279.547 3.28035Z" fill="#1F2024"/>
<g opacity="0.8">
<path d="M1.5 4C1.5 2.61929 2.61929 1.5 4 1.5C5.38071 1.5 6.5 2.61929 6.5 4C6.5 5.38071 5.38071 6.5 4 6.5C2.61929 6.5 1.5 5.38071 1.5 4Z" fill="white" stroke="#1F2024" stroke-width="3"/>
</g>
</g>
</svg>
