<svg width="30" height="29" viewBox="0 0 30 29" fill="none" xmlns="http://www.w3.org/2000/svg">
<path fill-rule="evenodd" clip-rule="evenodd" d="M8.24008 14.5C8.2402 14.6987 8.31921 14.8893 8.45975 15.0299C8.60029 15.1704 8.79086 15.2494 8.98961 15.2495H19.2002L15.1768 19.273C15.0361 19.4136 14.9571 19.6044 14.9571 19.8033C14.9571 20.0022 15.0361 20.193 15.1768 20.3336C15.3175 20.4743 15.5082 20.5533 15.7071 20.5533C15.906 20.5533 16.0968 20.4743 16.2375 20.3336L21.5408 15.0303C21.6814 14.8897 21.7604 14.6989 21.7604 14.5C21.7604 14.3011 21.6814 14.1103 21.5408 13.9697L16.2375 8.66637C16.0968 8.52572 15.906 8.4467 15.7071 8.4467C15.5082 8.4467 15.3175 8.52572 15.1768 8.66637C15.0361 8.80702 14.9571 8.99779 14.9571 9.1967C14.9571 9.39561 15.0361 9.58638 15.1768 9.72703L19.2002 13.7505L8.98961 13.7505C8.79086 13.7506 8.60029 13.8296 8.45975 13.9701C8.31921 14.1107 8.2402 14.3012 8.24008 14.5Z" fill="#171717"/>
</svg>
