<svg width="407" height="761" viewBox="0 0 407 761" fill="none" xmlns="http://www.w3.org/2000/svg">
<g clip-path="url(#clip0_1_3474)" filter="url(#filter0_d_1_3474)">
<rect width="303.172" height="656.469" transform="translate(51.8281 47)" fill="#EBF8FF"/>
<path d="M120.171 406.082L122.06 408.462C122.439 408.893 122.629 409.437 122.629 410.092C122.629 410.834 122.37 411.454 121.853 411.955C121.335 412.455 120.723 412.705 120.016 412.705C119.119 412.705 118.421 412.351 117.921 411.644L114.583 406.91H112.617V410.092C112.617 410.799 112.358 411.411 111.841 411.929C111.341 412.446 110.728 412.705 110.004 412.705C109.28 412.705 108.659 412.446 108.141 411.929C107.641 411.411 107.391 410.799 107.391 410.092V397.959C107.391 397.062 107.624 396.38 108.09 395.915C108.573 395.432 109.262 395.19 110.159 395.19H116.601C118.516 395.19 120.025 395.751 121.129 396.872C122.25 397.993 122.81 399.407 122.81 401.115C122.81 403.34 121.93 404.995 120.171 406.082ZM112.617 399.537V402.564H115.799C116.282 402.564 116.687 402.426 117.015 402.15C117.343 401.856 117.507 401.486 117.507 401.037C117.507 400.589 117.343 400.227 117.015 399.951C116.687 399.675 116.282 399.537 115.799 399.537H112.617ZM130.519 399.64C132.295 399.606 133.83 400.166 135.124 401.322C136.417 402.477 137.047 403.823 137.012 405.358C137.012 406.185 136.788 406.772 136.34 407.117C135.908 407.462 135.21 407.634 134.244 407.634H128.527C128.682 408.1 129.001 408.479 129.484 408.773C129.967 409.066 130.562 409.212 131.269 409.212C131.855 409.212 132.468 409.092 133.106 408.85C133.33 408.764 133.546 408.721 133.753 408.721C134.236 408.721 134.649 408.893 134.994 409.238C135.339 409.583 135.512 409.997 135.512 410.48C135.512 410.825 135.4 411.144 135.175 411.437C134.969 411.73 134.701 411.955 134.374 412.11C133.235 412.541 132.002 412.757 130.674 412.757C128.656 412.757 126.992 412.162 125.681 410.972C124.37 409.764 123.715 408.169 123.715 406.185C123.715 404.34 124.353 402.788 125.629 401.529C126.923 400.27 128.553 399.64 130.519 399.64ZM128.475 404.685H132.588C132.347 403.685 131.657 403.184 130.519 403.184C129.415 403.184 128.734 403.685 128.475 404.685ZM149.145 410.351L147.722 405.461L146.299 410.351C146.109 411.041 145.721 411.61 145.135 412.058C144.549 412.489 143.893 412.705 143.169 412.705C142.427 412.705 141.763 412.489 141.177 412.058C140.59 411.61 140.202 411.041 140.013 410.351L137.762 402.589C137.71 402.4 137.684 402.184 137.684 401.943C137.684 401.322 137.9 400.796 138.331 400.365C138.779 399.916 139.323 399.692 139.961 399.692C140.495 399.692 140.961 399.856 141.358 400.183C141.772 400.511 142.039 400.925 142.16 401.425L143.453 406.832L145.135 401.58C145.307 401.029 145.626 400.58 146.092 400.235C146.575 399.873 147.118 399.692 147.722 399.692C148.343 399.692 148.886 399.873 149.352 400.235C149.835 400.58 150.162 401.037 150.335 401.606L151.991 406.832L153.284 401.425C153.405 400.925 153.672 400.511 154.086 400.183C154.5 399.856 154.974 399.692 155.509 399.692C156.13 399.692 156.665 399.916 157.113 400.365C157.561 400.796 157.786 401.33 157.786 401.969C157.786 402.175 157.751 402.382 157.682 402.589L155.457 410.351C155.268 411.041 154.88 411.61 154.293 412.058C153.707 412.489 153.043 412.705 152.301 412.705C151.559 412.705 150.895 412.489 150.309 412.058C149.723 411.61 149.335 411.041 149.145 410.351ZM171.308 404.892V410.221C171.308 410.911 171.084 411.498 170.635 411.98C170.204 412.463 169.652 412.705 168.98 412.705C168.479 412.705 168.014 412.567 167.583 412.291C167.169 412.015 166.867 411.653 166.677 411.204C166.332 411.653 165.806 412.024 165.099 412.317C164.392 412.61 163.65 412.757 162.874 412.757C161.77 412.757 160.779 412.394 159.899 411.67C159.019 410.928 158.58 409.919 158.58 408.643C158.58 407.246 159.002 406.254 159.847 405.668C160.692 405.082 161.701 404.788 162.874 404.788C163.702 404.788 164.452 404.909 165.125 405.151C165.815 405.392 166.324 405.728 166.651 406.16V404.737C166.651 404.271 166.444 403.9 166.03 403.624C165.616 403.331 165.047 403.184 164.323 403.184C163.512 403.184 162.719 403.374 161.943 403.754C161.736 403.857 161.512 403.909 161.27 403.909C160.804 403.909 160.408 403.745 160.08 403.417C159.752 403.09 159.589 402.693 159.589 402.227C159.589 401.555 159.899 401.054 160.52 400.727C161.969 400.002 163.521 399.64 165.177 399.64C166.988 399.64 168.454 400.037 169.575 400.83C170.73 401.624 171.308 402.977 171.308 404.892ZM166.651 409.057V408.359C166.324 407.91 165.711 407.686 164.814 407.686C163.728 407.686 163.185 408.031 163.185 408.721C163.185 409.393 163.728 409.73 164.814 409.73C165.711 409.73 166.324 409.506 166.651 409.057ZM182.758 401.658C182.758 402.313 182.586 402.857 182.241 403.288C181.913 403.702 181.439 403.943 180.818 404.012C179.628 404.168 178.869 404.443 178.541 404.84V410.377C178.541 411.015 178.308 411.567 177.843 412.032C177.394 412.481 176.851 412.705 176.213 412.705C175.575 412.705 175.023 412.481 174.557 412.032C174.109 411.567 173.885 411.015 173.885 410.377V402.124C173.885 401.451 174.1 400.882 174.531 400.416C174.98 399.933 175.54 399.692 176.213 399.692C176.765 399.692 177.256 399.847 177.688 400.158C178.119 400.468 178.403 400.873 178.541 401.374C178.834 400.718 179.24 400.244 179.757 399.951C180.085 399.761 180.421 399.666 180.766 399.666C181.318 399.666 181.784 399.864 182.163 400.261C182.56 400.64 182.758 401.106 182.758 401.658ZM196.797 397.26V410.377C196.797 411.066 196.573 411.653 196.124 412.136C195.693 412.601 195.141 412.834 194.469 412.834C193.951 412.834 193.477 412.679 193.046 412.369C192.614 412.041 192.313 411.627 192.14 411.127C191.174 412.213 190.002 412.757 188.622 412.757C187.035 412.757 185.716 412.17 184.664 410.997C183.629 409.825 183.111 408.221 183.111 406.185C183.111 404.202 183.629 402.615 184.664 401.425C185.716 400.235 187.035 399.64 188.622 399.64C190.071 399.64 191.243 400.183 192.14 401.27V397.26C192.14 396.622 192.364 396.079 192.813 395.63C193.278 395.165 193.83 394.932 194.469 394.932C195.107 394.932 195.65 395.165 196.098 395.63C196.564 396.079 196.797 396.622 196.797 397.26ZM192.14 407.789V404.581C191.692 404.03 191.045 403.754 190.2 403.754C189.527 403.754 188.967 403.978 188.518 404.426C188.087 404.875 187.872 405.461 187.872 406.185C187.872 406.927 188.087 407.522 188.518 407.971C188.967 408.419 189.527 408.643 190.2 408.643C190.545 408.643 190.898 408.566 191.261 408.41C191.64 408.238 191.933 408.031 192.14 407.789ZM205.427 409.29C205.427 408.635 205.66 408.083 206.126 407.634C206.591 407.169 207.143 406.936 207.781 406.936C208.23 406.936 208.626 407.039 208.971 407.246C210.23 407.988 211.584 408.359 213.033 408.359C213.585 408.359 214.042 408.272 214.404 408.1C214.766 407.91 214.947 407.66 214.947 407.35C214.947 407.022 214.758 406.763 214.378 406.574C214.016 406.367 213.395 406.185 212.516 406.03C211.136 405.789 209.946 405.513 208.945 405.202C208.014 404.892 207.178 404.366 206.436 403.624C205.694 402.883 205.324 401.848 205.324 400.52C205.324 398.933 205.979 397.605 207.29 396.536C208.6 395.466 210.42 394.932 212.748 394.932C214.784 394.932 216.577 395.285 218.13 395.992C219.044 396.424 219.501 397.131 219.501 398.114C219.501 398.752 219.268 399.304 218.802 399.77C218.354 400.218 217.81 400.442 217.172 400.442C216.845 400.442 216.5 400.373 216.137 400.235C214.568 399.632 213.343 399.33 212.464 399.33C211.239 399.33 210.627 399.632 210.627 400.235C210.627 400.563 210.799 400.813 211.144 400.985C211.507 401.141 212.179 401.296 213.162 401.451C214.577 401.71 215.715 401.986 216.577 402.279C217.56 402.589 218.414 403.107 219.138 403.831C219.863 404.556 220.225 405.53 220.225 406.755C220.225 408.652 219.561 410.126 218.233 411.179C216.922 412.231 215.103 412.757 212.774 412.757C210.411 412.757 208.376 412.291 206.669 411.36C205.841 410.911 205.427 410.221 205.427 409.29ZM234.927 402.02V410.377C234.927 411.049 234.703 411.627 234.254 412.11C233.823 412.576 233.271 412.808 232.599 412.808C232.047 412.808 231.555 412.645 231.124 412.317C230.693 411.989 230.408 411.567 230.27 411.049C229.253 412.187 227.821 412.757 225.976 412.757C224.63 412.757 223.604 412.403 222.897 411.696C222.19 410.989 221.836 410.049 221.836 408.876V402.02C221.836 401.382 222.061 400.839 222.509 400.39C222.975 399.925 223.527 399.692 224.165 399.692C224.803 399.692 225.346 399.925 225.795 400.39C226.26 400.839 226.493 401.382 226.493 402.02V406.884C226.493 408.057 227.097 408.643 228.304 408.643C229.046 408.643 229.701 408.315 230.27 407.66V402.02C230.27 401.382 230.494 400.839 230.943 400.39C231.408 399.925 231.96 399.692 232.599 399.692C233.237 399.692 233.78 399.925 234.228 400.39C234.694 400.839 234.927 401.382 234.927 402.02ZM243.683 399.64C244.976 399.64 246.115 399.899 247.098 400.416C247.857 400.83 248.236 401.442 248.236 402.253C248.236 402.822 248.029 403.314 247.615 403.728C247.218 404.124 246.735 404.323 246.166 404.323C245.77 404.323 245.433 404.237 245.157 404.064C244.795 403.857 244.373 403.754 243.89 403.754C243.183 403.754 242.596 403.969 242.13 404.4C241.665 404.832 241.432 405.427 241.432 406.185C241.432 406.944 241.665 407.548 242.13 407.996C242.596 408.428 243.183 408.643 243.89 408.643C244.355 408.643 244.769 408.54 245.131 408.333C245.476 408.143 245.813 408.048 246.14 408.048C246.71 408.048 247.193 408.255 247.589 408.669C248.003 409.066 248.21 409.557 248.21 410.144C248.21 410.954 247.839 411.567 247.098 411.98C246.115 412.498 244.976 412.757 243.683 412.757C241.682 412.757 240.009 412.153 238.664 410.946C237.336 409.721 236.672 408.134 236.672 406.185C236.672 404.254 237.336 402.684 238.664 401.477C240.009 400.252 241.682 399.64 243.683 399.64ZM256.163 399.64C257.457 399.64 258.595 399.899 259.578 400.416C260.337 400.83 260.717 401.442 260.717 402.253C260.717 402.822 260.51 403.314 260.096 403.728C259.699 404.124 259.216 404.323 258.647 404.323C258.25 404.323 257.914 404.237 257.638 404.064C257.276 403.857 256.853 403.754 256.37 403.754C255.663 403.754 255.077 403.969 254.611 404.4C254.145 404.832 253.913 405.427 253.913 406.185C253.913 406.944 254.145 407.548 254.611 407.996C255.077 408.428 255.663 408.643 256.37 408.643C256.836 408.643 257.25 408.54 257.612 408.333C257.957 408.143 258.293 408.048 258.621 408.048C259.19 408.048 259.673 408.255 260.07 408.669C260.484 409.066 260.691 409.557 260.691 410.144C260.691 410.954 260.32 411.567 259.578 411.98C258.595 412.498 257.457 412.757 256.163 412.757C254.163 412.757 252.49 412.153 251.144 410.946C249.816 409.721 249.152 408.134 249.152 406.185C249.152 404.254 249.816 402.684 251.144 401.477C252.49 400.252 254.163 399.64 256.163 399.64ZM268.437 399.64C270.213 399.606 271.748 400.166 273.042 401.322C274.335 402.477 274.965 403.823 274.93 405.358C274.93 406.185 274.706 406.772 274.258 407.117C273.827 407.462 273.128 407.634 272.162 407.634H266.445C266.6 408.1 266.919 408.479 267.402 408.773C267.885 409.066 268.48 409.212 269.187 409.212C269.774 409.212 270.386 409.092 271.024 408.85C271.248 408.764 271.464 408.721 271.671 408.721C272.154 408.721 272.568 408.893 272.913 409.238C273.258 409.583 273.43 409.997 273.43 410.48C273.43 410.825 273.318 411.144 273.094 411.437C272.887 411.73 272.619 411.955 272.292 412.11C271.153 412.541 269.92 412.757 268.592 412.757C266.574 412.757 264.91 412.162 263.599 410.972C262.288 409.764 261.633 408.169 261.633 406.185C261.633 404.34 262.271 402.788 263.547 401.529C264.841 400.27 266.471 399.64 268.437 399.64ZM266.393 404.685H270.507C270.265 403.685 269.575 403.184 268.437 403.184C267.333 403.184 266.652 403.685 266.393 404.685ZM275.913 410.066C275.913 409.566 276.094 409.135 276.456 408.773C276.818 408.41 277.249 408.229 277.75 408.229C278.008 408.229 278.267 408.29 278.526 408.41C279.819 408.997 280.923 409.29 281.837 409.29C282.665 409.29 283.079 409.092 283.079 408.695C283.079 408.505 282.95 408.359 282.691 408.255C282.432 408.152 281.975 408.057 281.32 407.971C280.319 407.85 279.448 407.677 278.707 407.453C276.896 406.918 275.99 405.737 275.99 403.909C275.99 402.719 276.499 401.71 277.517 400.882C278.534 400.054 279.888 399.64 281.578 399.64C282.975 399.64 284.304 399.925 285.563 400.494C286.252 400.804 286.597 401.322 286.597 402.046C286.597 402.512 286.425 402.917 286.08 403.262C285.752 403.59 285.356 403.754 284.89 403.754C284.614 403.754 284.372 403.702 284.166 403.598C283.338 403.184 282.484 402.977 281.604 402.977C280.828 402.977 280.44 403.159 280.44 403.521C280.44 403.831 280.975 404.064 282.044 404.219C283.131 404.375 284.019 404.564 284.709 404.788C285.537 405.013 286.209 405.435 286.727 406.056C287.261 406.66 287.529 407.462 287.529 408.462C287.529 409.721 286.985 410.756 285.899 411.567C284.83 412.36 283.398 412.757 281.604 412.757C279.966 412.757 278.431 412.42 276.999 411.748C276.689 411.61 276.43 411.385 276.223 411.075C276.016 410.765 275.913 410.428 275.913 410.066ZM288.595 410.066C288.595 409.566 288.777 409.135 289.139 408.773C289.501 408.41 289.932 408.229 290.432 408.229C290.691 408.229 290.95 408.29 291.208 408.41C292.502 408.997 293.606 409.29 294.52 409.29C295.348 409.29 295.762 409.092 295.762 408.695C295.762 408.505 295.632 408.359 295.374 408.255C295.115 408.152 294.658 408.057 294.002 407.971C293.002 407.85 292.131 407.677 291.39 407.453C289.579 406.918 288.673 405.737 288.673 403.909C288.673 402.719 289.182 401.71 290.199 400.882C291.217 400.054 292.571 399.64 294.261 399.64C295.658 399.64 296.986 399.925 298.245 400.494C298.935 400.804 299.28 401.322 299.28 402.046C299.28 402.512 299.108 402.917 298.763 403.262C298.435 403.59 298.038 403.754 297.573 403.754C297.297 403.754 297.055 403.702 296.848 403.598C296.02 403.184 295.167 402.977 294.287 402.977C293.511 402.977 293.123 403.159 293.123 403.521C293.123 403.831 293.658 404.064 294.727 404.219C295.813 404.375 296.702 404.564 297.392 404.788C298.219 405.013 298.892 405.435 299.409 406.056C299.944 406.66 300.211 407.462 300.211 408.462C300.211 409.721 299.668 410.756 298.582 411.567C297.512 412.36 296.081 412.757 294.287 412.757C292.649 412.757 291.114 412.42 289.682 411.748C289.372 411.61 289.113 411.385 288.906 411.075C288.699 410.765 288.595 410.428 288.595 410.066Z" fill="#04172A"/>
<g filter="url(#filter1_d_1_3474)">
<rect x="85.7832" y="575.733" width="234.453" height="38.8061" rx="19.403" fill="#198DFF" shape-rendering="crispEdges"/>
<path d="M178.625 594.307V596.157C178.625 596.571 178.487 596.898 178.211 597.14C177.314 597.916 176.266 598.304 175.067 598.304C173.808 598.321 172.735 597.903 171.847 597.049C170.958 596.195 170.523 595.122 170.54 593.828C170.523 592.535 170.958 591.465 171.847 590.62C172.735 589.767 173.808 589.348 175.067 589.366C176.249 589.366 177.228 589.754 178.004 590.53C178.142 590.668 178.211 590.836 178.211 591.034C178.211 591.224 178.142 591.388 178.004 591.526C177.874 591.664 177.711 591.733 177.512 591.733C177.314 591.733 177.146 591.664 177.008 591.526C176.465 590.982 175.818 590.711 175.067 590.711C174.214 590.711 173.502 591.008 172.933 591.603C172.373 592.19 172.092 592.931 172.092 593.828C172.092 594.716 172.377 595.462 172.946 596.066C173.515 596.661 174.222 596.959 175.067 596.959C175.861 596.959 176.542 596.7 177.111 596.183V594.837H175.132C174.951 594.837 174.792 594.773 174.654 594.643C174.524 594.514 174.46 594.354 174.46 594.165C174.46 593.983 174.524 593.828 174.654 593.699C174.792 593.57 174.951 593.505 175.132 593.505H177.823C178.357 593.505 178.625 593.772 178.625 594.307ZM182.942 591.733C183.839 591.733 184.577 592.035 185.154 592.638C185.732 593.242 186.021 593.971 186.021 594.824C186.021 595.247 185.754 595.458 185.219 595.458H181.196C181.248 595.958 181.451 596.372 181.804 596.7C182.166 597.019 182.628 597.179 183.188 597.179C183.68 597.179 184.154 597.041 184.611 596.765C184.689 596.713 184.788 596.687 184.909 596.687C185.055 596.687 185.18 596.743 185.284 596.855C185.396 596.959 185.452 597.084 185.452 597.23C185.452 597.42 185.37 597.571 185.206 597.683C184.594 598.088 183.874 598.291 183.046 598.291C182.106 598.291 181.326 597.989 180.705 597.385C180.084 596.773 179.773 595.98 179.773 595.005C179.773 594.091 180.075 593.319 180.679 592.69C181.282 592.052 182.037 591.733 182.942 591.733ZM181.183 594.501H184.702C184.684 594.061 184.521 593.677 184.21 593.35C183.908 593.013 183.486 592.845 182.942 592.845C182.425 592.845 182.011 593.005 181.701 593.324C181.39 593.643 181.218 594.035 181.183 594.501ZM190.492 597.618C190.492 597.86 190.371 598.032 190.13 598.136C189.888 598.239 189.591 598.291 189.237 598.291C188.711 598.291 188.31 598.153 188.034 597.877C187.767 597.601 187.633 597.204 187.633 596.687V593.078H187.116C186.952 593.078 186.81 593.022 186.689 592.91C186.577 592.789 186.521 592.647 186.521 592.483C186.521 592.319 186.577 592.181 186.689 592.069C186.81 591.948 186.952 591.888 187.116 591.888H187.633V590.788C187.633 590.599 187.698 590.439 187.827 590.31C187.965 590.172 188.129 590.103 188.319 590.103C188.5 590.103 188.655 590.172 188.785 590.31C188.923 590.439 188.992 590.599 188.992 590.788V591.888H189.742C189.906 591.888 190.044 591.948 190.156 592.069C190.277 592.181 190.337 592.319 190.337 592.483C190.337 592.647 190.277 592.789 190.156 592.91C190.044 593.022 189.906 593.078 189.742 593.078H188.992V596.351C188.992 596.575 189.043 596.756 189.147 596.894C189.25 597.023 189.397 597.088 189.587 597.088C189.63 597.088 189.69 597.084 189.768 597.075C189.845 597.058 189.897 597.049 189.923 597.049C190.095 597.049 190.233 597.105 190.337 597.217C190.44 597.321 190.492 597.454 190.492 597.618ZM194.478 596.778C194.478 596.579 194.547 596.411 194.685 596.273C194.823 596.126 194.992 596.053 195.19 596.053C195.362 596.053 195.509 596.101 195.63 596.195C196.294 596.696 197.04 596.946 197.867 596.946C198.419 596.946 198.846 596.834 199.148 596.609C199.45 596.385 199.601 596.105 199.601 595.769C199.566 595.415 199.415 595.165 199.148 595.018C198.881 594.863 198.376 594.686 197.635 594.488C196.953 594.324 196.427 594.165 196.057 594.009C195.065 593.613 194.569 592.91 194.569 591.901C194.569 591.177 194.871 590.577 195.474 590.103C196.078 589.62 196.867 589.379 197.842 589.379C198.756 589.379 199.644 589.642 200.506 590.168C200.722 590.297 200.83 590.491 200.83 590.75C200.83 590.939 200.761 591.108 200.623 591.254C200.485 591.392 200.317 591.461 200.118 591.461C199.963 591.461 199.829 591.418 199.717 591.332C199.105 590.926 198.437 590.724 197.712 590.724C197.221 590.724 196.833 590.823 196.548 591.021C196.263 591.211 196.121 591.47 196.121 591.797C196.121 592.004 196.203 592.177 196.367 592.315C196.617 592.53 197.169 592.742 198.023 592.949C198.669 593.113 199.2 593.281 199.614 593.453C200.631 593.876 201.14 594.6 201.14 595.626C201.14 596.411 200.851 597.053 200.273 597.554C199.704 598.045 198.881 598.291 197.803 598.291C196.595 598.291 195.582 597.976 194.763 597.347C194.573 597.209 194.478 597.019 194.478 596.778ZM205.436 597.618C205.436 597.86 205.315 598.032 205.074 598.136C204.832 598.239 204.535 598.291 204.181 598.291C203.655 598.291 203.254 598.153 202.978 597.877C202.711 597.601 202.577 597.204 202.577 596.687V593.078H202.06C201.896 593.078 201.754 593.022 201.633 592.91C201.521 592.789 201.465 592.647 201.465 592.483C201.465 592.319 201.521 592.181 201.633 592.069C201.754 591.948 201.896 591.888 202.06 591.888H202.577V590.788C202.577 590.599 202.642 590.439 202.771 590.31C202.909 590.172 203.073 590.103 203.263 590.103C203.444 590.103 203.599 590.172 203.728 590.31C203.866 590.439 203.935 590.599 203.935 590.788V591.888H204.686C204.85 591.888 204.988 591.948 205.1 592.069C205.22 592.181 205.281 592.319 205.281 592.483C205.281 592.647 205.22 592.789 205.1 592.91C204.988 593.022 204.85 593.078 204.686 593.078H203.935V596.351C203.935 596.575 203.987 596.756 204.091 596.894C204.194 597.023 204.341 597.088 204.53 597.088C204.574 597.088 204.634 597.084 204.712 597.075C204.789 597.058 204.841 597.049 204.867 597.049C205.039 597.049 205.177 597.105 205.281 597.217C205.384 597.321 205.436 597.454 205.436 597.618ZM211.61 593.996V597.528C211.61 597.717 211.541 597.881 211.404 598.019C211.274 598.149 211.115 598.213 210.925 598.213C210.744 598.213 210.584 598.149 210.446 598.019C210.317 597.881 210.252 597.717 210.252 597.528V597.463C209.769 598.015 209.097 598.291 208.234 598.291C207.657 598.291 207.148 598.106 206.708 597.735C206.277 597.355 206.061 596.851 206.061 596.221C206.061 595.575 206.272 595.074 206.695 594.721C207.126 594.367 207.639 594.19 208.234 594.19C209.114 594.19 209.787 594.458 210.252 594.992V594.061C210.252 593.699 210.119 593.414 209.851 593.207C209.584 593 209.23 592.897 208.791 592.897C208.273 592.897 207.786 593.052 207.329 593.363C207.243 593.423 207.139 593.453 207.018 593.453C206.872 593.453 206.742 593.401 206.63 593.298C206.527 593.186 206.475 593.056 206.475 592.91C206.475 592.712 206.553 592.565 206.708 592.47C207.372 591.979 208.139 591.733 209.01 591.733C209.812 591.733 210.446 591.922 210.912 592.302C211.378 592.673 211.61 593.238 211.61 593.996ZM210.252 596.713V595.769C209.933 595.337 209.437 595.122 208.765 595.122C208.377 595.122 208.058 595.225 207.807 595.432C207.557 595.639 207.432 595.911 207.432 596.247C207.432 596.583 207.557 596.855 207.807 597.062C208.058 597.26 208.377 597.36 208.765 597.36C209.437 597.36 209.933 597.144 210.252 596.713ZM216.851 592.418C216.851 592.582 216.791 592.724 216.67 592.845C216.549 592.957 216.377 593.031 216.153 593.065C215.885 593.1 215.614 593.194 215.338 593.35C215.062 593.505 214.859 593.682 214.73 593.88V597.528C214.73 597.717 214.661 597.881 214.523 598.019C214.393 598.149 214.238 598.213 214.057 598.213C213.867 598.213 213.703 598.149 213.565 598.019C213.436 597.881 213.371 597.717 213.371 597.528V592.496C213.371 592.306 213.436 592.147 213.565 592.017C213.703 591.879 213.863 591.81 214.044 591.81C214.234 591.81 214.393 591.879 214.523 592.017C214.661 592.147 214.73 592.306 214.73 592.496V592.806C215.126 592.298 215.527 591.983 215.933 591.862C216.088 591.81 216.209 591.784 216.295 591.784C216.467 591.784 216.601 591.845 216.696 591.966C216.799 592.078 216.851 592.229 216.851 592.418ZM220.986 597.618C220.986 597.86 220.865 598.032 220.624 598.136C220.383 598.239 220.085 598.291 219.731 598.291C219.205 598.291 218.804 598.153 218.528 597.877C218.261 597.601 218.127 597.204 218.127 596.687V593.078H217.61C217.446 593.078 217.304 593.022 217.183 592.91C217.071 592.789 217.015 592.647 217.015 592.483C217.015 592.319 217.071 592.181 217.183 592.069C217.304 591.948 217.446 591.888 217.61 591.888H218.127V590.788C218.127 590.599 218.192 590.439 218.321 590.31C218.459 590.172 218.623 590.103 218.813 590.103C218.994 590.103 219.149 590.172 219.279 590.31C219.417 590.439 219.486 590.599 219.486 590.788V591.888H220.236C220.4 591.888 220.538 591.948 220.65 592.069C220.771 592.181 220.831 592.319 220.831 592.483C220.831 592.647 220.771 592.789 220.65 592.91C220.538 593.022 220.4 593.078 220.236 593.078H219.486V596.351C219.486 596.575 219.537 596.756 219.641 596.894C219.744 597.023 219.891 597.088 220.081 597.088C220.124 597.088 220.184 597.084 220.262 597.075C220.339 597.058 220.391 597.049 220.417 597.049C220.589 597.049 220.727 597.105 220.831 597.217C220.934 597.321 220.986 597.454 220.986 597.618ZM224.768 591.733C225.665 591.733 226.402 592.035 226.98 592.638C227.557 593.242 227.846 593.971 227.846 594.824C227.846 595.247 227.579 595.458 227.044 595.458H223.021C223.073 595.958 223.276 596.372 223.629 596.7C223.992 597.019 224.453 597.179 225.013 597.179C225.505 597.179 225.979 597.041 226.436 596.765C226.514 596.713 226.613 596.687 226.734 596.687C226.88 596.687 227.005 596.743 227.109 596.855C227.221 596.959 227.277 597.084 227.277 597.23C227.277 597.42 227.195 597.571 227.031 597.683C226.419 598.088 225.699 598.291 224.871 598.291C223.931 598.291 223.151 597.989 222.53 597.385C221.909 596.773 221.598 595.98 221.598 595.005C221.598 594.091 221.9 593.319 222.504 592.69C223.108 592.052 223.862 591.733 224.768 591.733ZM223.008 594.501H226.527C226.51 594.061 226.346 593.677 226.035 593.35C225.733 593.013 225.311 592.845 224.768 592.845C224.25 592.845 223.836 593.005 223.526 593.324C223.215 593.643 223.043 594.035 223.008 594.501ZM234.943 590.116V597.528C234.943 597.717 234.874 597.881 234.736 598.019C234.607 598.149 234.447 598.213 234.258 598.213C234.076 598.213 233.917 598.149 233.779 598.019C233.65 597.881 233.585 597.717 233.585 597.528V597.295C233.076 597.959 232.408 598.291 231.58 598.291C230.761 598.291 230.092 597.998 229.575 597.411C229.058 596.816 228.799 596.019 228.799 595.018C228.799 594.027 229.058 593.233 229.575 592.638C230.092 592.035 230.761 591.733 231.58 591.733C232.399 591.733 233.068 592.073 233.585 592.755V590.116C233.585 589.926 233.65 589.767 233.779 589.637C233.917 589.499 234.076 589.43 234.258 589.43C234.447 589.43 234.607 589.499 234.736 589.637C234.874 589.767 234.943 589.926 234.943 590.116ZM233.585 596.26V593.777C233.43 593.535 233.197 593.337 232.886 593.182C232.585 593.018 232.278 592.936 231.968 592.936C231.433 592.936 231.006 593.13 230.687 593.518C230.368 593.897 230.209 594.397 230.209 595.018C230.209 595.639 230.368 596.139 230.687 596.519C231.006 596.898 231.433 597.088 231.968 597.088C232.287 597.088 232.598 597.01 232.899 596.855C233.201 596.7 233.43 596.502 233.585 596.26Z" fill="white"/>
</g>
<path d="M112.252 440.345C112.252 440.474 112.2 440.591 112.096 440.694C112.001 440.789 111.881 440.836 111.734 440.836C111.536 440.836 111.385 440.763 111.281 440.616L109.031 437.357H107.129V440.306C107.129 440.444 107.077 440.569 106.974 440.681C106.87 440.785 106.745 440.836 106.599 440.836C106.444 440.836 106.314 440.785 106.211 440.681C106.107 440.578 106.055 440.453 106.055 440.306V432.726C106.055 432.346 106.245 432.157 106.625 432.157H109.522C110.324 432.157 110.975 432.394 111.475 432.868C111.976 433.342 112.226 433.972 112.226 434.757C112.226 435.438 112.032 436.003 111.644 436.451C111.264 436.891 110.773 437.154 110.169 437.24L112.148 440.008C112.217 440.121 112.252 440.233 112.252 440.345ZM107.129 433.114V436.412H109.393C109.902 436.412 110.316 436.257 110.635 435.947C110.954 435.636 111.113 435.24 111.113 434.757C111.113 434.274 110.954 433.881 110.635 433.58C110.316 433.269 109.902 433.114 109.393 433.114H107.129ZM116.211 434.382C117.1 434.382 117.82 434.688 118.372 435.3C118.932 435.904 119.212 436.632 119.212 437.486C119.212 437.814 119.023 437.978 118.643 437.978H114.155C114.189 438.581 114.413 439.094 114.827 439.517C115.224 439.931 115.75 440.138 116.405 440.138C117.026 440.138 117.587 439.939 118.087 439.543C118.147 439.508 118.221 439.491 118.307 439.491C118.419 439.491 118.514 439.53 118.591 439.607C118.669 439.676 118.708 439.767 118.708 439.879C118.708 440.008 118.652 440.116 118.54 440.202C117.91 440.694 117.169 440.94 116.315 440.94C115.384 440.94 114.62 440.634 114.025 440.021C113.43 439.409 113.133 438.62 113.133 437.654C113.133 436.749 113.426 435.977 114.012 435.339C114.607 434.701 115.34 434.382 116.211 434.382ZM114.155 437.266H118.255C118.238 436.714 118.048 436.231 117.686 435.817C117.332 435.395 116.837 435.184 116.198 435.184C115.595 435.184 115.108 435.395 114.737 435.817C114.375 436.231 114.181 436.714 114.155 437.266ZM126.061 440.384L124.561 435.766L123.06 440.384C123.026 440.522 122.953 440.634 122.84 440.72C122.728 440.797 122.599 440.836 122.452 440.836C122.306 440.836 122.172 440.797 122.051 440.72C121.939 440.634 121.866 440.522 121.831 440.384L120.15 435.119C120.133 435.033 120.124 434.981 120.124 434.964C120.124 434.826 120.171 434.714 120.266 434.627C120.361 434.532 120.473 434.485 120.603 434.485C120.853 434.485 121.008 434.597 121.068 434.821L122.504 439.517L124.03 434.86C124.108 434.61 124.285 434.485 124.561 434.485C124.837 434.485 125.014 434.61 125.091 434.86L126.618 439.517L128.053 434.821C128.114 434.597 128.269 434.485 128.519 434.485C128.648 434.485 128.761 434.532 128.855 434.627C128.95 434.722 128.998 434.834 128.998 434.964C128.998 435.007 128.989 435.063 128.972 435.132L127.29 440.384C127.256 440.522 127.178 440.634 127.057 440.72C126.945 440.797 126.816 440.836 126.669 440.836C126.523 440.836 126.393 440.797 126.281 440.72C126.169 440.634 126.096 440.522 126.061 440.384ZM135.16 436.49V440.358C135.16 440.487 135.112 440.599 135.017 440.694C134.923 440.789 134.806 440.836 134.668 440.836C134.539 440.836 134.427 440.789 134.332 440.694C134.237 440.599 134.19 440.487 134.19 440.358V440.073C133.707 440.651 133.017 440.94 132.12 440.94C131.534 440.94 131.02 440.754 130.581 440.384C130.149 440.004 129.934 439.5 129.934 438.87C129.934 438.241 130.149 437.74 130.581 437.37C131.02 436.999 131.534 436.813 132.12 436.813C133.008 436.813 133.698 437.098 134.19 437.667V436.542C134.19 436.136 134.043 435.817 133.75 435.585C133.465 435.343 133.086 435.222 132.611 435.222C131.991 435.222 131.447 435.429 130.982 435.843C130.895 435.895 130.809 435.921 130.723 435.921C130.611 435.921 130.516 435.882 130.438 435.804C130.361 435.727 130.322 435.632 130.322 435.52C130.322 435.382 130.378 435.274 130.49 435.196C131.111 434.653 131.861 434.382 132.741 434.382C133.482 434.382 134.069 434.558 134.5 434.912C134.94 435.265 135.16 435.791 135.16 436.49ZM134.19 439.465V438.288C133.819 437.771 133.245 437.512 132.469 437.512C132.021 437.512 131.65 437.641 131.357 437.9C131.072 438.15 130.93 438.478 130.93 438.883C130.93 439.28 131.072 439.607 131.357 439.866C131.65 440.116 132.021 440.241 132.469 440.241C133.245 440.241 133.819 439.983 134.19 439.465ZM140.222 434.899C140.222 435.02 140.174 435.127 140.08 435.222C139.985 435.309 139.855 435.36 139.692 435.378C139.407 435.386 139.097 435.494 138.76 435.701C138.45 435.891 138.221 436.111 138.075 436.361V440.358C138.075 440.487 138.027 440.599 137.932 440.694C137.837 440.789 137.725 440.836 137.596 440.836C137.458 440.836 137.342 440.789 137.247 440.694C137.152 440.599 137.104 440.487 137.104 440.358V434.964C137.104 434.834 137.152 434.722 137.247 434.627C137.342 434.532 137.454 434.485 137.583 434.485C137.721 434.485 137.837 434.532 137.932 434.627C138.027 434.722 138.075 434.834 138.075 434.964V435.546C138.497 434.968 138.963 434.619 139.472 434.498C139.627 434.455 139.73 434.433 139.782 434.433C139.911 434.433 140.015 434.481 140.093 434.576C140.179 434.662 140.222 434.77 140.222 434.899ZM146.872 432.584V440.358C146.872 440.487 146.824 440.599 146.729 440.694C146.635 440.789 146.518 440.836 146.38 440.836C146.251 440.836 146.139 440.789 146.044 440.694C145.949 440.599 145.902 440.487 145.902 440.358V439.853C145.66 440.19 145.35 440.457 144.97 440.655C144.599 440.845 144.207 440.94 143.793 440.94C142.965 440.94 142.293 440.647 141.775 440.06C141.266 439.465 141.012 438.667 141.012 437.667C141.012 436.684 141.266 435.891 141.775 435.287C142.293 434.683 142.965 434.382 143.793 434.382C144.655 434.382 145.358 434.752 145.902 435.494V432.584C145.902 432.454 145.949 432.342 146.044 432.247C146.139 432.152 146.251 432.105 146.38 432.105C146.518 432.105 146.635 432.152 146.729 432.247C146.824 432.342 146.872 432.454 146.872 432.584ZM145.902 439.09V436.257C145.72 435.973 145.453 435.735 145.1 435.546C144.746 435.347 144.388 435.248 144.026 435.248C143.414 435.248 142.926 435.477 142.564 435.934C142.202 436.391 142.021 436.969 142.021 437.667C142.021 438.366 142.202 438.943 142.564 439.4C142.926 439.849 143.414 440.073 144.026 440.073C144.397 440.073 144.755 439.983 145.1 439.801C145.453 439.612 145.72 439.375 145.902 439.09ZM154.853 440.371C154.853 440.552 154.771 440.672 154.607 440.733C154.383 440.871 154.09 440.94 153.728 440.94C152.805 440.94 152.343 440.453 152.343 439.478V435.391H151.684C151.572 435.391 151.472 435.347 151.386 435.261C151.3 435.175 151.257 435.076 151.257 434.964C151.257 434.843 151.3 434.744 151.386 434.666C151.472 434.58 151.572 434.537 151.684 434.537H152.343V433.256C152.343 433.127 152.391 433.015 152.486 432.92C152.581 432.825 152.697 432.778 152.835 432.778C152.964 432.778 153.076 432.825 153.171 432.92C153.266 433.015 153.314 433.127 153.314 433.256V434.537H154.206C154.327 434.537 154.43 434.58 154.517 434.666C154.603 434.752 154.646 434.852 154.646 434.964C154.646 435.076 154.603 435.175 154.517 435.261C154.43 435.347 154.327 435.391 154.206 435.391H153.314V439.271C153.314 439.513 153.365 439.707 153.469 439.853C153.581 440 153.74 440.073 153.947 440.073C154.025 440.073 154.124 440.056 154.245 440.021C154.366 439.978 154.43 439.957 154.439 439.957C154.56 439.957 154.659 439.995 154.736 440.073C154.814 440.151 154.853 440.25 154.853 440.371ZM160.182 440.358V436.671C160.182 436.171 160.065 435.809 159.832 435.585C159.599 435.36 159.246 435.248 158.772 435.248C158.427 435.248 158.082 435.343 157.737 435.533C157.4 435.714 157.129 435.942 156.922 436.218V440.358C156.922 440.487 156.874 440.599 156.78 440.694C156.685 440.789 156.573 440.836 156.443 440.836C156.305 440.836 156.189 440.789 156.094 440.694C155.999 440.599 155.952 440.487 155.952 440.358V432.584C155.952 432.454 155.999 432.342 156.094 432.247C156.189 432.152 156.305 432.105 156.443 432.105C156.573 432.105 156.685 432.152 156.78 432.247C156.874 432.342 156.922 432.454 156.922 432.584V435.442C157.172 435.14 157.5 434.89 157.905 434.692C158.319 434.485 158.737 434.382 159.16 434.382C160.488 434.382 161.152 435.046 161.152 436.374V440.358C161.152 440.487 161.104 440.599 161.009 440.694C160.915 440.789 160.798 440.836 160.66 440.836C160.531 440.836 160.419 440.789 160.324 440.694C160.229 440.599 160.182 440.487 160.182 440.358ZM165.805 434.382C166.694 434.382 167.414 434.688 167.966 435.3C168.526 435.904 168.806 436.632 168.806 437.486C168.806 437.814 168.617 437.978 168.237 437.978H163.749C163.783 438.581 164.007 439.094 164.421 439.517C164.818 439.931 165.344 440.138 165.999 440.138C166.62 440.138 167.181 439.939 167.681 439.543C167.741 439.508 167.815 439.491 167.901 439.491C168.013 439.491 168.108 439.53 168.185 439.607C168.263 439.676 168.302 439.767 168.302 439.879C168.302 440.008 168.246 440.116 168.134 440.202C167.504 440.694 166.763 440.94 165.909 440.94C164.977 440.94 164.214 440.634 163.619 440.021C163.024 439.409 162.727 438.62 162.727 437.654C162.727 436.749 163.02 435.977 163.606 435.339C164.201 434.701 164.934 434.382 165.805 434.382ZM163.749 437.266H167.849C167.832 436.714 167.642 436.231 167.28 435.817C166.926 435.395 166.431 435.184 165.792 435.184C165.189 435.184 164.702 435.395 164.331 435.817C163.968 436.231 163.774 436.714 163.749 437.266ZM178.889 436.27V440.358C178.889 440.487 178.837 440.599 178.734 440.694C178.639 440.789 178.527 440.836 178.398 440.836C178.268 440.836 178.156 440.789 178.061 440.694C177.966 440.599 177.919 440.487 177.919 440.358V436.542C177.919 435.679 177.535 435.248 176.768 435.248C176.466 435.248 176.16 435.343 175.849 435.533C175.539 435.714 175.293 435.938 175.112 436.205V440.358C175.112 440.487 175.065 440.599 174.97 440.694C174.875 440.789 174.763 440.836 174.633 440.836C174.504 440.836 174.388 440.789 174.284 440.694C174.189 440.599 174.142 440.487 174.142 440.358V436.542C174.142 435.679 173.758 435.248 172.991 435.248C172.697 435.248 172.396 435.343 172.085 435.533C171.783 435.714 171.538 435.942 171.348 436.218V440.358C171.348 440.487 171.3 440.599 171.206 440.694C171.111 440.789 170.999 440.836 170.869 440.836C170.731 440.836 170.615 440.789 170.52 440.694C170.425 440.599 170.378 440.487 170.378 440.358V434.964C170.378 434.834 170.425 434.722 170.52 434.627C170.615 434.532 170.727 434.485 170.856 434.485C170.994 434.485 171.111 434.532 171.206 434.627C171.3 434.722 171.348 434.834 171.348 434.964V435.442C171.486 435.209 171.753 434.972 172.15 434.731C172.538 434.498 172.943 434.382 173.366 434.382C173.814 434.382 174.181 434.489 174.465 434.705C174.75 434.912 174.944 435.192 175.047 435.546C175.246 435.235 175.535 434.964 175.914 434.731C176.302 434.498 176.712 434.382 177.143 434.382C178.307 434.382 178.889 435.011 178.889 436.27ZM189.437 440.384L187.936 435.766L186.436 440.384C186.402 440.522 186.328 440.634 186.216 440.72C186.104 440.797 185.975 440.836 185.828 440.836C185.681 440.836 185.548 440.797 185.427 440.72C185.315 440.634 185.242 440.522 185.207 440.384L183.526 435.119C183.508 435.033 183.5 434.981 183.5 434.964C183.5 434.826 183.547 434.714 183.642 434.627C183.737 434.532 183.849 434.485 183.978 434.485C184.228 434.485 184.384 434.597 184.444 434.821L185.88 439.517L187.406 434.86C187.484 434.61 187.661 434.485 187.936 434.485C188.212 434.485 188.389 434.61 188.467 434.86L189.993 439.517L191.429 434.821C191.489 434.597 191.645 434.485 191.895 434.485C192.024 434.485 192.136 434.532 192.231 434.627C192.326 434.722 192.373 434.834 192.373 434.964C192.373 435.007 192.365 435.063 192.347 435.132L190.666 440.384C190.631 440.522 190.554 440.634 190.433 440.72C190.321 440.797 190.192 440.836 190.045 440.836C189.898 440.836 189.769 440.797 189.657 440.72C189.545 440.634 189.471 440.522 189.437 440.384ZM197.889 440.358V436.671C197.889 436.171 197.772 435.809 197.539 435.585C197.307 435.36 196.953 435.248 196.479 435.248C196.134 435.248 195.789 435.343 195.444 435.533C195.108 435.714 194.836 435.942 194.629 436.218V440.358C194.629 440.487 194.581 440.599 194.487 440.694C194.392 440.789 194.28 440.836 194.15 440.836C194.012 440.836 193.896 440.789 193.801 440.694C193.706 440.599 193.659 440.487 193.659 440.358V432.584C193.659 432.454 193.706 432.342 193.801 432.247C193.896 432.152 194.012 432.105 194.15 432.105C194.28 432.105 194.392 432.152 194.487 432.247C194.581 432.342 194.629 432.454 194.629 432.584V435.442C194.879 435.14 195.207 434.89 195.612 434.692C196.026 434.485 196.444 434.382 196.867 434.382C198.195 434.382 198.859 435.046 198.859 436.374V440.358C198.859 440.487 198.811 440.599 198.716 440.694C198.622 440.789 198.505 440.836 198.367 440.836C198.238 440.836 198.126 440.789 198.031 440.694C197.936 440.599 197.889 440.487 197.889 440.358ZM203.512 434.382C204.401 434.382 205.121 434.688 205.673 435.3C206.233 435.904 206.513 436.632 206.513 437.486C206.513 437.814 206.324 437.978 205.944 437.978H201.456C201.49 438.581 201.714 439.094 202.128 439.517C202.525 439.931 203.051 440.138 203.706 440.138C204.327 440.138 204.888 439.939 205.388 439.543C205.448 439.508 205.522 439.491 205.608 439.491C205.72 439.491 205.815 439.53 205.892 439.607C205.97 439.676 206.009 439.767 206.009 439.879C206.009 440.008 205.953 440.116 205.841 440.202C205.211 440.694 204.47 440.94 203.616 440.94C202.685 440.94 201.921 440.634 201.326 440.021C200.731 439.409 200.434 438.62 200.434 437.654C200.434 436.749 200.727 435.977 201.313 435.339C201.908 434.701 202.641 434.382 203.512 434.382ZM201.456 437.266H205.556C205.539 436.714 205.349 436.231 204.987 435.817C204.633 435.395 204.138 435.184 203.499 435.184C202.896 435.184 202.409 435.395 202.038 435.817C201.676 436.231 201.482 436.714 201.456 437.266ZM213.272 436.399V440.358C213.272 440.487 213.224 440.599 213.13 440.694C213.035 440.789 212.918 440.836 212.78 440.836C212.651 440.836 212.539 440.789 212.444 440.694C212.349 440.599 212.302 440.487 212.302 440.358V436.697C212.302 436.188 212.185 435.822 211.952 435.597C211.72 435.365 211.37 435.248 210.905 435.248C210.551 435.248 210.202 435.343 209.857 435.533C209.512 435.714 209.245 435.942 209.055 436.218V440.358C209.055 440.487 209.007 440.599 208.913 440.694C208.818 440.789 208.706 440.836 208.576 440.836C208.438 440.836 208.322 440.789 208.227 440.694C208.132 440.599 208.085 440.487 208.085 440.358V434.964C208.085 434.834 208.132 434.722 208.227 434.627C208.322 434.532 208.434 434.485 208.563 434.485C208.701 434.485 208.818 434.532 208.913 434.627C209.007 434.722 209.055 434.834 209.055 434.964V435.455C209.305 435.145 209.628 434.89 210.025 434.692C210.43 434.485 210.849 434.382 211.28 434.382C212.608 434.382 213.272 435.054 213.272 436.399ZM221.248 440.371C221.248 440.552 221.166 440.672 221.002 440.733C220.778 440.871 220.484 440.94 220.122 440.94C219.2 440.94 218.738 440.453 218.738 439.478V435.391H218.078C217.966 435.391 217.867 435.347 217.781 435.261C217.695 435.175 217.652 435.076 217.652 434.964C217.652 434.843 217.695 434.744 217.781 434.666C217.867 434.58 217.966 434.537 218.078 434.537H218.738V433.256C218.738 433.127 218.786 433.015 218.88 432.92C218.975 432.825 219.092 432.778 219.23 432.778C219.359 432.778 219.471 432.825 219.566 432.92C219.661 433.015 219.708 433.127 219.708 433.256V434.537H220.601C220.722 434.537 220.825 434.58 220.911 434.666C220.998 434.752 221.041 434.852 221.041 434.964C221.041 435.076 220.998 435.175 220.911 435.261C220.825 435.347 220.722 435.391 220.601 435.391H219.708V439.271C219.708 439.513 219.76 439.707 219.864 439.853C219.976 440 220.135 440.073 220.342 440.073C220.42 440.073 220.519 440.056 220.64 440.021C220.76 439.978 220.825 439.957 220.834 439.957C220.954 439.957 221.054 439.995 221.131 440.073C221.209 440.151 221.248 440.25 221.248 440.371ZM226.576 440.358V436.671C226.576 436.171 226.46 435.809 226.227 435.585C225.994 435.36 225.641 435.248 225.166 435.248C224.821 435.248 224.476 435.343 224.132 435.533C223.795 435.714 223.524 435.942 223.317 436.218V440.358C223.317 440.487 223.269 440.599 223.174 440.694C223.079 440.789 222.967 440.836 222.838 440.836C222.7 440.836 222.584 440.789 222.489 440.694C222.394 440.599 222.346 440.487 222.346 440.358V432.584C222.346 432.454 222.394 432.342 222.489 432.247C222.584 432.152 222.7 432.105 222.838 432.105C222.967 432.105 223.079 432.152 223.174 432.247C223.269 432.342 223.317 432.454 223.317 432.584V435.442C223.567 435.14 223.894 434.89 224.3 434.692C224.714 434.485 225.132 434.382 225.554 434.382C226.882 434.382 227.546 435.046 227.546 436.374V440.358C227.546 440.487 227.499 440.599 227.404 440.694C227.309 440.789 227.193 440.836 227.055 440.836C226.926 440.836 226.813 440.789 226.719 440.694C226.624 440.599 226.576 440.487 226.576 440.358ZM232.2 434.382C233.088 434.382 233.808 434.688 234.36 435.3C234.921 435.904 235.201 436.632 235.201 437.486C235.201 437.814 235.011 437.978 234.632 437.978H230.143C230.178 438.581 230.402 439.094 230.816 439.517C231.213 439.931 231.739 440.138 232.394 440.138C233.015 440.138 233.576 439.939 234.076 439.543C234.136 439.508 234.209 439.491 234.296 439.491C234.408 439.491 234.503 439.53 234.58 439.607C234.658 439.676 234.697 439.767 234.697 439.879C234.697 440.008 234.641 440.116 234.528 440.202C233.899 440.694 233.157 440.94 232.304 440.94C231.372 440.94 230.609 440.634 230.014 440.021C229.419 439.409 229.121 438.62 229.121 437.654C229.121 436.749 229.415 435.977 230.001 435.339C230.596 434.701 231.329 434.382 232.2 434.382ZM230.143 437.266H234.244C234.227 436.714 234.037 436.231 233.675 435.817C233.321 435.395 232.825 435.184 232.187 435.184C231.583 435.184 231.096 435.395 230.725 435.817C230.363 436.231 230.169 436.714 230.143 437.266ZM236.902 442.44L237.109 442.453C237.342 442.453 237.527 442.401 237.665 442.298C237.812 442.203 237.937 442.035 238.04 441.794L238.454 440.849L236.1 435.158C236.074 435.097 236.061 435.037 236.061 434.977C236.061 434.839 236.104 434.722 236.19 434.627C236.285 434.532 236.402 434.485 236.54 434.485C236.764 434.485 236.915 434.584 236.992 434.783L238.971 439.659L240.938 434.783C241.015 434.584 241.166 434.485 241.39 434.485C241.528 434.485 241.645 434.532 241.74 434.627C241.834 434.722 241.882 434.839 241.882 434.977C241.882 435.037 241.869 435.102 241.843 435.171L238.971 442.052C238.626 442.88 238.014 443.303 237.135 443.32C237.031 443.32 236.936 443.311 236.85 443.294C236.729 443.285 236.63 443.238 236.553 443.152C236.475 443.074 236.436 442.979 236.436 442.867C236.436 442.746 236.479 442.643 236.565 442.557C236.66 442.479 236.772 442.44 236.902 442.44ZM249.204 434.382C250.006 434.382 250.674 434.64 251.209 435.158C251.304 435.253 251.351 435.36 251.351 435.481C251.351 435.602 251.308 435.705 251.222 435.791C251.136 435.878 251.032 435.921 250.911 435.921C250.799 435.921 250.704 435.882 250.627 435.804C250.256 435.434 249.799 435.248 249.256 435.248C248.609 435.248 248.087 435.472 247.69 435.921C247.294 436.369 247.095 436.947 247.095 437.654C247.095 438.361 247.294 438.943 247.69 439.4C248.087 439.849 248.609 440.073 249.256 440.073C249.799 440.073 250.252 439.888 250.614 439.517C250.691 439.439 250.791 439.4 250.911 439.4C251.032 439.4 251.136 439.444 251.222 439.53C251.308 439.616 251.351 439.72 251.351 439.84C251.351 439.987 251.304 440.095 251.209 440.164C250.674 440.681 250.006 440.94 249.204 440.94C248.29 440.94 247.54 440.629 246.953 440.008C246.375 439.388 246.086 438.603 246.086 437.654C246.086 436.723 246.38 435.947 246.966 435.326C247.552 434.696 248.298 434.382 249.204 434.382ZM253.345 439.995C252.776 439.366 252.491 438.586 252.491 437.654C252.491 436.723 252.776 435.947 253.345 435.326C253.923 434.696 254.668 434.382 255.583 434.382C256.497 434.382 257.238 434.696 257.807 435.326C258.385 435.947 258.674 436.723 258.674 437.654C258.674 438.586 258.385 439.366 257.807 439.995C257.238 440.625 256.497 440.94 255.583 440.94C254.668 440.94 253.923 440.625 253.345 439.995ZM257.652 437.654C257.652 436.982 257.462 436.412 257.083 435.947C256.712 435.481 256.212 435.248 255.583 435.248C254.953 435.248 254.449 435.481 254.069 435.947C253.69 436.412 253.5 436.982 253.5 437.654C253.5 438.335 253.69 438.909 254.069 439.375C254.449 439.84 254.953 440.073 255.583 440.073C256.212 440.073 256.712 439.84 257.083 439.375C257.462 438.909 257.652 438.335 257.652 437.654ZM268.767 436.27V440.358C268.767 440.487 268.715 440.599 268.612 440.694C268.517 440.789 268.405 440.836 268.276 440.836C268.146 440.836 268.034 440.789 267.939 440.694C267.844 440.599 267.797 440.487 267.797 440.358V436.542C267.797 435.679 267.413 435.248 266.646 435.248C266.344 435.248 266.038 435.343 265.727 435.533C265.417 435.714 265.171 435.938 264.99 436.205V440.358C264.99 440.487 264.943 440.599 264.848 440.694C264.753 440.789 264.641 440.836 264.511 440.836C264.382 440.836 264.266 440.789 264.162 440.694C264.067 440.599 264.02 440.487 264.02 440.358V436.542C264.02 435.679 263.636 435.248 262.869 435.248C262.575 435.248 262.274 435.343 261.963 435.533C261.661 435.714 261.416 435.942 261.226 436.218V440.358C261.226 440.487 261.178 440.599 261.084 440.694C260.989 440.789 260.877 440.836 260.747 440.836C260.609 440.836 260.493 440.789 260.398 440.694C260.303 440.599 260.256 440.487 260.256 440.358V434.964C260.256 434.834 260.303 434.722 260.398 434.627C260.493 434.532 260.605 434.485 260.734 434.485C260.872 434.485 260.989 434.532 261.084 434.627C261.178 434.722 261.226 434.834 261.226 434.964V435.442C261.364 435.209 261.631 434.972 262.028 434.731C262.416 434.498 262.821 434.382 263.244 434.382C263.692 434.382 264.059 434.489 264.343 434.705C264.628 434.912 264.822 435.192 264.925 435.546C265.124 435.235 265.413 434.964 265.792 434.731C266.18 434.498 266.59 434.382 267.021 434.382C268.185 434.382 268.767 435.011 268.767 436.27ZM276.562 437.654C276.562 438.646 276.303 439.444 275.786 440.047C275.277 440.642 274.609 440.94 273.781 440.94C272.919 440.94 272.216 440.569 271.673 439.827V442.738C271.673 442.867 271.625 442.979 271.53 443.074C271.435 443.169 271.323 443.216 271.194 443.216C271.056 443.216 270.94 443.169 270.845 443.074C270.75 442.979 270.702 442.867 270.702 442.738V434.964C270.702 434.834 270.75 434.722 270.845 434.627C270.94 434.532 271.056 434.485 271.194 434.485C271.323 434.485 271.435 434.532 271.53 434.627C271.625 434.722 271.673 434.834 271.673 434.964V435.468C271.905 435.132 272.207 434.869 272.578 434.679C272.949 434.481 273.35 434.382 273.781 434.382C274.609 434.382 275.277 434.679 275.786 435.274C276.303 435.86 276.562 436.654 276.562 437.654ZM275.54 437.654C275.54 436.947 275.359 436.369 274.997 435.921C274.635 435.472 274.148 435.248 273.535 435.248C273.173 435.248 272.815 435.343 272.462 435.533C272.117 435.723 271.854 435.96 271.673 436.244V439.064C271.845 439.349 272.108 439.59 272.462 439.789C272.815 439.978 273.173 440.073 273.535 440.073C274.148 440.073 274.635 439.849 274.997 439.4C275.359 438.943 275.54 438.361 275.54 437.654ZM278.13 440.358V432.584C278.13 432.454 278.178 432.342 278.272 432.247C278.367 432.152 278.484 432.105 278.622 432.105C278.751 432.105 278.863 432.152 278.958 432.247C279.053 432.342 279.1 432.454 279.1 432.584V440.358C279.1 440.487 279.053 440.599 278.958 440.694C278.863 440.789 278.751 440.836 278.622 440.836C278.484 440.836 278.367 440.789 278.272 440.694C278.178 440.599 278.13 440.487 278.13 440.358ZM283.752 434.382C284.64 434.382 285.36 434.688 285.912 435.3C286.473 435.904 286.753 436.632 286.753 437.486C286.753 437.814 286.563 437.978 286.184 437.978H281.695C281.73 438.581 281.954 439.094 282.368 439.517C282.765 439.931 283.291 440.138 283.946 440.138C284.567 440.138 285.127 439.939 285.628 439.543C285.688 439.508 285.761 439.491 285.848 439.491C285.96 439.491 286.054 439.53 286.132 439.607C286.21 439.676 286.249 439.767 286.249 439.879C286.249 440.008 286.192 440.116 286.08 440.202C285.451 440.694 284.709 440.94 283.855 440.94C282.924 440.94 282.161 440.634 281.566 440.021C280.971 439.409 280.673 438.62 280.673 437.654C280.673 436.749 280.967 435.977 281.553 435.339C282.148 434.701 282.881 434.382 283.752 434.382ZM281.695 437.266H285.796C285.779 436.714 285.589 436.231 285.227 435.817C284.873 435.395 284.377 435.184 283.739 435.184C283.135 435.184 282.648 435.395 282.277 435.817C281.915 436.231 281.721 436.714 281.695 437.266ZM291.028 440.371C291.028 440.552 290.946 440.672 290.782 440.733C290.558 440.871 290.265 440.94 289.902 440.94C288.98 440.94 288.518 440.453 288.518 439.478V435.391H287.859C287.747 435.391 287.647 435.347 287.561 435.261C287.475 435.175 287.432 435.076 287.432 434.964C287.432 434.843 287.475 434.744 287.561 434.666C287.647 434.58 287.747 434.537 287.859 434.537H288.518V433.256C288.518 433.127 288.566 433.015 288.661 432.92C288.756 432.825 288.872 432.778 289.01 432.778C289.139 432.778 289.251 432.825 289.346 432.92C289.441 433.015 289.489 433.127 289.489 433.256V434.537H290.381C290.502 434.537 290.605 434.58 290.692 434.666C290.778 434.752 290.821 434.852 290.821 434.964C290.821 435.076 290.778 435.175 290.692 435.261C290.605 435.347 290.502 435.391 290.381 435.391H289.489V439.271C289.489 439.513 289.54 439.707 289.644 439.853C289.756 440 289.915 440.073 290.122 440.073C290.2 440.073 290.299 440.056 290.42 440.021C290.541 439.978 290.605 439.957 290.614 439.957C290.735 439.957 290.834 439.995 290.911 440.073C290.989 440.151 291.028 440.25 291.028 440.371ZM294.843 434.382C295.731 434.382 296.451 434.688 297.003 435.3C297.564 435.904 297.844 436.632 297.844 437.486C297.844 437.814 297.654 437.978 297.275 437.978H292.786C292.821 438.581 293.045 439.094 293.459 439.517C293.856 439.931 294.382 440.138 295.037 440.138C295.658 440.138 296.219 439.939 296.719 439.543C296.779 439.508 296.852 439.491 296.939 439.491C297.051 439.491 297.146 439.53 297.223 439.607C297.301 439.676 297.34 439.767 297.34 439.879C297.34 440.008 297.284 440.116 297.171 440.202C296.542 440.694 295.8 440.94 294.947 440.94C294.015 440.94 293.252 440.634 292.657 440.021C292.062 439.409 291.764 438.62 291.764 437.654C291.764 436.749 292.058 435.977 292.644 435.339C293.239 434.701 293.972 434.382 294.843 434.382ZM292.786 437.266H296.887C296.87 436.714 296.68 436.231 296.318 435.817C295.964 435.395 295.468 435.184 294.83 435.184C294.226 435.184 293.739 435.395 293.368 435.817C293.006 436.231 292.812 436.714 292.786 437.266ZM136.618 460.371C136.618 460.552 136.536 460.672 136.373 460.733C136.148 460.871 135.855 460.94 135.493 460.94C134.57 460.94 134.109 460.453 134.109 459.478V455.391H133.449C133.337 455.391 133.238 455.347 133.152 455.261C133.065 455.175 133.022 455.076 133.022 454.964C133.022 454.843 133.065 454.744 133.152 454.666C133.238 454.58 133.337 454.537 133.449 454.537H134.109V453.256C134.109 453.127 134.156 453.015 134.251 452.92C134.346 452.825 134.462 452.778 134.6 452.778C134.73 452.778 134.842 452.825 134.937 452.92C135.032 453.015 135.079 453.127 135.079 453.256V454.537H135.972C136.092 454.537 136.196 454.58 136.282 454.666C136.368 454.752 136.411 454.852 136.411 454.964C136.411 455.076 136.368 455.175 136.282 455.261C136.196 455.347 136.092 455.391 135.972 455.391H135.079V459.271C135.079 459.513 135.131 459.707 135.234 459.853C135.346 460 135.506 460.073 135.713 460.073C135.79 460.073 135.89 460.056 136.01 460.021C136.131 459.978 136.196 459.957 136.204 459.957C136.325 459.957 136.424 459.995 136.502 460.073C136.58 460.151 136.618 460.25 136.618 460.371ZM141.947 460.358V456.671C141.947 456.171 141.831 455.809 141.598 455.585C141.365 455.36 141.011 455.248 140.537 455.248C140.192 455.248 139.847 455.343 139.502 455.533C139.166 455.714 138.894 455.942 138.687 456.218V460.358C138.687 460.487 138.64 460.599 138.545 460.694C138.45 460.789 138.338 460.836 138.209 460.836C138.071 460.836 137.954 460.789 137.859 460.694C137.765 460.599 137.717 460.487 137.717 460.358V452.584C137.717 452.454 137.765 452.342 137.859 452.247C137.954 452.152 138.071 452.105 138.209 452.105C138.338 452.105 138.45 452.152 138.545 452.247C138.64 452.342 138.687 452.454 138.687 452.584V455.442C138.937 455.14 139.265 454.89 139.67 454.692C140.084 454.485 140.503 454.382 140.925 454.382C142.253 454.382 142.917 455.046 142.917 456.374V460.358C142.917 460.487 142.87 460.599 142.775 460.694C142.68 460.789 142.564 460.836 142.426 460.836C142.296 460.836 142.184 460.789 142.089 460.694C141.994 460.599 141.947 460.487 141.947 460.358ZM147.571 454.382C148.459 454.382 149.179 454.688 149.731 455.3C150.291 455.904 150.572 456.632 150.572 457.486C150.572 457.814 150.382 457.978 150.003 457.978H145.514C145.549 458.581 145.773 459.094 146.187 459.517C146.583 459.931 147.109 460.138 147.765 460.138C148.386 460.138 148.946 459.939 149.446 459.543C149.507 459.508 149.58 459.491 149.666 459.491C149.778 459.491 149.873 459.53 149.951 459.607C150.028 459.676 150.067 459.767 150.067 459.879C150.067 460.008 150.011 460.116 149.899 460.202C149.27 460.694 148.528 460.94 147.674 460.94C146.743 460.94 145.98 460.634 145.385 460.021C144.79 459.409 144.492 458.62 144.492 457.654C144.492 456.749 144.785 455.977 145.372 455.339C145.967 454.701 146.7 454.382 147.571 454.382ZM145.514 457.266H149.615C149.597 456.714 149.408 456.231 149.045 455.817C148.692 455.395 148.196 455.184 147.558 455.184C146.954 455.184 146.467 455.395 146.096 455.817C145.734 456.231 145.54 456.714 145.514 457.266ZM152.169 453.088C152.04 452.959 151.975 452.803 151.975 452.622C151.975 452.441 152.04 452.286 152.169 452.157C152.298 452.027 152.449 451.963 152.622 451.963C152.803 451.963 152.958 452.027 153.087 452.157C153.217 452.286 153.281 452.441 153.281 452.622C153.281 452.803 153.217 452.959 153.087 453.088C152.958 453.209 152.803 453.269 152.622 453.269C152.449 453.269 152.298 453.209 152.169 453.088ZM152.143 460.358V454.964C152.143 454.834 152.191 454.722 152.285 454.627C152.38 454.532 152.497 454.485 152.635 454.485C152.764 454.485 152.876 454.532 152.971 454.627C153.066 454.722 153.113 454.834 153.113 454.964V460.358C153.113 460.487 153.066 460.599 152.971 460.694C152.876 460.789 152.76 460.836 152.622 460.836C152.492 460.836 152.38 460.789 152.285 460.694C152.191 460.599 152.143 460.487 152.143 460.358ZM158.166 454.899C158.166 455.02 158.119 455.127 158.024 455.222C157.929 455.309 157.799 455.36 157.636 455.378C157.351 455.386 157.041 455.494 156.704 455.701C156.394 455.891 156.165 456.111 156.019 456.361V460.358C156.019 460.487 155.971 460.599 155.876 460.694C155.782 460.789 155.669 460.836 155.54 460.836C155.402 460.836 155.286 460.789 155.191 460.694C155.096 460.599 155.049 460.487 155.049 460.358V454.964C155.049 454.834 155.096 454.722 155.191 454.627C155.286 454.532 155.398 454.485 155.527 454.485C155.665 454.485 155.782 454.532 155.876 454.627C155.971 454.722 156.019 454.834 156.019 454.964V455.546C156.441 454.968 156.907 454.619 157.416 454.498C157.571 454.455 157.674 454.433 157.726 454.433C157.855 454.433 157.959 454.481 158.037 454.576C158.123 454.662 158.166 454.77 158.166 454.899ZM165.408 454.382C166.21 454.382 166.879 454.64 167.413 455.158C167.508 455.253 167.556 455.36 167.556 455.481C167.556 455.602 167.512 455.705 167.426 455.791C167.34 455.878 167.237 455.921 167.116 455.921C167.004 455.921 166.909 455.882 166.831 455.804C166.46 455.434 166.003 455.248 165.46 455.248C164.813 455.248 164.292 455.472 163.895 455.921C163.498 456.369 163.3 456.947 163.3 457.654C163.3 458.361 163.498 458.943 163.895 459.4C164.292 459.849 164.813 460.073 165.46 460.073C166.003 460.073 166.456 459.888 166.818 459.517C166.896 459.439 166.995 459.4 167.116 459.4C167.237 459.4 167.34 459.444 167.426 459.53C167.512 459.616 167.556 459.72 167.556 459.84C167.556 459.987 167.508 460.095 167.413 460.164C166.879 460.681 166.21 460.94 165.408 460.94C164.494 460.94 163.744 460.629 163.158 460.008C162.58 459.388 162.291 458.603 162.291 457.654C162.291 456.723 162.584 455.947 163.171 455.326C163.757 454.696 164.503 454.382 165.408 454.382ZM173.287 460.358V456.671C173.287 456.171 173.171 455.809 172.938 455.585C172.705 455.36 172.352 455.248 171.878 455.248C171.533 455.248 171.188 455.343 170.843 455.533C170.506 455.714 170.235 455.942 170.028 456.218V460.358C170.028 460.487 169.98 460.599 169.885 460.694C169.791 460.789 169.678 460.836 169.549 460.836C169.411 460.836 169.295 460.789 169.2 460.694C169.105 460.599 169.058 460.487 169.058 460.358V452.584C169.058 452.454 169.105 452.342 169.2 452.247C169.295 452.152 169.411 452.105 169.549 452.105C169.678 452.105 169.791 452.152 169.885 452.247C169.98 452.342 170.028 452.454 170.028 452.584V455.442C170.278 455.14 170.606 454.89 171.011 454.692C171.425 454.485 171.843 454.382 172.266 454.382C173.594 454.382 174.258 455.046 174.258 456.374V460.358C174.258 460.487 174.21 460.599 174.115 460.694C174.02 460.789 173.904 460.836 173.766 460.836C173.637 460.836 173.525 460.789 173.43 460.694C173.335 460.599 173.287 460.487 173.287 460.358ZM176.686 459.995C176.117 459.366 175.833 458.586 175.833 457.654C175.833 456.723 176.117 455.947 176.686 455.326C177.264 454.696 178.01 454.382 178.924 454.382C179.838 454.382 180.58 454.696 181.149 455.326C181.727 455.947 182.016 456.723 182.016 457.654C182.016 458.586 181.727 459.366 181.149 459.995C180.58 460.625 179.838 460.94 178.924 460.94C178.01 460.94 177.264 460.625 176.686 459.995ZM180.994 457.654C180.994 456.982 180.804 456.412 180.425 455.947C180.054 455.481 179.554 455.248 178.924 455.248C178.295 455.248 177.79 455.481 177.411 455.947C177.031 456.412 176.842 456.982 176.842 457.654C176.842 458.335 177.031 458.909 177.411 459.375C177.79 459.84 178.295 460.073 178.924 460.073C179.554 460.073 180.054 459.84 180.425 459.375C180.804 458.909 180.994 458.335 180.994 457.654ZM186.715 454.899C186.715 455.02 186.667 455.127 186.572 455.222C186.478 455.309 186.348 455.36 186.184 455.378C185.9 455.386 185.589 455.494 185.253 455.701C184.943 455.891 184.714 456.111 184.567 456.361V460.358C184.567 460.487 184.52 460.599 184.425 460.694C184.33 460.789 184.218 460.836 184.089 460.836C183.951 460.836 183.834 460.789 183.74 460.694C183.645 460.599 183.597 460.487 183.597 460.358V454.964C183.597 454.834 183.645 454.722 183.74 454.627C183.834 454.532 183.946 454.485 184.076 454.485C184.214 454.485 184.33 454.532 184.425 454.627C184.52 454.722 184.567 454.834 184.567 454.964V455.546C184.99 454.968 185.456 454.619 185.964 454.498C186.12 454.455 186.223 454.433 186.275 454.433C186.404 454.433 186.508 454.481 186.585 454.576C186.672 454.662 186.715 454.77 186.715 454.899ZM190.583 454.382C191.472 454.382 192.192 454.688 192.744 455.3C193.304 455.904 193.584 456.632 193.584 457.486C193.584 457.814 193.395 457.978 193.015 457.978H188.527C188.561 458.581 188.785 459.094 189.199 459.517C189.596 459.931 190.122 460.138 190.777 460.138C191.398 460.138 191.959 459.939 192.459 459.543C192.519 459.508 192.593 459.491 192.679 459.491C192.791 459.491 192.886 459.53 192.963 459.607C193.041 459.676 193.08 459.767 193.08 459.879C193.08 460.008 193.024 460.116 192.912 460.202C192.282 460.694 191.541 460.94 190.687 460.94C189.755 460.94 188.992 460.634 188.397 460.021C187.802 459.409 187.505 458.62 187.505 457.654C187.505 456.749 187.798 455.977 188.384 455.339C188.979 454.701 189.712 454.382 190.583 454.382ZM188.527 457.266H192.627C192.61 456.714 192.42 456.231 192.058 455.817C191.704 455.395 191.209 455.184 190.57 455.184C189.967 455.184 189.48 455.395 189.109 455.817C188.747 456.231 188.552 456.714 188.527 457.266ZM194.716 459.853C194.716 459.732 194.759 459.633 194.845 459.556C194.931 459.469 195.031 459.426 195.143 459.426C195.238 459.426 195.324 459.452 195.401 459.504C195.919 459.935 196.51 460.151 197.174 460.151C197.631 460.151 197.989 460.056 198.247 459.866C198.515 459.676 198.648 459.426 198.648 459.116C198.648 458.823 198.523 458.598 198.273 458.443C198.032 458.288 197.622 458.141 197.044 458.003C196.484 457.865 196.091 457.753 195.867 457.667C195.143 457.391 194.781 456.895 194.781 456.18C194.781 455.671 194.992 455.244 195.414 454.899C195.837 454.554 196.402 454.382 197.109 454.382C197.902 454.382 198.592 454.61 199.179 455.067C199.291 455.153 199.347 455.261 199.347 455.391C199.347 455.503 199.304 455.602 199.217 455.688C199.14 455.766 199.045 455.804 198.933 455.804C198.847 455.804 198.769 455.774 198.7 455.714C198.286 455.352 197.756 455.171 197.109 455.171C196.686 455.171 196.35 455.257 196.1 455.429C195.85 455.602 195.725 455.83 195.725 456.115C195.725 456.374 195.837 456.572 196.061 456.71C196.294 456.839 196.691 456.973 197.251 457.111C197.743 457.232 198.139 457.348 198.441 457.46C199.209 457.762 199.593 458.292 199.593 459.051C199.593 459.612 199.373 460.069 198.933 460.422C198.493 460.767 197.894 460.94 197.135 460.94C196.255 460.94 195.509 460.694 194.897 460.202C194.776 460.125 194.716 460.008 194.716 459.853ZM209.38 456.49V460.358C209.38 460.487 209.333 460.599 209.238 460.694C209.143 460.789 209.027 460.836 208.889 460.836C208.759 460.836 208.647 460.789 208.552 460.694C208.457 460.599 208.41 460.487 208.41 460.358V460.073C207.927 460.651 207.237 460.94 206.34 460.94C205.754 460.94 205.241 460.754 204.801 460.384C204.37 460.004 204.154 459.5 204.154 458.87C204.154 458.241 204.37 457.74 204.801 457.37C205.241 456.999 205.754 456.813 206.34 456.813C207.229 456.813 207.918 457.098 208.41 457.667V456.542C208.41 456.136 208.263 455.817 207.97 455.585C207.686 455.343 207.306 455.222 206.832 455.222C206.211 455.222 205.668 455.429 205.202 455.843C205.116 455.895 205.03 455.921 204.943 455.921C204.831 455.921 204.736 455.882 204.659 455.804C204.581 455.727 204.542 455.632 204.542 455.52C204.542 455.382 204.598 455.274 204.71 455.196C205.331 454.653 206.082 454.382 206.961 454.382C207.703 454.382 208.289 454.558 208.72 454.912C209.16 455.265 209.38 455.791 209.38 456.49ZM208.41 459.465V458.288C208.039 457.771 207.466 457.512 206.69 457.512C206.241 457.512 205.87 457.641 205.577 457.9C205.293 458.15 205.15 458.478 205.15 458.883C205.15 459.28 205.293 459.607 205.577 459.866C205.87 460.116 206.241 460.241 206.69 460.241C207.466 460.241 208.039 459.983 208.41 459.465ZM216.512 456.399V460.358C216.512 460.487 216.465 460.599 216.37 460.694C216.275 460.789 216.158 460.836 216.02 460.836C215.891 460.836 215.779 460.789 215.684 460.694C215.589 460.599 215.542 460.487 215.542 460.358V456.697C215.542 456.188 215.425 455.822 215.193 455.597C214.96 455.365 214.61 455.248 214.145 455.248C213.791 455.248 213.442 455.343 213.097 455.533C212.752 455.714 212.485 455.942 212.295 456.218V460.358C212.295 460.487 212.248 460.599 212.153 460.694C212.058 460.789 211.946 460.836 211.816 460.836C211.678 460.836 211.562 460.789 211.467 460.694C211.372 460.599 211.325 460.487 211.325 460.358V454.964C211.325 454.834 211.372 454.722 211.467 454.627C211.562 454.532 211.674 454.485 211.803 454.485C211.941 454.485 212.058 454.532 212.153 454.627C212.248 454.722 212.295 454.834 212.295 454.964V455.455C212.545 455.145 212.869 454.89 213.265 454.692C213.67 454.485 214.089 454.382 214.52 454.382C215.848 454.382 216.512 455.054 216.512 456.399ZM223.947 452.584V460.358C223.947 460.487 223.9 460.599 223.805 460.694C223.71 460.789 223.593 460.836 223.455 460.836C223.326 460.836 223.214 460.789 223.119 460.694C223.024 460.599 222.977 460.487 222.977 460.358V459.853C222.735 460.19 222.425 460.457 222.045 460.655C221.675 460.845 221.282 460.94 220.868 460.94C220.04 460.94 219.368 460.647 218.85 460.06C218.342 459.465 218.087 458.667 218.087 457.667C218.087 456.684 218.342 455.891 218.85 455.287C219.368 454.683 220.04 454.382 220.868 454.382C221.731 454.382 222.434 454.752 222.977 455.494V452.584C222.977 452.454 223.024 452.342 223.119 452.247C223.214 452.152 223.326 452.105 223.455 452.105C223.593 452.105 223.71 452.152 223.805 452.247C223.9 452.342 223.947 452.454 223.947 452.584ZM222.977 459.09V456.257C222.796 455.973 222.528 455.735 222.175 455.546C221.821 455.347 221.463 455.248 221.101 455.248C220.489 455.248 220.002 455.477 219.639 455.934C219.277 456.391 219.096 456.969 219.096 457.667C219.096 458.366 219.277 458.943 219.639 459.4C220.002 459.849 220.489 460.073 221.101 460.073C221.472 460.073 221.83 459.983 222.175 459.801C222.528 459.612 222.796 459.375 222.977 459.09ZM228.785 459.853C228.785 459.732 228.828 459.633 228.914 459.556C229 459.469 229.1 459.426 229.212 459.426C229.307 459.426 229.393 459.452 229.47 459.504C229.988 459.935 230.579 460.151 231.243 460.151C231.7 460.151 232.058 460.056 232.316 459.866C232.584 459.676 232.717 459.426 232.717 459.116C232.717 458.823 232.592 458.598 232.342 458.443C232.101 458.288 231.691 458.141 231.113 458.003C230.553 457.865 230.16 457.753 229.936 457.667C229.212 457.391 228.85 456.895 228.85 456.18C228.85 455.671 229.061 455.244 229.483 454.899C229.906 454.554 230.471 454.382 231.178 454.382C231.971 454.382 232.661 454.61 233.248 455.067C233.36 455.153 233.416 455.261 233.416 455.391C233.416 455.503 233.373 455.602 233.286 455.688C233.209 455.766 233.114 455.804 233.002 455.804C232.916 455.804 232.838 455.774 232.769 455.714C232.355 455.352 231.825 455.171 231.178 455.171C230.755 455.171 230.419 455.257 230.169 455.429C229.919 455.602 229.794 455.83 229.794 456.115C229.794 456.374 229.906 456.572 230.13 456.71C230.363 456.839 230.76 456.973 231.32 457.111C231.812 457.232 232.208 457.348 232.51 457.46C233.278 457.762 233.662 458.292 233.662 459.051C233.662 459.612 233.442 460.069 233.002 460.422C232.562 460.767 231.963 460.94 231.204 460.94C230.324 460.94 229.578 460.694 228.966 460.202C228.845 460.125 228.785 460.008 228.785 459.853ZM240.114 456.49V460.358C240.114 460.487 240.067 460.599 239.972 460.694C239.877 460.789 239.761 460.836 239.623 460.836C239.493 460.836 239.381 460.789 239.286 460.694C239.192 460.599 239.144 460.487 239.144 460.358V460.073C238.661 460.651 237.971 460.94 237.074 460.94C236.488 460.94 235.975 460.754 235.535 460.384C235.104 460.004 234.888 459.5 234.888 458.87C234.888 458.241 235.104 457.74 235.535 457.37C235.975 456.999 236.488 456.813 237.074 456.813C237.963 456.813 238.653 457.098 239.144 457.667V456.542C239.144 456.136 238.997 455.817 238.704 455.585C238.42 455.343 238.04 455.222 237.566 455.222C236.945 455.222 236.402 455.429 235.936 455.843C235.85 455.895 235.764 455.921 235.677 455.921C235.565 455.921 235.47 455.882 235.393 455.804C235.315 455.727 235.276 455.632 235.276 455.52C235.276 455.382 235.332 455.274 235.445 455.196C236.065 454.653 236.816 454.382 237.695 454.382C238.437 454.382 239.023 454.558 239.455 454.912C239.894 455.265 240.114 455.791 240.114 456.49ZM239.144 459.465V458.288C238.773 457.771 238.2 457.512 237.424 457.512C236.975 457.512 236.604 457.641 236.311 457.9C236.027 458.15 235.884 458.478 235.884 458.883C235.884 459.28 236.027 459.607 236.311 459.866C236.604 460.116 236.975 460.241 237.424 460.241C238.2 460.241 238.773 459.983 239.144 459.465ZM247.168 454.977C247.168 455.002 247.156 455.067 247.13 455.171L244.957 460.371C244.896 460.509 244.801 460.621 244.672 460.707C244.551 460.793 244.418 460.836 244.271 460.836C243.917 460.836 243.68 460.681 243.559 460.371L241.386 455.171C241.36 455.067 241.348 455.002 241.348 454.977C241.348 454.839 241.391 454.722 241.477 454.627C241.572 454.532 241.688 454.485 241.826 454.485C242.05 454.485 242.201 454.584 242.279 454.783L244.258 459.672L246.224 454.783C246.302 454.584 246.453 454.485 246.677 454.485C246.815 454.485 246.931 454.532 247.026 454.627C247.121 454.722 247.168 454.839 247.168 454.977ZM248.426 453.088C248.297 452.959 248.232 452.803 248.232 452.622C248.232 452.441 248.297 452.286 248.426 452.157C248.556 452.027 248.706 451.963 248.879 451.963C249.06 451.963 249.215 452.027 249.345 452.157C249.474 452.286 249.539 452.441 249.539 452.622C249.539 452.803 249.474 452.959 249.345 453.088C249.215 453.209 249.06 453.269 248.879 453.269C248.706 453.269 248.556 453.209 248.426 453.088ZM248.4 460.358V454.964C248.4 454.834 248.448 454.722 248.543 454.627C248.637 454.532 248.754 454.485 248.892 454.485C249.021 454.485 249.133 454.532 249.228 454.627C249.323 454.722 249.37 454.834 249.37 454.964V460.358C249.37 460.487 249.323 460.599 249.228 460.694C249.133 460.789 249.017 460.836 248.879 460.836C248.75 460.836 248.637 460.789 248.543 460.694C248.448 460.599 248.4 460.487 248.4 460.358ZM256.493 456.399V460.358C256.493 460.487 256.445 460.599 256.351 460.694C256.256 460.789 256.139 460.836 256.001 460.836C255.872 460.836 255.76 460.789 255.665 460.694C255.57 460.599 255.523 460.487 255.523 460.358V456.697C255.523 456.188 255.406 455.822 255.173 455.597C254.941 455.365 254.591 455.248 254.126 455.248C253.772 455.248 253.423 455.343 253.078 455.533C252.733 455.714 252.466 455.942 252.276 456.218V460.358C252.276 460.487 252.228 460.599 252.134 460.694C252.039 460.789 251.927 460.836 251.797 460.836C251.659 460.836 251.543 460.789 251.448 460.694C251.353 460.599 251.306 460.487 251.306 460.358V454.964C251.306 454.834 251.353 454.722 251.448 454.627C251.543 454.532 251.655 454.485 251.784 454.485C251.922 454.485 252.039 454.532 252.134 454.627C252.228 454.722 252.276 454.834 252.276 454.964V455.455C252.526 455.145 252.849 454.89 253.246 454.692C253.651 454.485 254.07 454.382 254.501 454.382C255.829 454.382 256.493 455.054 256.493 456.399ZM263.915 454.964V460.603C263.915 461.552 263.635 462.242 263.074 462.673C262.514 463.104 261.802 463.32 260.94 463.32C260.017 463.32 259.262 463.083 258.676 462.608C258.564 462.522 258.508 462.41 258.508 462.272C258.508 462.16 258.551 462.061 258.637 461.975C258.723 461.888 258.823 461.845 258.935 461.845C259.03 461.845 259.112 461.875 259.181 461.936C259.629 462.324 260.215 462.518 260.94 462.518C261.543 462.518 262.026 462.358 262.389 462.039C262.759 461.72 262.945 461.255 262.945 460.642V459.763C262.703 460.099 262.397 460.366 262.026 460.565C261.656 460.763 261.263 460.862 260.849 460.862C260.021 460.862 259.349 460.573 258.831 459.995C258.323 459.409 258.068 458.62 258.068 457.628C258.068 456.645 258.323 455.86 258.831 455.274C259.349 454.679 260.021 454.382 260.849 454.382C261.703 454.382 262.401 454.752 262.945 455.494V454.964C262.945 454.834 262.992 454.722 263.087 454.627C263.182 454.532 263.298 454.485 263.436 454.485C263.566 454.485 263.678 454.532 263.773 454.627C263.867 454.722 263.915 454.834 263.915 454.964ZM262.945 458.987V456.257C262.764 455.964 262.501 455.723 262.156 455.533C261.811 455.343 261.453 455.248 261.082 455.248C260.47 455.248 259.983 455.468 259.62 455.908C259.258 456.339 259.077 456.913 259.077 457.628C259.077 458.335 259.258 458.909 259.62 459.349C259.983 459.789 260.47 460.008 261.082 460.008C261.444 460.008 261.798 459.914 262.143 459.724C262.496 459.526 262.764 459.28 262.945 458.987ZM265.418 459.853C265.418 459.732 265.461 459.633 265.548 459.556C265.634 459.469 265.733 459.426 265.845 459.426C265.94 459.426 266.026 459.452 266.104 459.504C266.621 459.935 267.212 460.151 267.876 460.151C268.333 460.151 268.691 460.056 268.95 459.866C269.217 459.676 269.351 459.426 269.351 459.116C269.351 458.823 269.226 458.598 268.975 458.443C268.734 458.288 268.324 458.141 267.747 458.003C267.186 457.865 266.794 457.753 266.569 457.667C265.845 457.391 265.483 456.895 265.483 456.18C265.483 455.671 265.694 455.244 266.117 454.899C266.539 454.554 267.104 454.382 267.811 454.382C268.605 454.382 269.295 454.61 269.881 455.067C269.993 455.153 270.049 455.261 270.049 455.391C270.049 455.503 270.006 455.602 269.92 455.688C269.842 455.766 269.747 455.804 269.635 455.804C269.549 455.804 269.471 455.774 269.402 455.714C268.988 455.352 268.458 455.171 267.811 455.171C267.389 455.171 267.052 455.257 266.802 455.429C266.552 455.602 266.427 455.83 266.427 456.115C266.427 456.374 266.539 456.572 266.763 456.71C266.996 456.839 267.393 456.973 267.954 457.111C268.445 457.232 268.842 457.348 269.144 457.46C269.911 457.762 270.295 458.292 270.295 459.051C270.295 459.612 270.075 460.069 269.635 460.422C269.195 460.767 268.596 460.94 267.837 460.94C266.958 460.94 266.212 460.694 265.599 460.202C265.479 460.125 265.418 460.008 265.418 459.853ZM272.388 459.491C272.587 459.491 272.755 459.56 272.893 459.698C273.031 459.836 273.1 460.004 273.1 460.202C273.1 460.392 273.031 460.56 272.893 460.707C272.755 460.845 272.587 460.914 272.388 460.914C272.199 460.914 272.03 460.845 271.884 460.707C271.746 460.56 271.677 460.392 271.677 460.202C271.677 460.004 271.746 459.836 271.884 459.698C272.03 459.56 272.199 459.491 272.388 459.491Z" fill="#04172A" fill-opacity="0.7"/>
<path opacity="0.7" d="M76.8897 94.9975L71.2305 89.3383M71.2305 89.3383L76.8897 83.6791M71.2305 89.3383H85.7827" stroke="#04172A" stroke-width="1.61692" stroke-linecap="round" stroke-linejoin="round"/>
<path opacity="0.7" d="M324.238 93.4765C323.686 93.4765 323.162 93.3715 322.669 93.1615C322.175 92.9478 321.788 92.6402 321.508 92.2386C321.35 92.0249 321.353 91.8517 321.519 91.7191L321.597 91.6417C321.667 91.5865 321.727 91.5478 321.779 91.5257C321.831 91.4999 321.886 91.4943 321.945 91.5091C322.007 91.5238 322.066 91.568 322.122 91.6417C322.357 91.9623 322.669 92.211 323.056 92.3878C323.442 92.561 323.82 92.6476 324.189 92.6476C324.701 92.6476 325.11 92.5352 325.415 92.3104C325.721 92.082 325.874 91.7909 325.874 91.4372C325.874 91.312 325.856 91.1959 325.819 91.0891C325.786 90.9822 325.742 90.8901 325.686 90.8127C325.631 90.7317 325.555 90.6561 325.46 90.5861C325.364 90.5125 325.268 90.4517 325.172 90.4038C325.08 90.3559 324.962 90.3043 324.819 90.249C324.679 90.1938 324.55 90.1477 324.432 90.1109C324.318 90.0703 324.174 90.0224 324.001 89.9672C323.831 89.9082 323.684 89.8548 323.559 89.8069C323.415 89.7516 323.297 89.7056 323.205 89.6687C323.113 89.6319 322.993 89.5785 322.846 89.5085C322.702 89.4348 322.582 89.3648 322.486 89.2984C322.391 89.2284 322.287 89.1419 322.177 89.0387C322.066 88.9355 321.978 88.8287 321.912 88.7182C321.845 88.6039 321.79 88.4713 321.746 88.3202C321.702 88.1692 321.68 88.0089 321.68 87.8394C321.68 87.2573 321.904 86.7802 322.354 86.408C322.807 86.0322 323.396 85.8443 324.122 85.8443C325.065 85.8443 325.832 86.1575 326.421 86.7839C326.477 86.8428 326.515 86.8962 326.537 86.9441C326.563 86.9883 326.571 87.0436 326.559 87.1099C326.548 87.1726 326.51 87.2334 326.443 87.2923L326.338 87.3863C326.154 87.5557 325.985 87.5631 325.83 87.4084C325.344 86.911 324.778 86.6623 324.133 86.6623C323.687 86.6623 323.323 86.7636 323.039 86.9662C322.759 87.1652 322.619 87.4286 322.619 87.7565C322.619 87.8929 322.647 88.0181 322.702 88.1323C322.757 88.2466 322.822 88.3424 322.895 88.4197C322.973 88.4934 323.083 88.5708 323.227 88.6518C323.374 88.7292 323.501 88.79 323.608 88.8342C323.715 88.8784 323.864 88.9355 324.056 89.0055C324.148 89.0387 324.271 89.0829 324.426 89.1382C324.585 89.1934 324.715 89.2395 324.819 89.2763C324.922 89.3095 325.047 89.3556 325.194 89.4145C325.342 89.4735 325.463 89.5287 325.559 89.5803C325.659 89.6282 325.769 89.689 325.891 89.7627C326.016 89.8364 326.119 89.9119 326.2 89.9893C326.281 90.063 326.364 90.1514 326.449 90.2545C326.534 90.354 326.6 90.4609 326.648 90.5751C326.696 90.6856 326.734 90.8127 326.764 90.9564C326.797 91.0964 326.814 91.2456 326.814 91.4041C326.814 92.0304 326.574 92.5333 326.095 92.9128C325.616 93.2886 324.997 93.4765 324.238 93.4765ZM332.711 93.0013C332.777 93.086 332.793 93.1634 332.76 93.2334C332.731 93.3034 332.67 93.3384 332.578 93.3384H332.158C332.051 93.3384 331.963 93.3181 331.893 93.2776C331.823 93.2371 331.745 93.1597 331.661 93.0455L329.804 90.7464L329.035 91.5146V93.0123C329.035 93.1118 329.008 93.191 328.952 93.25C328.897 93.3089 328.822 93.3384 328.726 93.3384H328.444C328.348 93.3384 328.273 93.3089 328.217 93.25C328.166 93.191 328.14 93.1118 328.14 93.0123V85.6509C328.14 85.4888 328.241 85.3801 328.444 85.3248L328.682 85.2696C328.917 85.2069 329.035 85.3083 329.035 85.5735V90.4977L331.6 87.9168C331.714 87.8026 331.802 87.7252 331.865 87.6847C331.931 87.6442 332.014 87.6239 332.114 87.6239H332.528C332.617 87.6239 332.677 87.6607 332.711 87.7344C332.744 87.8044 332.725 87.88 332.655 87.961L330.423 90.1827L332.711 93.0013ZM334.75 86.3804C334.614 86.5131 334.448 86.5794 334.252 86.5794C334.057 86.5794 333.891 86.5131 333.755 86.3804C333.619 86.2441 333.551 86.0765 333.551 85.8775C333.551 85.6859 333.619 85.522 333.755 85.3856C333.895 85.2456 334.061 85.1756 334.252 85.1756C334.444 85.1756 334.608 85.2456 334.744 85.3856C334.884 85.522 334.954 85.6859 334.954 85.8775C334.954 86.0765 334.886 86.2441 334.75 86.3804ZM334.103 93.3384C334.007 93.3384 333.932 93.3089 333.877 93.25C333.825 93.191 333.799 93.1118 333.799 93.0123V87.95C333.799 87.8468 333.825 87.7676 333.877 87.7123C333.932 87.6534 334.007 87.6239 334.103 87.6239H334.385C334.481 87.6239 334.556 87.6534 334.612 87.7123C334.667 87.7676 334.695 87.8468 334.695 87.95V93.0123C334.695 93.1118 334.667 93.191 334.612 93.25C334.556 93.3089 334.481 93.3384 334.385 93.3384H334.103ZM339.392 87.541C339.945 87.541 340.44 87.6736 340.879 87.9389C341.321 88.2042 341.66 88.5616 341.896 89.0111C342.135 89.4606 342.255 89.9598 342.255 90.5088C342.255 90.9141 342.185 91.2991 342.045 91.6638C341.905 92.0286 341.71 92.3436 341.459 92.6089C341.212 92.8741 340.91 93.086 340.553 93.2444C340.195 93.3992 339.809 93.4765 339.392 93.4765C338.585 93.4765 337.911 93.1928 337.369 92.6255V95.1622C337.369 95.3795 337.266 95.4882 337.06 95.4882H336.778C336.682 95.4882 336.607 95.4587 336.552 95.3998C336.5 95.3445 336.474 95.2653 336.474 95.1622V87.95C336.474 87.8468 336.5 87.7676 336.552 87.7123C336.607 87.6534 336.682 87.6239 336.778 87.6239H337.027C337.229 87.6239 337.331 87.7326 337.331 87.95V88.4031C337.869 87.8284 338.556 87.541 339.392 87.541ZM339.293 92.6697C339.908 92.6697 340.402 92.4615 340.774 92.0452C341.15 91.6288 341.338 91.1167 341.338 90.5088C341.338 89.9008 341.15 89.3887 340.774 88.9724C340.402 88.556 339.908 88.3479 339.293 88.3479C338.718 88.3479 338.237 88.5358 337.85 88.9116C337.467 89.2874 337.276 89.8198 337.276 90.5088C337.276 91.1978 337.467 91.7301 337.85 92.106C338.237 92.4818 338.718 92.6697 339.293 92.6697Z" fill="#04172A"/>
<circle cx="187.649" cy="509.035" r="3.23384" fill="#D1E8FF"/>
<circle cx="200.584" cy="509.035" r="3.23384" fill="#D1E8FF"/>
<rect x="210.286" y="505.396" width="12.9354" height="7.27614" rx="3.63807" fill="#198DFF"/>
<path d="M258.165 174.239H170.811V329.113H258.165V174.239Z" fill="#2A1E36" stroke="#2A1E36" stroke-width="1.08049" stroke-miterlimit="10"/>
<path d="M248.719 174.949V201.761" stroke="#E2C5FF" stroke-width="1.08049" stroke-miterlimit="10"/>
<path d="M254.229 181.653V192.944" stroke="#E2C5FF" stroke-width="1.08049" stroke-miterlimit="10"/>
<path d="M251.477 179.178V219.393" stroke="#E2C5FF" stroke-width="1.08049" stroke-miterlimit="10"/>
<path d="M256.199 174.239V226.806" stroke="#E2C5FF" stroke-width="1.08049" stroke-miterlimit="10"/>
<path d="M249.507 328.758V301.241" stroke="#E2C5FF" stroke-width="1.08049" stroke-miterlimit="10"/>
<path d="M252.655 329.111V323.11" stroke="#E2C5FF" stroke-width="1.08049" stroke-miterlimit="10"/>
<path d="M253.442 320.997V296.658" stroke="#E2C5FF" stroke-width="1.08049" stroke-miterlimit="10"/>
<path d="M249.902 297.717V257.853" stroke="#E2C5FF" stroke-width="1.08049" stroke-miterlimit="10"/>
<path d="M245.967 174.239H158.612V329.113H245.967V174.239Z" fill="#B8DBFF" stroke="#2A1E36" stroke-width="1.08049" stroke-miterlimit="10"/>
<path d="M238.492 185.201C236.784 185.197 235.143 184.608 233.905 183.554C232.667 182.5 231.926 181.061 231.834 179.533H172.755C172.665 181.064 171.923 182.505 170.683 183.56C169.442 184.614 167.797 185.202 166.087 185.201C165.692 185.2 165.298 185.167 164.909 185.102V315.101C165.298 315.039 165.692 315.006 166.087 315.002C167.242 315.002 168.378 315.271 169.383 315.781C170.388 316.291 171.229 317.026 171.823 317.914C172.417 318.802 172.745 319.813 172.774 320.848C172.803 321.883 172.532 322.908 171.988 323.821H232.591C232.046 322.908 231.774 321.883 231.802 320.847C231.83 319.812 232.158 318.8 232.752 317.912C233.347 317.023 234.188 316.288 235.194 315.778C236.2 315.268 237.336 315.001 238.492 315.002C238.887 315.006 239.281 315.039 239.67 315.101V185.08C239.282 185.152 238.888 185.193 238.492 185.201V185.201ZM200.52 275.138C186.718 275.138 175.533 264.242 175.533 250.798C175.533 237.354 186.718 226.454 200.52 226.454C214.322 226.454 225.507 237.354 225.507 250.798C225.507 264.242 214.317 275.138 200.52 275.138Z" fill="white" stroke="#2A1E36" stroke-width="1.08049" stroke-miterlimit="10"/>
<path d="M258.004 242.326H159.003V258.202H258.004V242.326Z" fill="white" stroke="#2A1E36" stroke-width="1.08049" stroke-miterlimit="10"/>
<path d="M258.004 242.326H246.157V258.202H258.004V242.326Z" fill="#3D3D3D" stroke="#8A8A8A" stroke-width="1.08049" stroke-miterlimit="10"/>
<path d="M157.194 338.75C157.194 338.75 155.69 339.132 151.679 336.466C147.668 333.801 142.976 329.994 142.976 329.994C142.976 329.994 147.608 329.436 149.749 328.425C152.105 327.306 154.862 324.663 154.862 324.663C154.862 324.663 164.203 336.084 175.884 335.325C175.681 336.298 175.207 337.21 174.506 337.976C173.805 338.741 172.899 339.335 171.873 339.703C168.233 341.033 157.194 338.75 157.194 338.75Z" fill="#B8DBFF" stroke="#263238" stroke-width="1.08049" stroke-linejoin="round"/>
<path d="M172.349 336.632C172.349 336.632 162.432 334.299 157.073 329.198C156.815 329.261 156.544 329.272 156.281 329.229C156.017 329.187 155.767 329.093 155.55 328.954C155.332 328.814 155.151 328.633 155.021 328.423C154.891 328.214 154.814 327.981 154.797 327.741C152.923 329.318 150.521 330.297 147.964 330.524C147.964 330.524 148.124 331.544 147.638 331.836C147.638 331.836 155.278 337.814 159.67 338.542C162.718 339.089 165.839 339.24 168.935 338.992C170.272 338.865 171.528 338.354 172.514 337.535C172.514 337.535 170.885 337.216 172.349 336.632ZM162.984 336.304C162.628 337.09 160.858 337.203 159.028 336.52C157.198 335.836 156.02 334.681 156.351 333.899C156.682 333.117 158.477 333 160.307 333.683C162.137 334.367 163.335 335.522 162.984 336.304V336.304Z" fill="white" stroke="#263238" stroke-width="1.08049" stroke-miterlimit="10"/>
<path d="M155.69 338.513C155.69 338.513 160.804 340.401 164.84 340.401C167.202 340.413 169.557 340.179 171.859 339.704C171.859 339.704 170.48 340.379 168.239 339.089C166.961 338.351 166.138 336.711 166.138 336.711C162.766 337.743 159.249 338.349 155.69 338.513V338.513Z" fill="#B8DBFF" stroke="#263238" stroke-width="1.08049" stroke-linejoin="round"/>
<path d="M213.134 319.314C213.134 319.314 222.444 316.567 227.888 313.308L233.679 321.849C233.679 321.849 219.832 331.517 216.197 328.973L213.134 319.314Z" fill="#B8DBFF" stroke="#263238" stroke-width="1.08049" stroke-linejoin="round"/>
<path d="M229.708 321.351C229.72 321.105 229.821 320.868 229.995 320.678C230.17 320.487 230.408 320.353 230.676 320.295L228.104 316.47C227.889 316.535 227.664 316.569 227.437 316.568C227.161 316.582 226.886 316.535 226.636 316.431C226.385 316.328 226.166 316.171 225.998 315.975C221.19 318.991 213.815 320.537 213.815 320.537L215.289 325.729C215.289 325.729 215.064 328.579 219.034 327.864C222.113 327.311 227.903 323.819 230.365 322.295C230.171 322.204 230.009 322.069 229.893 321.903C229.778 321.737 229.714 321.546 229.708 321.351V321.351ZM219.786 325.172C218.047 325.527 216.427 324.996 216.167 323.985C215.906 322.974 217.109 321.859 218.849 321.499C220.589 321.14 222.213 321.675 222.474 322.686C222.734 323.697 221.531 324.812 219.786 325.172Z" fill="white" stroke="#263238" stroke-width="1.08049" stroke-miterlimit="10"/>
<path d="M211.771 315.445L218.128 326.741C218.128 326.741 215.972 327.756 216.198 328.988L210.071 318.2C210.071 318.2 209.274 316.461 211.771 315.445Z" fill="#B8DBFF" stroke="#263238" stroke-width="1.08049" stroke-linejoin="round"/>
<path d="M210.612 319.152L215.335 327.458C215.536 327.059 215.892 326.74 216.338 326.559L211.089 318.298L210.612 319.152Z" fill="white" stroke="#263238" stroke-width="1.08049" stroke-miterlimit="10"/>
<path d="M142.78 256.265L142.881 277.917L155.484 277.867L155.524 255.775L142.78 256.265Z" fill="#B8DBFF" stroke="#263238" stroke-width="1.08049" stroke-miterlimit="10"/>
<path d="M152.722 275.791C152.733 275.629 152.78 275.471 152.86 275.326C152.939 275.181 153.051 275.051 153.187 274.945C153.323 274.838 153.482 274.757 153.653 274.707C153.825 274.656 154.006 274.637 154.186 274.649C154.25 274.661 154.312 274.678 154.372 274.699L154.347 258.216C154.235 258.307 154.103 258.373 153.959 258.411C153.815 258.449 153.663 258.458 153.514 258.437C153.294 258.388 153.093 258.282 152.938 258.133C152.783 257.984 152.68 257.797 152.642 257.596L145.042 257.888C145.067 258.028 145.067 258.171 145.042 258.311C145.016 258.567 144.897 258.808 144.701 258.996C144.506 259.184 144.247 259.308 143.964 259.349V274.631C144.148 274.565 144.349 274.545 144.545 274.573C144.858 274.654 145.129 274.831 145.312 275.072C145.495 275.313 145.579 275.604 145.548 275.894L152.747 275.868C152.722 275.832 152.717 275.809 152.722 275.791ZM148.551 270.101C147.152 269.871 146.23 268.447 146.491 266.914C146.751 265.381 148.11 264.325 149.499 264.559C150.887 264.792 151.825 266.213 151.559 267.745C151.294 269.278 149.935 270.334 148.551 270.101Z" fill="white" stroke="#263238" stroke-width="1.08049" stroke-miterlimit="10"/>
<path d="M260.632 164.652L243.055 180.411L252.229 188.636L270.268 172.653L260.632 164.652Z" fill="#B8DBFF" stroke="#263238" stroke-width="1.08049" stroke-miterlimit="10"/>
<path d="M251.919 185.344C252.058 185.232 252.222 185.146 252.4 185.092C252.577 185.037 252.765 185.016 252.952 185.028C253.139 185.04 253.322 185.086 253.489 185.162C253.656 185.239 253.804 185.345 253.924 185.474C253.962 185.525 253.994 185.579 254.019 185.636L267.43 173.657C267.275 173.65 267.124 173.612 266.987 173.545C266.851 173.478 266.733 173.384 266.643 173.271C266.523 173.09 266.464 172.882 266.474 172.672C266.484 172.462 266.562 172.259 266.698 172.089L260.943 167.302C260.844 167.419 260.728 167.523 260.597 167.612C260.37 167.781 260.085 167.877 259.79 167.885C259.495 167.892 259.205 167.81 258.967 167.652L246.499 178.709C246.686 178.779 246.848 178.894 246.965 179.042C247.13 179.305 247.186 179.612 247.124 179.909C247.061 180.206 246.885 180.473 246.624 180.665L251.863 185.366L251.919 185.344ZM253.523 178.476C252.691 177.392 253.187 175.752 254.626 174.812C256.065 173.873 257.91 173.999 258.737 175.082C259.564 176.165 259.068 177.81 257.629 178.745C256.19 179.68 254.335 179.541 253.523 178.453V178.476Z" fill="white" stroke="#263238" stroke-width="1.08049" stroke-miterlimit="10"/>
<path d="M139.527 230.708L163.983 222.038L158.934 210.594L133.922 219.309L139.527 230.708Z" fill="#B8DBFF" stroke="#263238" stroke-width="1.08049" stroke-miterlimit="10"/>
<path d="M157.675 213.93C156.788 214.105 155.95 213.714 155.805 213.031C155.8 212.967 155.8 212.902 155.805 212.838L137.16 219.391C137.307 219.457 137.436 219.552 137.537 219.669C137.637 219.786 137.707 219.921 137.741 220.066C137.773 220.285 137.732 220.509 137.625 220.708C137.517 220.908 137.347 221.075 137.135 221.189L140.469 228.039C140.626 227.962 140.795 227.906 140.97 227.873C141.269 227.794 141.59 227.807 141.88 227.911C142.17 228.014 142.413 228.202 142.569 228.444L159.861 222.412C159.711 222.275 159.608 222.101 159.565 221.913C159.526 221.595 159.614 221.274 159.814 221.009C160.015 220.744 160.314 220.551 160.658 220.466L157.77 213.926L157.675 213.93ZM152.902 219.994C153.198 221.342 151.95 222.767 150.11 223.14C148.27 223.513 146.545 222.691 146.249 221.342C145.953 219.994 147.202 218.573 149.042 218.196C150.882 217.818 152.606 218.627 152.902 219.994V219.994Z" fill="white" stroke="#263238" stroke-width="1.08049" stroke-miterlimit="10"/>
<path d="M225.843 164.579C225.843 164.579 227.347 164.934 229.283 169.074C231.218 173.213 233.073 178.625 233.073 178.625C233.073 178.625 228.771 176.98 226.355 176.868C223.688 176.746 219.812 177.767 219.812 177.767C219.812 177.767 218.308 163.666 207.835 158.969C208.564 158.218 209.494 157.645 210.537 157.305C211.581 156.964 212.704 156.867 213.801 157.023C217.661 157.553 225.843 164.579 225.843 164.579Z" fill="#B8DBFF" stroke="#263238" stroke-width="1.08049" stroke-linejoin="round"/>
<path d="M211.615 159.441C211.615 159.441 218.805 166.008 220.504 172.836C220.762 172.901 221 173.016 221.202 173.174C221.403 173.331 221.564 173.527 221.671 173.746C221.779 173.966 221.83 174.204 221.823 174.444C221.815 174.684 221.748 174.919 221.627 175.133C224.137 174.644 226.756 174.913 229.077 175.897C229.077 175.897 229.518 174.944 230.105 174.917C230.105 174.917 226.946 166.278 223.587 163.639C221.275 161.774 218.677 160.215 215.872 159.01C214.65 158.509 213.281 158.373 211.966 158.623C211.966 158.623 213.225 159.612 211.615 159.441ZM219.476 164.017C220.223 163.509 221.803 164.237 222.986 165.649C224.169 167.06 224.54 168.615 223.788 169.128C223.036 169.64 221.462 168.907 220.278 167.496C219.095 166.085 218.739 164.529 219.476 164.017Z" fill="white" stroke="#263238" stroke-width="1.08049" stroke-miterlimit="10"/>
<path d="M227.002 165.474C227.002 165.474 223.683 161.519 220.214 159.653C218.197 158.559 216.045 157.676 213.802 157.024C213.802 157.024 215.371 157.078 216.559 159.213C217.236 160.435 217.01 162.22 217.01 162.22C220.493 162.885 223.855 163.981 227.002 165.474Z" fill="#B8DBFF" stroke="#263238" stroke-width="1.08049" stroke-linejoin="round"/>
<path d="M257.999 338.032C258.023 337.836 258.114 337.651 258.259 337.502C258.405 337.354 258.597 337.248 258.811 337.201L257.382 333.673C257.173 333.731 256.955 333.762 256.736 333.762C256.35 333.772 255.971 333.671 255.653 333.475C253.692 334.414 249.907 336.059 246.157 336.756C242.737 337.306 239.248 337.433 235.789 337.134C235.655 337.262 235.491 337.362 235.307 337.425C235.124 337.488 234.927 337.513 234.731 337.498L234.28 342.316C234.401 342.316 234.526 342.316 234.656 342.316C235.659 342.316 236.441 342.581 236.441 342.914C236.435 342.967 236.415 343.019 236.383 343.064C236.35 343.109 236.307 343.147 236.256 343.175C247.872 343.575 256.004 339.974 258.475 338.711C258.338 338.643 258.223 338.545 258.14 338.427C258.057 338.308 258.008 338.172 257.999 338.032V338.032ZM246.503 340.541C244.728 340.86 243.174 340.59 243.029 339.943C242.883 339.296 244.202 338.504 245.977 338.185C247.751 337.866 249.306 338.14 249.451 338.788C249.596 339.435 248.278 340.226 246.503 340.541Z" fill="white" stroke="#263238" stroke-width="1.08049" stroke-miterlimit="10"/>
<path d="M132.628 163.384C132.628 163.384 141.933 160.638 147.383 157.379L153.173 165.919C153.173 165.919 139.326 175.597 135.691 173.053L132.628 163.384Z" fill="#B8DBFF" stroke="#263238" stroke-width="1.08049" stroke-linejoin="round"/>
<path d="M149.197 165.427C149.21 165.181 149.312 164.944 149.487 164.754C149.663 164.563 149.902 164.429 150.17 164.371L147.593 160.546C147.38 160.612 147.156 160.645 146.931 160.645C146.656 160.658 146.381 160.611 146.13 160.508C145.879 160.404 145.66 160.248 145.492 160.052C140.684 163.068 133.31 164.614 133.31 164.614L134.784 169.805C134.784 169.805 134.558 172.655 138.529 171.94C141.602 171.387 147.392 167.895 149.859 166.371C149.665 166.281 149.501 166.146 149.384 165.98C149.268 165.814 149.203 165.623 149.197 165.427V165.427ZM139.281 169.248C137.541 169.603 135.917 169.073 135.661 168.061C135.405 167.05 136.603 165.935 138.343 165.576C140.083 165.216 141.707 165.751 141.968 166.767C142.229 167.783 141.03 168.888 139.281 169.248Z" fill="white" stroke="#263238" stroke-width="1.08049" stroke-miterlimit="10"/>
<path d="M131.264 159.527L137.621 170.823C137.621 170.823 135.466 171.838 135.691 173.07L129.56 162.282C129.56 162.282 128.768 160.543 131.264 159.527Z" fill="#B8DBFF" stroke="#263238" stroke-width="1.08049" stroke-linejoin="round"/>
<path d="M130.106 163.223L134.824 171.529C135.025 171.13 135.382 170.81 135.827 170.63L130.583 162.369L130.106 163.223Z" fill="white" stroke="#263238" stroke-width="1.08049" stroke-miterlimit="10"/>
<path d="M210.473 213.492L192.896 229.251L202.07 237.472L220.114 221.488L210.473 213.492Z" fill="#B8DBFF" stroke="#263238" stroke-width="1.08049" stroke-miterlimit="10"/>
<path d="M201.763 234.15C201.903 234.038 202.066 233.952 202.244 233.898C202.422 233.844 202.609 233.822 202.797 233.834C202.984 233.846 203.166 233.892 203.333 233.969C203.5 234.045 203.648 234.151 203.768 234.28C203.804 234.331 203.835 234.386 203.859 234.442L217.285 222.477C217.13 222.471 216.979 222.433 216.843 222.366C216.707 222.299 216.591 222.205 216.503 222.09C216.382 221.91 216.322 221.703 216.331 221.493C216.34 221.283 216.417 221.079 216.553 220.908L210.797 216.13C210.7 216.247 210.583 216.35 210.451 216.436C210.225 216.607 209.941 216.704 209.645 216.712C209.35 216.721 209.06 216.639 208.822 216.481L196.354 227.534C196.541 227.605 196.702 227.722 196.82 227.871C196.985 228.134 197.041 228.441 196.978 228.738C196.916 229.034 196.739 229.302 196.479 229.493L201.693 234.19L201.763 234.15ZM203.362 227.282C202.535 226.194 203.031 224.558 204.47 223.619C205.909 222.679 207.749 222.805 208.576 223.888C209.404 224.972 208.912 226.612 207.468 227.552C206.024 228.491 204.2 228.365 203.362 227.282Z" fill="white" stroke="#263238" stroke-width="1.08049" stroke-miterlimit="10"/>
<path d="M242.604 251.932L266.623 254.179L267.926 242.942L243.436 240.519L242.604 251.932Z" fill="#B8DBFF" stroke="#263238" stroke-width="1.08049" stroke-miterlimit="10"/>
<path d="M265.325 245.183C265.147 245.156 264.977 245.097 264.824 245.011C264.672 244.924 264.541 244.811 264.437 244.678C264.334 244.546 264.262 244.396 264.224 244.238C264.186 244.08 264.183 243.917 264.217 243.758C264.238 243.702 264.265 243.648 264.297 243.596L246.013 241.839C246.101 241.948 246.161 242.074 246.188 242.207C246.215 242.34 246.208 242.477 246.168 242.607C246.092 242.796 245.957 242.96 245.779 243.082C245.601 243.203 245.388 243.275 245.165 243.29L244.664 250.109C244.823 250.104 244.981 250.119 245.135 250.154C245.417 250.205 245.672 250.339 245.859 250.534C246.046 250.73 246.155 250.975 246.168 251.233L263.099 252.9C263.043 252.73 263.043 252.549 263.099 252.379C263.219 252.106 263.443 251.88 263.731 251.74C264.019 251.601 264.352 251.556 264.673 251.615L265.415 245.196L265.325 245.183ZM258.566 248.329C258.16 249.552 256.481 250.221 254.811 249.821C253.142 249.421 252.114 248.1 252.52 246.877C252.926 245.655 254.611 244.985 256.28 245.385C257.95 245.785 258.972 247.08 258.566 248.307V248.329Z" fill="white" stroke="#263238" stroke-width="1.08049" stroke-miterlimit="10"/>
<path d="M269.967 272.289C269.967 272.289 271.471 272.644 273.406 276.783C275.341 280.923 277.191 286.335 277.191 286.335C277.191 286.335 272.895 284.69 270.473 284.577C267.811 284.456 263.956 285.476 263.956 285.476C263.956 285.476 262.452 271.376 251.979 266.679C252.71 265.934 253.641 265.367 254.683 265.032C255.726 264.697 256.846 264.605 257.94 264.764C261.78 265.263 269.967 272.289 269.967 272.289Z" fill="#B8DBFF" stroke="#263238" stroke-width="1.08049" stroke-linejoin="round"/>
<path d="M255.733 267.146C255.733 267.146 262.928 273.7 264.627 280.545C264.885 280.609 265.124 280.724 265.326 280.88C265.529 281.037 265.689 281.233 265.797 281.452C265.904 281.672 265.956 281.91 265.948 282.15C265.94 282.389 265.872 282.624 265.75 282.838C268.257 282.347 270.874 282.612 273.195 283.593C273.195 283.593 273.641 282.64 274.223 282.613C274.223 282.613 271.07 273.974 267.706 271.335C265.398 269.466 262.803 267.904 260 266.697C258.778 266.196 257.409 266.06 256.094 266.31C256.094 266.31 257.343 267.322 255.733 267.146ZM263.594 271.722C264.347 271.214 265.921 271.942 267.104 273.354C268.287 274.765 268.658 276.32 267.906 276.833C267.154 277.345 265.58 276.612 264.397 275.201C263.213 273.79 262.858 272.239 263.594 271.727V271.722Z" fill="white" stroke="#263238" stroke-width="1.08049" stroke-miterlimit="10"/>
<path d="M271.119 273.177C271.119 273.177 267.8 269.208 264.336 267.356C262.316 266.267 260.163 265.391 257.919 264.745C257.919 264.745 259.493 264.799 260.676 266.934C261.358 268.156 261.128 269.941 261.128 269.941C264.609 270.6 267.972 271.689 271.119 273.177V273.177Z" fill="#B8DBFF" stroke="#263238" stroke-width="1.08049" stroke-linejoin="round"/>
<path d="M258.346 220.325C258.346 220.325 250.229 225.246 245.978 229.714L237.791 222.909C237.791 222.909 248.164 210.216 252.435 211.776L258.346 220.325Z" fill="#B8DBFF" stroke="#263238" stroke-width="1.08049" stroke-linejoin="round"/>
<path d="M241.802 222.426C241.865 222.665 241.839 222.917 241.729 223.142C241.619 223.368 241.429 223.555 241.19 223.675L244.83 226.727C245.017 226.612 245.223 226.526 245.441 226.471C245.702 226.391 245.981 226.368 246.253 226.406C246.526 226.443 246.784 226.54 247.005 226.687C250.715 222.61 257.338 219.315 257.338 219.315L254.33 214.681C254.33 214.681 253.678 211.885 250.074 213.544C247.286 214.829 242.774 219.589 240.874 221.68C241.089 221.718 241.289 221.807 241.452 221.938C241.615 222.07 241.736 222.238 241.802 222.426ZM250.179 216.322C251.743 215.549 253.468 215.665 254.024 216.573C254.581 217.481 253.764 218.852 252.199 219.621C250.635 220.39 248.911 220.277 248.349 219.365C247.788 218.452 248.595 217.09 250.164 216.322H250.179Z" fill="white" stroke="#263238" stroke-width="1.08049" stroke-miterlimit="10"/>
<path d="M260.853 223.712L251.297 214.403C251.297 214.403 253.062 212.897 252.47 211.778L261.655 220.651C261.655 220.651 262.928 222.121 260.853 223.712Z" fill="#B8DBFF" stroke="#263238" stroke-width="1.08049" stroke-linejoin="round"/>
<path d="M260.823 219.856L253.754 213.024C253.689 213.458 253.452 213.857 253.087 214.148L260.607 220.795L260.823 219.856Z" fill="white" stroke="#263238" stroke-width="1.08049" stroke-miterlimit="10"/>
</g>
<defs>
<filter id="filter0_d_1_3474" x="0.0867043" y="0.917797" width="406.656" height="759.952" filterUnits="userSpaceOnUse" color-interpolation-filters="sRGB">
<feFlood flood-opacity="0" result="BackgroundImageFix"/>
<feColorMatrix in="SourceAlpha" type="matrix" values="0 0 0 0 0 0 0 0 0 0 0 0 0 0 0 0 0 0 127 0" result="hardAlpha"/>
<feOffset dy="5.65922"/>
<feGaussianBlur stdDeviation="25.8707"/>
<feComposite in2="hardAlpha" operator="out"/>
<feColorMatrix type="matrix" values="0 0 0 0 0 0 0 0 0 0 0 0 0 0 0 0 0 0 0.18 0"/>
<feBlend mode="normal" in2="BackgroundImageFix" result="effect1_dropShadow_1_3474"/>
<feBlend mode="normal" in="SourceGraphic" in2="effect1_dropShadow_1_3474" result="shape"/>
</filter>
<filter id="filter1_d_1_3474" x="82.5494" y="574.116" width="240.921" height="45.2737" filterUnits="userSpaceOnUse" color-interpolation-filters="sRGB">
<feFlood flood-opacity="0" result="BackgroundImageFix"/>
<feColorMatrix in="SourceAlpha" type="matrix" values="0 0 0 0 0 0 0 0 0 0 0 0 0 0 0 0 0 0 127 0" result="hardAlpha"/>
<feOffset dy="1.61692"/>
<feGaussianBlur stdDeviation="1.61692"/>
<feComposite in2="hardAlpha" operator="out"/>
<feColorMatrix type="matrix" values="0 0 0 0 0 0 0 0 0 0 0 0 0 0 0 0 0 0 0.2 0"/>
<feBlend mode="normal" in2="BackgroundImageFix" result="effect1_dropShadow_1_3474"/>
<feBlend mode="normal" in="SourceGraphic" in2="effect1_dropShadow_1_3474" result="shape"/>
</filter>
<clipPath id="clip0_1_3474">
<rect width="303.172" height="656.469" fill="white" transform="translate(51.8281 47)"/>
</clipPath>
</defs>
</svg>
