<svg width="408" height="408" viewBox="0 0 408 408" fill="none" xmlns="http://www.w3.org/2000/svg">
<g clip-path="url(#clip0_1_2306)">
<path fill-rule="evenodd" clip-rule="evenodd" d="M287.13 311.99H84.5311V64.8506H287.13V206.725L300.965 219.099V50.9998H70.6802V325.782H300.965V262.606L287.13 250.127V311.99Z" fill="#021D31" fill-opacity="0.4"/>
<path fill-rule="evenodd" clip-rule="evenodd" d="M108.691 232.526H266.091V247.015H108.691V232.526ZM323.47 282.903V343.094H120.886V333.478H106.971V357.001H337.321V294.131C335.711 293.495 334.21 292.589 332.889 291.398L323.471 282.903H323.47ZM310.387 82.1481V96.0042H323.47V239.222L337.319 251.609V82.1481H310.387ZM108.691 273.894H266.091V288.383H108.691V273.894ZM166.582 165.659C168.061 165.659 169.398 165.247 170.64 164.631L181.223 173.287C181.154 173.701 180.987 174.046 180.987 174.495C180.987 179.616 185.14 183.741 190.259 183.741C195.349 183.741 199.509 179.616 199.509 174.495C199.509 173.016 199.095 171.679 198.478 170.437C203.564 162.809 210.06 153.049 213.982 147.208C214.563 147.306 215.145 147.552 215.771 147.552C218.004 147.552 219.958 146.69 221.576 145.388C225.54 147.7 229.503 150.013 233.464 152.328C233.464 152.461 233.401 152.531 233.401 152.673C233.401 157.795 237.554 161.947 242.676 161.947C247.761 161.947 251.924 157.795 251.924 152.673C251.924 147.552 247.761 143.424 242.676 143.424C240.405 143.424 238.383 144.313 236.765 145.66L224.948 138.753C224.948 138.61 225.009 138.47 225.009 138.305C225.009 133.183 220.891 129.055 215.771 129.055C210.648 129.055 206.521 133.219 206.521 138.305C206.521 140.02 207.103 141.533 207.929 142.906C203.046 150.227 196.693 159.747 192.741 165.73C191.917 165.494 191.123 165.211 190.259 165.211C188.343 165.211 186.653 165.932 185.174 166.934C182.254 164.525 178.612 161.567 175.347 158.893C175.584 158.101 175.866 157.274 175.866 156.388C175.866 151.257 171.704 147.139 166.582 147.139C161.462 147.139 157.336 151.257 157.336 156.388C157.3 161.507 161.462 165.659 166.582 165.659H166.582ZM349.731 271.26L271.803 201.57C268.447 206.682 263.725 210.057 259.222 214.299C258.854 214.646 258.466 214.993 258.078 215.339L337.157 286.662C338.925 288.107 341.032 288.826 343.139 288.889C346.12 288.978 349.122 287.734 351.146 285.228C354.614 280.994 353.985 274.73 349.731 271.26Z" fill="#021D31" fill-opacity="0.4"/>
<path fill-rule="evenodd" clip-rule="evenodd" d="M177.576 220.043C186.703 223.901 196.387 225.849 206.35 225.849C216.333 225.849 226.016 223.901 235.123 220.043C243.256 216.603 250.614 211.791 257.037 205.746C257.577 205.245 258.107 204.735 258.628 204.215C262.815 200.027 266.487 195.354 269.565 190.295C271.414 187.212 273.064 184.032 274.457 180.71C278.314 171.583 280.263 161.899 280.263 151.937C280.263 141.974 278.314 132.27 274.457 123.163C273.939 121.931 273.383 120.698 272.786 119.504C269.207 112.167 264.454 105.505 258.608 99.6591C254.993 96.0443 251.014 92.8123 246.736 90.0147C243.058 87.6087 239.18 85.5405 235.104 83.8102C225.976 79.9526 216.293 78.0042 206.33 78.0042C196.347 78.0042 186.663 79.9528 177.557 83.8102C173.575 85.4937 169.749 87.5234 166.123 89.8759C161.787 92.6799 157.75 95.9405 154.052 99.6398C148.226 105.465 143.473 112.127 139.874 119.485C139.297 120.677 138.72 121.91 138.204 123.143C134.346 132.27 132.396 141.955 132.396 151.916C132.396 161.879 134.346 171.583 138.204 180.691C141.922 189.5 147.251 197.394 154.052 204.194C160.852 210.975 168.766 216.305 177.576 220.043L177.576 220.043ZM164.929 119.485C165.327 118.988 165.724 118.491 166.142 118.013C167.097 116.88 168.091 115.786 169.165 114.732C179.107 104.79 192.311 99.3216 206.37 99.3216C220.428 99.3214 233.632 104.79 243.555 114.732C244.681 115.857 245.755 117.031 246.776 118.252C247.115 118.669 247.453 119.067 247.791 119.504C255.049 128.731 258.966 140.025 258.966 151.937C258.966 165.995 253.498 179.199 243.555 189.142C233.613 199.085 220.409 204.553 206.37 204.553C192.33 204.553 179.107 199.085 169.184 189.142C159.242 179.2 153.773 165.996 153.773 151.937C153.754 140.006 157.691 128.711 164.93 119.485H164.929Z" fill="#021D31" fill-opacity="0.4"/>
</g>
<defs>
<clipPath id="clip0_1_2306">
<rect width="408" height="408" fill="white"/>
</clipPath>
</defs>
</svg>
