<svg width="447" height="439" viewBox="0 0 447 439" fill="none" xmlns="http://www.w3.org/2000/svg">
<path d="M74.6318 195.365L72.2725 193.517L79.4623 184.332L88.9685 189.478L94.8494 168.726L108.812 187.641L106.4 189.421L96.0665 175.422L90.8322 193.894L80.2628 188.173L74.6318 195.365ZM374.053 176.709L295.445 176.597V88.4082H358.177L374.054 105.201L374.053 176.709ZM298.443 173.604L371.056 173.707V106.394L356.886 91.4061H298.443V173.604Z" fill="#4A9062"/>
<path d="M372.555 109.214H354.619V89.907H357.617V106.216H372.555V109.214Z" fill="#4A9062"/>
<path d="M318.589 117.241L311.316 109.97L313.436 107.851L318.589 113.002L327.291 104.3L329.41 106.42L318.589 117.241ZM318.589 138.337L311.316 131.065L313.436 128.945L318.589 134.098L327.291 125.396L329.41 127.515L318.589 138.337ZM318.589 159.843L311.316 152.571L313.436 150.451L318.589 155.604L327.291 146.901L329.41 149.02L318.589 159.843Z" fill="#3F8958"/>
<path d="M336.667 133.064H359.406V136.062H336.667V133.064ZM336.667 114.674H359.406V117.672H336.667V114.674ZM336.667 151.609H359.131V154.607H336.667V151.609Z" fill="#4A9062"/>
<path d="M90.7831 146.812L79.9208 142.518L80.2416 133.206C78.9317 132.142 77.7163 130.967 76.6092 129.693L67.3158 130.322L62.6731 119.606L69.4813 113.248C69.3103 111.569 69.2832 109.879 69.4003 108.196L62.3823 102.063L66.6763 91.2003L75.9876 91.5281C77.0525 90.2179 78.2283 89.0019 79.5021 87.8936L78.8726 78.601L89.5939 73.9532L95.9484 80.7635C97.6274 80.5905 99.3183 80.5647 101.002 80.6866L107.129 73.6704L117.998 77.9615L117.672 87.273C118.982 88.3382 120.197 89.5141 121.305 90.7876L130.602 90.167L134.824 99.9103L132.074 101.104L128.691 93.2989L119.983 93.8795L119.494 93.2869C118.233 91.7579 116.804 90.3758 115.234 89.1667L114.623 88.6971L114.927 79.9711L107.996 77.236L102.252 83.8114L101.483 83.7365C99.5125 83.5408 97.5257 83.571 95.5616 83.8264L94.7992 83.9263L88.8434 77.5447L82.0063 80.5097L82.5959 89.2137L82.0023 89.7034C80.4732 90.9654 79.0908 92.3954 77.8813 93.9664L77.4116 94.578L68.6868 94.2702L65.9488 101.198L72.5221 106.942L72.4481 107.708C72.258 109.681 72.2898 111.668 72.5431 113.634L72.643 114.397L66.2646 120.353L69.2254 127.189L77.9332 126.599L78.4229 127.195C79.682 128.724 81.1101 130.106 82.6798 131.314L83.2904 131.784L82.9906 140.508L89.9187 143.246L95.6616 136.676L96.428 136.75C98.4029 136.94 100.393 136.91 102.361 136.659L103.122 136.562L109.071 142.94L116.878 139.554L118.072 142.304L108.322 146.531L101.969 139.72C100.29 139.89 98.5987 139.917 96.9147 139.799L90.7831 146.812ZM98.9782 124.765C95.3825 124.77 91.9129 123.44 89.241 121.034C86.5691 118.627 84.885 115.315 84.5145 111.739C84.144 108.162 85.1136 104.575 87.2355 101.672C89.3575 98.7689 92.4809 96.7564 96.0012 96.0238C99.5216 95.2912 103.189 95.8908 106.292 97.7063C109.396 99.5218 111.716 102.424 112.803 105.852C113.89 109.28 113.667 112.988 112.177 116.261C110.686 119.534 108.035 122.137 104.736 123.567C102.918 124.354 100.959 124.762 98.9782 124.765ZM98.9552 98.7092C96.0779 98.704 93.3022 99.7724 91.1708 101.705C89.0395 103.638 87.7059 106.297 87.4308 109.161C87.1557 112.025 87.9589 114.889 89.6834 117.193C91.4078 119.496 93.9294 121.073 96.7551 121.616C99.5808 122.158 102.507 121.628 104.962 120.127C107.417 118.626 109.224 116.263 110.029 113.501C110.835 110.739 110.581 107.775 109.317 105.19C108.053 102.605 105.871 100.585 103.196 99.5236C101.847 98.9871 100.408 98.7108 98.9552 98.7092Z" fill="#3F8958"/>
<path d="M103.902 300.49H135.635V303.488H103.902V300.49Z" fill="#4A9062"/>
<path d="M117.526 259.857H108.752C107.017 259.857 105.321 259.343 103.878 258.379C102.435 257.414 101.31 256.044 100.646 254.441C99.9823 252.838 99.8086 251.074 100.147 249.372C100.486 247.67 101.321 246.106 102.548 244.879C103.775 243.652 105.339 242.816 107.041 242.478C108.743 242.139 110.507 242.313 112.11 242.977C113.713 243.641 115.083 244.766 116.047 246.209C117.011 247.652 117.526 249.348 117.526 251.083V259.857ZM108.752 245.307C107.22 245.307 105.751 245.916 104.668 246.999C103.585 248.082 102.976 249.551 102.976 251.083C102.976 252.615 103.585 254.084 104.668 255.168C105.751 256.251 107.22 256.859 108.752 256.859H114.528V251.083C114.527 249.552 113.918 248.084 112.835 247.001C111.752 245.918 110.284 245.309 108.752 245.307ZM132.031 259.857H123.258V251.083C123.258 249.348 123.772 247.652 124.737 246.209C125.701 244.766 127.071 243.641 128.674 242.977C130.277 242.313 132.041 242.139 133.743 242.478C135.445 242.816 137.009 243.652 138.236 244.879C139.463 246.106 140.298 247.67 140.637 249.372C140.975 251.074 140.802 252.838 140.138 254.441C139.473 256.044 138.349 257.414 136.906 258.379C135.463 259.343 133.767 259.857 132.032 259.857H132.031ZM126.256 256.859H132.032C133.174 256.859 134.291 256.521 135.241 255.886C136.19 255.251 136.931 254.349 137.368 253.294C137.805 252.238 137.919 251.077 137.697 249.956C137.474 248.836 136.924 247.807 136.116 246.999C135.308 246.191 134.279 245.641 133.158 245.418C132.038 245.195 130.877 245.31 129.821 245.747C128.766 246.184 127.864 246.924 127.229 247.874C126.595 248.824 126.256 249.941 126.256 251.083V256.859Z" fill="#3F8958"/>
<path d="M123.258 258.358H126.256V289.723H123.258V258.358ZM114.35 257.152H117.347V290.836H114.35V257.152Z" fill="#3F8958"/>
<path d="M119.717 324.034C117.172 324.031 114.732 323.019 112.932 321.219C111.132 319.419 110.12 316.979 110.117 314.434H113.115C113.115 316.185 113.811 317.864 115.049 319.102C116.287 320.34 117.966 321.036 119.717 321.036C121.468 321.036 123.148 320.34 124.386 319.102C125.624 317.864 126.32 316.185 126.32 314.434H129.317C129.315 316.979 128.303 319.419 126.503 321.219C124.703 323.019 122.263 324.031 119.717 324.034Z" fill="#4A9062"/>
<path d="M127.802 315.158H112.569C109.837 315.155 107.217 314.069 105.285 312.137C103.353 310.205 102.266 307.586 102.262 304.853V288.306H105.26V304.853C105.263 306.791 106.034 308.648 107.404 310.018C108.774 311.388 110.631 312.158 112.569 312.16H127.802C129.739 312.158 131.597 311.388 132.967 310.018C134.337 308.648 135.108 306.791 135.11 304.853V288.781H138.108V304.852C138.104 307.585 137.018 310.204 135.086 312.136C133.154 314.068 130.534 315.154 127.802 315.157V315.158Z" fill="#4A9062"/>
<path d="M119.867 293.281C113.067 293.265 106.377 291.558 100.4 288.315C94.4224 285.072 89.345 280.393 85.6242 274.701C81.9035 269.008 79.6561 262.48 79.0843 255.703C78.5124 248.927 79.6341 242.114 82.3482 235.879C85.0624 229.643 89.2841 224.18 94.6334 219.981C99.9827 215.782 106.292 212.978 112.994 211.823C119.695 210.667 126.579 211.195 133.026 213.36C139.473 215.525 145.28 219.258 149.926 224.225L147.736 226.272C142.27 220.416 135.096 216.435 127.235 214.897C119.374 213.358 111.228 214.341 103.958 217.704C96.6887 221.067 90.6663 226.64 86.7498 233.627C82.8334 240.615 81.2227 248.66 82.1475 256.617C83.0723 264.573 86.4853 272.035 91.9 277.938C97.3147 283.841 104.455 287.883 112.302 289.49C120.149 291.096 128.303 290.184 135.602 286.883C142.9 283.582 148.97 278.062 152.947 271.108L155.551 272.595C152.889 277.282 149.323 281.395 145.061 284.694C140.799 287.994 135.925 290.416 130.721 291.819C127.184 292.787 123.534 293.279 119.867 293.281ZM369.685 225.713L360.609 205.509L384.617 208.534L369.685 225.713ZM365.53 209.15L370.499 220.207L378.671 210.806L365.53 209.15ZM263.926 86.4605C262.226 86.4607 260.565 85.957 259.152 85.013C257.739 84.069 256.637 82.7272 255.987 81.1572C255.337 79.5872 255.166 77.8596 255.498 76.1928C255.829 74.5261 256.647 72.995 257.849 71.7933C259.05 70.5916 260.581 69.7731 262.248 69.4415C263.915 69.1099 265.642 69.28 267.212 69.9303C268.782 70.5806 270.124 71.6819 271.068 73.0948C272.013 74.5078 272.516 76.1691 272.516 77.8685C272.514 80.1462 271.608 82.33 269.997 83.9407C268.387 85.5514 266.203 86.4576 263.926 86.4605ZM263.926 72.2733C262.819 72.2731 261.738 72.601 260.818 73.2155C259.898 73.8301 259.18 74.7036 258.757 75.7257C258.333 76.7479 258.222 77.8726 258.438 78.9578C258.654 80.043 259.186 81.0399 259.968 81.8224C260.751 82.6049 261.747 83.1379 262.832 83.3539C263.917 83.57 265.042 83.4594 266.064 83.0362C267.087 82.6129 267.96 81.8961 268.575 80.9762C269.19 80.0564 269.518 78.9749 269.519 77.8685C269.517 76.3854 268.927 74.9634 267.879 73.9145C266.83 72.8657 265.409 72.2754 263.926 72.2733Z" fill="#3F8958"/>
<path d="M93.8228 357.436C92.1235 357.436 90.4623 356.932 89.0493 355.988C87.6363 355.044 86.5349 353.703 85.8844 352.133C85.2339 350.563 85.0636 348.835 85.3949 347.168C85.7262 345.502 86.5443 343.971 87.7458 342.769C88.9472 341.567 90.4781 340.749 92.1447 340.417C93.8113 340.085 95.5389 340.255 97.1089 340.905C98.6789 341.555 100.021 342.657 100.965 344.069C101.909 345.482 102.414 347.143 102.414 348.843C102.411 351.121 101.505 353.305 99.8946 354.916C98.2839 356.527 96.1009 357.433 93.8228 357.436ZM93.8228 343.249C92.7164 343.248 91.6348 343.576 90.7147 344.191C89.7947 344.805 89.0775 345.679 88.6539 346.701C88.2304 347.723 88.1195 348.848 88.3352 349.933C88.5509 351.019 89.0836 352.016 89.8659 352.798C90.6482 353.581 91.645 354.113 92.7301 354.329C93.8153 354.545 94.9401 354.435 95.9624 354.011C96.9846 353.588 97.8583 352.871 98.473 351.951C99.0877 351.031 99.4159 349.949 99.4159 348.843C99.4143 347.36 98.8244 345.938 97.7757 344.889C96.7269 343.84 95.306 343.25 93.8228 343.249ZM358.934 336.461H355.936V267.159C355.937 265.883 356.444 264.659 357.346 263.757C358.249 262.854 359.472 262.347 360.748 262.345H369.036C369.377 262.345 369.71 262.249 369.999 262.069C370.287 261.888 370.519 261.63 370.668 261.324C370.817 261.018 370.877 260.676 370.841 260.337C370.805 259.999 370.674 259.677 370.464 259.409L344.885 226.814C344.715 226.597 344.498 226.423 344.251 226.302C344.003 226.182 343.732 226.12 343.457 226.12C343.182 226.12 342.91 226.182 342.663 226.302C342.415 226.423 342.199 226.597 342.029 226.814L316.45 259.409C316.24 259.677 316.109 259.999 316.073 260.337C316.037 260.676 316.097 261.018 316.246 261.324C316.395 261.63 316.627 261.888 316.916 262.069C317.204 262.249 317.538 262.345 317.878 262.345H326.836C328.112 262.347 329.335 262.854 330.237 263.757C331.14 264.659 331.647 265.883 331.648 267.159V299.941H328.65V267.159C328.65 266.678 328.459 266.216 328.119 265.876C327.778 265.535 327.317 265.344 326.836 265.343H317.878C316.975 265.343 316.091 265.089 315.325 264.61C314.56 264.132 313.945 263.447 313.55 262.635C313.155 261.823 312.997 260.917 313.093 260.019C313.189 259.121 313.535 258.269 314.093 257.559L339.67 224.963C340.121 224.389 340.695 223.925 341.351 223.606C342.007 223.287 342.727 223.121 343.457 223.121C344.186 223.121 344.906 223.287 345.562 223.606C346.218 223.925 346.793 224.389 347.243 224.963L372.822 257.559C373.379 258.269 373.726 259.121 373.822 260.019C373.918 260.917 373.759 261.823 373.364 262.635C372.97 263.447 372.354 264.132 371.589 264.61C370.824 265.089 369.939 265.343 369.036 265.343H360.748C360.267 265.344 359.806 265.535 359.465 265.876C359.125 266.216 358.934 266.678 358.934 267.159V336.461ZM140.322 202.178H137.324V133.505C137.323 132.933 137.096 132.384 136.691 131.979C136.286 131.575 135.738 131.347 135.165 131.347H126.019C125.052 131.347 124.104 131.075 123.284 130.562C122.463 130.049 121.804 129.316 121.381 128.446C120.958 127.576 120.788 126.605 120.891 125.643C120.993 124.681 121.365 123.767 121.962 123.006L150.193 87.0311C150.675 86.4164 151.291 85.9194 151.994 85.5777C152.696 85.2359 153.467 85.0583 154.249 85.0583C155.03 85.0583 155.801 85.2359 156.504 85.5777C157.207 85.9194 157.822 86.4164 158.305 87.0311L186.536 123.006C187.133 123.767 187.504 124.681 187.607 125.643C187.71 126.605 187.54 127.576 187.116 128.446C186.693 129.316 186.034 130.049 185.214 130.562C184.394 131.075 183.446 131.347 182.479 131.347H172.594C172.309 131.32 172.022 131.355 171.752 131.448C171.481 131.541 171.233 131.69 171.025 131.885C170.583 132.49 170.372 133.234 170.43 133.981L170.435 134.105V178.411H167.437V134.161C167.328 132.608 167.817 131.073 168.804 129.871C169.29 129.36 169.88 128.96 170.534 128.698C171.187 128.435 171.89 128.316 172.594 128.349H182.48C182.885 128.349 183.282 128.235 183.625 128.021C183.969 127.806 184.245 127.499 184.423 127.134C184.6 126.77 184.671 126.363 184.628 125.96C184.585 125.557 184.429 125.175 184.178 124.856L155.948 88.8808C155.738 88.6344 155.478 88.4364 155.185 88.3006C154.891 88.1649 154.572 88.0946 154.249 88.0946C153.925 88.0946 153.606 88.1649 153.313 88.3006C153.019 88.4364 152.759 88.6344 152.55 88.8808L124.32 124.856C124.07 125.175 123.914 125.557 123.871 125.96C123.828 126.363 123.899 126.77 124.076 127.134C124.253 127.499 124.529 127.806 124.873 128.021C125.217 128.235 125.614 128.349 126.019 128.349H135.165C136.532 128.35 137.843 128.894 138.81 129.86C139.777 130.827 140.32 132.138 140.322 133.505V202.178ZM240.497 101.185C228.822 108.536 218.654 118.044 210.539 129.201C217.297 130.425 224.151 131.05 231.02 131.07C242.162 131.087 253.247 129.477 263.924 126.29C257.503 116.727 249.594 108.251 240.497 101.185ZM215.598 270.909C212.068 264.734 210.186 262.265 205.291 250.953C197.773 233.571 191.141 223.297 188.453 208.062C178.498 217.563 173.854 234.521 178.4 252.293L191.058 299.207C191.058 299.207 216.571 270.909 215.598 270.909ZM285.52 204.406C282.832 219.643 276.946 232.281 269.428 249.663C264.533 260.975 254.216 276.193 253.243 276.193C253.234 276.213 278.555 302.581 278.555 302.581L292.141 249.467C296.688 231.695 294.327 218.998 285.52 204.406Z" fill="#ABF8C5"/>
<path d="M233.129 190.107C229.524 190.107 226 189.038 223.002 187.035C220.005 185.032 217.669 182.185 216.289 178.855C214.91 175.524 214.549 171.859 215.252 168.323C215.956 164.787 217.692 161.539 220.241 158.99C222.79 156.441 226.038 154.705 229.574 154.002C233.11 153.299 236.775 153.661 240.105 155.04C243.436 156.42 246.282 158.757 248.285 161.755C250.288 164.752 251.356 168.277 251.356 171.882C251.351 176.714 249.429 181.348 246.011 184.765C242.594 188.182 237.961 190.104 233.129 190.109V190.107ZM233.129 156.652C230.117 156.652 227.172 157.545 224.668 159.219C222.164 160.892 220.212 163.271 219.059 166.054C217.906 168.837 217.605 171.899 218.192 174.853C218.78 177.807 220.23 180.521 222.36 182.651C224.49 184.781 227.204 186.231 230.158 186.819C233.112 187.406 236.174 187.105 238.957 185.952C241.74 184.799 244.118 182.847 245.791 180.343C247.465 177.838 248.358 174.894 248.358 171.882C248.354 167.844 246.748 163.973 243.893 161.118C241.038 158.262 237.167 156.657 233.129 156.652ZM186.051 305.5L171.235 247.58C168.977 238.663 169.068 229.313 171.499 220.442C173.929 211.571 178.617 203.481 185.105 196.962L187.142 194.926L187.641 197.761C190.277 212.695 196.25 226.506 203.814 243.992C207.576 252.685 211.801 261.171 216.471 269.412C217.155 269.412 217.843 269.417 218.533 269.43L222.051 269.502L186.051 305.5ZM185.245 201.181C179.814 207.309 175.963 214.673 174.027 222.63C172.092 230.587 172.13 238.896 174.139 246.835L187.652 299.66L214.904 272.409H214.729L214.297 271.653C209.403 263.083 204.987 254.25 201.067 245.193C194.19 229.292 188.194 215.429 185.245 201.181ZM279.355 305.5L243.356 269.502L246.873 269.43C247.565 269.417 248.252 269.413 248.937 269.412C253.604 261.174 257.827 252.692 261.588 244.003C269.152 226.513 275.128 212.699 277.764 197.761L278.265 194.926L280.3 196.962C286.788 203.481 291.476 211.571 293.907 220.442C296.338 229.313 296.429 238.662 294.171 247.579L279.355 305.5ZM250.502 272.409L277.755 299.66L291.267 246.835C293.276 238.896 293.315 230.587 291.379 222.63C289.443 214.673 285.592 207.309 280.161 201.181C277.212 215.433 271.215 229.297 264.34 245.193C260.42 254.25 256.003 263.083 251.109 271.653L250.677 272.409H250.502Z" fill="#3F8958"/>
<path d="M249.815 272.427H214.72L214.289 271.67C209.399 263.088 204.989 254.241 201.078 245.171C189.975 219.539 181.955 201.028 183.418 176.275C184.556 158.298 190.352 140.926 200.236 125.867L200.596 125.373C208.757 113.287 219.444 103.117 231.92 95.566L232.702 95.0894L233.481 95.565C246.124 103.223 256.939 113.552 265.171 125.829C275.09 140.886 280.888 158.28 281.987 176.277C283.451 201.028 275.431 219.54 264.332 245.16L262.95 244.578L264.327 245.171C260.417 254.241 256.006 263.088 251.117 271.671L250.686 272.427H249.815ZM216.464 269.429H248.941C253.604 261.181 257.821 252.688 261.573 243.987C272.515 218.728 280.416 200.492 278.995 176.453C277.93 158.989 272.304 142.108 262.678 127.497C254.862 115.838 244.642 105.987 232.704 98.6059C220.904 105.896 210.791 115.613 203.035 127.112L202.679 127.603C193.115 142.201 187.508 159.033 186.409 176.45C184.99 200.492 192.89 218.728 203.823 243.968C207.577 252.676 211.797 261.176 216.463 269.43L216.464 269.429Z" fill="#3F8958"/>
<path d="M234.652 132.569C223.409 132.579 212.232 130.832 201.528 127.39L202.447 124.536C222.309 130.903 243.614 131.238 263.666 125.496L264.495 128.377C254.792 131.163 244.747 132.573 234.652 132.568V132.569ZM130.382 368.716L130.35 368.233C130.309 367.716 130.285 367.197 130.28 366.678C130.271 360.889 131.758 355.196 134.598 350.151C137.437 345.106 141.532 340.881 146.486 337.885C151.439 334.89 157.083 333.225 162.869 333.053C168.655 332.881 174.388 334.207 179.511 336.904C180.959 327.939 185.52 319.772 192.393 313.836C199.265 307.9 208.009 304.575 217.089 304.446L217.134 307.444C208.398 307.567 200.011 310.896 193.57 316.799C187.129 322.702 183.082 330.767 182.199 339.459L181.96 341.837L179.923 340.586C175.285 337.727 169.967 336.159 164.519 336.043C159.072 335.928 153.692 337.269 148.936 339.929C144.181 342.59 140.222 346.472 137.469 351.174C134.717 355.877 133.27 361.229 133.279 366.678C133.279 367.133 133.311 367.581 133.341 368.028L133.374 368.535L130.382 368.716Z" fill="#3F8958"/>
<path d="M249.793 331.328H246.795V272.895H218.61V320.012H215.612V269.897H249.793V331.328Z" fill="#3F8958"/>
<path d="M335.025 368.706L332.031 368.546L332.071 367.904C332.099 367.498 332.128 367.091 332.128 366.679C332.137 361.183 330.837 355.765 328.335 350.872C325.833 345.979 322.201 341.753 317.741 338.544C313.28 335.334 308.119 333.233 302.685 332.416C297.251 331.598 291.7 332.087 286.493 333.842L285.337 334.228L284.723 333.179C281.663 327.965 277.298 323.638 272.058 320.625C266.817 317.612 260.882 316.016 254.837 315.995C252.734 316.004 250.636 316.206 248.57 316.599L248.019 313.651C250.267 313.224 252.549 313.005 254.837 312.998C261.201 313.018 267.457 314.646 273.025 317.729C278.592 320.813 283.291 325.252 286.685 330.635C292.304 328.94 298.242 328.584 304.024 329.596C309.805 330.608 315.269 332.96 319.978 336.464C324.687 339.968 328.509 344.525 331.14 349.772C333.77 355.019 335.135 360.809 335.126 366.679C335.126 367.159 335.095 367.633 335.062 368.108L335.025 368.706Z" fill="#3F8958"/>
<path d="M292.414 369.597C288.264 362.363 281.811 356.729 274.083 353.593C266.356 350.457 257.801 350.002 249.784 352.299L248.798 352.576L248.18 351.76C244.292 346.589 238.909 342.737 232.76 340.725C226.611 338.714 219.992 338.64 213.799 340.514C207.607 342.387 202.139 346.118 198.137 351.201C194.134 356.284 191.79 362.475 191.421 368.934L188.429 368.758C188.829 361.773 191.338 355.074 195.626 349.546C199.914 344.018 205.778 339.92 212.444 337.796C219.11 335.671 226.263 335.619 232.959 337.646C239.655 339.673 245.579 343.684 249.947 349.15C258.496 346.931 267.537 347.583 275.679 351.006C283.82 354.429 290.612 360.433 295.007 368.095L292.414 369.597Z" fill="#4A9062"/>
<path d="M227.306 271.396H230.303V311.838H227.306V271.396ZM233.165 202.653C231.766 202.654 230.368 202.562 228.981 202.376L229.381 199.405C230.623 199.571 231.875 199.655 233.128 199.655L233.165 202.653ZM237.351 202.367L236.944 199.396C238.196 199.224 239.436 198.966 240.653 198.624L241.464 201.51C240.114 201.889 238.74 202.175 237.351 202.367ZM224.868 201.531C223.518 201.156 222.195 200.688 220.908 200.131L222.098 197.379C223.26 197.881 224.454 198.303 225.673 198.642L224.868 201.531ZM245.42 200.099L244.222 197.351C245.38 196.845 246.503 196.261 247.582 195.602L249.146 198.161C247.949 198.891 246.704 199.538 245.42 200.099ZM217.178 198.201C215.981 197.473 214.834 196.665 213.746 195.782L215.635 193.455C216.618 194.252 217.653 194.981 218.735 195.638L217.178 198.201ZM210.674 192.921C209.717 191.899 208.83 190.814 208.019 189.673L210.464 187.937C211.196 188.968 211.998 189.948 212.862 190.872L210.674 192.921ZM205.83 186.094C205.182 184.852 204.62 183.566 204.148 182.247L206.971 181.237C207.397 182.427 207.904 183.587 208.488 184.708L205.83 186.094ZM203.008 178.204C202.722 176.833 202.53 175.444 202.433 174.047L205.423 173.838C205.511 175.1 205.684 176.354 205.943 177.592L203.008 178.204ZM205.415 170.048L202.423 169.853C202.515 168.456 202.701 167.066 202.98 165.693L205.918 166.293C205.665 167.532 205.497 168.786 205.415 170.048ZM206.928 162.642L204.102 161.645C204.568 160.324 205.124 159.036 205.766 157.79L208.43 159.165C207.852 160.289 207.35 161.45 206.928 162.642ZM210.394 155.923L207.942 154.198C208.749 153.052 209.632 151.962 210.586 150.936L212.781 152.978C211.919 153.904 211.122 154.888 210.394 155.923ZM215.542 150.383L213.643 148.064C214.727 147.176 215.869 146.363 217.063 145.631L218.631 148.186C217.553 148.848 216.521 149.582 215.542 150.383Z" fill="#3F8958"/>
</svg>
