<svg width="1440" height="972" viewBox="0 0 1440 972" fill="none" xmlns="http://www.w3.org/2000/svg">
<g clip-path="url(#clip0_256_1102)">
<rect width="1440" height="972" fill="url(#paint0_linear_256_1102)"/>
<g opacity="0.6">
<path opacity="0.1" fill-rule="evenodd" clip-rule="evenodd" d="M90.8086 -13.0365C91.1084 -13.3472 91.3971 -13.6685 91.6741 -14L154.252 52.7493C153.968 53.0781 153.696 53.4173 153.436 53.7663L90.8086 -13.0365ZM155.029 77.1073L89.8886 138.176C90.1729 138.5 90.4457 138.834 90.7064 139.178L155.966 77.9977C155.643 77.7121 155.33 77.4151 155.029 77.1073ZM61.2145 140.282C60.9718 140.657 60.7426 141.042 60.5277 141.436L-4 72.6065C-3.66272 72.3383 -3.33528 72.0582 -3.01831 71.767L61.2145 140.282ZM0.109844 49.0136L65.5757 -12.3606C65.2607 -12.654 64.9563 -12.9586 64.663 -13.2737L-0.619676 47.9289C-0.363839 48.281 -0.12045 48.6428 0.109844 49.0136Z" fill="white"/>
<path opacity="0.1" fill-rule="evenodd" clip-rule="evenodd" d="M90.8086 143.044C91.1084 142.733 91.3971 142.412 91.6741 142.081L154.252 208.83C153.968 209.159 153.696 209.498 153.436 209.847L90.8086 143.044ZM155.029 233.188L89.8886 294.257C90.1729 294.581 90.4457 294.915 90.7064 295.259L155.966 234.078C155.643 233.793 155.33 233.496 155.029 233.188ZM61.2145 296.363C60.9718 296.738 60.7426 297.123 60.5277 297.517L-4 228.687C-3.66272 228.419 -3.33528 228.139 -3.01831 227.848L61.2145 296.363ZM0.109844 205.094L65.5757 143.72C65.2607 143.427 64.9563 143.122 64.663 142.807L-0.619676 204.009C-0.363839 204.362 -0.12045 204.723 0.109844 205.094Z" fill="white"/>
<path opacity="0.1" fill-rule="evenodd" clip-rule="evenodd" d="M90.8087 299.125C91.1085 298.814 91.3972 298.493 91.6742 298.161L154.251 364.91C153.968 365.239 153.696 365.578 153.436 365.927L90.8087 299.125ZM155.029 389.268L89.8886 450.337C90.1729 450.661 90.4457 450.995 90.7064 451.339L155.966 390.159C155.643 389.873 155.33 389.576 155.029 389.268ZM61.2145 452.443C60.9718 452.818 60.7426 453.203 60.5277 453.597L-4 384.767C-3.66272 384.499 -3.33528 384.219 -3.01831 383.928L61.2145 452.443ZM0.10985 361.175L65.5756 299.8C65.2606 299.507 64.9562 299.203 64.6629 298.887L-0.619672 360.09C-0.363835 360.442 -0.120445 360.804 0.10985 361.175Z" fill="white"/>
<path opacity="0.1" fill-rule="evenodd" clip-rule="evenodd" d="M90.8086 455.205C91.1084 454.895 91.3971 454.573 91.6741 454.242L154.252 520.991C153.968 521.32 153.696 521.659 153.436 522.008L90.8086 455.205ZM155.029 545.349L89.8886 606.418C90.1729 606.742 90.4457 607.076 90.7064 607.42L155.966 546.239C155.643 545.954 155.33 545.657 155.029 545.349ZM61.2145 608.524C60.9718 608.899 60.7426 609.284 60.5277 609.678L-4 540.848C-3.66272 540.58 -3.33528 540.3 -3.01831 540.009L61.2145 608.524ZM0.109841 517.255L65.5757 455.881C65.2607 455.588 64.9563 455.283 64.663 454.968L-0.619679 516.171C-0.363842 516.523 -0.120454 516.885 0.109841 517.255Z" fill="white"/>
<path opacity="0.1" fill-rule="evenodd" clip-rule="evenodd" d="M90.8087 611.286C91.1085 610.975 91.3972 610.654 91.6742 610.322L154.251 677.071C153.968 677.4 153.696 677.739 153.436 678.088L90.8087 611.286ZM155.029 701.43L89.8886 762.498C90.1729 762.822 90.4457 763.157 90.7064 763.5L155.966 702.32C155.643 702.034 155.33 701.737 155.029 701.43ZM61.2145 764.604C60.9718 764.979 60.7426 765.364 60.5277 765.758L-4 696.929C-3.66272 696.66 -3.33528 696.38 -3.01831 696.089L61.2145 764.604ZM0.109844 673.336L65.5756 611.962C65.2606 611.668 64.9562 611.364 64.6629 611.049L-0.619676 672.251C-0.363839 672.603 -0.12045 672.965 0.109844 673.336Z" fill="white"/>
<path opacity="0.1" fill-rule="evenodd" clip-rule="evenodd" d="M90.8087 767.366C91.1085 767.056 91.3972 766.734 91.6742 766.403L154.251 833.152C153.968 833.481 153.696 833.82 153.436 834.169L90.8087 767.366ZM155.029 857.51L89.8886 918.579C90.1729 918.903 90.4457 919.237 90.7064 919.581L155.966 858.401C155.643 858.115 155.33 857.818 155.029 857.51ZM61.2145 920.685C60.9718 921.06 60.7426 921.445 60.5277 921.839L-4 853.009C-3.66272 852.741 -3.33528 852.461 -3.01831 852.17L61.2145 920.685ZM0.109843 829.416L65.5756 768.042C65.2606 767.749 64.9562 767.444 64.6629 767.129L-0.619676 828.332C-0.36384 828.684 -0.120451 829.046 0.109843 829.416Z" fill="white"/>
<path opacity="0.1" fill-rule="evenodd" clip-rule="evenodd" d="M90.8086 923.447C91.1084 923.136 91.3971 922.815 91.6741 922.483L154.252 989.233C153.968 989.562 153.696 989.901 153.436 990.25L90.8086 923.447ZM155.029 1013.59L89.8886 1074.66C90.1729 1074.98 90.4457 1075.32 90.7064 1075.66L155.966 1014.48C155.643 1014.2 155.33 1013.9 155.029 1013.59ZM61.2145 1076.77C60.9718 1077.14 60.7426 1077.53 60.5277 1077.92L-4 1009.09C-3.66272 1008.82 -3.33528 1008.54 -3.01831 1008.25L61.2145 1076.77ZM0.10985 985.497L65.5757 924.123C65.2608 923.829 64.9563 923.525 64.663 923.21L-0.619672 984.412C-0.363835 984.764 -0.120445 985.126 0.10985 985.497Z" fill="white"/>
</g>
<g opacity="0.6">
<path opacity="0.1" fill-rule="evenodd" clip-rule="evenodd" d="M279.809 -6.03655C280.108 -6.34716 280.397 -6.66853 280.674 -7L343.252 59.7493C342.968 60.0781 342.696 60.4173 342.436 60.7663L279.809 -6.03655ZM344.029 84.1073L278.889 145.176C279.173 145.5 279.446 145.834 279.706 146.178L344.966 84.9977C344.643 84.7121 344.33 84.4151 344.029 84.1073ZM250.215 147.282C249.972 147.657 249.743 148.042 249.528 148.436L185 79.6065C185.337 79.3383 185.665 79.0582 185.982 78.767L250.215 147.282ZM189.11 56.0136L254.576 -5.36064C254.261 -5.65404 253.956 -5.95859 253.663 -6.27368L188.38 54.9289C188.636 55.281 188.88 55.6428 189.11 56.0136Z" fill="white"/>
<path opacity="0.1" fill-rule="evenodd" clip-rule="evenodd" d="M279.809 150.044C280.108 149.733 280.397 149.412 280.674 149.081L343.252 215.83C342.968 216.159 342.696 216.498 342.436 216.847L279.809 150.044ZM344.029 240.188L278.889 301.257C279.173 301.581 279.446 301.915 279.706 302.259L344.966 241.078C344.643 240.793 344.33 240.496 344.029 240.188ZM250.215 303.363C249.972 303.738 249.743 304.123 249.528 304.517L185 235.687C185.337 235.419 185.665 235.139 185.982 234.848L250.215 303.363ZM189.11 212.094L254.576 150.72C254.261 150.427 253.956 150.122 253.663 149.807L188.38 211.009C188.636 211.362 188.88 211.723 189.11 212.094Z" fill="white"/>
<path opacity="0.1" fill-rule="evenodd" clip-rule="evenodd" d="M279.809 306.125C280.109 305.814 280.397 305.493 280.674 305.161L343.251 371.91C342.968 372.239 342.696 372.578 342.436 372.927L279.809 306.125ZM344.029 396.268L278.889 457.337C279.173 457.661 279.446 457.995 279.706 458.339L344.966 397.159C344.643 396.873 344.33 396.576 344.029 396.268ZM250.215 459.443C249.972 459.818 249.743 460.203 249.528 460.597L185 391.767C185.337 391.499 185.665 391.219 185.982 390.928L250.215 459.443ZM189.11 368.175L254.576 306.8C254.261 306.507 253.956 306.203 253.663 305.887L188.38 367.09C188.636 367.442 188.88 367.804 189.11 368.175Z" fill="white"/>
<path opacity="0.1" fill-rule="evenodd" clip-rule="evenodd" d="M279.809 462.205C280.108 461.895 280.397 461.573 280.674 461.242L343.252 527.991C342.968 528.32 342.696 528.659 342.436 529.008L279.809 462.205ZM344.029 552.349L278.889 613.418C279.173 613.742 279.446 614.076 279.706 614.42L344.966 553.239C344.643 552.954 344.33 552.657 344.029 552.349ZM250.215 615.524C249.972 615.899 249.743 616.284 249.528 616.678L185 547.848C185.337 547.58 185.665 547.3 185.982 547.009L250.215 615.524ZM189.11 524.255L254.576 462.881C254.261 462.588 253.956 462.283 253.663 461.968L188.38 523.171C188.636 523.523 188.88 523.885 189.11 524.255Z" fill="white"/>
<path opacity="0.1" fill-rule="evenodd" clip-rule="evenodd" d="M279.809 618.286C280.108 617.975 280.397 617.654 280.674 617.322L343.251 684.071C342.968 684.4 342.696 684.739 342.436 685.088L279.809 618.286ZM344.029 708.43L278.889 769.498C279.173 769.822 279.446 770.157 279.706 770.5L344.966 709.32C344.643 709.034 344.33 708.737 344.029 708.43ZM250.215 771.604C249.972 771.979 249.743 772.364 249.528 772.758L185 703.929C185.337 703.66 185.665 703.38 185.982 703.089L250.215 771.604ZM189.11 680.336L254.576 618.962C254.261 618.668 253.956 618.364 253.663 618.049L188.38 679.251C188.636 679.603 188.88 679.965 189.11 680.336Z" fill="white"/>
<path opacity="0.1" fill-rule="evenodd" clip-rule="evenodd" d="M279.809 774.366C280.108 774.056 280.397 773.734 280.674 773.403L343.251 840.152C342.968 840.481 342.696 840.82 342.436 841.169L279.809 774.366ZM344.029 864.51L278.889 925.579C279.173 925.903 279.446 926.237 279.706 926.581L344.966 865.401C344.643 865.115 344.33 864.818 344.029 864.51ZM250.215 927.685C249.972 928.06 249.743 928.445 249.528 928.839L185 860.009C185.337 859.741 185.665 859.461 185.982 859.17L250.215 927.685ZM189.11 836.416L254.576 775.042C254.261 774.749 253.956 774.444 253.663 774.129L188.38 835.332C188.636 835.684 188.88 836.046 189.11 836.416Z" fill="white"/>
<path opacity="0.1" fill-rule="evenodd" clip-rule="evenodd" d="M279.809 930.447C280.108 930.136 280.397 929.815 280.674 929.483L343.252 996.233C342.968 996.562 342.696 996.901 342.436 997.25L279.809 930.447ZM344.029 1020.59L278.889 1081.66C279.173 1081.98 279.446 1082.32 279.706 1082.66L344.966 1021.48C344.643 1021.2 344.33 1020.9 344.029 1020.59ZM250.215 1083.77C249.972 1084.14 249.743 1084.53 249.528 1084.92L185 1016.09C185.337 1015.82 185.665 1015.54 185.982 1015.25L250.215 1083.77ZM189.11 992.497L254.576 931.123C254.261 930.829 253.956 930.525 253.663 930.21L188.38 991.412C188.636 991.764 188.88 992.126 189.11 992.497Z" fill="white"/>
</g>
<g opacity="0.6">
<path opacity="0.1" fill-rule="evenodd" clip-rule="evenodd" d="M467.809 -0.0365498C468.108 -0.347164 468.397 -0.668526 468.674 -1L531.252 65.7493C530.968 66.0781 530.696 66.4173 530.436 66.7663L467.809 -0.0365498ZM532.029 90.1073L466.889 151.176C467.173 151.5 467.446 151.834 467.706 152.178L532.966 90.9977C532.643 90.7121 532.33 90.4151 532.029 90.1073ZM438.215 153.282C437.972 153.657 437.743 154.042 437.528 154.436L373 85.6065C373.337 85.3383 373.665 85.0582 373.982 84.767L438.215 153.282ZM377.11 62.0136L442.576 0.639361C442.261 0.34596 441.956 0.0414054 441.663 -0.273675L376.38 60.9289C376.636 61.281 376.88 61.6428 377.11 62.0136Z" fill="white"/>
<path opacity="0.1" fill-rule="evenodd" clip-rule="evenodd" d="M467.809 156.044C468.108 155.733 468.397 155.412 468.674 155.081L531.252 221.83C530.968 222.159 530.696 222.498 530.436 222.847L467.809 156.044ZM532.029 246.188L466.889 307.257C467.173 307.581 467.446 307.915 467.706 308.259L532.966 247.078C532.643 246.793 532.33 246.496 532.029 246.188ZM438.215 309.363C437.972 309.738 437.743 310.123 437.528 310.517L373 241.687C373.337 241.419 373.665 241.139 373.982 240.848L438.215 309.363ZM377.11 218.094L442.576 156.72C442.261 156.427 441.956 156.122 441.663 155.807L376.38 217.009C376.636 217.362 376.88 217.723 377.11 218.094Z" fill="white"/>
<path opacity="0.1" fill-rule="evenodd" clip-rule="evenodd" d="M467.809 312.125C468.109 311.814 468.397 311.493 468.674 311.161L531.251 377.91C530.968 378.239 530.696 378.578 530.436 378.927L467.809 312.125ZM532.029 402.268L466.889 463.337C467.173 463.661 467.446 463.995 467.706 464.339L532.966 403.159C532.643 402.873 532.33 402.576 532.029 402.268ZM438.215 465.443C437.972 465.818 437.743 466.203 437.528 466.597L373 397.767C373.337 397.499 373.665 397.219 373.982 396.928L438.215 465.443ZM377.11 374.175L442.576 312.8C442.261 312.507 441.956 312.203 441.663 311.887L376.38 373.09C376.636 373.442 376.88 373.804 377.11 374.175Z" fill="white"/>
<path opacity="0.1" fill-rule="evenodd" clip-rule="evenodd" d="M467.809 468.205C468.108 467.895 468.397 467.573 468.674 467.242L531.252 533.991C530.968 534.32 530.696 534.659 530.436 535.008L467.809 468.205ZM532.029 558.349L466.889 619.418C467.173 619.742 467.446 620.076 467.706 620.42L532.966 559.239C532.643 558.954 532.33 558.657 532.029 558.349ZM438.215 621.524C437.972 621.899 437.743 622.284 437.528 622.678L373 553.848C373.337 553.58 373.665 553.3 373.982 553.009L438.215 621.524ZM377.11 530.255L442.576 468.881C442.261 468.588 441.956 468.283 441.663 467.968L376.38 529.171C376.636 529.523 376.88 529.885 377.11 530.255Z" fill="white"/>
<path opacity="0.1" fill-rule="evenodd" clip-rule="evenodd" d="M467.809 624.286C468.108 623.975 468.397 623.654 468.674 623.322L531.251 690.071C530.968 690.4 530.696 690.739 530.436 691.088L467.809 624.286ZM532.029 714.43L466.889 775.498C467.173 775.822 467.446 776.157 467.706 776.5L532.966 715.32C532.643 715.034 532.33 714.737 532.029 714.43ZM438.215 777.604C437.972 777.979 437.743 778.364 437.528 778.758L373 709.929C373.337 709.66 373.665 709.38 373.982 709.089L438.215 777.604ZM377.11 686.336L442.576 624.962C442.261 624.668 441.956 624.364 441.663 624.049L376.38 685.251C376.636 685.603 376.88 685.965 377.11 686.336Z" fill="white"/>
<path opacity="0.1" fill-rule="evenodd" clip-rule="evenodd" d="M467.809 780.366C468.108 780.056 468.397 779.734 468.674 779.403L531.251 846.152C530.968 846.481 530.696 846.82 530.436 847.169L467.809 780.366ZM532.029 870.51L466.889 931.579C467.173 931.903 467.446 932.237 467.706 932.581L532.966 871.401C532.643 871.115 532.33 870.818 532.029 870.51ZM438.215 933.685C437.972 934.06 437.743 934.445 437.528 934.839L373 866.009C373.337 865.741 373.665 865.461 373.982 865.17L438.215 933.685ZM377.11 842.416L442.576 781.042C442.261 780.749 441.956 780.444 441.663 780.129L376.38 841.332C376.636 841.684 376.88 842.046 377.11 842.416Z" fill="white"/>
<path opacity="0.1" fill-rule="evenodd" clip-rule="evenodd" d="M467.809 936.447C468.108 936.136 468.397 935.815 468.674 935.483L531.252 1002.23C530.968 1002.56 530.696 1002.9 530.436 1003.25L467.809 936.447ZM532.029 1026.59L466.889 1087.66C467.173 1087.98 467.446 1088.32 467.706 1088.66L532.966 1027.48C532.643 1027.2 532.33 1026.9 532.029 1026.59ZM438.215 1089.77C437.972 1090.14 437.743 1090.53 437.528 1090.92L373 1022.09C373.337 1021.82 373.665 1021.54 373.982 1021.25L438.215 1089.77ZM377.11 998.497L442.576 937.123C442.261 936.829 441.956 936.525 441.663 936.21L376.38 997.412C376.636 997.764 376.88 998.126 377.11 998.497Z" fill="white"/>
</g>
<g opacity="0.6">
<path opacity="0.1" fill-rule="evenodd" clip-rule="evenodd" d="M650.809 2.96345C651.108 2.65284 651.397 2.33147 651.674 2L714.252 68.7493C713.968 69.0781 713.696 69.4173 713.436 69.7663L650.809 2.96345ZM715.029 93.1073L649.889 154.176C650.173 154.5 650.446 154.834 650.706 155.178L715.966 93.9977C715.643 93.7121 715.33 93.4151 715.029 93.1073ZM621.215 156.282C620.972 156.657 620.743 157.042 620.528 157.436L556 88.6065C556.337 88.3383 556.665 88.0582 556.982 87.767L621.215 156.282ZM560.11 65.0136L625.576 3.63936C625.261 3.34596 624.956 3.04141 624.663 2.72632L559.38 63.9289C559.636 64.281 559.88 64.6428 560.11 65.0136Z" fill="white"/>
<path opacity="0.1" fill-rule="evenodd" clip-rule="evenodd" d="M650.809 159.044C651.108 158.733 651.397 158.412 651.674 158.081L714.252 224.83C713.968 225.159 713.696 225.498 713.436 225.847L650.809 159.044ZM715.029 249.188L649.889 310.257C650.173 310.581 650.446 310.915 650.706 311.259L715.966 250.078C715.643 249.793 715.33 249.496 715.029 249.188ZM621.215 312.363C620.972 312.738 620.743 313.123 620.528 313.517L556 244.687C556.337 244.419 556.665 244.139 556.982 243.848L621.215 312.363ZM560.11 221.094L625.576 159.72C625.261 159.427 624.956 159.122 624.663 158.807L559.38 220.009C559.636 220.362 559.88 220.723 560.11 221.094Z" fill="white"/>
<path opacity="0.1" fill-rule="evenodd" clip-rule="evenodd" d="M650.809 315.125C651.109 314.814 651.397 314.493 651.674 314.161L714.251 380.91C713.968 381.239 713.696 381.578 713.436 381.927L650.809 315.125ZM715.029 405.268L649.889 466.337C650.173 466.661 650.446 466.995 650.706 467.339L715.966 406.159C715.643 405.873 715.33 405.576 715.029 405.268ZM621.215 468.443C620.972 468.818 620.743 469.203 620.528 469.597L556 400.767C556.337 400.499 556.665 400.219 556.982 399.928L621.215 468.443ZM560.11 377.175L625.576 315.8C625.261 315.507 624.956 315.203 624.663 314.887L559.38 376.09C559.636 376.442 559.88 376.804 560.11 377.175Z" fill="white"/>
<path opacity="0.1" fill-rule="evenodd" clip-rule="evenodd" d="M650.809 471.205C651.108 470.895 651.397 470.573 651.674 470.242L714.252 536.991C713.968 537.32 713.696 537.659 713.436 538.008L650.809 471.205ZM715.029 561.349L649.889 622.418C650.173 622.742 650.446 623.076 650.706 623.42L715.966 562.239C715.643 561.954 715.33 561.657 715.029 561.349ZM621.215 624.524C620.972 624.899 620.743 625.284 620.528 625.678L556 556.848C556.337 556.58 556.665 556.3 556.982 556.009L621.215 624.524ZM560.11 533.255L625.576 471.881C625.261 471.588 624.956 471.283 624.663 470.968L559.38 532.171C559.636 532.523 559.88 532.885 560.11 533.255Z" fill="white"/>
<path opacity="0.1" fill-rule="evenodd" clip-rule="evenodd" d="M650.809 627.286C651.108 626.975 651.397 626.654 651.674 626.322L714.251 693.071C713.968 693.4 713.696 693.739 713.436 694.088L650.809 627.286ZM715.029 717.43L649.889 778.498C650.173 778.822 650.446 779.157 650.706 779.5L715.966 718.32C715.643 718.034 715.33 717.737 715.029 717.43ZM621.215 780.604C620.972 780.979 620.743 781.364 620.528 781.758L556 712.929C556.337 712.66 556.665 712.38 556.982 712.089L621.215 780.604ZM560.11 689.336L625.576 627.962C625.261 627.668 624.956 627.364 624.663 627.049L559.38 688.251C559.636 688.603 559.88 688.965 560.11 689.336Z" fill="white"/>
<path opacity="0.1" fill-rule="evenodd" clip-rule="evenodd" d="M650.809 783.366C651.108 783.056 651.397 782.734 651.674 782.403L714.251 849.152C713.968 849.481 713.696 849.82 713.436 850.169L650.809 783.366ZM715.029 873.51L649.889 934.579C650.173 934.903 650.446 935.237 650.706 935.581L715.966 874.401C715.643 874.115 715.33 873.818 715.029 873.51ZM621.215 936.685C620.972 937.06 620.743 937.445 620.528 937.839L556 869.009C556.337 868.741 556.665 868.461 556.982 868.17L621.215 936.685ZM560.11 845.416L625.576 784.042C625.261 783.749 624.956 783.444 624.663 783.129L559.38 844.332C559.636 844.684 559.88 845.046 560.11 845.416Z" fill="white"/>
<path opacity="0.1" fill-rule="evenodd" clip-rule="evenodd" d="M650.809 939.447C651.108 939.136 651.397 938.815 651.674 938.483L714.252 1005.23C713.968 1005.56 713.696 1005.9 713.436 1006.25L650.809 939.447ZM715.029 1029.59L649.889 1090.66C650.173 1090.98 650.446 1091.32 650.706 1091.66L715.966 1030.48C715.643 1030.2 715.33 1029.9 715.029 1029.59ZM621.215 1092.77C620.972 1093.14 620.743 1093.53 620.528 1093.92L556 1025.09C556.337 1024.82 556.665 1024.54 556.982 1024.25L621.215 1092.77ZM560.11 1001.5L625.576 940.123C625.261 939.829 624.956 939.525 624.663 939.21L559.38 1000.41C559.636 1000.76 559.88 1001.13 560.11 1001.5Z" fill="white"/>
</g>
<g opacity="0.6">
<path opacity="0.1" fill-rule="evenodd" clip-rule="evenodd" d="M840.809 -147.037C841.108 -147.347 841.397 -147.669 841.674 -148L904.252 -81.2507C903.968 -80.9219 903.696 -80.5827 903.436 -80.2337L840.809 -147.037ZM905.029 -56.8927L839.889 4.1763C840.173 4.50021 840.446 4.83442 840.706 5.17828L905.966 -56.0023C905.643 -56.2879 905.33 -56.5849 905.029 -56.8927ZM811.215 6.28202C810.972 6.65733 810.743 7.04222 810.528 7.43603L746 -61.3935C746.337 -61.6617 746.665 -61.9418 746.982 -62.233L811.215 6.28202ZM750.11 -84.9864L815.576 -146.361C815.261 -146.654 814.956 -146.959 814.663 -147.274L749.38 -86.0711C749.636 -85.719 749.88 -85.3572 750.11 -84.9864Z" fill="white"/>
<path opacity="0.1" fill-rule="evenodd" clip-rule="evenodd" d="M840.809 9.04402C841.108 8.7334 841.397 8.41204 841.674 8.08057L904.252 74.8298C903.968 75.1587 903.696 75.4979 903.436 75.8469L840.809 9.04402ZM905.029 99.1878L839.889 160.257C840.173 160.581 840.446 160.915 840.706 161.259L905.966 100.078C905.643 99.7927 905.33 99.4956 905.029 99.1878ZM811.215 162.363C810.972 162.738 810.743 163.123 810.528 163.517L746 94.687C746.337 94.4188 746.665 94.1388 746.982 93.8476L811.215 162.363ZM750.11 71.0942L815.576 9.71993C815.261 9.42653 814.956 9.12197 814.663 8.80689L749.38 70.0094C749.636 70.3616 749.88 70.7234 750.11 71.0942Z" fill="white"/>
<path opacity="0.1" fill-rule="evenodd" clip-rule="evenodd" d="M840.809 165.125C841.109 164.814 841.397 164.493 841.674 164.161L904.251 230.91C903.968 231.239 903.696 231.578 903.436 231.927L840.809 165.125ZM905.029 255.268L839.889 316.337C840.173 316.661 840.446 316.995 840.706 317.339L905.966 256.159C905.643 255.873 905.33 255.576 905.029 255.268ZM811.215 318.443C810.972 318.818 810.743 319.203 810.528 319.597L746 250.767C746.337 250.499 746.665 250.219 746.982 249.928L811.215 318.443ZM750.11 227.175L815.576 165.8C815.261 165.507 814.956 165.203 814.663 164.887L749.38 226.09C749.636 226.442 749.88 226.804 750.11 227.175Z" fill="white"/>
<path opacity="0.1" fill-rule="evenodd" clip-rule="evenodd" d="M840.809 321.205C841.108 320.895 841.397 320.573 841.674 320.242L904.252 386.991C903.968 387.32 903.696 387.659 903.436 388.008L840.809 321.205ZM905.029 411.349L839.889 472.418C840.173 472.742 840.446 473.076 840.706 473.42L905.966 412.239C905.643 411.954 905.33 411.657 905.029 411.349ZM811.215 474.524C810.972 474.899 810.743 475.284 810.528 475.678L746 406.848C746.337 406.58 746.665 406.3 746.982 406.009L811.215 474.524ZM750.11 383.255L815.576 321.881C815.261 321.588 814.956 321.283 814.663 320.968L749.38 382.171C749.636 382.523 749.88 382.885 750.11 383.255Z" fill="white"/>
<path opacity="0.1" fill-rule="evenodd" clip-rule="evenodd" d="M840.809 477.286C841.108 476.975 841.397 476.654 841.674 476.322L904.251 543.071C903.968 543.4 903.696 543.739 903.436 544.088L840.809 477.286ZM905.029 567.43L839.889 628.498C840.173 628.822 840.446 629.157 840.706 629.5L905.966 568.32C905.643 568.034 905.33 567.737 905.029 567.43ZM811.215 630.604C810.972 630.979 810.743 631.364 810.528 631.758L746 562.929C746.337 562.66 746.665 562.38 746.982 562.089L811.215 630.604ZM750.11 539.336L815.576 477.962C815.261 477.668 814.956 477.364 814.663 477.049L749.38 538.251C749.636 538.603 749.88 538.965 750.11 539.336Z" fill="white"/>
<path opacity="0.1" fill-rule="evenodd" clip-rule="evenodd" d="M840.809 633.366C841.108 633.056 841.397 632.734 841.674 632.403L904.251 699.152C903.968 699.481 903.696 699.82 903.436 700.169L840.809 633.366ZM905.029 723.51L839.889 784.579C840.173 784.903 840.446 785.237 840.706 785.581L905.966 724.401C905.643 724.115 905.33 723.818 905.029 723.51ZM811.215 786.685C810.972 787.06 810.743 787.445 810.528 787.839L746 719.009C746.337 718.741 746.665 718.461 746.982 718.17L811.215 786.685ZM750.11 695.416L815.576 634.042C815.261 633.749 814.956 633.444 814.663 633.129L749.38 694.332C749.636 694.684 749.88 695.046 750.11 695.416Z" fill="white"/>
<path opacity="0.1" fill-rule="evenodd" clip-rule="evenodd" d="M840.809 789.447C841.108 789.136 841.397 788.815 841.674 788.483L904.252 855.233C903.968 855.562 903.696 855.901 903.436 856.25L840.809 789.447ZM905.029 879.591L839.889 940.66C840.173 940.984 840.446 941.318 840.706 941.662L905.966 880.481C905.643 880.196 905.33 879.898 905.029 879.591ZM811.215 942.765C810.972 943.141 810.743 943.526 810.528 943.919L746 875.09C746.337 874.822 746.665 874.542 746.982 874.25L811.215 942.765ZM750.11 851.497L815.576 790.123C815.261 789.829 814.956 789.525 814.663 789.21L749.38 850.412C749.636 850.764 749.88 851.126 750.11 851.497Z" fill="white"/>
<path opacity="0.1" fill-rule="evenodd" clip-rule="evenodd" d="M840.809 945.527C841.108 945.217 841.397 944.895 841.674 944.564L904.251 1011.31C903.968 1011.64 903.696 1011.98 903.436 1012.33L840.809 945.527ZM905.029 1035.67L839.889 1096.74C840.173 1097.06 840.446 1097.4 840.706 1097.74L905.966 1036.56C905.643 1036.28 905.33 1035.98 905.029 1035.67ZM811.215 1098.85C810.972 1099.22 810.743 1099.61 810.528 1100L746 1031.17C746.337 1030.9 746.665 1030.62 746.982 1030.33L811.215 1098.85ZM750.11 1007.58L815.576 946.203C815.261 945.91 814.956 945.605 814.663 945.29L749.38 1006.49C749.636 1006.84 749.88 1007.21 750.11 1007.58Z" fill="white"/>
</g>
<g opacity="0.6">
<path opacity="0.1" fill-rule="evenodd" clip-rule="evenodd" d="M1031.81 -142.037C1032.11 -142.347 1032.4 -142.669 1032.67 -143L1095.25 -76.2507C1094.97 -75.9219 1094.7 -75.5827 1094.44 -75.2337L1031.81 -142.037ZM1096.03 -51.8927L1030.89 9.1763C1031.17 9.50021 1031.45 9.83442 1031.71 10.1783L1096.97 -51.0023C1096.64 -51.2879 1096.33 -51.5849 1096.03 -51.8927ZM1002.21 11.282C1001.97 11.6573 1001.74 12.0422 1001.53 12.436L937 -56.3935C937.337 -56.6617 937.665 -56.9418 937.982 -57.233L1002.21 11.282ZM941.11 -79.9864L1006.58 -141.361C1006.26 -141.654 1005.96 -141.959 1005.66 -142.274L940.38 -81.0711C940.636 -80.719 940.88 -80.3572 941.11 -79.9864Z" fill="white"/>
<path opacity="0.1" fill-rule="evenodd" clip-rule="evenodd" d="M1031.81 14.044C1032.11 13.7334 1032.4 13.412 1032.67 13.0806L1095.25 79.8298C1094.97 80.1587 1094.7 80.4979 1094.44 80.8469L1031.81 14.044ZM1096.03 104.188L1030.89 165.257C1031.17 165.581 1031.45 165.915 1031.71 166.259L1096.97 105.078C1096.64 104.793 1096.33 104.496 1096.03 104.188ZM1002.21 167.363C1001.97 167.738 1001.74 168.123 1001.53 168.517L937 99.687C937.337 99.4188 937.665 99.1388 937.982 98.8476L1002.21 167.363ZM941.11 76.0942L1006.58 14.7199C1006.26 14.4265 1005.96 14.122 1005.66 13.8069L940.38 75.0094C940.636 75.3616 940.88 75.7234 941.11 76.0942Z" fill="white"/>
<path opacity="0.1" fill-rule="evenodd" clip-rule="evenodd" d="M1031.81 170.125C1032.11 169.814 1032.4 169.493 1032.67 169.161L1095.25 235.91C1094.97 236.239 1094.7 236.578 1094.44 236.927L1031.81 170.125ZM1096.03 260.268L1030.89 321.337C1031.17 321.661 1031.45 321.995 1031.71 322.339L1096.97 261.159C1096.64 260.873 1096.33 260.576 1096.03 260.268ZM1002.21 323.443C1001.97 323.818 1001.74 324.203 1001.53 324.597L937 255.767C937.337 255.499 937.665 255.219 937.982 254.928L1002.21 323.443ZM941.11 232.175L1006.58 170.8C1006.26 170.507 1005.96 170.203 1005.66 169.887L940.38 231.09C940.636 231.442 940.88 231.804 941.11 232.175Z" fill="white"/>
<path opacity="0.1" fill-rule="evenodd" clip-rule="evenodd" d="M1031.81 326.205C1032.11 325.895 1032.4 325.573 1032.67 325.242L1095.25 391.991C1094.97 392.32 1094.7 392.659 1094.44 393.008L1031.81 326.205ZM1096.03 416.349L1030.89 477.418C1031.17 477.742 1031.45 478.076 1031.71 478.42L1096.97 417.239C1096.64 416.954 1096.33 416.657 1096.03 416.349ZM1002.21 479.524C1001.97 479.899 1001.74 480.284 1001.53 480.678L937 411.848C937.337 411.58 937.665 411.3 937.982 411.009L1002.21 479.524ZM941.11 388.255L1006.58 326.881C1006.26 326.588 1005.96 326.283 1005.66 325.968L940.38 387.171C940.636 387.523 940.88 387.885 941.11 388.255Z" fill="white"/>
<path opacity="0.1" fill-rule="evenodd" clip-rule="evenodd" d="M1031.81 482.286C1032.11 481.975 1032.4 481.654 1032.67 481.322L1095.25 548.071C1094.97 548.4 1094.7 548.739 1094.44 549.088L1031.81 482.286ZM1096.03 572.43L1030.89 633.498C1031.17 633.822 1031.45 634.157 1031.71 634.5L1096.97 573.32C1096.64 573.034 1096.33 572.737 1096.03 572.43ZM1002.21 635.604C1001.97 635.979 1001.74 636.364 1001.53 636.758L937 567.929C937.337 567.66 937.665 567.38 937.982 567.089L1002.21 635.604ZM941.11 544.336L1006.58 482.962C1006.26 482.668 1005.96 482.364 1005.66 482.049L940.38 543.251C940.636 543.603 940.88 543.965 941.11 544.336Z" fill="white"/>
<path opacity="0.1" fill-rule="evenodd" clip-rule="evenodd" d="M1031.81 638.366C1032.11 638.056 1032.4 637.734 1032.67 637.403L1095.25 704.152C1094.97 704.481 1094.7 704.82 1094.44 705.169L1031.81 638.366ZM1096.03 728.51L1030.89 789.579C1031.17 789.903 1031.45 790.237 1031.71 790.581L1096.97 729.401C1096.64 729.115 1096.33 728.818 1096.03 728.51ZM1002.21 791.685C1001.97 792.06 1001.74 792.445 1001.53 792.839L937 724.009C937.337 723.741 937.665 723.461 937.982 723.17L1002.21 791.685ZM941.11 700.416L1006.58 639.042C1006.26 638.749 1005.96 638.444 1005.66 638.129L940.38 699.332C940.636 699.684 940.88 700.046 941.11 700.416Z" fill="white"/>
<path opacity="0.1" fill-rule="evenodd" clip-rule="evenodd" d="M1031.81 794.447C1032.11 794.136 1032.4 793.815 1032.67 793.483L1095.25 860.233C1094.97 860.562 1094.7 860.901 1094.44 861.25L1031.81 794.447ZM1096.03 884.591L1030.89 945.66C1031.17 945.984 1031.45 946.318 1031.71 946.662L1096.97 885.481C1096.64 885.196 1096.33 884.898 1096.03 884.591ZM1002.21 947.765C1001.97 948.141 1001.74 948.526 1001.53 948.919L937 880.09C937.337 879.822 937.665 879.542 937.982 879.25L1002.21 947.765ZM941.11 856.497L1006.58 795.123C1006.26 794.829 1005.96 794.525 1005.66 794.21L940.38 855.412C940.636 855.764 940.88 856.126 941.11 856.497Z" fill="white"/>
<path opacity="0.1" fill-rule="evenodd" clip-rule="evenodd" d="M1031.81 950.527C1032.11 950.217 1032.4 949.895 1032.67 949.564L1095.25 1016.31C1094.97 1016.64 1094.7 1016.98 1094.44 1017.33L1031.81 950.527ZM1096.03 1040.67L1030.89 1101.74C1031.17 1102.06 1031.45 1102.4 1031.71 1102.74L1096.97 1041.56C1096.64 1041.28 1096.33 1040.98 1096.03 1040.67ZM1002.21 1103.85C1001.97 1104.22 1001.74 1104.61 1001.53 1105L937 1036.17C937.337 1035.9 937.665 1035.62 937.982 1035.33L1002.21 1103.85ZM941.11 1012.58L1006.58 951.203C1006.26 950.91 1005.96 950.605 1005.66 950.29L940.38 1011.49C940.636 1011.84 940.88 1012.21 941.11 1012.58Z" fill="white"/>
</g>
<g opacity="0.6">
<path opacity="0.1" fill-rule="evenodd" clip-rule="evenodd" d="M1224.81 -146.037C1225.11 -146.347 1225.4 -146.669 1225.67 -147L1288.25 -80.2507C1287.97 -79.9219 1287.7 -79.5827 1287.44 -79.2337L1224.81 -146.037ZM1289.03 -55.8927L1223.89 5.1763C1224.17 5.50021 1224.45 5.83442 1224.71 6.17828L1289.97 -55.0023C1289.64 -55.2879 1289.33 -55.5849 1289.03 -55.8927ZM1195.21 7.28202C1194.97 7.65733 1194.74 8.04222 1194.53 8.43603L1130 -60.3935C1130.34 -60.6617 1130.66 -60.9418 1130.98 -61.233L1195.21 7.28202ZM1134.11 -83.9864L1199.58 -145.361C1199.26 -145.654 1198.96 -145.959 1198.66 -146.274L1133.38 -85.0711C1133.64 -84.719 1133.88 -84.3572 1134.11 -83.9864Z" fill="white"/>
<path opacity="0.1" fill-rule="evenodd" clip-rule="evenodd" d="M1224.81 10.044C1225.11 9.7334 1225.4 9.41204 1225.67 9.08057L1288.25 75.8298C1287.97 76.1587 1287.7 76.4979 1287.44 76.8469L1224.81 10.044ZM1289.03 100.188L1223.89 161.257C1224.17 161.581 1224.45 161.915 1224.71 162.259L1289.97 101.078C1289.64 100.793 1289.33 100.496 1289.03 100.188ZM1195.21 163.363C1194.97 163.738 1194.74 164.123 1194.53 164.517L1130 95.687C1130.34 95.4188 1130.66 95.1388 1130.98 94.8476L1195.21 163.363ZM1134.11 72.0942L1199.58 10.7199C1199.26 10.4265 1198.96 10.122 1198.66 9.80689L1133.38 71.0094C1133.64 71.3616 1133.88 71.7234 1134.11 72.0942Z" fill="white"/>
<path opacity="0.1" fill-rule="evenodd" clip-rule="evenodd" d="M1224.81 166.125C1225.11 165.814 1225.4 165.493 1225.67 165.161L1288.25 231.91C1287.97 232.239 1287.7 232.578 1287.44 232.927L1224.81 166.125ZM1289.03 256.268L1223.89 317.337C1224.17 317.661 1224.45 317.995 1224.71 318.339L1289.97 257.159C1289.64 256.873 1289.33 256.576 1289.03 256.268ZM1195.21 319.443C1194.97 319.818 1194.74 320.203 1194.53 320.597L1130 251.767C1130.34 251.499 1130.66 251.219 1130.98 250.928L1195.21 319.443ZM1134.11 228.175L1199.58 166.8C1199.26 166.507 1198.96 166.203 1198.66 165.887L1133.38 227.09C1133.64 227.442 1133.88 227.804 1134.11 228.175Z" fill="white"/>
<path opacity="0.1" fill-rule="evenodd" clip-rule="evenodd" d="M1224.81 322.205C1225.11 321.895 1225.4 321.573 1225.67 321.242L1288.25 387.991C1287.97 388.32 1287.7 388.659 1287.44 389.008L1224.81 322.205ZM1289.03 412.349L1223.89 473.418C1224.17 473.742 1224.45 474.076 1224.71 474.42L1289.97 413.239C1289.64 412.954 1289.33 412.657 1289.03 412.349ZM1195.21 475.524C1194.97 475.899 1194.74 476.284 1194.53 476.678L1130 407.848C1130.34 407.58 1130.66 407.3 1130.98 407.009L1195.21 475.524ZM1134.11 384.255L1199.58 322.881C1199.26 322.588 1198.96 322.283 1198.66 321.968L1133.38 383.171C1133.64 383.523 1133.88 383.885 1134.11 384.255Z" fill="white"/>
<path opacity="0.1" fill-rule="evenodd" clip-rule="evenodd" d="M1224.81 478.286C1225.11 477.975 1225.4 477.654 1225.67 477.322L1288.25 544.071C1287.97 544.4 1287.7 544.739 1287.44 545.088L1224.81 478.286ZM1289.03 568.43L1223.89 629.498C1224.17 629.822 1224.45 630.157 1224.71 630.5L1289.97 569.32C1289.64 569.034 1289.33 568.737 1289.03 568.43ZM1195.21 631.604C1194.97 631.979 1194.74 632.364 1194.53 632.758L1130 563.929C1130.34 563.66 1130.66 563.38 1130.98 563.089L1195.21 631.604ZM1134.11 540.336L1199.58 478.962C1199.26 478.668 1198.96 478.364 1198.66 478.049L1133.38 539.251C1133.64 539.603 1133.88 539.965 1134.11 540.336Z" fill="white"/>
<path opacity="0.1" fill-rule="evenodd" clip-rule="evenodd" d="M1224.81 634.366C1225.11 634.056 1225.4 633.734 1225.67 633.403L1288.25 700.152C1287.97 700.481 1287.7 700.82 1287.44 701.169L1224.81 634.366ZM1289.03 724.51L1223.89 785.579C1224.17 785.903 1224.45 786.237 1224.71 786.581L1289.97 725.401C1289.64 725.115 1289.33 724.818 1289.03 724.51ZM1195.21 787.685C1194.97 788.06 1194.74 788.445 1194.53 788.839L1130 720.009C1130.34 719.741 1130.66 719.461 1130.98 719.17L1195.21 787.685ZM1134.11 696.416L1199.58 635.042C1199.26 634.749 1198.96 634.444 1198.66 634.129L1133.38 695.332C1133.64 695.684 1133.88 696.046 1134.11 696.416Z" fill="white"/>
<path opacity="0.1" fill-rule="evenodd" clip-rule="evenodd" d="M1224.81 790.447C1225.11 790.136 1225.4 789.815 1225.67 789.483L1288.25 856.233C1287.97 856.562 1287.7 856.901 1287.44 857.25L1224.81 790.447ZM1289.03 880.591L1223.89 941.66C1224.17 941.984 1224.45 942.318 1224.71 942.662L1289.97 881.481C1289.64 881.196 1289.33 880.898 1289.03 880.591ZM1195.21 943.765C1194.97 944.141 1194.74 944.526 1194.53 944.919L1130 876.09C1130.34 875.822 1130.66 875.542 1130.98 875.25L1195.21 943.765ZM1134.11 852.497L1199.58 791.123C1199.26 790.829 1198.96 790.525 1198.66 790.21L1133.38 851.412C1133.64 851.764 1133.88 852.126 1134.11 852.497Z" fill="white"/>
<path opacity="0.1" fill-rule="evenodd" clip-rule="evenodd" d="M1224.81 946.527C1225.11 946.217 1225.4 945.895 1225.67 945.564L1288.25 1012.31C1287.97 1012.64 1287.7 1012.98 1287.44 1013.33L1224.81 946.527ZM1289.03 1036.67L1223.89 1097.74C1224.17 1098.06 1224.45 1098.4 1224.71 1098.74L1289.97 1037.56C1289.64 1037.28 1289.33 1036.98 1289.03 1036.67ZM1195.21 1099.85C1194.97 1100.22 1194.74 1100.61 1194.53 1101L1130 1032.17C1130.34 1031.9 1130.66 1031.62 1130.98 1031.33L1195.21 1099.85ZM1134.11 1008.58L1199.58 947.203C1199.26 946.91 1198.96 946.605 1198.66 946.29L1133.38 1007.49C1133.64 1007.84 1133.88 1008.21 1134.11 1008.58Z" fill="white"/>
</g>
<g opacity="0.6">
<path opacity="0.1" fill-rule="evenodd" clip-rule="evenodd" d="M1413.81 -143.037C1414.11 -143.347 1414.4 -143.669 1414.67 -144L1477.25 -77.2507C1476.97 -76.9219 1476.7 -76.5827 1476.44 -76.2337L1413.81 -143.037ZM1478.03 -52.8927L1412.89 8.1763C1413.17 8.50021 1413.45 8.83442 1413.71 9.17828L1478.97 -52.0023C1478.64 -52.2879 1478.33 -52.5849 1478.03 -52.8927ZM1384.21 10.282C1383.97 10.6573 1383.74 11.0422 1383.53 11.436L1319 -57.3935C1319.34 -57.6617 1319.66 -57.9418 1319.98 -58.233L1384.21 10.282ZM1323.11 -80.9864L1388.58 -142.361C1388.26 -142.654 1387.96 -142.959 1387.66 -143.274L1322.38 -82.0711C1322.64 -81.719 1322.88 -81.3572 1323.11 -80.9864Z" fill="white"/>
<path opacity="0.1" fill-rule="evenodd" clip-rule="evenodd" d="M1413.81 13.044C1414.11 12.7334 1414.4 12.412 1414.67 12.0806L1477.25 78.8298C1476.97 79.1587 1476.7 79.4979 1476.44 79.8469L1413.81 13.044ZM1478.03 103.188L1412.89 164.257C1413.17 164.581 1413.45 164.915 1413.71 165.259L1478.97 104.078C1478.64 103.793 1478.33 103.496 1478.03 103.188ZM1384.21 166.363C1383.97 166.738 1383.74 167.123 1383.53 167.517L1319 98.687C1319.34 98.4188 1319.66 98.1388 1319.98 97.8476L1384.21 166.363ZM1323.11 75.0942L1388.58 13.7199C1388.26 13.4265 1387.96 13.122 1387.66 12.8069L1322.38 74.0094C1322.64 74.3616 1322.88 74.7234 1323.11 75.0942Z" fill="white"/>
<path opacity="0.1" fill-rule="evenodd" clip-rule="evenodd" d="M1413.81 169.125C1414.11 168.814 1414.4 168.493 1414.67 168.161L1477.25 234.91C1476.97 235.239 1476.7 235.578 1476.44 235.927L1413.81 169.125ZM1478.03 259.268L1412.89 320.337C1413.17 320.661 1413.45 320.995 1413.71 321.339L1478.97 260.159C1478.64 259.873 1478.33 259.576 1478.03 259.268ZM1384.21 322.443C1383.97 322.818 1383.74 323.203 1383.53 323.597L1319 254.767C1319.34 254.499 1319.66 254.219 1319.98 253.928L1384.21 322.443ZM1323.11 231.175L1388.58 169.8C1388.26 169.507 1387.96 169.203 1387.66 168.887L1322.38 230.09C1322.64 230.442 1322.88 230.804 1323.11 231.175Z" fill="white"/>
<path opacity="0.1" fill-rule="evenodd" clip-rule="evenodd" d="M1413.81 325.205C1414.11 324.895 1414.4 324.573 1414.67 324.242L1477.25 390.991C1476.97 391.32 1476.7 391.659 1476.44 392.008L1413.81 325.205ZM1478.03 415.349L1412.89 476.418C1413.17 476.742 1413.45 477.076 1413.71 477.42L1478.97 416.239C1478.64 415.954 1478.33 415.657 1478.03 415.349ZM1384.21 478.524C1383.97 478.899 1383.74 479.284 1383.53 479.678L1319 410.848C1319.34 410.58 1319.66 410.3 1319.98 410.009L1384.21 478.524ZM1323.11 387.255L1388.58 325.881C1388.26 325.588 1387.96 325.283 1387.66 324.968L1322.38 386.171C1322.64 386.523 1322.88 386.885 1323.11 387.255Z" fill="white"/>
<path opacity="0.1" fill-rule="evenodd" clip-rule="evenodd" d="M1413.81 481.286C1414.11 480.975 1414.4 480.654 1414.67 480.322L1477.25 547.071C1476.97 547.4 1476.7 547.739 1476.44 548.088L1413.81 481.286ZM1478.03 571.43L1412.89 632.498C1413.17 632.822 1413.45 633.157 1413.71 633.5L1478.97 572.32C1478.64 572.034 1478.33 571.737 1478.03 571.43ZM1384.21 634.604C1383.97 634.979 1383.74 635.364 1383.53 635.758L1319 566.929C1319.34 566.66 1319.66 566.38 1319.98 566.089L1384.21 634.604ZM1323.11 543.336L1388.58 481.962C1388.26 481.668 1387.96 481.364 1387.66 481.049L1322.38 542.251C1322.64 542.603 1322.88 542.965 1323.11 543.336Z" fill="white"/>
<path opacity="0.1" fill-rule="evenodd" clip-rule="evenodd" d="M1413.81 637.366C1414.11 637.056 1414.4 636.734 1414.67 636.403L1477.25 703.152C1476.97 703.481 1476.7 703.82 1476.44 704.169L1413.81 637.366ZM1478.03 727.51L1412.89 788.579C1413.17 788.903 1413.45 789.237 1413.71 789.581L1478.97 728.401C1478.64 728.115 1478.33 727.818 1478.03 727.51ZM1384.21 790.685C1383.97 791.06 1383.74 791.445 1383.53 791.839L1319 723.009C1319.34 722.741 1319.66 722.461 1319.98 722.17L1384.21 790.685ZM1323.11 699.416L1388.58 638.042C1388.26 637.749 1387.96 637.444 1387.66 637.129L1322.38 698.332C1322.64 698.684 1322.88 699.046 1323.11 699.416Z" fill="white"/>
<path opacity="0.1" fill-rule="evenodd" clip-rule="evenodd" d="M1413.81 793.447C1414.11 793.136 1414.4 792.815 1414.67 792.483L1477.25 859.233C1476.97 859.562 1476.7 859.901 1476.44 860.25L1413.81 793.447ZM1478.03 883.591L1412.89 944.66C1413.17 944.984 1413.45 945.318 1413.71 945.662L1478.97 884.481C1478.64 884.196 1478.33 883.898 1478.03 883.591ZM1384.21 946.765C1383.97 947.141 1383.74 947.526 1383.53 947.919L1319 879.09C1319.34 878.822 1319.66 878.542 1319.98 878.25L1384.21 946.765ZM1323.11 855.497L1388.58 794.123C1388.26 793.829 1387.96 793.525 1387.66 793.21L1322.38 854.412C1322.64 854.764 1322.88 855.126 1323.11 855.497Z" fill="white"/>
<path opacity="0.1" fill-rule="evenodd" clip-rule="evenodd" d="M1413.81 949.527C1414.11 949.217 1414.4 948.895 1414.67 948.564L1477.25 1015.31C1476.97 1015.64 1476.7 1015.98 1476.44 1016.33L1413.81 949.527ZM1478.03 1039.67L1412.89 1100.74C1413.17 1101.06 1413.45 1101.4 1413.71 1101.74L1478.97 1040.56C1478.64 1040.28 1478.33 1039.98 1478.03 1039.67ZM1384.21 1102.85C1383.97 1103.22 1383.74 1103.61 1383.53 1104L1319 1035.17C1319.34 1034.9 1319.66 1034.62 1319.98 1034.33L1384.21 1102.85ZM1323.11 1011.58L1388.58 950.203C1388.26 949.91 1387.96 949.605 1387.66 949.29L1322.38 1010.49C1322.64 1010.84 1322.88 1011.21 1323.11 1011.58Z" fill="white"/>
</g>
</g>
<defs>
<linearGradient id="paint0_linear_256_1102" x1="11.6667" y1="987" x2="1555.5" y2="254.412" gradientUnits="userSpaceOnUse">
<stop stop-color="#183B1D"/>
<stop offset="1" stop-color="#57B486"/>
</linearGradient>
<clipPath id="clip0_256_1102">
<rect width="1440" height="972" fill="white"/>
</clipPath>
</defs>
</svg>
