<svg width="400" height="400" viewBox="0 0 400 400" fill="none" xmlns="http://www.w3.org/2000/svg">
<path d="M159.105 182.472L152.561 178.248" stroke="#263238" stroke-width="3.48837" stroke-linecap="round" stroke-linejoin="round"/>
<path d="M170.472 169.768L168.776 168.352" stroke="#263238" stroke-width="3.48837" stroke-linecap="round" stroke-linejoin="round"/>
<path d="M151.368 207.016L137.824 203.624" stroke="#263238" stroke-width="3.48837" stroke-linecap="round" stroke-linejoin="round"/>
<path d="M224.568 290.264C224.468 290.263 224.369 290.25 224.272 290.224C223.96 290.143 223.693 289.942 223.528 289.664C223.112 288.936 222.888 288.544 226.264 284.672C218.984 289.128 218.208 288.944 217.784 288.84C217.452 288.742 217.168 288.526 216.984 288.232C216.312 287.072 216.184 286.84 229.656 275.816C227.496 277.216 225.248 278.72 223.256 280.048C211.4 287.96 207.712 290.208 206.08 289.832C205.882 289.787 205.696 289.702 205.532 289.583C205.369 289.463 205.231 289.311 205.128 289.136C204.408 287.888 204.408 287.888 220.328 276.384L223.48 274.112C221.64 275.336 219.808 276.584 218.128 277.728C205.6 286.248 199.896 289.928 197.76 289.448C197.537 289.398 197.328 289.301 197.145 289.163C196.963 289.025 196.813 288.849 196.704 288.648C195.904 287.296 195.744 286.992 218.896 271.264L188.448 288.864C188.177 289.015 187.857 289.054 187.558 288.972C187.259 288.889 187.004 288.693 186.848 288.424C186.312 287.496 186.728 286.36 188.928 284.424C185.424 286.44 183.392 287.248 182.392 287.016C182.184 286.968 181.988 286.879 181.815 286.754C181.641 286.629 181.495 286.471 181.384 286.288C180.72 285.136 180.976 284.072 189.448 278.376C180.712 283.84 177.488 285.448 176.232 285.152C176.045 285.109 175.87 285.027 175.716 284.913C175.562 284.799 175.432 284.654 175.336 284.488C174.752 283.488 175.296 283.128 177.304 281.8L181.728 278.912L188.496 274.536C181.04 278.408 179.92 278.144 179.296 277.992C179.086 277.944 178.888 277.855 178.713 277.728C178.538 277.602 178.391 277.441 178.28 277.256C178.133 276.985 178.095 276.668 178.176 276.37C178.256 276.072 178.448 275.816 178.712 275.656C202.192 261.736 238.44 239.408 247.176 232.024C238.464 235.984 212.416 252.16 197.576 261.4C178.464 273.28 178.376 273.256 177.576 273.048C177.411 273.011 177.255 272.941 177.117 272.842C176.98 272.743 176.864 272.617 176.776 272.472C176.128 271.352 176.16 270.632 183.808 265.896C180.288 267.552 177.968 268.296 176.944 268.056C176.72 268.004 176.509 267.906 176.325 267.768C176.14 267.631 175.986 267.456 175.872 267.256C175.719 266.99 175.674 266.676 175.747 266.378C175.82 266.08 176.005 265.821 176.264 265.656C199.96 250.56 233.296 229.184 246.896 220.152C243.112 222.08 238.032 224.952 232.384 228.336C227.816 231.272 222.4 234.688 215.992 238.672C207.528 243.944 198.968 249.168 191.84 253.488C174.624 264.352 174.416 264.304 173.576 264.096C173.411 264.057 173.255 263.985 173.118 263.884C172.98 263.784 172.864 263.658 172.776 263.512C172.629 263.241 172.591 262.924 172.672 262.626C172.752 262.328 172.944 262.072 173.208 261.912C178.392 258.832 184.112 255.4 190.048 251.8L193.168 249.832C180.736 256.944 173.864 260.056 171.84 259.56C171.606 259.515 171.385 259.42 171.19 259.282C170.996 259.144 170.833 258.966 170.712 258.76C169.968 257.48 171.024 255.848 179.792 250.12C174.136 253.568 171.896 254.592 170.944 254.36C170.763 254.319 170.591 254.241 170.441 254.131C170.291 254.021 170.166 253.881 170.072 253.72C169.568 252.848 169.16 252.12 175.016 247.872C171.864 249.472 169.872 250.12 168.92 249.888C168.704 249.842 168.5 249.751 168.321 249.621C168.142 249.492 167.992 249.327 167.88 249.136C167.8 248.999 167.748 248.847 167.727 248.688C167.706 248.53 167.718 248.37 167.76 248.216C167.844 247.91 168.045 247.648 168.32 247.488C194.28 232.728 233.592 209.352 245.56 199.92C232.432 207.168 196.24 228.416 170.984 243.392C170.848 243.473 170.697 243.525 170.54 243.547C170.383 243.569 170.223 243.56 170.07 243.52C169.917 243.479 169.773 243.409 169.647 243.313C169.521 243.217 169.416 243.097 169.336 242.96C169.213 242.741 169.137 242.498 169.111 242.248C169.084 241.998 169.109 241.745 169.184 241.504C169.63 240.49 170.303 239.592 171.152 238.88C169.288 239.64 168.04 239.92 167.328 239.744C167.107 239.69 166.899 239.592 166.717 239.454C166.535 239.316 166.384 239.143 166.272 238.944C165.552 237.704 166.928 236.744 169.008 235.296C170.608 234.216 172.872 232.72 176.04 230.736C181.952 227.04 190.064 222.144 198.656 216.968C208.312 211.144 219.784 204.224 228.896 198.496C209.4 209.696 178.696 227.632 163.952 236.256C163.673 236.415 163.343 236.458 163.032 236.376C162.88 236.336 162.737 236.266 162.612 236.17C162.487 236.074 162.382 235.953 162.304 235.816C161.688 234.744 161.504 234.432 172.104 227.76C167.952 230.04 165.328 231.024 163.992 230.712C163.74 230.66 163.501 230.555 163.292 230.405C163.083 230.255 162.907 230.062 162.776 229.84C161.976 228.464 161.976 228.464 181.224 217.288C190.128 212.12 200.752 205.944 210.528 200.008C218.736 194.552 225.16 190.408 230.032 187.528C232.588 185.828 235.013 183.941 237.288 181.88C227.296 186.368 187.84 210.224 162.888 225.744C162.619 225.914 162.293 225.97 161.982 225.899C161.672 225.829 161.402 225.638 161.232 225.368C161.062 225.099 161.007 224.773 161.077 224.462C161.148 224.152 161.339 223.882 161.608 223.712L169.352 218.784C162.952 222.072 160.552 222.624 159.568 222.376C159.345 222.324 159.135 222.226 158.952 222.089C158.769 221.951 158.616 221.776 158.504 221.576C158.349 221.311 158.303 220.996 158.376 220.697C158.449 220.398 158.636 220.14 158.896 219.976L175.944 209.048C162.008 216.92 160.88 216.64 160.192 216.464C160.009 216.422 159.837 216.342 159.685 216.231C159.534 216.119 159.407 215.978 159.312 215.816C159.162 215.548 159.121 215.233 159.197 214.935C159.273 214.637 159.46 214.38 159.72 214.216C177.688 203.104 203.216 187.016 218.12 176.928C206.08 183.864 188.52 194.168 176.168 201.432L162.4 209.432C159.344 211.216 157.864 212.088 157.072 212.488L156.864 212.616C156.312 212.88 156.176 212.84 155.944 212.776C155.718 212.716 155.515 212.591 155.359 212.417C155.204 212.243 155.102 212.027 155.067 211.796C155.032 211.565 155.066 211.328 155.163 211.116C155.261 210.904 155.418 210.724 155.616 210.6C174.672 198.816 202.816 181.056 215.424 172.32C208.712 176.208 198.688 182.6 190.624 187.76C168.016 202.16 161.144 206.304 159.152 205.808C158.963 205.763 158.784 205.681 158.628 205.565C158.471 205.45 158.339 205.304 158.24 205.136C157.744 204.264 157.384 203.648 164.896 198.232C162.848 199.136 161.464 199.48 160.656 199.288C160.428 199.236 160.212 199.139 160.022 199.001C159.833 198.864 159.673 198.689 159.552 198.488C159.404 198.221 159.362 197.906 159.437 197.609C159.511 197.312 159.695 197.055 159.952 196.888C174.712 187.6 197.144 173.04 204.856 167.016C198.104 170.32 183.368 179.816 174.696 185.368C160.528 194.4 160 194.624 159.096 194.4C158.93 194.362 158.774 194.29 158.637 194.19C158.499 194.09 158.383 193.963 158.296 193.816C157.656 192.72 157.096 191.744 170.968 182.208C169.256 183.296 167.504 184.424 165.712 185.576C165.564 185.696 165.39 185.781 165.205 185.824C165.019 185.867 164.826 185.867 164.64 185.824C164.482 185.787 164.334 185.717 164.205 185.619C164.075 185.521 163.968 185.398 163.888 185.256C163.032 183.776 164.264 182.504 174 175.04C173.822 175.002 173.653 174.927 173.505 174.82C173.358 174.712 173.235 174.575 173.144 174.416C172.996 174.14 172.96 173.818 173.045 173.516C173.131 173.215 173.329 172.958 173.6 172.8C173.825 172.677 174.081 172.624 174.336 172.648C175.602 171.914 176.827 171.112 178.008 170.248C181.912 167.504 183.016 166.848 183.968 167.048C184.154 167.089 184.33 167.167 184.484 167.279C184.638 167.39 184.767 167.533 184.864 167.696C185.552 168.896 185.016 169.616 178.464 174.688C180.288 173.56 182.168 172.392 184.064 171.24C202.56 159.928 203.992 160.264 204.864 160.472C205.056 160.514 205.237 160.595 205.396 160.711C205.554 160.826 205.686 160.974 205.784 161.144C205.935 161.412 205.977 161.726 205.903 162.024C205.828 162.321 205.643 162.579 205.384 162.744C196.36 168.344 186.984 174.408 179.12 179.648C197.376 167.992 206.152 162.848 208.624 163.472C208.839 163.52 209.041 163.612 209.218 163.741C209.396 163.87 209.545 164.035 209.656 164.224C210.416 165.544 210.968 166.504 185.712 183.128L182.08 185.528C187.168 182.328 192.32 178.968 196.48 176.248C212.68 165.736 215.304 164.192 216.528 164.48C216.696 164.524 216.853 164.601 216.991 164.707C217.128 164.813 217.243 164.945 217.328 165.096C217.481 165.362 217.526 165.677 217.453 165.975C217.38 166.273 217.195 166.531 216.936 166.696C201.272 176.68 178.392 191.584 167.08 199.592C173.16 196.008 181.776 190.512 189.28 185.728C213.064 170.528 220.824 165.928 223.016 166.456C223.212 166.503 223.397 166.589 223.559 166.709C223.721 166.828 223.857 166.979 223.96 167.152C224.544 168.168 224.968 168.888 211.056 178.176C230.552 166.864 230.928 166.976 231.544 167.12C231.701 167.161 231.848 167.232 231.977 167.329C232.106 167.427 232.215 167.549 232.296 167.688C233.096 169.072 233.664 170.088 196.88 193.592C194.208 195.304 191.528 197.008 188.88 198.672C203.44 190.064 220.792 179.472 233.936 171.264C234.074 171.18 234.227 171.125 234.386 171.1C234.545 171.075 234.708 171.082 234.864 171.12C235.179 171.201 235.449 171.402 235.616 171.68C236.184 172.672 235.344 173.28 234.456 173.888C233.912 174.264 233.112 174.808 232.056 175.488C230.12 176.776 227.256 178.688 223.56 181.088C217.336 185.144 208.64 190.768 197.712 197.808C187.184 204.584 176.576 211.408 169.304 216.056C178.912 210.976 197.6 200 233.6 177C238.784 173.696 238.784 173.696 239.312 173.8C239.47 173.839 239.619 173.91 239.75 174.007C239.88 174.105 239.99 174.228 240.072 174.368C240.368 174.88 240.536 175.168 239.576 176.024C238.296 177.144 235.112 179.224 227.848 183.944C238.136 178.304 239.096 178.536 239.72 178.696C239.902 178.737 240.073 178.815 240.223 178.925C240.373 179.035 240.499 179.175 240.592 179.336C241.024 180.088 241.128 180.992 239.528 182.784C240.159 182.587 240.827 182.538 241.48 182.64C241.741 182.695 241.988 182.803 242.204 182.959C242.42 183.115 242.602 183.314 242.736 183.544C243.536 184.92 243.936 185.624 220.168 200.616C245.336 186.04 245.584 186.104 246.184 186.264C246.338 186.304 246.483 186.373 246.609 186.469C246.736 186.566 246.841 186.686 246.92 186.824C247.72 188.152 246.28 189.488 242.84 192C240.624 193.6 237.496 195.712 233.304 198.4C247.28 189.672 250.784 187.864 252.032 188.168C252.209 188.211 252.375 188.289 252.521 188.398C252.666 188.507 252.789 188.643 252.88 188.8C252.96 188.936 253.012 189.087 253.033 189.244C253.054 189.401 253.042 189.56 253 189.712C252.96 189.867 252.888 190.012 252.791 190.138C252.693 190.264 252.571 190.37 252.432 190.448C244.272 195.072 235.976 199.856 227.96 204.576L219.656 209.824C203.328 220.16 191.416 227.592 183.056 232.456C180.408 234.272 178.144 235.888 176.328 237.256C183.768 232.856 196.44 225.376 209.128 217.976C249.128 194.568 249.736 194.736 250.496 194.936C250.653 194.977 250.8 195.048 250.929 195.145C251.058 195.243 251.167 195.365 251.248 195.504C251.364 195.709 251.437 195.935 251.463 196.169C251.489 196.403 251.468 196.639 251.4 196.864C251.164 197.639 250.712 198.33 250.096 198.856C252.84 197.488 254.56 196.928 255.408 197.128C255.614 197.176 255.809 197.265 255.979 197.39C256.15 197.515 256.293 197.674 256.4 197.856C257.04 198.96 256.144 199.56 254.168 200.872C252.976 201.672 251.216 202.784 248.776 204.304L248.304 204.6C252.032 202.816 254.648 201.976 255.96 202.296C256.228 202.352 256.482 202.462 256.705 202.62C256.928 202.779 257.116 202.982 257.256 203.216C258.36 205.128 257.256 206.344 218.224 229.432C201.832 239.2 180.176 252 174.272 256.8C177.528 255.656 185.64 251.736 205.8 239.536C222.232 229.592 240.328 217.984 249 212.408C255.024 208.544 255.016 208.552 255.552 208.68C255.871 208.761 256.144 208.966 256.312 209.248C256.8 210.096 257.296 210.952 250.712 215.856C251.642 215.436 252.663 215.26 253.68 215.344C253.904 215.397 254.115 215.495 254.299 215.633C254.484 215.771 254.638 215.945 254.752 216.144C255.456 217.368 255.456 217.368 242.512 225.848C236.112 230.024 227.232 235.792 216.032 242.992C205.232 249.936 194.344 256.904 186.888 261.664C201.992 253.568 230.296 235.616 242.888 227.632C254.088 220.552 254.088 220.552 254.696 220.704C254.853 220.745 255 220.816 255.129 220.913C255.258 221.011 255.367 221.133 255.448 221.272C256.304 222.76 254.944 224.872 249.68 228.784C249.834 228.762 249.99 228.762 250.144 228.784C250.34 228.831 250.525 228.917 250.687 229.037C250.849 229.156 250.985 229.307 251.088 229.48C251.928 230.936 252.88 232.584 217.376 254.816C227.584 248.528 238.176 241.84 246.728 236.296C246.865 236.207 247.019 236.147 247.179 236.119C247.34 236.091 247.505 236.097 247.664 236.135C247.823 236.173 247.972 236.243 248.103 236.341C248.234 236.439 248.343 236.563 248.424 236.704C249.008 237.728 248.2 238.304 246.824 239.264C246.024 239.832 244.816 240.664 243.232 241.72C241.648 242.776 239.68 244.12 237.304 245.656C240.616 243.976 242.664 243.296 243.704 243.552C243.93 243.603 244.143 243.701 244.329 243.838C244.514 243.976 244.67 244.151 244.784 244.352C245.456 245.512 245.304 245.952 237.208 251.184C238.912 250.456 240.12 250.192 240.896 250.384C241.137 250.436 241.365 250.538 241.565 250.682C241.764 250.827 241.932 251.011 242.056 251.224C243 252.824 242.288 253.576 220.608 266.704C214.4 270.464 206.584 275.192 200.256 279.272L242.824 254.704C242.96 254.624 243.111 254.571 243.268 254.551C243.425 254.53 243.584 254.542 243.736 254.584C244.042 254.666 244.303 254.864 244.464 255.136C245.056 256.168 244.216 256.784 242.824 257.808C241.984 258.424 240.752 259.296 239.056 260.464C235.896 262.656 231.504 265.624 226.856 268.776C221.44 272.44 214.624 277.056 209.04 280.936C211.608 279.24 214.28 277.424 216.656 275.808C229.032 267.392 234.256 264.024 236.296 264.472C236.51 264.519 236.712 264.609 236.889 264.737C237.067 264.865 237.216 265.028 237.328 265.216C238.024 266.432 238.056 266.488 223.864 276.768C234.16 269.92 237.528 267.968 239.064 268.312C239.262 268.357 239.448 268.442 239.612 268.562C239.776 268.682 239.913 268.834 240.016 269.008C240.576 269.984 240.576 269.984 233.416 275.832C231.256 277.592 228.256 280.04 225.552 282.304C227.744 280.952 230.16 279.416 232.456 277.928C232.593 277.839 232.747 277.779 232.907 277.751C233.068 277.723 233.233 277.729 233.392 277.767C233.551 277.805 233.7 277.875 233.831 277.973C233.962 278.071 234.071 278.195 234.152 278.336C234.6 279.136 234.432 279.296 232.792 281.056C231.456 282.488 230.312 283.744 229.344 284.816C236.608 280.488 236.872 280.56 237.384 280.688C237.54 280.729 237.686 280.8 237.813 280.897C237.941 280.995 238.048 281.117 238.128 281.256C238.208 281.393 238.26 281.543 238.281 281.7C238.302 281.857 238.292 282.016 238.251 282.168C238.21 282.321 238.14 282.464 238.043 282.589C237.946 282.714 237.826 282.818 237.688 282.896C237.572 282.966 237.445 283.015 237.312 283.04C236.248 283.52 230.336 287 225.128 290.152C224.953 290.232 224.761 290.271 224.568 290.264V290.264ZM236.112 282.4C236.239 282.615 236.429 282.785 236.656 282.888C236.431 282.782 236.242 282.613 236.112 282.4V282.4ZM206.576 270.184C199.664 274.496 192.864 278.816 188.432 281.896C193.256 279.024 200.264 274.4 206.576 270.184V270.184ZM236.328 248.88C228.48 253.232 215.784 261.408 206.136 267.64C209.688 265.424 213.736 262.92 218.336 260.088C224.672 256.192 231.496 252 236.328 248.88V248.88ZM235.816 254.48C231.552 256.752 225.08 260.88 218.768 265L219.432 264.6C225.328 261.016 231.728 257.136 235.816 254.464V254.48ZM196.48 236.512C191.2 239.816 186.4 242.928 182.4 245.6C186.544 242.952 191.456 239.776 196.48 236.512ZM253.432 205.048C251.112 205.848 246.192 208.088 235.784 214.336C225.376 220.584 212.8 228.8 201.6 236.08C196.712 239.28 192.6 241.92 189.128 244.144C195.864 240 204.912 234.584 217 227.432C231.712 218.704 248.16 208.976 253.432 205.048V205.048ZM245.92 228.52L244.224 229.6C238.624 233.158 233.32 236.504 228.312 239.64C234.992 235.624 241.304 231.696 245.92 228.52ZM192.864 223.2C185.528 227.632 178.4 232 173.664 234.984C176.064 233.76 178.952 232.12 182.216 230.184C185.424 228 189.016 225.64 192.864 223.2ZM211.648 202.064C208.576 204.112 205.552 206.144 202.72 208.04C197.12 211.816 192.144 215.112 187.832 217.944L192.24 215.224C208.44 205.24 231.832 190.808 238.712 185.576C236.168 186.714 233.701 188.018 231.328 189.48C228.592 191.392 225.112 193.688 220.704 196.472C217.832 198.272 214.784 200.144 211.648 202.048V202.064Z" fill="#ABF8C5"/>
<g opacity="0.4">
<path d="M224.568 290.264C224.468 290.263 224.369 290.25 224.272 290.224C223.96 290.143 223.693 289.942 223.528 289.664C223.112 288.936 222.888 288.544 226.264 284.672C218.984 289.128 218.208 288.944 217.784 288.84C217.452 288.742 217.168 288.526 216.984 288.232C216.312 287.072 216.184 286.84 229.656 275.816C227.496 277.216 225.248 278.72 223.256 280.048C211.4 287.96 207.712 290.208 206.08 289.832C205.882 289.787 205.696 289.702 205.532 289.583C205.369 289.463 205.231 289.311 205.128 289.136C204.408 287.888 204.408 287.888 220.328 276.384L223.48 274.112C221.64 275.336 219.808 276.584 218.128 277.728C205.6 286.248 199.896 289.928 197.76 289.448C197.537 289.398 197.328 289.301 197.145 289.163C196.963 289.025 196.813 288.849 196.704 288.648C195.904 287.296 195.744 286.992 218.896 271.264L188.448 288.864C188.177 289.015 187.857 289.054 187.558 288.972C187.259 288.889 187.004 288.693 186.848 288.424C186.312 287.496 186.728 286.36 188.928 284.424C185.424 286.44 183.392 287.248 182.392 287.016C182.184 286.968 181.988 286.879 181.815 286.754C181.641 286.629 181.495 286.471 181.384 286.288C180.72 285.136 180.976 284.072 189.448 278.376C180.712 283.84 177.488 285.448 176.232 285.152C176.045 285.109 175.87 285.027 175.716 284.913C175.562 284.799 175.432 284.654 175.336 284.488C174.752 283.488 175.296 283.128 177.304 281.8L181.728 278.912L188.496 274.536C181.04 278.408 179.92 278.144 179.296 277.992C179.086 277.944 178.888 277.855 178.713 277.728C178.538 277.602 178.391 277.441 178.28 277.256C178.133 276.985 178.095 276.668 178.176 276.37C178.256 276.072 178.448 275.816 178.712 275.656C202.192 261.736 238.44 239.408 247.176 232.024C238.464 235.984 212.416 252.16 197.576 261.4C178.464 273.28 178.376 273.256 177.576 273.048C177.411 273.011 177.255 272.941 177.117 272.842C176.98 272.743 176.864 272.617 176.776 272.472C176.128 271.352 176.16 270.632 183.808 265.896C180.288 267.552 177.968 268.296 176.944 268.056C176.72 268.004 176.509 267.906 176.325 267.768C176.14 267.631 175.986 267.456 175.872 267.256C175.719 266.99 175.674 266.676 175.747 266.378C175.82 266.08 176.005 265.821 176.264 265.656C199.96 250.56 233.296 229.184 246.896 220.152C243.112 222.08 238.032 224.952 232.384 228.336C227.816 231.272 222.4 234.688 215.992 238.672C207.528 243.944 198.968 249.168 191.84 253.488C174.624 264.352 174.416 264.304 173.576 264.096C173.411 264.057 173.255 263.985 173.118 263.884C172.98 263.784 172.864 263.658 172.776 263.512C172.629 263.241 172.591 262.924 172.672 262.626C172.752 262.328 172.944 262.072 173.208 261.912C178.392 258.832 184.112 255.4 190.048 251.8L193.168 249.832C180.736 256.944 173.864 260.056 171.84 259.56C171.606 259.515 171.385 259.42 171.19 259.282C170.996 259.144 170.833 258.966 170.712 258.76C169.968 257.48 171.024 255.848 179.792 250.12C174.136 253.568 171.896 254.592 170.944 254.36C170.763 254.319 170.591 254.241 170.441 254.131C170.291 254.021 170.166 253.881 170.072 253.72C169.568 252.848 169.16 252.12 175.016 247.872C171.864 249.472 169.872 250.12 168.92 249.888C168.704 249.842 168.5 249.751 168.321 249.621C168.142 249.492 167.992 249.327 167.88 249.136C167.8 248.999 167.748 248.847 167.727 248.688C167.706 248.53 167.718 248.37 167.76 248.216C167.844 247.91 168.045 247.648 168.32 247.488C194.28 232.728 233.592 209.352 245.56 199.92C232.432 207.168 196.24 228.416 170.984 243.392C170.848 243.473 170.697 243.525 170.54 243.547C170.383 243.569 170.223 243.56 170.07 243.52C169.917 243.479 169.773 243.409 169.647 243.313C169.521 243.217 169.416 243.097 169.336 242.96C169.213 242.741 169.137 242.498 169.111 242.248C169.084 241.998 169.109 241.745 169.184 241.504C169.63 240.49 170.303 239.592 171.152 238.88C169.288 239.64 168.04 239.92 167.328 239.744C167.107 239.69 166.899 239.592 166.717 239.454C166.535 239.316 166.384 239.143 166.272 238.944C165.552 237.704 166.928 236.744 169.008 235.296C170.608 234.216 172.872 232.72 176.04 230.736C181.952 227.04 190.064 222.144 198.656 216.968C208.312 211.144 219.784 204.224 228.896 198.496C209.4 209.696 178.696 227.632 163.952 236.256C163.673 236.415 163.343 236.458 163.032 236.376C162.88 236.336 162.737 236.266 162.612 236.17C162.487 236.074 162.382 235.953 162.304 235.816C161.688 234.744 161.504 234.432 172.104 227.76C167.952 230.04 165.328 231.024 163.992 230.712C163.74 230.66 163.501 230.555 163.292 230.405C163.083 230.255 162.907 230.062 162.776 229.84C161.976 228.464 161.976 228.464 181.224 217.288C190.128 212.12 200.752 205.944 210.528 200.008C218.736 194.552 225.16 190.408 230.032 187.528C232.588 185.828 235.013 183.941 237.288 181.88C227.296 186.368 187.84 210.224 162.888 225.744C162.619 225.914 162.293 225.97 161.982 225.899C161.672 225.829 161.402 225.638 161.232 225.368C161.062 225.099 161.007 224.773 161.077 224.462C161.148 224.152 161.339 223.882 161.608 223.712L169.352 218.784C162.952 222.072 160.552 222.624 159.568 222.376C159.345 222.324 159.135 222.226 158.952 222.089C158.769 221.951 158.616 221.776 158.504 221.576C158.349 221.311 158.303 220.996 158.376 220.697C158.449 220.398 158.636 220.14 158.896 219.976L175.944 209.048C162.008 216.92 160.88 216.64 160.192 216.464C160.009 216.422 159.837 216.342 159.685 216.231C159.534 216.119 159.407 215.978 159.312 215.816C159.162 215.548 159.121 215.233 159.197 214.935C159.273 214.637 159.46 214.38 159.72 214.216C177.688 203.104 203.216 187.016 218.12 176.928C206.08 183.864 188.52 194.168 176.168 201.432L162.4 209.432C159.344 211.216 157.864 212.088 157.072 212.488L156.864 212.616C156.312 212.88 156.176 212.84 155.944 212.776C155.718 212.716 155.515 212.591 155.359 212.417C155.204 212.243 155.102 212.027 155.067 211.796C155.032 211.565 155.066 211.328 155.163 211.116C155.261 210.904 155.418 210.724 155.616 210.6C174.672 198.816 202.816 181.056 215.424 172.32C208.712 176.208 198.688 182.6 190.624 187.76C168.016 202.16 161.144 206.304 159.152 205.808C158.963 205.763 158.784 205.681 158.628 205.565C158.471 205.45 158.339 205.304 158.24 205.136C157.744 204.264 157.384 203.648 164.896 198.232C162.848 199.136 161.464 199.48 160.656 199.288C160.428 199.236 160.212 199.139 160.022 199.001C159.833 198.864 159.673 198.689 159.552 198.488C159.404 198.221 159.362 197.906 159.437 197.609C159.511 197.312 159.695 197.055 159.952 196.888C174.712 187.6 197.144 173.04 204.856 167.016C198.104 170.32 183.368 179.816 174.696 185.368C160.528 194.4 160 194.624 159.096 194.4C158.93 194.362 158.774 194.29 158.637 194.19C158.499 194.09 158.383 193.963 158.296 193.816C157.656 192.72 157.096 191.744 170.968 182.208C169.256 183.296 167.504 184.424 165.712 185.576C165.564 185.696 165.39 185.781 165.205 185.824C165.019 185.867 164.826 185.867 164.64 185.824C164.482 185.787 164.334 185.717 164.205 185.619C164.075 185.521 163.968 185.398 163.888 185.256C163.032 183.776 164.264 182.504 174 175.04C173.822 175.002 173.653 174.927 173.505 174.82C173.358 174.712 173.235 174.575 173.144 174.416C172.996 174.14 172.96 173.818 173.045 173.516C173.131 173.215 173.329 172.958 173.6 172.8C173.825 172.677 174.081 172.624 174.336 172.648C175.602 171.914 176.827 171.112 178.008 170.248C181.912 167.504 183.016 166.848 183.968 167.048C184.154 167.089 184.33 167.167 184.484 167.279C184.638 167.39 184.767 167.533 184.864 167.696C185.552 168.896 185.016 169.616 178.464 174.688C180.288 173.56 182.168 172.392 184.064 171.24C202.56 159.928 203.992 160.264 204.864 160.472C205.056 160.514 205.237 160.595 205.396 160.711C205.554 160.826 205.686 160.974 205.784 161.144C205.935 161.412 205.977 161.726 205.903 162.024C205.828 162.321 205.643 162.579 205.384 162.744C196.36 168.344 186.984 174.408 179.12 179.648C197.376 167.992 206.152 162.848 208.624 163.472C208.839 163.52 209.041 163.612 209.218 163.741C209.396 163.87 209.545 164.035 209.656 164.224C210.416 165.544 210.968 166.504 185.712 183.128L182.08 185.528C187.168 182.328 192.32 178.968 196.48 176.248C212.68 165.736 215.304 164.192 216.528 164.48C216.696 164.524 216.853 164.601 216.991 164.707C217.128 164.813 217.243 164.945 217.328 165.096C217.481 165.362 217.526 165.677 217.453 165.975C217.38 166.273 217.195 166.531 216.936 166.696C201.272 176.68 178.392 191.584 167.08 199.592C173.16 196.008 181.776 190.512 189.28 185.728C213.064 170.528 220.824 165.928 223.016 166.456C223.212 166.503 223.397 166.589 223.559 166.709C223.721 166.828 223.857 166.979 223.96 167.152C224.544 168.168 224.968 168.888 211.056 178.176C230.552 166.864 230.928 166.976 231.544 167.12C231.701 167.161 231.848 167.232 231.977 167.329C232.106 167.427 232.215 167.549 232.296 167.688C233.096 169.072 233.664 170.088 196.88 193.592C194.208 195.304 191.528 197.008 188.88 198.672C203.44 190.064 220.792 179.472 233.936 171.264C234.074 171.18 234.227 171.125 234.386 171.1C234.545 171.075 234.708 171.082 234.864 171.12C235.179 171.201 235.449 171.402 235.616 171.68C236.184 172.672 235.344 173.28 234.456 173.888C233.912 174.264 233.112 174.808 232.056 175.488C230.12 176.776 227.256 178.688 223.56 181.088C217.336 185.144 208.64 190.768 197.712 197.808C187.184 204.584 176.576 211.408 169.304 216.056C178.912 210.976 197.6 200 233.6 177C238.784 173.696 238.784 173.696 239.312 173.8C239.47 173.839 239.619 173.91 239.75 174.007C239.88 174.105 239.99 174.228 240.072 174.368C240.368 174.88 240.536 175.168 239.576 176.024C238.296 177.144 235.112 179.224 227.848 183.944C238.136 178.304 239.096 178.536 239.72 178.696C239.902 178.737 240.073 178.815 240.223 178.925C240.373 179.035 240.499 179.175 240.592 179.336C241.024 180.088 241.128 180.992 239.528 182.784C240.159 182.587 240.827 182.538 241.48 182.64C241.741 182.695 241.988 182.803 242.204 182.959C242.42 183.115 242.602 183.314 242.736 183.544C243.536 184.92 243.936 185.624 220.168 200.616C245.336 186.04 245.584 186.104 246.184 186.264C246.338 186.304 246.483 186.373 246.609 186.469C246.736 186.566 246.841 186.686 246.92 186.824C247.72 188.152 246.28 189.488 242.84 192C240.624 193.6 237.496 195.712 233.304 198.4C247.28 189.672 250.784 187.864 252.032 188.168C252.209 188.211 252.375 188.289 252.521 188.398C252.666 188.507 252.789 188.643 252.88 188.8C252.96 188.936 253.012 189.087 253.033 189.244C253.054 189.401 253.042 189.56 253 189.712C252.96 189.867 252.888 190.012 252.791 190.138C252.693 190.264 252.571 190.37 252.432 190.448C244.272 195.072 235.976 199.856 227.96 204.576L219.656 209.824C203.328 220.16 191.416 227.592 183.056 232.456C180.408 234.272 178.144 235.888 176.328 237.256C183.768 232.856 196.44 225.376 209.128 217.976C249.128 194.568 249.736 194.736 250.496 194.936C250.653 194.977 250.8 195.048 250.929 195.145C251.058 195.243 251.167 195.365 251.248 195.504C251.364 195.709 251.437 195.935 251.463 196.169C251.489 196.403 251.468 196.639 251.4 196.864C251.164 197.639 250.712 198.33 250.096 198.856C252.84 197.488 254.56 196.928 255.408 197.128C255.614 197.176 255.809 197.265 255.979 197.39C256.15 197.515 256.293 197.674 256.4 197.856C257.04 198.96 256.144 199.56 254.168 200.872C252.976 201.672 251.216 202.784 248.776 204.304L248.304 204.6C252.032 202.816 254.648 201.976 255.96 202.296C256.228 202.352 256.482 202.462 256.705 202.62C256.928 202.779 257.116 202.982 257.256 203.216C258.36 205.128 257.256 206.344 218.224 229.432C201.832 239.2 180.176 252 174.272 256.8C177.528 255.656 185.64 251.736 205.8 239.536C222.232 229.592 240.328 217.984 249 212.408C255.024 208.544 255.016 208.552 255.552 208.68C255.871 208.761 256.144 208.966 256.312 209.248C256.8 210.096 257.296 210.952 250.712 215.856C251.642 215.436 252.663 215.26 253.68 215.344C253.904 215.397 254.115 215.495 254.299 215.633C254.484 215.771 254.638 215.945 254.752 216.144C255.456 217.368 255.456 217.368 242.512 225.848C236.112 230.024 227.232 235.792 216.032 242.992C205.232 249.936 194.344 256.904 186.888 261.664C201.992 253.568 230.296 235.616 242.888 227.632C254.088 220.552 254.088 220.552 254.696 220.704C254.853 220.745 255 220.816 255.129 220.913C255.258 221.011 255.367 221.133 255.448 221.272C256.304 222.76 254.944 224.872 249.68 228.784C249.834 228.762 249.99 228.762 250.144 228.784C250.34 228.831 250.525 228.917 250.687 229.037C250.849 229.156 250.985 229.307 251.088 229.48C251.928 230.936 252.88 232.584 217.376 254.816C227.584 248.528 238.176 241.84 246.728 236.296C246.865 236.207 247.019 236.147 247.179 236.119C247.34 236.091 247.505 236.097 247.664 236.135C247.823 236.173 247.972 236.243 248.103 236.341C248.234 236.439 248.343 236.563 248.424 236.704C249.008 237.728 248.2 238.304 246.824 239.264C246.024 239.832 244.816 240.664 243.232 241.72C241.648 242.776 239.68 244.12 237.304 245.656C240.616 243.976 242.664 243.296 243.704 243.552C243.93 243.603 244.143 243.701 244.329 243.838C244.514 243.976 244.67 244.151 244.784 244.352C245.456 245.512 245.304 245.952 237.208 251.184C238.912 250.456 240.12 250.192 240.896 250.384C241.137 250.436 241.365 250.538 241.565 250.682C241.764 250.827 241.932 251.011 242.056 251.224C243 252.824 242.288 253.576 220.608 266.704C214.4 270.464 206.584 275.192 200.256 279.272L242.824 254.704C242.96 254.624 243.111 254.571 243.268 254.551C243.425 254.53 243.584 254.542 243.736 254.584C244.042 254.666 244.303 254.864 244.464 255.136C245.056 256.168 244.216 256.784 242.824 257.808C241.984 258.424 240.752 259.296 239.056 260.464C235.896 262.656 231.504 265.624 226.856 268.776C221.44 272.44 214.624 277.056 209.04 280.936C211.608 279.24 214.28 277.424 216.656 275.808C229.032 267.392 234.256 264.024 236.296 264.472C236.51 264.519 236.712 264.609 236.889 264.737C237.067 264.865 237.216 265.028 237.328 265.216C238.024 266.432 238.056 266.488 223.864 276.768C234.16 269.92 237.528 267.968 239.064 268.312C239.262 268.357 239.448 268.442 239.612 268.562C239.776 268.682 239.913 268.834 240.016 269.008C240.576 269.984 240.576 269.984 233.416 275.832C231.256 277.592 228.256 280.04 225.552 282.304C227.744 280.952 230.16 279.416 232.456 277.928C232.593 277.839 232.747 277.779 232.907 277.751C233.068 277.723 233.233 277.729 233.392 277.767C233.551 277.805 233.7 277.875 233.831 277.973C233.962 278.071 234.071 278.195 234.152 278.336C234.6 279.136 234.432 279.296 232.792 281.056C231.456 282.488 230.312 283.744 229.344 284.816C236.608 280.488 236.872 280.56 237.384 280.688C237.54 280.729 237.686 280.8 237.813 280.897C237.941 280.995 238.048 281.117 238.128 281.256C238.208 281.393 238.26 281.543 238.281 281.7C238.302 281.857 238.292 282.016 238.251 282.168C238.21 282.321 238.14 282.464 238.043 282.589C237.946 282.714 237.826 282.818 237.688 282.896C237.572 282.966 237.445 283.015 237.312 283.04C236.248 283.52 230.336 287 225.128 290.152C224.953 290.232 224.761 290.271 224.568 290.264V290.264ZM236.112 282.4C236.239 282.615 236.429 282.785 236.656 282.888C236.431 282.782 236.242 282.613 236.112 282.4V282.4ZM206.576 270.184C199.664 274.496 192.864 278.816 188.432 281.896C193.256 279.024 200.264 274.4 206.576 270.184V270.184ZM236.328 248.88C228.48 253.232 215.784 261.408 206.136 267.64C209.688 265.424 213.736 262.92 218.336 260.088C224.672 256.192 231.496 252 236.328 248.88V248.88ZM235.816 254.48C231.552 256.752 225.08 260.88 218.768 265L219.432 264.6C225.328 261.016 231.728 257.136 235.816 254.464V254.48ZM196.48 236.512C191.2 239.816 186.4 242.928 182.4 245.6C186.544 242.952 191.456 239.776 196.48 236.512ZM253.432 205.048C251.112 205.848 246.192 208.088 235.784 214.336C225.376 220.584 212.8 228.8 201.6 236.08C196.712 239.28 192.6 241.92 189.128 244.144C195.864 240 204.912 234.584 217 227.432C231.712 218.704 248.16 208.976 253.432 205.048V205.048ZM245.92 228.52L244.224 229.6C238.624 233.158 233.32 236.504 228.312 239.64C234.992 235.624 241.304 231.696 245.92 228.52ZM192.864 223.2C185.528 227.632 178.4 232 173.664 234.984C176.064 233.76 178.952 232.12 182.216 230.184C185.424 228 189.016 225.64 192.864 223.2ZM211.648 202.064C208.576 204.112 205.552 206.144 202.72 208.04C197.12 211.816 192.144 215.112 187.832 217.944L192.24 215.224C208.44 205.24 231.832 190.808 238.712 185.576C236.168 186.714 233.701 188.018 231.328 189.48C228.592 191.392 225.112 193.688 220.704 196.472C217.832 198.272 214.784 200.144 211.648 202.048V202.064Z" fill="white"/>
</g>
<path d="M207.576 162.04H207.04C178.032 162.576 156.168 184.768 156.168 212.072C156.155 220.226 158.144 228.258 161.96 235.464C163.56 239.264 167.432 248.568 171.264 260.6C174.816 271.704 176.672 282.88 176.672 284.6C176.672 284.76 176.672 284.928 176.672 285.112C176.656 285.614 176.741 286.114 176.922 286.583C177.103 287.052 177.376 287.479 177.725 287.84C178.074 288.201 178.492 288.489 178.954 288.685C179.417 288.882 179.914 288.983 180.416 288.984H232.368C232.87 288.983 233.367 288.882 233.83 288.685C234.292 288.489 234.71 288.201 235.059 287.84C235.408 287.479 235.681 287.052 235.862 286.583C236.043 286.114 236.128 285.614 236.112 285.112C236.112 284.928 236.112 284.76 236.112 284.6C236.112 282.912 237.968 271.736 241.512 260.6C245.352 248.6 249.184 239.264 250.816 235.464C254.806 227.916 256.798 219.472 256.603 210.936C256.409 202.401 254.034 194.057 249.704 186.698C245.374 179.339 239.234 173.21 231.867 168.894C224.501 164.579 216.152 162.219 207.616 162.04H207.576Z" stroke="#263238" stroke-width="2.32558" stroke-linecap="round" stroke-linejoin="round"/>
<path d="M225.104 170.072C223.656 169.422 222.17 168.855 220.656 168.376" stroke="#263238" stroke-width="3.48837" stroke-linecap="round" stroke-linejoin="round"/>
<path d="M241.777 182.776C241.777 182.776 237.697 176.296 228.729 171.888" stroke="#263238" stroke-width="3.48837" stroke-linecap="round" stroke-linejoin="round"/>
<path d="M203.072 266.296V240.6C203.072 240.6 205.048 228.088 198.544 228.088C192.04 228.088 192.536 234.6 200.04 241.6C207.544 248.6 219.064 242.104 220.568 236.6C222.072 231.096 218.064 228.6 215.56 233.096C213.056 237.592 215.56 288.656 215.56 288.656" stroke="#263238" stroke-width="3.48837" stroke-linecap="round" stroke-linejoin="round"/>
<path d="M189.16 149.04L191.928 157.752" stroke="#263238" stroke-width="3.48837" stroke-linecap="round" stroke-linejoin="round"/>
<path d="M256.984 168.04L247.872 175.168" stroke="#263238" stroke-width="3.48837" stroke-linecap="round" stroke-linejoin="round"/>
<path d="M223.201 142.68L219.769 157.752" stroke="#263238" stroke-width="3.48837" stroke-linecap="round" stroke-linejoin="round"/>
<path d="M233.816 292.728H178.944C178.241 292.728 177.672 293.298 177.672 294V294.632C177.672 295.335 178.241 295.904 178.944 295.904H233.816C234.518 295.904 235.088 295.335 235.088 294.632V294C235.088 293.298 234.518 292.728 233.816 292.728Z" fill="#263238" stroke="#263238" stroke-width="1.16279" stroke-linecap="round" stroke-linejoin="round"/>
<path d="M233.816 299.88H178.944C178.241 299.88 177.672 300.45 177.672 301.152V301.784C177.672 302.487 178.241 303.056 178.944 303.056H233.816C234.518 303.056 235.088 302.487 235.088 301.784V301.152C235.088 300.45 234.518 299.88 233.816 299.88Z" fill="#263238" stroke="#263238" stroke-width="1.16279" stroke-linecap="round" stroke-linejoin="round"/>
<path d="M233.816 307.032H178.944C178.241 307.032 177.672 307.602 177.672 308.304V308.936C177.672 309.639 178.241 310.208 178.944 310.208H233.816C234.518 310.208 235.088 309.639 235.088 308.936V308.304C235.088 307.602 234.518 307.032 233.816 307.032Z" fill="#263238" stroke="#263238" stroke-width="1.16279" stroke-linecap="round" stroke-linejoin="round"/>
<path d="M208.065 314.016H179.889L188.001 325.216C188.696 326.178 189.61 326.961 190.667 327.501C191.724 328.04 192.894 328.321 194.081 328.32H218.881C220.07 328.319 221.242 328.036 222.3 327.494C223.359 326.951 224.273 326.165 224.969 325.2L233.017 314.056L208.065 314.016Z" fill="#263238" stroke="#263238" stroke-width="1.16279" stroke-linecap="round" stroke-linejoin="round"/>
<path d="M175.952 261.736C175.952 261.736 176.68 269.28 178.352 274.04C180.024 278.8 180.12 283.504 175.904 282.696C173.376 282.208 171.72 278.96 171.72 278.96C171.72 278.96 174.976 283.16 172.912 287.432C170.848 291.704 163.792 284.056 163.792 284.056C163.792 284.056 166.656 292.632 163.68 292.72C160.704 292.808 157.816 288.888 155.96 287.488C154.104 286.088 149.288 273.088 147.056 271.44C144.824 269.792 136.72 271.224 133.92 274.944C131.12 278.664 125.44 273.808 133.392 261.72C141.344 249.632 151.608 242.2 158.68 242.872C165.752 243.544 175.952 261.736 175.952 261.736Z" fill="white" stroke="#263238" stroke-width="1.16279" stroke-miterlimit="10" stroke-linecap="round"/>
<path d="M168.648 276.064L157.992 259.32C157.992 259.32 152.544 252.992 142.056 257.176" stroke="#263238" stroke-width="1.16279" stroke-miterlimit="10" stroke-linecap="round"/>
<path d="M162.68 278.56L150.976 266.232C150.976 266.232 145.304 261.376 136.264 265.64" stroke="#263238" stroke-width="1.16279" stroke-miterlimit="10" stroke-linecap="round"/>
<path d="M139.592 275.144L147.944 284.952L124.048 304.264C124.048 304.264 110.992 310.744 106.144 314.088C101.296 317.432 74.8239 320.8 74.8239 320.8L69.8799 290.24C69.8799 290.24 85.3519 286.744 87.3999 284.792C89.4479 282.84 110.6 257.936 113.376 254.216C116.152 250.496 130.352 247.176 130.352 247.176C130.352 247.176 136.704 245.104 143.8 238.792C150.896 232.48 160.024 234.568 163.464 237.744C166.904 240.92 176.264 249.744 178.112 255.776C179.96 261.808 180.872 268.36 176.312 266.672C168.736 263.864 164.84 248.016 155.672 250.024C151.48 250.944 140.184 260.424 138.696 261.64C138.696 261.64 135.224 270.104 139.592 275.144" fill="white"/>
<path d="M139.592 275.144L147.944 284.952L124.048 304.264C124.048 304.264 110.992 310.744 106.144 314.088C101.296 317.432 74.8239 320.8 74.8239 320.8L69.8799 290.24C69.8799 290.24 85.3519 286.744 87.3999 284.792C89.4479 282.84 110.6 257.936 113.376 254.216C116.152 250.496 130.352 247.176 130.352 247.176C130.352 247.176 136.704 245.104 143.8 238.792C150.896 232.48 160.024 234.568 163.464 237.744C166.904 240.92 176.264 249.744 178.112 255.776C179.96 261.808 180.872 268.36 176.312 266.672C168.736 263.864 164.84 248.016 155.672 250.024C151.48 250.944 140.184 260.424 138.696 261.64C138.696 261.64 135.224 270.104 139.592 275.144" stroke="#263238" stroke-width="1.16279" stroke-miterlimit="10" stroke-linecap="round"/>
<path d="M203.096 268.8C203.081 268.593 202.992 268.398 202.845 268.251C202.698 268.104 202.503 268.015 202.296 268L199.976 267.912C199.862 267.908 199.749 267.926 199.643 267.965C199.536 268.005 199.439 268.065 199.355 268.142C199.272 268.22 199.205 268.313 199.158 268.416C199.11 268.519 199.084 268.63 199.08 268.744C199.075 268.857 199.094 268.971 199.133 269.077C199.173 269.183 199.233 269.281 199.31 269.364C199.387 269.447 199.48 269.515 199.583 269.562C199.687 269.609 199.798 269.636 199.912 269.64L202.232 269.728C202.455 269.735 202.673 269.656 202.839 269.507C203.006 269.358 203.109 269.151 203.128 268.928C203.122 268.884 203.111 268.841 203.096 268.8V268.8Z" fill="#263238" stroke="#263238" stroke-width="1.16279" stroke-miterlimit="10" stroke-linecap="round"/>
<path d="M200.424 268.728C200.372 268.257 200.153 267.82 199.807 267.497C199.46 267.174 199.009 266.986 198.536 266.968L191.92 265.832L121.936 261.328C121.327 261.304 120.72 261.4 120.149 261.611C119.578 261.822 119.054 262.144 118.608 262.557C118.161 262.971 117.8 263.468 117.545 264.021C117.29 264.574 117.147 265.171 117.124 265.78C117.1 266.388 117.196 266.995 117.407 267.566C117.618 268.137 117.94 268.661 118.353 269.108C118.766 269.555 119.264 269.916 119.817 270.17C120.37 270.425 120.967 270.568 121.576 270.592L192.24 271.328L198.384 270.912C198.906 270.931 199.416 270.743 199.8 270.387C200.184 270.032 200.411 269.538 200.432 269.016C200.437 268.92 200.434 268.823 200.424 268.728Z" fill="#ABF8C5" stroke="#263238" stroke-width="1.16279" stroke-miterlimit="10" stroke-linecap="round"/>
<path d="M121.936 261.328L142.128 262.632C142.944 263.719 143.392 265.038 143.408 266.397C143.424 267.757 143.006 269.086 142.216 270.192C142.048 270.403 141.869 270.606 141.68 270.8L121.6 270.592C120.992 270.568 120.394 270.425 119.841 270.17C119.288 269.916 118.791 269.555 118.377 269.108C117.964 268.661 117.643 268.137 117.432 267.566C117.221 266.995 117.124 266.388 117.148 265.78C117.172 265.171 117.315 264.574 117.569 264.021C117.824 263.468 118.185 262.971 118.632 262.557C119.079 262.144 119.603 261.822 120.174 261.611C120.745 261.4 121.352 261.304 121.96 261.328H121.936Z" fill="#263238" stroke="#263238" stroke-width="1.16279" stroke-miterlimit="10" stroke-linecap="round"/>
<path d="M106.144 314.088C114.72 311.224 131.424 299.904 135.896 298.608C140.368 297.312 151.312 295.248 158.592 290.24C165.872 285.232 171.336 281.008 175.544 275.424C179.752 269.84 175.688 265.272 167.48 268.416C159.272 271.56 147.872 277.312 147.872 277.312C147.872 277.312 142.096 278.784 136.984 273.184" fill="white"/>
<path d="M106.144 314.088C114.72 311.224 131.424 299.904 135.896 298.608C140.368 297.312 151.312 295.248 158.592 290.24C165.872 285.232 171.336 281.008 175.544 275.424C179.752 269.84 175.688 265.272 167.48 268.416C159.272 271.56 147.872 277.312 147.872 277.312C147.872 277.312 142.096 278.784 136.984 273.184" stroke="#263238" stroke-width="1.16279" stroke-miterlimit="10" stroke-linecap="round"/>
<path d="M172.64 269.6L169.52 271.144C169.52 271.144 169.808 271.36 170.936 273.984C171.62 275.554 171.895 277.271 171.736 278.976C171.736 278.976 177.696 275.072 177.272 272.088C177.19 271.345 176.863 270.65 176.344 270.112C175.858 269.649 175.239 269.351 174.574 269.259C173.909 269.167 173.233 269.286 172.64 269.6Z" fill="white" stroke="#263238" stroke-width="1.16279" stroke-miterlimit="10" stroke-linecap="round"/>
<path d="M85.7441 283.656C85.7441 283.656 93.3921 294 94.6481 302.96C95.432 308.958 95.8434 314.999 95.8801 321.048L72.5281 326.648C72.5281 326.648 71.4721 312.12 69.3921 304.248C67.9275 298.951 66.1101 293.758 63.9521 288.704L85.7441 283.656Z" fill="white" stroke="#263238" stroke-width="1.16279" stroke-miterlimit="10" stroke-linecap="round"/>
<path d="M86.8078 301.704C84.7278 291.56 77.8078 284.048 77.8078 284.048L22.5518 292.848V355.248L87.9278 328.28C87.9278 328.28 88.8798 311.848 86.8078 301.704Z" fill="#263238" stroke="#263238" stroke-width="1.16279" stroke-miterlimit="10" stroke-linecap="round"/>
<path d="M72 328.8C72.0095 329.288 71.8728 329.768 71.6075 330.178C71.3422 330.588 70.9604 330.909 70.5112 331.1C70.062 331.291 69.5659 331.344 69.0866 331.251C68.6073 331.158 68.1667 330.924 67.8215 330.578C67.4763 330.233 67.2422 329.793 67.1492 329.313C67.0563 328.834 67.1088 328.338 67.3 327.889C67.4912 327.439 67.8124 327.058 68.2223 326.792C68.6321 326.527 69.1119 326.39 69.6 326.4C70.2327 326.412 70.836 326.669 71.2835 327.116C71.7309 327.564 71.9877 328.167 72 328.8Z" fill="white"/>
<path d="M78.8638 325.888C78.8622 326.372 78.7173 326.844 78.4473 327.246C78.1774 327.647 77.7945 327.96 77.347 328.144C76.8996 328.328 76.4076 328.375 75.9333 328.28C75.459 328.185 75.0235 327.951 74.682 327.608C74.3404 327.265 74.108 326.829 74.0142 326.355C73.9204 325.88 73.9694 325.388 74.1549 324.941C74.3404 324.494 74.6542 324.113 75.0566 323.844C75.459 323.575 75.9319 323.432 76.4158 323.432C76.7379 323.432 77.0569 323.495 77.3544 323.619C77.6519 323.743 77.9222 323.924 78.1496 324.152C78.377 324.38 78.5572 324.651 78.6797 324.949C78.8023 325.247 78.8648 325.566 78.8638 325.888V325.888Z" fill="white"/>
<path d="M157.12 279.112L156.576 278.584" stroke="#263238" stroke-width="1.16279" stroke-miterlimit="10" stroke-linecap="round"/>
<path d="M160.36 286.4C160.36 286.4 161.56 284.104 158.112 280.16" stroke="#263238" stroke-width="1.16279" stroke-miterlimit="10" stroke-linecap="round"/>
<path d="M157 281.6C157 281.6 156.632 282.68 158.64 285.992" stroke="#263238" stroke-width="1.16279" stroke-miterlimit="10" stroke-linecap="round"/>
<path d="M159.199 278.968C160.463 280.276 161.408 281.858 161.959 283.592" stroke="#263238" stroke-width="1.16279" stroke-miterlimit="10" stroke-linecap="round"/>
</svg>
