<?xml version="1.0" encoding="utf-8"?>
<!-- Generator: Adobe Illustrator 22.1.0, SVG Export Plug-In . SVG Version: 6.00 Build 0)  -->
<svg version="1.1" id="Layer_1" xmlns="http://www.w3.org/2000/svg" xmlns:xlink="http://www.w3.org/1999/xlink" x="0px" y="0px"
	 viewBox="0 0 256 256" style="enable-background:new 0 0 256 256;" xml:space="preserve">
<style type="text/css">
	.st0{fill:#FF9883;}
	.st1{fill:#FFFFFF;}
	.st2{opacity:5.000000e-02;}
	.st3{fill:#538FF4;}
	.st4{fill:#1AAC60;}
	.st5{opacity:0.1;}
	.st6{fill:none;stroke:#434A54;stroke-width:8;stroke-linecap:round;stroke-linejoin:round;stroke-miterlimit:10;}
	.st7{opacity:0.15;}
	.st8{fill:#70716A;}
	.st9{fill:#00CEFF;}
	.st10{fill:#F4D864;}
	.st11{opacity:7.000000e-02;}
	.st12{fill:#434A54;stroke:#434A54;stroke-miterlimit:10;}
	.st13{fill:#434A54;stroke:#434A54;stroke-width:8;stroke-linecap:round;stroke-linejoin:round;stroke-miterlimit:10;}
	.st14{fill:#D5D5D5;}
	.st15{fill:#FFAD76;}
	.st16{opacity:0.15;fill:none;stroke:#434A54;stroke-width:8;stroke-linecap:round;stroke-linejoin:round;stroke-miterlimit:10;}
	.st17{fill:#73BC7A;}
	.st18{fill:#DB5F4B;}
	.st19{fill:#FFD11D;}
	.st20{fill:#F9D49D;}
	.st21{fill:#AF8052;}
	.st22{fill:#BFE6F8;}
	.st23{fill:#D86464;}
	.st24{fill:#EF9354;}
	.st25{fill:#D37F46;}
	.st26{fill:#F3B220;}
	.st27{fill:none;stroke:#01A8EE;stroke-linecap:round;stroke-linejoin:round;stroke-miterlimit:10;}
	.st28{fill:#F4DED3;}
	.st29{fill:#D1B9AC;}
	.st30{fill:none;}
	.st31{fill:none;stroke:#FFFFFF;stroke-width:8;stroke-linecap:round;stroke-linejoin:round;stroke-miterlimit:10;}
	.st32{fill:#E0E0E0;}
	.st33{fill:none;stroke:#434A54;stroke-width:8;stroke-linecap:round;stroke-linejoin:round;}
	.st34{fill:none;stroke:#434A54;stroke-width:8;stroke-linecap:round;stroke-linejoin:round;stroke-dasharray:15.83,15.83;}
	.st35{fill:none;stroke:#434A54;stroke-width:8;stroke-linecap:round;stroke-linejoin:round;stroke-dasharray:15.6504,15.6504;}
	.st36{fill:none;stroke:#434A54;stroke-width:8;stroke-linecap:round;stroke-linejoin:round;stroke-dasharray:18.1434,18.1434;}
	.st37{fill:none;stroke:#434A54;stroke-width:8;stroke-linecap:round;stroke-linejoin:round;stroke-dasharray:12.9369,12.9369;}
	.st38{opacity:0.1;fill:none;stroke:#434A54;stroke-width:8;stroke-linecap:round;stroke-linejoin:round;stroke-miterlimit:10;}
	.st39{opacity:0.15;fill:none;stroke:#000000;stroke-width:8;stroke-linecap:round;stroke-linejoin:round;stroke-miterlimit:10;}
	.st40{fill:#00C2E2;}
	.st41{fill:#D1D1D1;}
	.st42{fill:#A0642E;}
	
		.st43{opacity:7.000000e-02;fill:#434A54;stroke:#434A54;stroke-width:8;stroke-linecap:round;stroke-linejoin:round;stroke-miterlimit:10;}
	.st44{fill:none;stroke:#434A54;stroke-width:8;stroke-linecap:round;stroke-linejoin:round;stroke-dasharray:11.8056,11.8056;}
	.st45{opacity:0.2;}
	.st46{opacity:7.000000e-02;fill:#231F20;}
	.st47{opacity:0.1;fill:#231F20;}
	.st48{opacity:0.8;}
	.st49{fill:#7F7F7A;}
	.st50{fill:#92D392;}
	.st51{fill:#EAEAEA;}
	.st52{fill:#434A54;}
	.st53{opacity:0.15;fill:#231F20;}
</style>
<g>
	<path class="st5" d="M135,114.5v34l-38,68.5l-0.7,1.3l-1,1.7c0,0-0.7,31.1-18.2,32.9C59.5,254.6,0,197.3,0,167
		c0-29.5,7.4-41.1,7.4-41.1c2.5,27.2,22.9,51.8,57,74.4h0c4,2.9,8.2,5.6,12.6,8c0,0,0.1,0,0.1,0.1L135,114.5z"/>
	<path class="st17" d="M76,191.6c-4.4-2.4-8.6-5-12.6-7.9C67.4,186.4,71.6,189,76,191.6z"/>
	<path class="st9" d="M134,131.8l-38,68.5c12.7,4.2,26.6,6.5,41,6.5c57.3,0,104.8-36.4,113.5-84c1-5.2,1.5-10.5,1.5-15.9
		c0-55.1-51.5-99.9-115-99.9C77,7.1,27.8,47,22.5,97.9H134V131.8z"/>
	<path class="st5" d="M170.2,135.8c-1.1,7.8-38.4,70.9-38.4,70.9c-12.6-0.5-24.6-2.7-35.8-6.4l38-68.5
		C134,131.8,171.3,128,170.2,135.8z"/>
	<path class="st9" d="M95.3,201.6v30.2c12.9,4.4,27,6.8,41.7,6.8c63.5,0,115-44.7,115-99.9V107c0,5.4-0.5,10.7-1.5,15.9
		c-8.8,47.6-56.3,84-113.5,84c-14.4,0-28.3-2.3-41-6.5L95.3,201.6z"/>
	<path class="st7" d="M95.3,201.6v30.2c12.9,4.4,27,6.8,41.7,6.8c63.5,0,115-44.7,115-99.9V107c0,5.4-0.5,10.7-1.5,15.9
		c-8.8,47.6-56.3,84-113.5,84c-14.4,0-28.3-2.3-41-6.5L95.3,201.6z"/>
	<polygon class="st0" points="76.1,191.7 76.1,236.2 94.3,203.3 95.3,201.6 96,200.3 134,131.8 134,97.9 	"/>
	<path class="st0" d="M6.4,97.9c0,0,0,4.8,0,11.4c2.5,27.2,22.9,51.8,57,74.4l0,0c4,2.7,8.2,5.3,12.6,7.9c0,0,0.1,0,0.1,0.1
		L134,97.9H6.4z"/>
	<path class="st0" d="M6.1,147.4c0,30.3,32.5,74.4,70,88.8v-44.5c0,0-0.1,0-0.1-0.1c-4.4-2.4-8.6-5-12.6-7.9l0,0
		c-34-22.6-54.5-47.2-57-74.4C6.4,109.3,6.1,117.9,6.1,147.4z"/>
	<polygon class="st7" points="76.1,191.7 76.1,236.2 94.3,203.3 95.3,201.6 96,200.3 134,131.8 134,97.9 	"/>
	<path class="st6" d="M76,191.6c-4.4-2.4-8.6-5-12.6-7.9C67.4,186.4,71.6,189,76,191.6z"/>
	<path class="st6" d="M134,131.8l-38,68.5c12.7,4.2,26.6,6.5,41,6.5c57.3,0,104.8-36.4,113.5-84c1-5.2,1.5-10.5,1.5-15.9
		c0-55.1-51.5-99.9-115-99.9C77,7.1,27.8,47,22.5,97.9H134V131.8z"/>
	<path class="st6" d="M95.3,201.6v30.2c12.9,4.4,27,6.8,41.7,6.8c63.5,0,115-44.7,115-99.9V107c0,5.4-0.5,10.7-1.5,15.9
		c-8.8,47.6-56.3,84-113.5,84c-14.4,0-28.3-2.3-41-6.5L95.3,201.6z"/>
	<polygon class="st6" points="76.1,191.7 76.1,236.2 94.3,203.3 95.3,201.6 96,200.3 134,131.8 134,97.9 	"/>
	<path class="st6" d="M6.4,97.9c0,0,0,4.8,0,11.4c2.5,27.2,22.9,51.8,57,74.4l0,0c4,2.7,8.2,5.3,12.6,7.9c0,0,0.1,0,0.1,0.1
		L134,97.9H6.4z"/>
	<path class="st6" d="M251.7,97.9c0.4,3.9,0.4,7.7,0,11.4"/>
	<path class="st6" d="M6.1,147.4c0,30.3,32.5,74.4,70,88.8v-44.5c0,0-0.1,0-0.1-0.1c-4.4-2.4-8.6-5-12.6-7.9l0,0
		c-34-22.6-54.5-47.2-57-74.4C6.4,109.3,6.1,117.9,6.1,147.4z"/>
</g>
</svg>
