<svg width="779" height="412" viewBox="0 0 779 412" fill="none" xmlns="http://www.w3.org/2000/svg">
<path d="M13.704 11.552H9.912C9.816 10.944 9.568 10.456 9.168 10.088C8.768 9.704 8.248 9.512 7.608 9.512C5.912 9.512 5.064 10.816 5.064 13.424V16.016C5.064 18.624 5.912 19.928 7.608 19.928C8.904 19.928 9.672 19.248 9.912 17.888H13.704C13.416 19.712 12.768 21.064 11.76 21.944C10.768 22.808 9.384 23.24 7.608 23.24C5.592 23.24 4 22.624 2.832 21.392C1.664 20.144 1.08 18.352 1.08 16.016V13.424C1.08 11.072 1.656 9.28 2.808 8.048C3.976 6.816 5.576 6.2 7.608 6.2C9.304 6.2 10.672 6.656 11.712 7.568C12.768 8.464 13.432 9.792 13.704 11.552ZM15.8541 6.44H19.8381V12.776H24.9261V6.44H28.9101V23H24.9261V16.088H19.8381V23H15.8541V6.44ZM32.0316 6.44H36.0156V23H32.0316V6.44ZM39.1275 6.44H43.1115V19.688H49.5915V23H39.1275V6.44ZM57.4361 23H51.2681V6.44H57.4361C59.5161 6.44 61.1241 7.016 62.2601 8.168C63.3961 9.32 63.9641 11.104 63.9641 13.52V15.92C63.9641 18.32 63.3961 20.104 62.2601 21.272C61.1241 22.424 59.5161 23 57.4361 23ZM55.2521 19.688H57.4361C58.3641 19.688 59.0201 19.384 59.4041 18.776C59.7881 18.152 59.9801 17.2 59.9801 15.92V13.52C59.9801 12.24 59.7881 11.296 59.4041 10.688C59.0201 10.064 58.3641 9.752 57.4361 9.752H55.2521V19.688ZM76.3431 16.04L79.6551 23H75.2871L72.5271 16.736H70.4631V23H66.4791V6.44H72.7191C74.6871 6.44 76.2231 6.888 77.3271 7.784C78.4311 8.68 78.9831 9.968 78.9831 11.648C78.9831 13.776 78.1031 15.24 76.3431 16.04ZM70.4631 9.752V13.424H72.2391C73.2151 13.424 73.9191 13.304 74.3511 13.064C74.7831 12.808 74.9991 12.336 74.9991 11.648C74.9991 10.944 74.7751 10.456 74.3271 10.184C73.8791 9.896 73.1831 9.752 72.2391 9.752H70.4631ZM81.4556 23V6.44H91.9196V9.752H85.4396V12.776H91.1996V16.088H85.4396V19.688H91.9196V23H81.4556ZM103.283 15.728V6.44H107.027V23H103.811L97.7153 13.832V23H93.9713V6.44H97.1393L103.283 15.728ZM115.909 23V6.44H126.373V9.752H119.893V13.16H125.653V16.472H119.893V23H115.909ZM128.284 6.44H132.268V19.688H138.748V23H128.284V6.44ZM152.394 13.424V16.016C152.394 18.352 151.81 20.144 150.642 21.392C149.474 22.624 147.882 23.24 145.866 23.24C143.85 23.24 142.258 22.624 141.09 21.392C139.922 20.144 139.338 18.352 139.338 16.016V13.424C139.338 11.072 139.914 9.28 141.066 8.048C142.234 6.816 143.834 6.2 145.866 6.2C147.898 6.2 149.49 6.816 150.642 8.048C151.81 9.28 152.394 11.072 152.394 13.424ZM143.322 13.424V16.016C143.322 18.624 144.17 19.928 145.866 19.928C147.562 19.928 148.41 18.624 148.41 16.016V13.424C148.41 10.816 147.562 9.512 145.866 9.512C144.17 9.512 143.322 10.816 143.322 13.424ZM167.773 23L164.389 12.296L161.029 23H157.285L153.589 6.44H157.909L159.709 16.328L162.637 6.44H166.117L169.117 16.4L170.917 6.44H175.237L171.541 23H167.773Z" fill="#021D31"/>
<rect x="127" y="65" width="109" height="47" fill="white"/>
<path d="M142.408 89.296C142.408 90.1067 142.072 90.8 141.4 91.376C140.728 91.9413 139.843 92.2293 138.744 92.24C137.816 92.2507 136.883 92.1067 135.944 91.808L135.704 88.976H136.344L137.016 91.184C137.645 91.472 138.301 91.616 138.984 91.616C139.677 91.6053 140.221 91.4187 140.616 91.056C141.021 90.6827 141.224 90.24 141.224 89.728C141.224 89.12 141.027 88.6613 140.632 88.352C140.248 88.0427 139.608 87.7173 138.712 87.376C138.253 87.2053 137.88 87.0507 137.592 86.912C137.315 86.7627 137.032 86.576 136.744 86.352C136.456 86.128 136.243 85.8667 136.104 85.568C135.976 85.2587 135.912 84.9013 135.912 84.496C135.912 83.7387 136.195 83.0987 136.76 82.576C137.336 82.0533 138.152 81.7867 139.208 81.776C139.848 81.7653 140.472 81.824 141.08 81.952L141.912 81.712V84.864H141.272L140.824 82.816C140.237 82.5493 139.629 82.416 139 82.416C138.381 82.416 137.901 82.5813 137.56 82.912C137.229 83.232 137.064 83.6213 137.064 84.08C137.064 84.3893 137.117 84.6613 137.224 84.896C137.331 85.12 137.517 85.3227 137.784 85.504C138.061 85.6853 138.307 85.8293 138.52 85.936C138.744 86.032 139.08 86.1653 139.528 86.336C140.499 86.688 141.219 87.072 141.688 87.488C142.168 87.8933 142.408 88.496 142.408 89.296ZM151.127 88.192C151.127 89.312 150.785 90.2667 150.102 91.056C149.431 91.8453 148.54 92.24 147.431 92.24C146.918 92.24 146.401 92.144 145.878 91.952H145.846V95.104C145.846 95.2427 145.996 95.3173 146.294 95.328L147.126 95.392L147.174 95.936H143.59L143.638 95.392L144.294 95.328C144.561 95.3173 144.694 95.2373 144.694 95.088V86.624C144.694 86.2613 144.662 86.0267 144.598 85.92C144.545 85.8133 144.412 85.7333 144.198 85.68L143.526 85.584L143.558 85.152L145.846 84.624V85.84H145.91C146.614 85.0827 147.388 84.704 148.231 84.704C149.095 84.704 149.793 85.0347 150.326 85.696C150.86 86.3573 151.127 87.1893 151.127 88.192ZM149.895 88.64C149.895 87.744 149.697 87.024 149.303 86.48C148.908 85.936 148.391 85.664 147.751 85.664C147.036 85.664 146.401 85.984 145.846 86.624V90.736C146.476 91.3227 147.089 91.616 147.687 91.616C148.305 91.616 148.828 91.3387 149.254 90.784C149.681 90.2293 149.895 89.5147 149.895 88.64ZM155.789 92H152.365L152.413 91.456L153.085 91.392C153.352 91.3813 153.485 91.3013 153.485 91.152V82.512C153.485 82.32 153.426 82.208 153.309 82.176L152.141 81.824L152.189 81.424L154.621 80.848V91.168C154.621 91.3067 154.77 91.3813 155.069 91.392L155.741 91.456L155.789 92ZM163.559 91.248C163.015 91.9093 162.519 92.24 162.071 92.24C161.761 92.24 161.511 92.144 161.319 91.952C161.137 91.7493 161.047 91.4507 161.047 91.056H160.983C160.247 91.8453 159.58 92.24 158.983 92.24C158.449 92.24 157.991 92.064 157.607 91.712C157.223 91.36 157.031 90.9173 157.031 90.384C157.031 89.7227 157.345 89.184 157.975 88.768C158.604 88.352 159.649 87.9627 161.111 87.6V87.456C161.121 86.6453 160.988 86.0853 160.711 85.776C160.444 85.456 160.033 85.296 159.479 85.296C159.191 85.296 158.908 85.344 158.631 85.44C158.353 85.536 158.215 85.6267 158.215 85.712L158.375 85.952C158.481 86.1227 158.535 86.288 158.535 86.448C158.535 86.64 158.46 86.8107 158.311 86.96C158.161 87.0987 157.975 87.168 157.751 87.168C157.527 87.168 157.34 87.104 157.191 86.976C157.052 86.8373 156.983 86.6667 156.983 86.464C156.983 86.08 157.313 85.6747 157.975 85.248C158.647 84.8213 159.303 84.608 159.943 84.608C160.839 84.608 161.457 84.832 161.799 85.28C162.14 85.728 162.289 86.544 162.247 87.728L162.119 90.784C162.097 91.1573 162.215 91.344 162.471 91.344C162.641 91.344 162.913 91.1947 163.287 90.896L163.559 91.248ZM160.983 90.512L161.079 88.112C160.033 88.3893 159.292 88.6827 158.855 88.992C158.417 89.3013 158.199 89.6747 158.199 90.112C158.199 90.4853 158.316 90.784 158.551 91.008C158.785 91.232 159.073 91.344 159.415 91.344C159.852 91.344 160.375 91.0667 160.983 90.512ZM169.563 89.968C169.563 90.5973 169.318 91.136 168.827 91.584C168.337 92.0213 167.654 92.24 166.779 92.24C165.969 92.24 165.275 92.128 164.699 91.904L164.603 89.84H165.323L165.659 91.264C166.054 91.5413 166.491 91.68 166.971 91.68C167.387 91.68 167.755 91.5573 168.075 91.312C168.395 91.056 168.555 90.7307 168.555 90.336C168.555 90.144 168.513 89.9733 168.427 89.824C168.342 89.6747 168.193 89.5413 167.979 89.424C167.777 89.296 167.601 89.2053 167.451 89.152C167.302 89.088 167.073 88.9973 166.763 88.88C166.497 88.7733 166.283 88.688 166.123 88.624C165.974 88.56 165.793 88.464 165.579 88.336C165.366 88.1973 165.201 88.0587 165.083 87.92C164.966 87.7813 164.865 87.6053 164.779 87.392C164.694 87.1787 164.651 86.9387 164.651 86.672C164.651 86.1067 164.875 85.6213 165.323 85.216C165.771 84.8 166.379 84.592 167.147 84.592C167.649 84.592 168.166 84.6773 168.699 84.848L169.179 84.688L169.307 86.928H168.603L168.299 85.536C167.905 85.28 167.478 85.152 167.019 85.152C166.625 85.152 166.299 85.2587 166.043 85.472C165.787 85.6853 165.659 85.9573 165.659 86.288C165.659 86.5333 165.745 86.752 165.915 86.944C166.086 87.1253 166.267 87.264 166.459 87.36C166.662 87.4453 166.982 87.5733 167.419 87.744C167.75 87.872 168.017 87.984 168.219 88.08C168.422 88.176 168.641 88.3147 168.875 88.496C169.11 88.6667 169.281 88.8747 169.387 89.12C169.505 89.3653 169.563 89.648 169.563 89.968ZM178.737 92H175.345L175.393 91.456L176.049 91.392C176.316 91.3813 176.449 91.3013 176.449 91.152V87.664C176.449 86.9067 176.321 86.3733 176.065 86.064C175.809 85.7547 175.425 85.6 174.913 85.6C174.294 85.6 173.66 85.8667 173.009 86.4V91.168C173.009 91.3067 173.153 91.3813 173.441 91.392L174.177 91.456L174.225 92H170.769L170.817 91.456L171.457 91.392C171.724 91.3813 171.857 91.3013 171.857 91.152V82.512C171.857 82.32 171.798 82.208 171.681 82.176L170.561 81.824L170.609 81.424L173.009 80.848V85.776H173.089C173.996 85.008 174.849 84.624 175.649 84.624C176.204 84.624 176.652 84.7947 176.993 85.136C177.388 85.5307 177.585 86.1227 177.585 86.912V91.152C177.585 91.2907 177.745 91.3707 178.065 91.392L178.689 91.456L178.737 92ZM188.815 89.968C188.815 90.5973 188.569 91.136 188.079 91.584C187.588 92.0213 186.905 92.24 186.031 92.24C185.22 92.24 184.527 92.128 183.951 91.904L183.855 89.84H184.575L184.911 91.264C185.305 91.5413 185.743 91.68 186.223 91.68C186.639 91.68 187.007 91.5573 187.327 91.312C187.647 91.056 187.807 90.7307 187.807 90.336C187.807 90.144 187.764 89.9733 187.679 89.824C187.593 89.6747 187.444 89.5413 187.231 89.424C187.028 89.296 186.852 89.2053 186.703 89.152C186.553 89.088 186.324 88.9973 186.015 88.88C185.748 88.7733 185.535 88.688 185.375 88.624C185.225 88.56 185.044 88.464 184.831 88.336C184.617 88.1973 184.452 88.0587 184.335 87.92C184.217 87.7813 184.116 87.6053 184.031 87.392C183.945 87.1787 183.903 86.9387 183.903 86.672C183.903 86.1067 184.127 85.6213 184.575 85.216C185.023 84.8 185.631 84.592 186.399 84.592C186.9 84.592 187.417 84.6773 187.951 84.848L188.431 84.688L188.559 86.928H187.855L187.551 85.536C187.156 85.28 186.729 85.152 186.271 85.152C185.876 85.152 185.551 85.2587 185.295 85.472C185.039 85.6853 184.911 85.9573 184.911 86.288C184.911 86.5333 184.996 86.752 185.167 86.944C185.337 87.1253 185.519 87.264 185.711 87.36C185.913 87.4453 186.233 87.5733 186.671 87.744C187.001 87.872 187.268 87.984 187.471 88.08C187.673 88.176 187.892 88.3147 188.127 88.496C188.361 88.6667 188.532 88.8747 188.639 89.12C188.756 89.3653 188.815 89.648 188.815 89.968ZM196.388 90.432C196.1 90.9973 195.705 91.44 195.204 91.76C194.703 92.0693 194.137 92.224 193.508 92.224C192.58 92.224 191.812 91.888 191.204 91.216C190.596 90.5333 190.292 89.6747 190.292 88.64C190.292 87.488 190.655 86.5333 191.38 85.776C192.116 85.008 192.996 84.624 194.02 84.624C194.713 84.624 195.268 84.7733 195.684 85.072C196.1 85.3707 196.308 85.7173 196.308 86.112C196.308 86.3893 196.228 86.5973 196.068 86.736C195.908 86.864 195.716 86.928 195.492 86.928C195.193 86.928 194.964 86.7893 194.804 86.512C194.655 86.2347 194.639 85.904 194.756 85.52V85.488C194.489 85.296 194.153 85.2 193.748 85.2C193.108 85.2 192.575 85.4667 192.148 86C191.721 86.5333 191.508 87.2267 191.508 88.08C191.508 88.976 191.743 89.7227 192.212 90.32C192.692 90.9173 193.295 91.216 194.02 91.216C194.841 91.216 195.524 90.8907 196.068 90.24L196.388 90.432ZM202.682 84.848C202.842 84.9973 202.922 85.1893 202.922 85.424C202.922 85.6587 202.853 85.856 202.714 86.016C202.586 86.1653 202.405 86.24 202.17 86.24C201.84 86.24 201.584 86.0693 201.402 85.728C201.136 85.8987 200.842 86.1547 200.522 86.496C200.213 86.8373 199.962 87.1947 199.77 87.568V91.168C199.77 91.3067 199.914 91.3813 200.202 91.392L201.05 91.456L201.098 92H197.53L197.578 91.456L198.218 91.392C198.485 91.3813 198.618 91.3013 198.618 91.152V86.624C198.618 86.2613 198.586 86.0267 198.522 85.92C198.469 85.8133 198.336 85.7333 198.122 85.68L197.466 85.584L197.498 85.152L199.77 84.624V86.704H199.834C200.293 85.9253 200.688 85.3813 201.018 85.072C201.349 84.7627 201.685 84.608 202.026 84.608C202.304 84.608 202.522 84.688 202.682 84.848ZM209.853 90.432C209.565 90.9973 209.17 91.44 208.669 91.76C208.167 92.0693 207.602 92.224 206.973 92.224C206.045 92.224 205.277 91.888 204.669 91.216C204.061 90.5333 203.757 89.6747 203.757 88.64C203.757 87.488 204.114 86.5333 204.829 85.776C205.543 85.008 206.407 84.624 207.421 84.624C208.167 84.624 208.765 84.8373 209.213 85.264C209.661 85.6907 209.885 86.2507 209.885 86.944C209.885 87.264 209.858 87.5467 209.805 87.792L204.989 87.728C204.978 87.7707 204.973 87.8987 204.973 88.112C204.973 89.0187 205.207 89.7653 205.677 90.352C206.157 90.928 206.759 91.216 207.485 91.216C208.306 91.216 208.989 90.8907 209.533 90.24L209.853 90.432ZM208.605 87.232C208.647 86.6133 208.53 86.1173 208.253 85.744C207.986 85.3707 207.613 85.184 207.133 85.184C206.674 85.184 206.242 85.3707 205.837 85.744C205.442 86.1173 205.181 86.6187 205.053 87.248H205.325H205.965C206.285 87.248 206.583 87.248 206.861 87.248C207.138 87.2373 207.415 87.232 207.693 87.232H208.365C208.535 87.232 208.615 87.232 208.605 87.232ZM217.405 90.432C217.117 90.9973 216.722 91.44 216.221 91.76C215.72 92.0693 215.154 92.224 214.525 92.224C213.597 92.224 212.829 91.888 212.221 91.216C211.613 90.5333 211.309 89.6747 211.309 88.64C211.309 87.488 211.666 86.5333 212.381 85.776C213.096 85.008 213.96 84.624 214.973 84.624C215.72 84.624 216.317 84.8373 216.765 85.264C217.213 85.6907 217.437 86.2507 217.437 86.944C217.437 87.264 217.41 87.5467 217.357 87.792L212.541 87.728C212.53 87.7707 212.525 87.8987 212.525 88.112C212.525 89.0187 212.76 89.7653 213.229 90.352C213.709 90.928 214.312 91.216 215.037 91.216C215.858 91.216 216.541 90.8907 217.085 90.24L217.405 90.432ZM216.157 87.232C216.2 86.6133 216.082 86.1173 215.805 85.744C215.538 85.3707 215.165 85.184 214.685 85.184C214.226 85.184 213.794 85.3707 213.389 85.744C212.994 86.1173 212.733 86.6187 212.605 87.248H212.877H213.517C213.837 87.248 214.136 87.248 214.413 87.248C214.69 87.2373 214.968 87.232 215.245 87.232H215.917C216.088 87.232 216.168 87.232 216.157 87.232ZM226.812 92H223.404L223.452 91.456L224.108 91.392C224.375 91.3813 224.508 91.3013 224.508 91.152V87.664C224.508 86.9067 224.38 86.3733 224.124 86.064C223.868 85.7547 223.484 85.6 222.972 85.6C222.354 85.6 221.719 85.8667 221.068 86.4V91.168C221.068 91.3067 221.212 91.3813 221.5 91.392L222.236 91.456L222.284 92H218.828L218.876 91.456L219.516 91.392C219.783 91.3813 219.916 91.3013 219.916 91.152V86.624C219.916 86.2613 219.884 86.0267 219.82 85.92C219.767 85.8133 219.634 85.7333 219.42 85.68L218.748 85.584L218.764 85.152L221.068 84.624V85.776H221.148C222.055 85.008 222.908 84.624 223.708 84.624C224.263 84.624 224.711 84.7947 225.052 85.136C225.447 85.5307 225.644 86.1227 225.644 86.912V91.152C225.644 91.2907 225.804 91.3707 226.124 91.392L226.764 91.456L226.812 92Z" fill="#828282"/>
<rect x="127" y="65" width="109" height="47" stroke="#828282" stroke-width="2"/>
<path d="M185 113C183.333 113 182 114.333 182 116C182 117.667 183.333 119 185 119C186.667 119 188 117.667 188 116C188 114.333 186.667 113 185 113Z" fill="white"/>
<path d="M211.293 156.707C211.683 157.098 212.317 157.098 212.707 156.707L219.071 150.343C219.462 149.953 219.462 149.319 219.071 148.929C218.681 148.538 218.047 148.538 217.657 148.929L212 154.586L206.343 148.929C205.953 148.538 205.319 148.538 204.929 148.929C204.538 149.319 204.538 149.953 204.929 150.343L211.293 156.707ZM183 116C183 114.886 183.886 114 185 114V112C182.781 112 181 113.781 181 116H183ZM185 114C186.114 114 187 114.886 187 116H189C189 113.781 187.219 112 185 112V114ZM187 116C187 117.114 186.114 118 185 118V120C187.219 120 189 118.219 189 116H187ZM185 118C183.886 118 183 117.114 183 116H181C181 118.219 182.781 120 185 120V118ZM184 119V122.5H186V119H184ZM211 149.5V156H213V149.5H211ZM198.5 137C205.404 137 211 142.596 211 149.5H213C213 141.492 206.508 135 198.5 135V137ZM184 122.5C184 130.508 190.492 137 198.5 137V135C191.596 135 186 129.404 186 122.5H184Z" fill="#53554E"/>
<rect x="142" y="158" width="161" height="45" fill="white"/>
<path d="M168.088 178.96C168.088 180.411 167.587 181.653 166.584 182.688C165.592 183.723 164.36 184.24 162.888 184.24C161.405 184.24 160.173 183.765 159.192 182.816C158.221 181.856 157.736 180.613 157.736 179.088C157.736 177.637 158.232 176.395 159.224 175.36C160.227 174.315 161.464 173.792 162.936 173.792C164.419 173.792 165.645 174.272 166.616 175.232C167.597 176.192 168.088 177.435 168.088 178.96ZM166.632 179.136C166.632 177.696 166.264 176.544 165.528 175.68C164.792 174.805 163.907 174.368 162.872 174.368C161.837 174.368 160.963 174.779 160.248 175.6C159.544 176.421 159.192 177.525 159.192 178.912C159.192 180.352 159.555 181.509 160.28 182.384C161.016 183.248 161.901 183.68 162.936 183.68C163.971 183.68 164.845 183.269 165.56 182.448C166.275 181.627 166.632 180.523 166.632 179.136ZM177.61 184H174.202L174.25 183.456L174.906 183.392C175.173 183.381 175.306 183.301 175.306 183.152V179.664C175.306 178.907 175.178 178.373 174.922 178.064C174.666 177.755 174.282 177.6 173.77 177.6C173.151 177.6 172.517 177.867 171.866 178.4V183.168C171.866 183.307 172.01 183.381 172.298 183.392L173.034 183.456L173.082 184H169.626L169.674 183.456L170.314 183.392C170.581 183.381 170.714 183.301 170.714 183.152V178.624C170.714 178.261 170.682 178.027 170.618 177.92C170.565 177.813 170.431 177.733 170.218 177.68L169.546 177.584L169.562 177.152L171.866 176.624V177.776H171.946C172.853 177.008 173.706 176.624 174.506 176.624C175.061 176.624 175.509 176.795 175.85 177.136C176.245 177.531 176.442 178.123 176.442 178.912V183.152C176.442 183.291 176.602 183.371 176.922 183.392L177.562 183.456L177.61 184ZM185.722 180.192C185.722 181.312 185.38 182.267 184.698 183.056C184.015 183.845 183.119 184.24 182.01 184.24C181.402 184.24 180.81 184.117 180.234 183.872H180.202L179.482 184.336H179.306V174.48C179.306 174.309 179.252 174.208 179.146 174.176L177.946 173.824L177.994 173.424L180.442 172.848V177.84H180.506C181.21 177.083 181.983 176.704 182.826 176.704C183.69 176.704 184.388 177.035 184.922 177.696C185.455 178.357 185.722 179.189 185.722 180.192ZM184.49 180.64C184.49 179.744 184.292 179.024 183.898 178.48C183.503 177.936 182.986 177.664 182.346 177.664C181.631 177.664 180.996 177.984 180.442 178.624V182.736C181.071 183.323 181.684 183.616 182.282 183.616C182.911 183.616 183.434 183.344 183.85 182.8C184.276 182.245 184.49 181.525 184.49 180.64ZM194.261 180.272C194.261 181.392 193.904 182.336 193.189 183.104C192.485 183.861 191.61 184.24 190.565 184.24C189.53 184.24 188.688 183.883 188.037 183.168C187.397 182.453 187.077 181.552 187.077 180.464C187.077 179.376 187.434 178.464 188.149 177.728C188.874 176.992 189.754 176.624 190.789 176.624C191.813 176.624 192.645 176.971 193.285 177.664C193.936 178.347 194.261 179.216 194.261 180.272ZM193.013 180.752C193.013 179.451 192.725 178.496 192.149 177.888C191.712 177.451 191.205 177.232 190.629 177.232C189.968 177.232 189.418 177.499 188.981 178.032C188.554 178.555 188.341 179.248 188.341 180.112C188.341 181.424 188.634 182.379 189.221 182.976C189.626 183.403 190.128 183.616 190.725 183.616C191.376 183.616 191.92 183.355 192.357 182.832C192.794 182.299 193.013 181.605 193.013 180.752ZM202.158 183.248C201.614 183.909 201.118 184.24 200.67 184.24C200.361 184.24 200.11 184.144 199.918 183.952C199.737 183.749 199.646 183.451 199.646 183.056H199.582C198.846 183.845 198.179 184.24 197.582 184.24C197.049 184.24 196.59 184.064 196.206 183.712C195.822 183.36 195.63 182.917 195.63 182.384C195.63 181.723 195.945 181.184 196.574 180.768C197.203 180.352 198.249 179.963 199.71 179.6V179.456C199.721 178.645 199.587 178.085 199.31 177.776C199.043 177.456 198.633 177.296 198.078 177.296C197.79 177.296 197.507 177.344 197.23 177.44C196.953 177.536 196.814 177.627 196.814 177.712L196.974 177.952C197.081 178.123 197.134 178.288 197.134 178.448C197.134 178.64 197.059 178.811 196.91 178.96C196.761 179.099 196.574 179.168 196.35 179.168C196.126 179.168 195.939 179.104 195.79 178.976C195.651 178.837 195.582 178.667 195.582 178.464C195.582 178.08 195.913 177.675 196.574 177.248C197.246 176.821 197.902 176.608 198.542 176.608C199.438 176.608 200.057 176.832 200.398 177.28C200.739 177.728 200.889 178.544 200.846 179.728L200.718 182.784C200.697 183.157 200.814 183.344 201.07 183.344C201.241 183.344 201.513 183.195 201.886 182.896L202.158 183.248ZM199.582 182.512L199.678 180.112C198.633 180.389 197.891 180.683 197.454 180.992C197.017 181.301 196.798 181.675 196.798 182.112C196.798 182.485 196.915 182.784 197.15 183.008C197.385 183.232 197.673 183.344 198.014 183.344C198.451 183.344 198.974 183.067 199.582 182.512ZM208.035 176.848C208.195 176.997 208.275 177.189 208.275 177.424C208.275 177.659 208.205 177.856 208.067 178.016C207.939 178.165 207.757 178.24 207.523 178.24C207.192 178.24 206.936 178.069 206.755 177.728C206.488 177.899 206.195 178.155 205.875 178.496C205.565 178.837 205.315 179.195 205.123 179.568V183.168C205.123 183.307 205.267 183.381 205.555 183.392L206.403 183.456L206.451 184H202.883L202.931 183.456L203.571 183.392C203.837 183.381 203.971 183.301 203.971 183.152V178.624C203.971 178.261 203.939 178.027 203.875 177.92C203.821 177.813 203.688 177.733 203.475 177.68L202.819 177.584L202.851 177.152L205.123 176.624V178.704H205.187C205.645 177.925 206.04 177.381 206.371 177.072C206.701 176.763 207.037 176.608 207.379 176.608C207.656 176.608 207.875 176.688 208.035 176.848ZM216.837 183.568L216.789 183.952L214.405 184.24V183.168H214.357C213.717 183.872 212.965 184.224 212.101 184.224C211.248 184.224 210.533 183.888 209.957 183.216C209.392 182.533 209.109 181.675 209.109 180.64C209.109 179.52 209.466 178.581 210.181 177.824C210.896 177.056 211.813 176.672 212.933 176.672C213.37 176.672 213.85 176.768 214.373 176.96H214.405V174.16C214.405 174 214.357 173.904 214.261 173.872L213.013 173.584L213.077 173.2L215.541 172.848V183.008C215.541 183.179 215.594 183.28 215.701 183.312L216.837 183.568ZM214.405 182.528V178.24C213.786 177.621 213.173 177.312 212.565 177.312C211.914 177.312 211.381 177.584 210.965 178.128C210.56 178.661 210.357 179.36 210.357 180.224C210.357 181.141 210.565 181.877 210.981 182.432C211.397 182.987 211.952 183.264 212.645 183.264C213.274 183.264 213.861 183.019 214.405 182.528ZM220.011 174.288C220.011 174.533 219.936 174.747 219.787 174.928C219.648 175.099 219.451 175.184 219.195 175.184C218.939 175.184 218.736 175.099 218.587 174.928C218.448 174.747 218.379 174.533 218.379 174.288C218.379 174.043 218.448 173.835 218.587 173.664C218.736 173.483 218.939 173.392 219.195 173.392C219.451 173.392 219.648 173.477 219.787 173.648C219.936 173.819 220.011 174.032 220.011 174.288ZM221.099 184H217.675L217.723 183.456L218.395 183.392C218.662 183.381 218.795 183.301 218.795 183.152V178.656C218.795 178.283 218.763 178.043 218.699 177.936C218.635 177.819 218.486 177.733 218.251 177.68L217.611 177.584L217.643 177.152L219.931 176.624V183.168C219.931 183.307 220.08 183.381 220.379 183.392L221.051 183.456L221.099 184ZM230.165 184H226.757L226.805 183.456L227.461 183.392C227.728 183.381 227.861 183.301 227.861 183.152V179.664C227.861 178.907 227.733 178.373 227.477 178.064C227.221 177.755 226.837 177.6 226.325 177.6C225.706 177.6 225.072 177.867 224.421 178.4V183.168C224.421 183.307 224.565 183.381 224.853 183.392L225.589 183.456L225.637 184H222.181L222.229 183.456L222.869 183.392C223.136 183.381 223.269 183.301 223.269 183.152V178.624C223.269 178.261 223.237 178.027 223.173 177.92C223.12 177.813 222.986 177.733 222.773 177.68L222.101 177.584L222.117 177.152L224.421 176.624V177.776H224.501C225.408 177.008 226.261 176.624 227.061 176.624C227.616 176.624 228.064 176.795 228.405 177.136C228.8 177.531 228.997 178.123 228.997 178.912V183.152C228.997 183.291 229.157 183.371 229.477 183.392L230.117 183.456L230.165 184ZM238.021 177.968L236.309 177.664V177.744C236.639 178.149 236.805 178.624 236.805 179.168C236.805 179.872 236.527 180.475 235.973 180.976C235.429 181.467 234.767 181.712 233.989 181.712C233.605 181.712 233.311 181.68 233.109 181.616C232.607 181.861 232.357 182.139 232.357 182.448C232.357 182.661 232.447 182.837 232.629 182.976C232.821 183.115 233.066 183.184 233.365 183.184C233.557 183.184 233.887 183.179 234.357 183.168C234.826 183.157 235.114 183.152 235.221 183.152C235.925 183.152 236.49 183.349 236.917 183.744C237.354 184.128 237.573 184.613 237.573 185.2C237.573 186.032 237.199 186.715 236.453 187.248C235.706 187.781 234.762 188.048 233.621 188.048C232.767 188.048 232.079 187.872 231.557 187.52C231.045 187.168 230.789 186.709 230.789 186.144C230.789 185.312 231.29 184.683 232.293 184.256V184.192C232.005 184.139 231.759 184 231.557 183.776C231.365 183.552 231.269 183.307 231.269 183.04C231.269 182.741 231.391 182.453 231.637 182.176C231.882 181.899 232.191 181.675 232.565 181.504C232.565 181.493 232.57 181.483 232.581 181.472V181.456C232.165 181.264 231.834 180.981 231.589 180.608C231.343 180.224 231.221 179.771 231.221 179.248C231.221 178.512 231.487 177.893 232.021 177.392C232.565 176.88 233.242 176.624 234.053 176.624C234.682 176.624 235.279 176.757 235.845 177.024L238.021 177.04V177.968ZM236.501 185.712C236.501 184.805 235.925 184.331 234.773 184.288H234.277C234.213 184.288 234.047 184.293 233.781 184.304C233.514 184.315 233.226 184.32 232.917 184.32C232.682 184.416 232.447 184.592 232.213 184.848C231.989 185.115 231.877 185.424 231.877 185.776C231.877 186.299 232.095 186.709 232.533 187.008C232.97 187.307 233.53 187.456 234.213 187.456C234.874 187.456 235.418 187.285 235.845 186.944C236.282 186.613 236.501 186.203 236.501 185.712ZM235.621 179.2C235.621 178.443 235.429 177.888 235.045 177.536C234.757 177.269 234.421 177.136 234.037 177.136C233.557 177.136 233.167 177.317 232.869 177.68C232.57 178.032 232.421 178.485 232.421 179.04C232.421 179.829 232.65 180.437 233.109 180.864C233.386 181.088 233.685 181.2 234.005 181.2C234.453 181.2 234.799 181.083 235.045 180.848C235.429 180.517 235.621 179.968 235.621 179.2ZM249.501 181.296C249.501 182.107 249.165 182.8 248.493 183.376C247.821 183.941 246.936 184.229 245.837 184.24C244.909 184.251 243.976 184.107 243.037 183.808L242.797 180.976H243.437L244.109 183.184C244.738 183.472 245.394 183.616 246.077 183.616C246.77 183.605 247.314 183.419 247.709 183.056C248.114 182.683 248.317 182.24 248.317 181.728C248.317 181.12 248.12 180.661 247.725 180.352C247.341 180.043 246.701 179.717 245.805 179.376C245.346 179.205 244.973 179.051 244.685 178.912C244.408 178.763 244.125 178.576 243.837 178.352C243.549 178.128 243.336 177.867 243.197 177.568C243.069 177.259 243.005 176.901 243.005 176.496C243.005 175.739 243.288 175.099 243.853 174.576C244.429 174.053 245.245 173.787 246.301 173.776C246.941 173.765 247.565 173.824 248.173 173.952L249.005 173.712V176.864H248.365L247.917 174.816C247.33 174.549 246.722 174.416 246.093 174.416C245.474 174.416 244.994 174.581 244.653 174.912C244.322 175.232 244.157 175.621 244.157 176.08C244.157 176.389 244.21 176.661 244.317 176.896C244.424 177.12 244.61 177.323 244.877 177.504C245.154 177.685 245.4 177.829 245.613 177.936C245.837 178.032 246.173 178.165 246.621 178.336C247.592 178.688 248.312 179.072 248.781 179.488C249.261 179.893 249.501 180.496 249.501 181.296ZM257.036 182.432C256.748 182.997 256.353 183.44 255.852 183.76C255.35 184.069 254.785 184.224 254.156 184.224C253.228 184.224 252.46 183.888 251.852 183.216C251.244 182.533 250.94 181.675 250.94 180.64C250.94 179.488 251.302 178.533 252.028 177.776C252.764 177.008 253.644 176.624 254.668 176.624C255.361 176.624 255.916 176.773 256.332 177.072C256.748 177.371 256.956 177.717 256.956 178.112C256.956 178.389 256.876 178.597 256.716 178.736C256.556 178.864 256.364 178.928 256.14 178.928C255.841 178.928 255.612 178.789 255.452 178.512C255.302 178.235 255.286 177.904 255.404 177.52V177.488C255.137 177.296 254.801 177.2 254.396 177.2C253.756 177.2 253.222 177.467 252.796 178C252.369 178.533 252.156 179.227 252.156 180.08C252.156 180.976 252.39 181.723 252.86 182.32C253.34 182.917 253.942 183.216 254.668 183.216C255.489 183.216 256.172 182.891 256.716 182.24L257.036 182.432ZM263.33 176.848C263.49 176.997 263.57 177.189 263.57 177.424C263.57 177.659 263.5 177.856 263.362 178.016C263.234 178.165 263.052 178.24 262.818 178.24C262.487 178.24 262.231 178.069 262.05 177.728C261.783 177.899 261.49 178.155 261.17 178.496C260.86 178.837 260.61 179.195 260.418 179.568V183.168C260.418 183.307 260.562 183.381 260.85 183.392L261.698 183.456L261.746 184H258.178L258.226 183.456L258.866 183.392C259.132 183.381 259.266 183.301 259.266 183.152V178.624C259.266 178.261 259.234 178.027 259.17 177.92C259.116 177.813 258.983 177.733 258.77 177.68L258.114 177.584L258.146 177.152L260.418 176.624V178.704H260.482C260.94 177.925 261.335 177.381 261.666 177.072C261.996 176.763 262.332 176.608 262.674 176.608C262.951 176.608 263.17 176.688 263.33 176.848ZM270.5 182.432C270.212 182.997 269.817 183.44 269.316 183.76C268.815 184.069 268.249 184.224 267.62 184.224C266.692 184.224 265.924 183.888 265.316 183.216C264.708 182.533 264.404 181.675 264.404 180.64C264.404 179.488 264.761 178.533 265.476 177.776C266.191 177.008 267.055 176.624 268.068 176.624C268.815 176.624 269.412 176.837 269.86 177.264C270.308 177.691 270.532 178.251 270.532 178.944C270.532 179.264 270.505 179.547 270.452 179.792L265.636 179.728C265.625 179.771 265.62 179.899 265.62 180.112C265.62 181.019 265.855 181.765 266.324 182.352C266.804 182.928 267.407 183.216 268.132 183.216C268.953 183.216 269.636 182.891 270.18 182.24L270.5 182.432ZM269.252 179.232C269.295 178.613 269.177 178.117 268.9 177.744C268.633 177.371 268.26 177.184 267.78 177.184C267.321 177.184 266.889 177.371 266.484 177.744C266.089 178.117 265.828 178.619 265.7 179.248H265.972H266.612C266.932 179.248 267.231 179.248 267.508 179.248C267.785 179.237 268.063 179.232 268.34 179.232H269.012C269.183 179.232 269.263 179.232 269.252 179.232ZM278.052 182.432C277.764 182.997 277.37 183.44 276.868 183.76C276.367 184.069 275.802 184.224 275.172 184.224C274.244 184.224 273.476 183.888 272.868 183.216C272.26 182.533 271.956 181.675 271.956 180.64C271.956 179.488 272.314 178.533 273.028 177.776C273.743 177.008 274.607 176.624 275.62 176.624C276.367 176.624 276.964 176.837 277.412 177.264C277.86 177.691 278.084 178.251 278.084 178.944C278.084 179.264 278.058 179.547 278.004 179.792L273.188 179.728C273.178 179.771 273.172 179.899 273.172 180.112C273.172 181.019 273.407 181.765 273.876 182.352C274.356 182.928 274.959 183.216 275.684 183.216C276.506 183.216 277.188 182.891 277.732 182.24L278.052 182.432ZM276.804 179.232C276.847 178.613 276.73 178.117 276.452 177.744C276.186 177.371 275.812 177.184 275.332 177.184C274.874 177.184 274.442 177.371 274.036 177.744C273.642 178.117 273.38 178.619 273.252 179.248H273.524H274.164C274.484 179.248 274.783 179.248 275.06 179.248C275.338 179.237 275.615 179.232 275.892 179.232H276.564C276.735 179.232 276.815 179.232 276.804 179.232ZM287.46 184H284.052L284.1 183.456L284.756 183.392C285.023 183.381 285.156 183.301 285.156 183.152V179.664C285.156 178.907 285.028 178.373 284.772 178.064C284.516 177.755 284.132 177.6 283.62 177.6C283.001 177.6 282.367 177.867 281.716 178.4V183.168C281.716 183.307 281.86 183.381 282.148 183.392L282.884 183.456L282.932 184H279.476L279.524 183.456L280.164 183.392C280.431 183.381 280.564 183.301 280.564 183.152V178.624C280.564 178.261 280.532 178.027 280.468 177.92C280.415 177.813 280.281 177.733 280.068 177.68L279.396 177.584L279.412 177.152L281.716 176.624V177.776H281.796C282.703 177.008 283.556 176.624 284.356 176.624C284.911 176.624 285.359 176.795 285.7 177.136C286.095 177.531 286.292 178.123 286.292 178.912V183.152C286.292 183.291 286.452 183.371 286.772 183.392L287.412 183.456L287.46 184Z" fill="#828282"/>
<rect x="142" y="158" width="161" height="45" stroke="#828282" stroke-width="2"/>
<path d="M309.323 181L336.5 181" stroke="#1F2024" stroke-width="1.5" stroke-linecap="round"/>
<path d="M338.547 180.28L333.516 177.153C332.913 176.778 332.136 177.134 332.016 177.781C331.995 177.894 332.02 178.01 332.059 178.119L333.098 181L332.059 183.881C332.02 183.99 331.995 184.106 332.016 184.219C332.134 184.857 332.893 185.215 333.495 184.86L338.527 181.897C339.149 181.531 339.16 180.661 338.547 180.28Z" fill="#1F2024"/>
<path d="M304.5 181C304.5 179.619 305.619 178.5 307 178.5C308.381 178.5 309.5 179.619 309.5 181C309.5 182.381 308.381 183.5 307 183.5C305.619 183.5 304.5 182.381 304.5 181Z" fill="white" stroke="#1F2024" stroke-width="3"/>
<rect x="474" y="158" width="103" height="45" fill="white"/>
<path d="M500.056 184H496.152L496.2 183.456L497.032 183.36C497.309 183.328 497.448 183.253 497.448 183.136V179.2H492.28V183.152C492.28 183.259 492.419 183.328 492.696 183.36L493.528 183.456L493.576 184H489.672L489.72 183.456L490.552 183.36C490.829 183.328 490.968 183.253 490.968 183.136V174.848C490.968 174.784 490.941 174.741 490.888 174.72C490.835 174.688 490.723 174.661 490.552 174.64L489.72 174.544L489.672 174H493.576L493.528 174.544L492.696 174.64C492.419 174.672 492.28 174.747 492.28 174.864V178.544H497.448V174.848C497.448 174.731 497.309 174.661 497.032 174.64L496.2 174.544L496.152 174H500.056L500.008 174.544L499.176 174.64C498.899 174.672 498.76 174.747 498.76 174.864V183.152C498.76 183.216 498.787 183.264 498.84 183.296C498.893 183.317 499.005 183.339 499.176 183.36L500.008 183.456L500.056 184ZM508.672 180.272C508.672 181.392 508.314 182.336 507.6 183.104C506.896 183.861 506.021 184.24 504.976 184.24C503.941 184.24 503.098 183.883 502.447 183.168C501.807 182.453 501.487 181.552 501.487 180.464C501.487 179.376 501.845 178.464 502.559 177.728C503.285 176.992 504.165 176.624 505.2 176.624C506.223 176.624 507.055 176.971 507.695 177.664C508.346 178.347 508.672 179.216 508.672 180.272ZM507.424 180.752C507.424 179.451 507.136 178.496 506.56 177.888C506.122 177.451 505.615 177.232 505.039 177.232C504.378 177.232 503.829 177.499 503.391 178.032C502.965 178.555 502.751 179.248 502.751 180.112C502.751 181.424 503.045 182.379 503.632 182.976C504.037 183.403 504.538 183.616 505.135 183.616C505.786 183.616 506.33 183.355 506.767 182.832C507.205 182.299 507.424 181.605 507.424 180.752ZM522.089 184H518.729L518.777 183.456L519.401 183.392C519.667 183.381 519.801 183.301 519.801 183.152V179.616C519.801 178.272 519.31 177.6 518.329 177.6C517.742 177.6 517.145 177.872 516.537 178.416C516.547 178.491 516.553 178.805 516.553 179.36V183.152C516.553 183.291 516.707 183.371 517.017 183.392L517.689 183.456L517.737 184H514.329L514.377 183.456L515.001 183.392C515.267 183.381 515.401 183.301 515.401 183.152V179.616C515.401 178.272 514.91 177.6 513.929 177.6C513.363 177.6 512.771 177.861 512.153 178.384V183.168C512.153 183.307 512.297 183.381 512.585 183.392L513.353 183.456L513.401 184H509.913L509.961 183.456L510.601 183.392C510.867 183.381 511.001 183.301 511.001 183.152V178.656C511.001 178.283 510.969 178.043 510.905 177.936C510.841 177.819 510.697 177.733 510.473 177.68L509.833 177.584L509.849 177.152L512.153 176.624V177.776H512.201C513.097 177.008 513.913 176.624 514.649 176.624C515.171 176.624 515.603 176.784 515.945 177.104C516.158 177.317 516.313 177.579 516.409 177.888H516.473C517.39 177.045 518.238 176.624 519.017 176.624C519.571 176.624 520.019 176.795 520.361 177.136C520.755 177.531 520.953 178.112 520.953 178.88V183.152C520.953 183.291 521.107 183.371 521.417 183.392L522.041 183.456L522.089 184ZM529.251 182.432C528.963 182.997 528.568 183.44 528.067 183.76C527.565 184.069 527 184.224 526.371 184.224C525.443 184.224 524.675 183.888 524.067 183.216C523.459 182.533 523.155 181.675 523.155 180.64C523.155 179.488 523.512 178.533 524.227 177.776C524.941 177.008 525.805 176.624 526.819 176.624C527.565 176.624 528.163 176.837 528.611 177.264C529.059 177.691 529.283 178.251 529.283 178.944C529.283 179.264 529.256 179.547 529.203 179.792L524.387 179.728C524.376 179.771 524.371 179.899 524.371 180.112C524.371 181.019 524.605 181.765 525.075 182.352C525.555 182.928 526.157 183.216 526.883 183.216C527.704 183.216 528.387 182.891 528.931 182.24L529.251 182.432ZM528.003 179.232C528.045 178.613 527.928 178.117 527.651 177.744C527.384 177.371 527.011 177.184 526.531 177.184C526.072 177.184 525.64 177.371 525.235 177.744C524.84 178.117 524.579 178.619 524.451 179.248H524.723H525.363C525.683 179.248 525.981 179.248 526.259 179.248C526.536 179.237 526.813 179.232 527.091 179.232H527.763C527.933 179.232 528.013 179.232 528.003 179.232ZM538.034 180.192C538.034 181.312 537.693 182.267 537.01 183.056C536.338 183.845 535.447 184.24 534.338 184.24C533.826 184.24 533.309 184.144 532.786 183.952H532.754V187.104C532.754 187.243 532.903 187.317 533.202 187.328L534.034 187.392L534.082 187.936H530.498L530.546 187.392L531.202 187.328C531.469 187.317 531.602 187.237 531.602 187.088V178.624C531.602 178.261 531.57 178.027 531.506 177.92C531.453 177.813 531.319 177.733 531.106 177.68L530.434 177.584L530.466 177.152L532.754 176.624V177.84H532.818C533.522 177.083 534.295 176.704 535.138 176.704C536.002 176.704 536.701 177.035 537.234 177.696C537.767 178.357 538.034 179.189 538.034 180.192ZM536.802 180.64C536.802 179.744 536.605 179.024 536.21 178.48C535.815 177.936 535.298 177.664 534.658 177.664C533.943 177.664 533.309 177.984 532.754 178.624V182.736C533.383 183.323 533.997 183.616 534.594 183.616C535.213 183.616 535.735 183.339 536.162 182.784C536.589 182.229 536.802 181.515 536.802 180.64ZM545.961 183.248C545.417 183.909 544.921 184.24 544.473 184.24C544.163 184.24 543.913 184.144 543.721 183.952C543.539 183.749 543.449 183.451 543.449 183.056H543.385C542.649 183.845 541.982 184.24 541.385 184.24C540.851 184.24 540.393 184.064 540.009 183.712C539.625 183.36 539.433 182.917 539.433 182.384C539.433 181.723 539.747 181.184 540.377 180.768C541.006 180.352 542.051 179.963 543.513 179.6V179.456C543.523 178.645 543.39 178.085 543.113 177.776C542.846 177.456 542.435 177.296 541.881 177.296C541.593 177.296 541.31 177.344 541.033 177.44C540.755 177.536 540.617 177.627 540.617 177.712L540.777 177.952C540.883 178.123 540.937 178.288 540.937 178.448C540.937 178.64 540.862 178.811 540.713 178.96C540.563 179.099 540.377 179.168 540.153 179.168C539.929 179.168 539.742 179.104 539.593 178.976C539.454 178.837 539.385 178.667 539.385 178.464C539.385 178.08 539.715 177.675 540.377 177.248C541.049 176.821 541.705 176.608 542.345 176.608C543.241 176.608 543.859 176.832 544.201 177.28C544.542 177.728 544.691 178.544 544.649 179.728L544.521 182.784C544.499 183.157 544.617 183.344 544.873 183.344C545.043 183.344 545.315 183.195 545.689 182.896L545.961 183.248ZM543.385 182.512L543.481 180.112C542.435 180.389 541.694 180.683 541.257 180.992C540.819 181.301 540.601 181.675 540.601 182.112C540.601 182.485 540.718 182.784 540.953 183.008C541.187 183.232 541.475 183.344 541.817 183.344C542.254 183.344 542.777 183.067 543.385 182.512ZM553.613 177.968L551.901 177.664V177.744C552.232 178.149 552.397 178.624 552.397 179.168C552.397 179.872 552.12 180.475 551.565 180.976C551.021 181.467 550.36 181.712 549.581 181.712C549.197 181.712 548.904 181.68 548.701 181.616C548.2 181.861 547.949 182.139 547.949 182.448C547.949 182.661 548.04 182.837 548.221 182.976C548.413 183.115 548.659 183.184 548.957 183.184C549.149 183.184 549.48 183.179 549.949 183.168C550.419 183.157 550.707 183.152 550.813 183.152C551.517 183.152 552.083 183.349 552.509 183.744C552.947 184.128 553.165 184.613 553.165 185.2C553.165 186.032 552.792 186.715 552.045 187.248C551.299 187.781 550.355 188.048 549.213 188.048C548.36 188.048 547.672 187.872 547.149 187.52C546.637 187.168 546.381 186.709 546.381 186.144C546.381 185.312 546.883 184.683 547.885 184.256V184.192C547.597 184.139 547.352 184 547.149 183.776C546.957 183.552 546.861 183.307 546.861 183.04C546.861 182.741 546.984 182.453 547.229 182.176C547.475 181.899 547.784 181.675 548.157 181.504C548.157 181.493 548.163 181.483 548.173 181.472V181.456C547.757 181.264 547.427 180.981 547.181 180.608C546.936 180.224 546.813 179.771 546.813 179.248C546.813 178.512 547.08 177.893 547.613 177.392C548.157 176.88 548.835 176.624 549.645 176.624C550.275 176.624 550.872 176.757 551.437 177.024L553.613 177.04V177.968ZM552.093 185.712C552.093 184.805 551.517 184.331 550.365 184.288H549.869C549.805 184.288 549.64 184.293 549.373 184.304C549.107 184.315 548.819 184.32 548.509 184.32C548.275 184.416 548.04 184.592 547.805 184.848C547.581 185.115 547.469 185.424 547.469 185.776C547.469 186.299 547.688 186.709 548.125 187.008C548.563 187.307 549.123 187.456 549.805 187.456C550.467 187.456 551.011 187.285 551.437 186.944C551.875 186.613 552.093 186.203 552.093 185.712ZM551.213 179.2C551.213 178.443 551.021 177.888 550.637 177.536C550.349 177.269 550.013 177.136 549.629 177.136C549.149 177.136 548.76 177.317 548.461 177.68C548.163 178.032 548.013 178.485 548.013 179.04C548.013 179.829 548.243 180.437 548.701 180.864C548.979 181.088 549.277 181.2 549.597 181.2C550.045 181.2 550.392 181.083 550.637 180.848C551.021 180.517 551.213 179.968 551.213 179.2ZM560.445 182.432C560.157 182.997 559.762 183.44 559.261 183.76C558.76 184.069 558.194 184.224 557.565 184.224C556.637 184.224 555.869 183.888 555.261 183.216C554.653 182.533 554.349 181.675 554.349 180.64C554.349 179.488 554.706 178.533 555.421 177.776C556.136 177.008 557 176.624 558.013 176.624C558.76 176.624 559.357 176.837 559.805 177.264C560.253 177.691 560.477 178.251 560.477 178.944C560.477 179.264 560.45 179.547 560.397 179.792L555.581 179.728C555.57 179.771 555.565 179.899 555.565 180.112C555.565 181.019 555.8 181.765 556.269 182.352C556.749 182.928 557.352 183.216 558.077 183.216C558.898 183.216 559.581 182.891 560.125 182.24L560.445 182.432ZM559.197 179.232C559.24 178.613 559.122 178.117 558.845 177.744C558.578 177.371 558.205 177.184 557.725 177.184C557.266 177.184 556.834 177.371 556.429 177.744C556.034 178.117 555.773 178.619 555.645 179.248H555.917H556.557C556.877 179.248 557.176 179.248 557.453 179.248C557.73 179.237 558.008 179.232 558.285 179.232H558.957C559.128 179.232 559.208 179.232 559.197 179.232Z" fill="#828282"/>
<rect x="474" y="158" width="103" height="45" stroke="#828282" stroke-width="2"/>
<rect x="616" y="158" width="162" height="45" fill="white"/>
<path d="M640.776 180.992L640.392 184.016L639.656 183.856C638.867 184.112 638.045 184.24 637.192 184.24C635.613 184.24 634.307 183.781 633.272 182.864C632.248 181.947 631.736 180.709 631.736 179.152C631.736 177.531 632.259 176.229 633.304 175.248C634.349 174.267 635.667 173.776 637.256 173.776C638.088 173.776 638.829 173.877 639.48 174.08L640.696 173.824V177.072H640.024L639.608 174.992C638.915 174.597 638.099 174.4 637.16 174.4C635.987 174.4 635.032 174.827 634.296 175.68C633.56 176.533 633.192 177.621 633.192 178.944C633.192 180.352 633.56 181.488 634.296 182.352C635.032 183.205 636.045 183.632 637.336 183.632C638.104 183.632 638.792 183.472 639.4 183.152L640.072 180.992H640.776ZM647.481 176.848C647.641 176.997 647.721 177.189 647.721 177.424C647.721 177.659 647.652 177.856 647.513 178.016C647.385 178.165 647.204 178.24 646.969 178.24C646.638 178.24 646.382 178.069 646.201 177.728C645.934 177.899 645.641 178.155 645.321 178.496C645.012 178.837 644.761 179.195 644.569 179.568V183.168C644.569 183.307 644.713 183.381 645.001 183.392L645.849 183.456L645.897 184H642.329L642.377 183.456L643.017 183.392C643.284 183.381 643.417 183.301 643.417 183.152V178.624C643.417 178.261 643.385 178.027 643.321 177.92C643.268 177.813 643.134 177.733 642.921 177.68L642.265 177.584L642.297 177.152L644.569 176.624V178.704H644.633C645.092 177.925 645.486 177.381 645.817 177.072C646.148 176.763 646.484 176.608 646.825 176.608C647.102 176.608 647.321 176.688 647.481 176.848ZM654.651 182.432C654.363 182.997 653.969 183.44 653.467 183.76C652.966 184.069 652.401 184.224 651.771 184.224C650.843 184.224 650.075 183.888 649.467 183.216C648.859 182.533 648.555 181.675 648.555 180.64C648.555 179.488 648.913 178.533 649.627 177.776C650.342 177.008 651.206 176.624 652.219 176.624C652.966 176.624 653.563 176.837 654.011 177.264C654.459 177.691 654.683 178.251 654.683 178.944C654.683 179.264 654.657 179.547 654.603 179.792L649.787 179.728C649.777 179.771 649.771 179.899 649.771 180.112C649.771 181.019 650.006 181.765 650.475 182.352C650.955 182.928 651.558 183.216 652.283 183.216C653.105 183.216 653.787 182.891 654.331 182.24L654.651 182.432ZM653.403 179.232C653.446 178.613 653.329 178.117 653.051 177.744C652.785 177.371 652.411 177.184 651.931 177.184C651.473 177.184 651.041 177.371 650.635 177.744C650.241 178.117 649.979 178.619 649.851 179.248H650.123H650.763C651.083 179.248 651.382 179.248 651.659 179.248C651.937 179.237 652.214 179.232 652.491 179.232H653.163C653.334 179.232 653.414 179.232 653.403 179.232ZM662.684 183.248C662.14 183.909 661.644 184.24 661.196 184.24C660.886 184.24 660.636 184.144 660.444 183.952C660.262 183.749 660.172 183.451 660.172 183.056H660.108C659.372 183.845 658.705 184.24 658.108 184.24C657.574 184.24 657.116 184.064 656.732 183.712C656.348 183.36 656.156 182.917 656.156 182.384C656.156 181.723 656.47 181.184 657.1 180.768C657.729 180.352 658.774 179.963 660.236 179.6V179.456C660.246 178.645 660.113 178.085 659.836 177.776C659.569 177.456 659.158 177.296 658.604 177.296C658.316 177.296 658.033 177.344 657.756 177.44C657.478 177.536 657.34 177.627 657.34 177.712L657.5 177.952C657.606 178.123 657.66 178.288 657.66 178.448C657.66 178.64 657.585 178.811 657.436 178.96C657.286 179.099 657.1 179.168 656.876 179.168C656.652 179.168 656.465 179.104 656.316 178.976C656.177 178.837 656.108 178.667 656.108 178.464C656.108 178.08 656.438 177.675 657.1 177.248C657.772 176.821 658.428 176.608 659.068 176.608C659.964 176.608 660.582 176.832 660.924 177.28C661.265 177.728 661.414 178.544 661.372 179.728L661.244 182.784C661.222 183.157 661.34 183.344 661.596 183.344C661.766 183.344 662.038 183.195 662.412 182.896L662.684 183.248ZM660.108 182.512L660.204 180.112C659.158 180.389 658.417 180.683 657.98 180.992C657.542 181.301 657.324 181.675 657.324 182.112C657.324 182.485 657.441 182.784 657.676 183.008C657.91 183.232 658.198 183.344 658.54 183.344C658.977 183.344 659.5 183.067 660.108 182.512ZM668.112 183.328C667.856 183.595 667.542 183.813 667.168 183.984C666.795 184.155 666.432 184.24 666.08 184.24C665.504 184.24 665.051 184.069 664.72 183.728C664.4 183.387 664.246 182.864 664.256 182.16L664.352 177.648L663.088 177.584L663.104 177.12L664.192 176.464L664.944 175.456L665.504 175.52L665.488 176.88H668.08L667.968 177.616H665.488L665.392 181.872C665.36 182.843 665.787 183.328 666.672 183.328C667.067 183.328 667.515 183.189 668.016 182.912L668.112 183.328ZM675.153 182.432C674.865 182.997 674.47 183.44 673.969 183.76C673.467 184.069 672.902 184.224 672.273 184.224C671.345 184.224 670.577 183.888 669.969 183.216C669.361 182.533 669.057 181.675 669.057 180.64C669.057 179.488 669.414 178.533 670.129 177.776C670.843 177.008 671.707 176.624 672.721 176.624C673.467 176.624 674.065 176.837 674.513 177.264C674.961 177.691 675.185 178.251 675.185 178.944C675.185 179.264 675.158 179.547 675.105 179.792L670.289 179.728C670.278 179.771 670.273 179.899 670.273 180.112C670.273 181.019 670.507 181.765 670.977 182.352C671.457 182.928 672.059 183.216 672.785 183.216C673.606 183.216 674.289 182.891 674.833 182.24L675.153 182.432ZM673.905 179.232C673.947 178.613 673.83 178.117 673.553 177.744C673.286 177.371 672.913 177.184 672.433 177.184C671.974 177.184 671.542 177.371 671.137 177.744C670.742 178.117 670.481 178.619 670.353 179.248H670.625H671.265C671.585 179.248 671.883 179.248 672.161 179.248C672.438 179.237 672.715 179.232 672.993 179.232H673.665C673.835 179.232 673.915 179.232 673.905 179.232ZM687.354 181.296C687.354 182.107 687.018 182.8 686.346 183.376C685.674 183.941 684.788 184.229 683.69 184.24C682.762 184.251 681.828 184.107 680.89 183.808L680.65 180.976H681.29L681.962 183.184C682.591 183.472 683.247 183.616 683.93 183.616C684.623 183.605 685.167 183.419 685.562 183.056C685.967 182.683 686.17 182.24 686.17 181.728C686.17 181.12 685.972 180.661 685.578 180.352C685.194 180.043 684.554 179.717 683.658 179.376C683.199 179.205 682.826 179.051 682.538 178.912C682.26 178.763 681.978 178.576 681.69 178.352C681.402 178.128 681.188 177.867 681.05 177.568C680.922 177.259 680.858 176.901 680.858 176.496C680.858 175.739 681.14 175.099 681.706 174.576C682.282 174.053 683.098 173.787 684.154 173.776C684.794 173.765 685.418 173.824 686.026 173.952L686.858 173.712V176.864H686.218L685.77 174.816C685.183 174.549 684.575 174.416 683.946 174.416C683.327 174.416 682.847 174.581 682.506 174.912C682.175 175.232 682.01 175.621 682.01 176.08C682.01 176.389 682.063 176.661 682.17 176.896C682.276 177.12 682.463 177.323 682.73 177.504C683.007 177.685 683.252 177.829 683.466 177.936C683.69 178.032 684.026 178.165 684.474 178.336C685.444 178.688 686.164 179.072 686.634 179.488C687.114 179.893 687.354 180.496 687.354 181.296ZM695.368 183.248C694.824 183.909 694.328 184.24 693.88 184.24C693.571 184.24 693.32 184.144 693.128 183.952C692.947 183.749 692.856 183.451 692.856 183.056H692.792C692.056 183.845 691.389 184.24 690.792 184.24C690.259 184.24 689.8 184.064 689.416 183.712C689.032 183.36 688.84 182.917 688.84 182.384C688.84 181.723 689.155 181.184 689.784 180.768C690.413 180.352 691.459 179.963 692.92 179.6V179.456C692.931 178.645 692.797 178.085 692.52 177.776C692.253 177.456 691.843 177.296 691.288 177.296C691 177.296 690.717 177.344 690.44 177.44C690.163 177.536 690.024 177.627 690.024 177.712L690.184 177.952C690.291 178.123 690.344 178.288 690.344 178.448C690.344 178.64 690.269 178.811 690.12 178.96C689.971 179.099 689.784 179.168 689.56 179.168C689.336 179.168 689.149 179.104 689 178.976C688.861 178.837 688.792 178.667 688.792 178.464C688.792 178.08 689.123 177.675 689.784 177.248C690.456 176.821 691.112 176.608 691.752 176.608C692.648 176.608 693.267 176.832 693.608 177.28C693.949 177.728 694.099 178.544 694.056 179.728L693.928 182.784C693.907 183.157 694.024 183.344 694.28 183.344C694.451 183.344 694.723 183.195 695.096 182.896L695.368 183.248ZM692.792 182.512L692.888 180.112C691.843 180.389 691.101 180.683 690.664 180.992C690.227 181.301 690.008 181.675 690.008 182.112C690.008 182.485 690.125 182.784 690.36 183.008C690.595 183.232 690.883 183.344 691.224 183.344C691.661 183.344 692.184 183.067 692.792 182.512ZM703.105 176.864L703.057 177.392L702.529 177.504C702.358 177.515 702.225 177.573 702.129 177.68C702.043 177.787 701.937 178.011 701.809 178.352L699.601 184.112H698.801L696.369 177.968C696.294 177.797 696.219 177.685 696.145 177.632C696.07 177.579 695.937 177.536 695.745 177.504L695.249 177.408L695.185 176.864H698.529L698.481 177.392L697.889 177.472C697.611 177.504 697.515 177.648 697.601 177.904L699.489 182.8L701.137 178.288C701.243 178.021 701.281 177.829 701.249 177.712C701.227 177.595 701.115 177.525 700.913 177.504L700.289 177.392L700.241 176.864H703.105ZM705.856 174.288C705.856 174.533 705.781 174.747 705.632 174.928C705.493 175.099 705.296 175.184 705.04 175.184C704.784 175.184 704.581 175.099 704.432 174.928C704.293 174.747 704.224 174.533 704.224 174.288C704.224 174.043 704.293 173.835 704.432 173.664C704.581 173.483 704.784 173.392 705.04 173.392C705.296 173.392 705.493 173.477 705.632 173.648C705.781 173.819 705.856 174.032 705.856 174.288ZM706.944 184H703.52L703.568 183.456L704.24 183.392C704.507 183.381 704.64 183.301 704.64 183.152V178.656C704.64 178.283 704.608 178.043 704.544 177.936C704.48 177.819 704.331 177.733 704.096 177.68L703.456 177.584L703.488 177.152L705.776 176.624V183.168C705.776 183.307 705.925 183.381 706.224 183.392L706.896 183.456L706.944 184ZM716.01 184H712.602L712.65 183.456L713.306 183.392C713.573 183.381 713.706 183.301 713.706 183.152V179.664C713.706 178.907 713.578 178.373 713.322 178.064C713.066 177.755 712.682 177.6 712.17 177.6C711.551 177.6 710.917 177.867 710.266 178.4V183.168C710.266 183.307 710.41 183.381 710.698 183.392L711.434 183.456L711.482 184H708.026L708.074 183.456L708.714 183.392C708.981 183.381 709.114 183.301 709.114 183.152V178.624C709.114 178.261 709.082 178.027 709.018 177.92C708.965 177.813 708.831 177.733 708.618 177.68L707.946 177.584L707.962 177.152L710.266 176.624V177.776H710.346C711.253 177.008 712.106 176.624 712.906 176.624C713.461 176.624 713.909 176.795 714.25 177.136C714.645 177.531 714.842 178.123 714.842 178.912V183.152C714.842 183.291 715.002 183.371 715.322 183.392L715.962 183.456L716.01 184ZM723.866 177.968L722.154 177.664V177.744C722.484 178.149 722.65 178.624 722.65 179.168C722.65 179.872 722.372 180.475 721.818 180.976C721.274 181.467 720.612 181.712 719.834 181.712C719.45 181.712 719.156 181.68 718.954 181.616C718.452 181.861 718.202 182.139 718.202 182.448C718.202 182.661 718.292 182.837 718.474 182.976C718.666 183.115 718.911 183.184 719.21 183.184C719.402 183.184 719.732 183.179 720.202 183.168C720.671 183.157 720.959 183.152 721.066 183.152C721.77 183.152 722.335 183.349 722.762 183.744C723.199 184.128 723.418 184.613 723.418 185.2C723.418 186.032 723.044 186.715 722.298 187.248C721.551 187.781 720.607 188.048 719.466 188.048C718.612 188.048 717.924 187.872 717.402 187.52C716.89 187.168 716.634 186.709 716.634 186.144C716.634 185.312 717.135 184.683 718.138 184.256V184.192C717.85 184.139 717.604 184 717.402 183.776C717.21 183.552 717.114 183.307 717.114 183.04C717.114 182.741 717.236 182.453 717.482 182.176C717.727 181.899 718.036 181.675 718.41 181.504C718.41 181.493 718.415 181.483 718.426 181.472V181.456C718.01 181.264 717.679 180.981 717.434 180.608C717.188 180.224 717.066 179.771 717.066 179.248C717.066 178.512 717.332 177.893 717.866 177.392C718.41 176.88 719.087 176.624 719.898 176.624C720.527 176.624 721.124 176.757 721.69 177.024L723.866 177.04V177.968ZM722.346 185.712C722.346 184.805 721.77 184.331 720.618 184.288H720.122C720.058 184.288 719.892 184.293 719.626 184.304C719.359 184.315 719.071 184.32 718.762 184.32C718.527 184.416 718.292 184.592 718.058 184.848C717.834 185.115 717.722 185.424 717.722 185.776C717.722 186.299 717.94 186.709 718.378 187.008C718.815 187.307 719.375 187.456 720.058 187.456C720.719 187.456 721.263 187.285 721.69 186.944C722.127 186.613 722.346 186.203 722.346 185.712ZM721.466 179.2C721.466 178.443 721.274 177.888 720.89 177.536C720.602 177.269 720.266 177.136 719.882 177.136C719.402 177.136 719.012 177.317 718.714 177.68C718.415 178.032 718.266 178.485 718.266 179.04C718.266 179.829 718.495 180.437 718.954 180.864C719.231 181.088 719.53 181.2 719.85 181.2C720.298 181.2 720.644 181.083 720.89 180.848C721.274 180.517 721.466 179.968 721.466 179.2ZM729.802 181.968C729.802 182.597 729.556 183.136 729.066 183.584C728.575 184.021 727.892 184.24 727.018 184.24C726.207 184.24 725.514 184.128 724.938 183.904L724.842 181.84H725.562L725.898 183.264C726.292 183.541 726.73 183.68 727.21 183.68C727.626 183.68 727.994 183.557 728.314 183.312C728.634 183.056 728.794 182.731 728.794 182.336C728.794 182.144 728.751 181.973 728.666 181.824C728.58 181.675 728.431 181.541 728.218 181.424C728.015 181.296 727.839 181.205 727.69 181.152C727.54 181.088 727.311 180.997 727.002 180.88C726.735 180.773 726.522 180.688 726.362 180.624C726.212 180.56 726.031 180.464 725.818 180.336C725.604 180.197 725.439 180.059 725.322 179.92C725.204 179.781 725.103 179.605 725.018 179.392C724.932 179.179 724.89 178.939 724.89 178.672C724.89 178.107 725.114 177.621 725.562 177.216C726.01 176.8 726.618 176.592 727.386 176.592C727.887 176.592 728.404 176.677 728.938 176.848L729.418 176.688L729.546 178.928H728.842L728.538 177.536C728.143 177.28 727.716 177.152 727.258 177.152C726.863 177.152 726.538 177.259 726.282 177.472C726.026 177.685 725.898 177.957 725.898 178.288C725.898 178.533 725.983 178.752 726.154 178.944C726.324 179.125 726.506 179.264 726.698 179.36C726.9 179.445 727.22 179.573 727.658 179.744C727.988 179.872 728.255 179.984 728.458 180.08C728.66 180.176 728.879 180.315 729.114 180.496C729.348 180.667 729.519 180.875 729.626 181.12C729.743 181.365 729.802 181.648 729.802 181.968ZM742.008 177.968L740.296 177.664V177.744C740.626 178.149 740.792 178.624 740.792 179.168C740.792 179.872 740.514 180.475 739.96 180.976C739.416 181.467 738.754 181.712 737.976 181.712C737.592 181.712 737.298 181.68 737.096 181.616C736.594 181.861 736.344 182.139 736.344 182.448C736.344 182.661 736.434 182.837 736.616 182.976C736.808 183.115 737.053 183.184 737.352 183.184C737.544 183.184 737.874 183.179 738.344 183.168C738.813 183.157 739.101 183.152 739.208 183.152C739.912 183.152 740.477 183.349 740.904 183.744C741.341 184.128 741.56 184.613 741.56 185.2C741.56 186.032 741.186 186.715 740.44 187.248C739.693 187.781 738.749 188.048 737.608 188.048C736.754 188.048 736.066 187.872 735.544 187.52C735.032 187.168 734.776 186.709 734.776 186.144C734.776 185.312 735.277 184.683 736.28 184.256V184.192C735.992 184.139 735.746 184 735.544 183.776C735.352 183.552 735.256 183.307 735.256 183.04C735.256 182.741 735.378 182.453 735.624 182.176C735.869 181.899 736.178 181.675 736.552 181.504C736.552 181.493 736.557 181.483 736.568 181.472V181.456C736.152 181.264 735.821 180.981 735.576 180.608C735.33 180.224 735.208 179.771 735.208 179.248C735.208 178.512 735.474 177.893 736.008 177.392C736.552 176.88 737.229 176.624 738.04 176.624C738.669 176.624 739.266 176.757 739.832 177.024L742.008 177.04V177.968ZM740.488 185.712C740.488 184.805 739.912 184.331 738.76 184.288H738.264C738.2 184.288 738.034 184.293 737.768 184.304C737.501 184.315 737.213 184.32 736.904 184.32C736.669 184.416 736.434 184.592 736.2 184.848C735.976 185.115 735.864 185.424 735.864 185.776C735.864 186.299 736.082 186.709 736.52 187.008C736.957 187.307 737.517 187.456 738.2 187.456C738.861 187.456 739.405 187.285 739.832 186.944C740.269 186.613 740.488 186.203 740.488 185.712ZM739.608 179.2C739.608 178.443 739.416 177.888 739.032 177.536C738.744 177.269 738.408 177.136 738.024 177.136C737.544 177.136 737.154 177.317 736.856 177.68C736.557 178.032 736.408 178.485 736.408 179.04C736.408 179.829 736.637 180.437 737.096 180.864C737.373 181.088 737.672 181.2 737.992 181.2C738.44 181.2 738.786 181.083 739.032 180.848C739.416 180.517 739.608 179.968 739.608 179.2ZM749.943 180.272C749.943 181.392 749.586 182.336 748.871 183.104C748.167 183.861 747.293 184.24 746.247 184.24C745.213 184.24 744.37 183.883 743.719 183.168C743.079 182.453 742.759 181.552 742.759 180.464C742.759 179.376 743.117 178.464 743.831 177.728C744.557 176.992 745.437 176.624 746.471 176.624C747.495 176.624 748.327 176.971 748.967 177.664C749.618 178.347 749.943 179.216 749.943 180.272ZM748.695 180.752C748.695 179.451 748.407 178.496 747.831 177.888C747.394 177.451 746.887 177.232 746.311 177.232C745.65 177.232 745.101 177.499 744.663 178.032C744.237 178.555 744.023 179.248 744.023 180.112C744.023 181.424 744.317 182.379 744.903 182.976C745.309 183.403 745.81 183.616 746.407 183.616C747.058 183.616 747.602 183.355 748.039 182.832C748.477 182.299 748.695 181.605 748.695 180.752ZM757.841 183.248C757.297 183.909 756.801 184.24 756.353 184.24C756.043 184.24 755.793 184.144 755.601 183.952C755.419 183.749 755.329 183.451 755.329 183.056H755.265C754.529 183.845 753.862 184.24 753.265 184.24C752.731 184.24 752.273 184.064 751.889 183.712C751.505 183.36 751.313 182.917 751.313 182.384C751.313 181.723 751.627 181.184 752.257 180.768C752.886 180.352 753.931 179.963 755.393 179.6V179.456C755.403 178.645 755.27 178.085 754.993 177.776C754.726 177.456 754.315 177.296 753.761 177.296C753.473 177.296 753.19 177.344 752.913 177.44C752.635 177.536 752.497 177.627 752.497 177.712L752.657 177.952C752.763 178.123 752.817 178.288 752.817 178.448C752.817 178.64 752.742 178.811 752.593 178.96C752.443 179.099 752.257 179.168 752.033 179.168C751.809 179.168 751.622 179.104 751.473 178.976C751.334 178.837 751.265 178.667 751.265 178.464C751.265 178.08 751.595 177.675 752.257 177.248C752.929 176.821 753.585 176.608 754.225 176.608C755.121 176.608 755.739 176.832 756.081 177.28C756.422 177.728 756.571 178.544 756.529 179.728L756.401 182.784C756.379 183.157 756.497 183.344 756.753 183.344C756.923 183.344 757.195 183.195 757.569 182.896L757.841 183.248ZM755.265 182.512L755.361 180.112C754.315 180.389 753.574 180.683 753.137 180.992C752.699 181.301 752.481 181.675 752.481 182.112C752.481 182.485 752.598 182.784 752.833 183.008C753.067 183.232 753.355 183.344 753.697 183.344C754.134 183.344 754.657 183.067 755.265 182.512ZM761.957 184H758.533L758.581 183.456L759.253 183.392C759.52 183.381 759.653 183.301 759.653 183.152V174.512C759.653 174.32 759.595 174.208 759.477 174.176L758.309 173.824L758.357 173.424L760.789 172.848V183.168C760.789 183.307 760.939 183.381 761.237 183.392L761.909 183.456L761.957 184Z" fill="#828282"/>
<rect x="616" y="158" width="162" height="45" stroke="#828282" stroke-width="2"/>
<rect x="621" y="261" width="144" height="45" fill="white"/>
<path d="M645.232 280.072H644.544L644.192 278.392C644.139 278.168 644.064 278.008 643.968 277.912C643.872 277.816 643.648 277.741 643.296 277.688C642.955 277.624 642.411 277.592 641.664 277.592H641.552V286.152C641.552 286.259 641.691 286.328 641.968 286.36L643.056 286.456L643.104 287H638.688L638.736 286.456L639.824 286.36C640.101 286.328 640.24 286.253 640.24 286.136V277.592H640.128C639.371 277.592 638.827 277.613 638.496 277.656C638.176 277.688 637.952 277.747 637.824 277.832C637.707 277.917 637.616 278.067 637.552 278.28L637.12 280.072H636.4L636.672 277H645.232V280.072ZM651.168 279.848C651.329 279.997 651.409 280.189 651.409 280.424C651.409 280.659 651.339 280.856 651.201 281.016C651.073 281.165 650.891 281.24 650.656 281.24C650.326 281.24 650.07 281.069 649.889 280.728C649.622 280.899 649.328 281.155 649.008 281.496C648.699 281.837 648.448 282.195 648.257 282.568V286.168C648.257 286.307 648.4 286.381 648.688 286.392L649.536 286.456L649.584 287H646.016L646.064 286.456L646.704 286.392C646.971 286.381 647.104 286.301 647.104 286.152V281.624C647.104 281.261 647.072 281.027 647.008 280.92C646.955 280.813 646.822 280.733 646.608 280.68L645.952 280.584L645.984 280.152L648.257 279.624V281.704H648.32C648.779 280.925 649.174 280.381 649.504 280.072C649.835 279.763 650.171 279.608 650.512 279.608C650.79 279.608 651.009 279.688 651.168 279.848ZM658.819 286.248C658.275 286.909 657.779 287.24 657.331 287.24C657.021 287.24 656.771 287.144 656.579 286.952C656.397 286.749 656.307 286.451 656.307 286.056H656.243C655.507 286.845 654.84 287.24 654.243 287.24C653.709 287.24 653.251 287.064 652.867 286.712C652.483 286.36 652.291 285.917 652.291 285.384C652.291 284.723 652.605 284.184 653.235 283.768C653.864 283.352 654.909 282.963 656.371 282.6V282.456C656.381 281.645 656.248 281.085 655.971 280.776C655.704 280.456 655.293 280.296 654.739 280.296C654.451 280.296 654.168 280.344 653.891 280.44C653.613 280.536 653.475 280.627 653.475 280.712L653.635 280.952C653.741 281.123 653.795 281.288 653.795 281.448C653.795 281.64 653.72 281.811 653.571 281.96C653.421 282.099 653.235 282.168 653.011 282.168C652.787 282.168 652.6 282.104 652.451 281.976C652.312 281.837 652.243 281.667 652.243 281.464C652.243 281.08 652.573 280.675 653.235 280.248C653.907 279.821 654.563 279.608 655.203 279.608C656.099 279.608 656.717 279.832 657.059 280.28C657.4 280.728 657.549 281.544 657.507 282.728L657.379 285.784C657.357 286.157 657.475 286.344 657.731 286.344C657.901 286.344 658.173 286.195 658.547 285.896L658.819 286.248ZM656.243 285.512L656.339 283.112C655.293 283.389 654.552 283.683 654.115 283.992C653.677 284.301 653.459 284.675 653.459 285.112C653.459 285.485 653.576 285.784 653.811 286.008C654.045 286.232 654.333 286.344 654.675 286.344C655.112 286.344 655.635 286.067 656.243 285.512ZM667.527 287H664.119L664.167 286.456L664.823 286.392C665.09 286.381 665.223 286.301 665.223 286.152V282.664C665.223 281.907 665.095 281.373 664.839 281.064C664.583 280.755 664.199 280.6 663.687 280.6C663.069 280.6 662.434 280.867 661.783 281.4V286.168C661.783 286.307 661.927 286.381 662.215 286.392L662.951 286.456L662.999 287H659.543L659.591 286.456L660.231 286.392C660.498 286.381 660.631 286.301 660.631 286.152V281.624C660.631 281.261 660.599 281.027 660.535 280.92C660.482 280.813 660.349 280.733 660.135 280.68L659.463 280.584L659.479 280.152L661.783 279.624V280.776H661.863C662.77 280.008 663.623 279.624 664.423 279.624C664.978 279.624 665.426 279.795 665.767 280.136C666.162 280.531 666.359 281.123 666.359 281.912V286.152C666.359 286.291 666.519 286.371 666.839 286.392L667.479 286.456L667.527 287ZM673.735 284.968C673.735 285.597 673.49 286.136 672.999 286.584C672.509 287.021 671.826 287.24 670.951 287.24C670.141 287.24 669.447 287.128 668.871 286.904L668.775 284.84H669.495L669.831 286.264C670.226 286.541 670.663 286.68 671.143 286.68C671.559 286.68 671.927 286.557 672.247 286.312C672.567 286.056 672.727 285.731 672.727 285.336C672.727 285.144 672.685 284.973 672.599 284.824C672.514 284.675 672.365 284.541 672.151 284.424C671.949 284.296 671.773 284.205 671.623 284.152C671.474 284.088 671.245 283.997 670.935 283.88C670.669 283.773 670.455 283.688 670.295 283.624C670.146 283.56 669.965 283.464 669.751 283.336C669.538 283.197 669.373 283.059 669.255 282.92C669.138 282.781 669.037 282.605 668.951 282.392C668.866 282.179 668.823 281.939 668.823 281.672C668.823 281.107 669.047 280.621 669.495 280.216C669.943 279.8 670.551 279.592 671.319 279.592C671.821 279.592 672.338 279.677 672.871 279.848L673.351 279.688L673.479 281.928H672.775L672.471 280.536C672.077 280.28 671.65 280.152 671.191 280.152C670.797 280.152 670.471 280.259 670.215 280.472C669.959 280.685 669.831 280.957 669.831 281.288C669.831 281.533 669.917 281.752 670.087 281.944C670.258 282.125 670.439 282.264 670.631 282.36C670.834 282.445 671.154 282.573 671.591 282.744C671.922 282.872 672.189 282.984 672.391 283.08C672.594 283.176 672.813 283.315 673.047 283.496C673.282 283.667 673.453 283.875 673.559 284.12C673.677 284.365 673.735 284.648 673.735 284.968ZM680.845 276.808C680.845 277.032 680.781 277.208 680.653 277.336C680.525 277.464 680.359 277.528 680.157 277.528C679.655 277.528 679.319 277.197 679.149 276.536L679.133 276.456L678.733 276.424C677.805 276.808 677.341 277.789 677.341 279.368V279.88H679.565L679.453 280.616H677.341V286.168C677.341 286.307 677.49 286.381 677.789 286.392L678.845 286.456L678.893 287H675.085L675.133 286.456L675.805 286.392C676.071 286.381 676.205 286.301 676.205 286.152V280.648L674.861 280.584L674.957 279.88H676.125L676.141 279.48C676.183 278.424 676.525 277.555 677.165 276.872C677.815 276.189 678.578 275.848 679.453 275.848C679.837 275.848 680.162 275.939 680.429 276.12C680.706 276.301 680.845 276.531 680.845 276.808ZM686.533 285.432C686.245 285.997 685.85 286.44 685.349 286.76C684.848 287.069 684.282 287.224 683.653 287.224C682.725 287.224 681.957 286.888 681.349 286.216C680.741 285.533 680.437 284.675 680.437 283.64C680.437 282.488 680.794 281.533 681.509 280.776C682.224 280.008 683.088 279.624 684.101 279.624C684.848 279.624 685.445 279.837 685.893 280.264C686.341 280.691 686.565 281.251 686.565 281.944C686.565 282.264 686.538 282.547 686.485 282.792L681.669 282.728C681.658 282.771 681.653 282.899 681.653 283.112C681.653 284.019 681.888 284.765 682.357 285.352C682.837 285.928 683.44 286.216 684.165 286.216C684.986 286.216 685.669 285.891 686.213 285.24L686.533 285.432ZM685.285 282.232C685.328 281.613 685.21 281.117 684.933 280.744C684.666 280.371 684.293 280.184 683.813 280.184C683.354 280.184 682.922 280.371 682.517 280.744C682.122 281.117 681.861 281.619 681.733 282.248H682.005H682.645C682.965 282.248 683.264 282.248 683.541 282.248C683.818 282.237 684.096 282.232 684.373 282.232H685.045C685.216 282.232 685.296 282.232 685.285 282.232ZM693.109 279.848C693.269 279.997 693.349 280.189 693.349 280.424C693.349 280.659 693.279 280.856 693.141 281.016C693.013 281.165 692.831 281.24 692.597 281.24C692.266 281.24 692.01 281.069 691.829 280.728C691.562 280.899 691.269 281.155 690.949 281.496C690.639 281.837 690.389 282.195 690.197 282.568V286.168C690.197 286.307 690.341 286.381 690.629 286.392L691.477 286.456L691.525 287H687.957L688.005 286.456L688.645 286.392C688.911 286.381 689.045 286.301 689.045 286.152V281.624C689.045 281.261 689.013 281.027 688.949 280.92C688.895 280.813 688.762 280.733 688.549 280.68L687.893 280.584L687.925 280.152L690.197 279.624V281.704H690.261C690.719 280.925 691.114 280.381 691.445 280.072C691.775 279.763 692.111 279.608 692.453 279.608C692.73 279.608 692.949 279.688 693.109 279.848ZM706.159 284.28C706.159 285.155 705.812 285.827 705.119 286.296C704.436 286.765 703.471 287 702.223 287H698.207L698.255 286.456L699.087 286.36C699.364 286.328 699.503 286.253 699.503 286.136V277.848C699.503 277.784 699.476 277.741 699.423 277.72C699.37 277.688 699.258 277.661 699.087 277.64L698.255 277.544L698.207 277H702.287C703.514 277 704.404 277.208 704.959 277.624C705.514 278.029 705.791 278.557 705.791 279.208C705.791 279.848 705.567 280.408 705.119 280.888C704.671 281.357 704.084 281.656 703.359 281.784V281.848C704.287 281.944 704.986 282.216 705.455 282.664C705.924 283.112 706.159 283.651 706.159 284.28ZM704.767 284.392C704.767 283.667 704.495 283.117 703.951 282.744C703.418 282.36 702.703 282.168 701.807 282.168H700.815V286.2L702.063 286.424L702.527 286.408C703.167 286.376 703.7 286.189 704.127 285.848C704.554 285.496 704.767 285.011 704.767 284.392ZM704.383 279.608C704.383 278.253 703.53 277.576 701.823 277.576H700.815V281.576L702.079 281.56C702.826 281.549 703.396 281.352 703.791 280.968C704.186 280.573 704.383 280.12 704.383 279.608ZM714.129 286.248C713.585 286.909 713.089 287.24 712.641 287.24C712.332 287.24 712.081 287.144 711.889 286.952C711.708 286.749 711.617 286.451 711.617 286.056H711.553C710.817 286.845 710.151 287.24 709.553 287.24C709.02 287.24 708.561 287.064 708.177 286.712C707.793 286.36 707.601 285.917 707.601 285.384C707.601 284.723 707.916 284.184 708.545 283.768C709.175 283.352 710.22 282.963 711.681 282.6V282.456C711.692 281.645 711.559 281.085 711.281 280.776C711.015 280.456 710.604 280.296 710.049 280.296C709.761 280.296 709.479 280.344 709.201 280.44C708.924 280.536 708.785 280.627 708.785 280.712L708.945 280.952C709.052 281.123 709.105 281.288 709.105 281.448C709.105 281.64 709.031 281.811 708.881 281.96C708.732 282.099 708.545 282.168 708.321 282.168C708.097 282.168 707.911 282.104 707.761 281.976C707.623 281.837 707.553 281.667 707.553 281.464C707.553 281.08 707.884 280.675 708.545 280.248C709.217 279.821 709.873 279.608 710.513 279.608C711.409 279.608 712.028 279.832 712.369 280.28C712.711 280.728 712.86 281.544 712.817 282.728L712.689 285.784C712.668 286.157 712.785 286.344 713.041 286.344C713.212 286.344 713.484 286.195 713.857 285.896L714.129 286.248ZM711.553 285.512L711.649 283.112C710.604 283.389 709.863 283.683 709.425 283.992C708.988 284.301 708.769 284.675 708.769 285.112C708.769 285.485 708.887 285.784 709.121 286.008C709.356 286.232 709.644 286.344 709.985 286.344C710.423 286.344 710.945 286.067 711.553 285.512ZM718.246 287H714.822L714.87 286.456L715.542 286.392C715.809 286.381 715.942 286.301 715.942 286.152V277.512C715.942 277.32 715.883 277.208 715.766 277.176L714.598 276.824L714.646 276.424L717.078 275.848V286.168C717.078 286.307 717.227 286.381 717.526 286.392L718.198 286.456L718.246 287ZM726.016 286.248C725.472 286.909 724.976 287.24 724.528 287.24C724.218 287.24 723.968 287.144 723.776 286.952C723.594 286.749 723.504 286.451 723.504 286.056H723.44C722.704 286.845 722.037 287.24 721.44 287.24C720.906 287.24 720.448 287.064 720.064 286.712C719.68 286.36 719.488 285.917 719.488 285.384C719.488 284.723 719.802 284.184 720.432 283.768C721.061 283.352 722.106 282.963 723.568 282.6V282.456C723.578 281.645 723.445 281.085 723.168 280.776C722.901 280.456 722.49 280.296 721.936 280.296C721.648 280.296 721.365 280.344 721.088 280.44C720.81 280.536 720.672 280.627 720.672 280.712L720.832 280.952C720.938 281.123 720.992 281.288 720.992 281.448C720.992 281.64 720.917 281.811 720.768 281.96C720.618 282.099 720.432 282.168 720.208 282.168C719.984 282.168 719.797 282.104 719.648 281.976C719.509 281.837 719.44 281.667 719.44 281.464C719.44 281.08 719.77 280.675 720.432 280.248C721.104 279.821 721.76 279.608 722.4 279.608C723.296 279.608 723.914 279.832 724.256 280.28C724.597 280.728 724.746 281.544 724.704 282.728L724.576 285.784C724.554 286.157 724.672 286.344 724.928 286.344C725.098 286.344 725.37 286.195 725.744 285.896L726.016 286.248ZM723.44 285.512L723.536 283.112C722.49 283.389 721.749 283.683 721.312 283.992C720.874 284.301 720.656 284.675 720.656 285.112C720.656 285.485 720.773 285.784 721.008 286.008C721.242 286.232 721.53 286.344 721.872 286.344C722.309 286.344 722.832 286.067 723.44 285.512ZM734.724 287H731.316L731.364 286.456L732.02 286.392C732.287 286.381 732.42 286.301 732.42 286.152V282.664C732.42 281.907 732.292 281.373 732.036 281.064C731.78 280.755 731.396 280.6 730.884 280.6C730.266 280.6 729.631 280.867 728.98 281.4V286.168C728.98 286.307 729.124 286.381 729.412 286.392L730.148 286.456L730.196 287H726.74L726.788 286.456L727.428 286.392C727.695 286.381 727.828 286.301 727.828 286.152V281.624C727.828 281.261 727.796 281.027 727.732 280.92C727.679 280.813 727.546 280.733 727.332 280.68L726.66 280.584L726.676 280.152L728.98 279.624V280.776H729.06C729.967 280.008 730.82 279.624 731.62 279.624C732.175 279.624 732.623 279.795 732.964 280.136C733.359 280.531 733.556 281.123 733.556 281.912V286.152C733.556 286.291 733.716 286.371 734.036 286.392L734.676 286.456L734.724 287ZM741.828 285.432C741.54 285.997 741.145 286.44 740.644 286.76C740.143 287.069 739.577 287.224 738.948 287.224C738.02 287.224 737.252 286.888 736.644 286.216C736.036 285.533 735.732 284.675 735.732 283.64C735.732 282.488 736.095 281.533 736.82 280.776C737.556 280.008 738.436 279.624 739.46 279.624C740.153 279.624 740.708 279.773 741.124 280.072C741.54 280.371 741.748 280.717 741.748 281.112C741.748 281.389 741.668 281.597 741.508 281.736C741.348 281.864 741.156 281.928 740.932 281.928C740.633 281.928 740.404 281.789 740.244 281.512C740.095 281.235 740.079 280.904 740.196 280.52V280.488C739.929 280.296 739.593 280.2 739.188 280.2C738.548 280.2 738.015 280.467 737.588 281C737.161 281.533 736.948 282.227 736.948 283.08C736.948 283.976 737.183 284.723 737.652 285.32C738.132 285.917 738.735 286.216 739.46 286.216C740.281 286.216 740.964 285.891 741.508 285.24L741.828 285.432ZM749.146 285.432C748.858 285.997 748.464 286.44 747.962 286.76C747.461 287.069 746.896 287.224 746.266 287.224C745.338 287.224 744.57 286.888 743.962 286.216C743.354 285.533 743.05 284.675 743.05 283.64C743.05 282.488 743.408 281.533 744.122 280.776C744.837 280.008 745.701 279.624 746.714 279.624C747.461 279.624 748.058 279.837 748.506 280.264C748.954 280.691 749.178 281.251 749.178 281.944C749.178 282.264 749.152 282.547 749.098 282.792L744.282 282.728C744.272 282.771 744.266 282.899 744.266 283.112C744.266 284.019 744.501 284.765 744.97 285.352C745.45 285.928 746.053 286.216 746.778 286.216C747.6 286.216 748.282 285.891 748.826 285.24L749.146 285.432ZM747.898 282.232C747.941 281.613 747.824 281.117 747.546 280.744C747.28 280.371 746.906 280.184 746.426 280.184C745.968 280.184 745.536 280.371 745.13 280.744C744.736 281.117 744.474 281.619 744.346 282.248H744.618H745.258C745.578 282.248 745.877 282.248 746.154 282.248C746.432 282.237 746.709 282.232 746.986 282.232H747.658C747.829 282.232 747.909 282.232 747.898 282.232Z" fill="#828282"/>
<rect x="621" y="261" width="144" height="45" stroke="#828282" stroke-width="2"/>
<rect x="622" y="366" width="147" height="45" fill="white"/>
<path d="M651.88 382L651.832 382.544L651.256 382.656C651.064 382.72 650.925 382.795 650.84 382.88C650.755 382.965 650.648 383.157 650.52 383.456C650.392 383.744 650.216 384.24 649.992 384.944L647.752 392.032H646.824L644.504 385.12H644.472L642.056 392.032H641.112L638.136 383.008C638.083 382.837 637.955 382.736 637.752 382.704L636.808 382.544L636.76 382H640.872L640.824 382.544L639.912 382.656C639.805 382.677 639.731 382.704 639.688 382.736C639.645 382.768 639.624 382.837 639.624 382.944C639.635 383.04 639.656 383.152 639.688 383.28C639.72 383.397 639.784 383.589 639.88 383.856L641.88 390.352H641.944L644.12 384.176L643.736 383.008C643.683 382.837 643.549 382.736 643.336 382.704L642.424 382.544L642.376 382H646.44L646.392 382.544L645.448 382.656C645.277 382.688 645.187 382.784 645.176 382.944C645.176 383.104 645.256 383.408 645.416 383.856L647.528 390.368L647.576 390.352L649.192 384.944C649.405 384.261 649.539 383.771 649.592 383.472C649.645 383.173 649.64 382.976 649.576 382.88C649.523 382.784 649.395 382.715 649.192 382.672L648.36 382.544L648.312 382H651.88ZM654.727 382.288C654.727 382.533 654.652 382.747 654.503 382.928C654.364 383.099 654.167 383.184 653.911 383.184C653.655 383.184 653.452 383.099 653.303 382.928C653.164 382.747 653.095 382.533 653.095 382.288C653.095 382.043 653.164 381.835 653.303 381.664C653.452 381.483 653.655 381.392 653.911 381.392C654.167 381.392 654.364 381.477 654.503 381.648C654.652 381.819 654.727 382.032 654.727 382.288ZM655.815 392H652.391L652.439 391.456L653.111 391.392C653.378 391.381 653.511 391.301 653.511 391.152V386.656C653.511 386.283 653.479 386.043 653.415 385.936C653.351 385.819 653.202 385.733 652.967 385.68L652.327 385.584L652.359 385.152L654.647 384.624V391.168C654.647 391.307 654.796 391.381 655.095 391.392L655.767 391.456L655.815 392ZM661.601 391.328C661.345 391.595 661.03 391.813 660.657 391.984C660.284 392.155 659.921 392.24 659.569 392.24C658.993 392.24 658.54 392.069 658.209 391.728C657.889 391.387 657.734 390.864 657.745 390.16L657.841 385.648L656.577 385.584L656.593 385.12L657.681 384.464L658.433 383.456L658.993 383.52L658.977 384.88H661.569L661.457 385.616H658.977L658.881 389.872C658.849 390.843 659.276 391.328 660.161 391.328C660.556 391.328 661.004 391.189 661.505 390.912L661.601 391.328ZM670.398 392H667.005L667.053 391.456L667.709 391.392C667.976 391.381 668.109 391.301 668.109 391.152V387.664C668.109 386.907 667.981 386.373 667.725 386.064C667.469 385.755 667.085 385.6 666.573 385.6C665.955 385.6 665.32 385.867 664.669 386.4V391.168C664.669 391.307 664.813 391.381 665.101 391.392L665.837 391.456L665.885 392H662.429L662.477 391.456L663.117 391.392C663.384 391.381 663.517 391.301 663.517 391.152V382.512C663.517 382.32 663.459 382.208 663.341 382.176L662.221 381.824L662.269 381.424L664.669 380.848V385.776H664.749C665.656 385.008 666.509 384.624 667.309 384.624C667.864 384.624 668.312 384.795 668.653 385.136C669.048 385.531 669.245 386.123 669.245 386.912V391.152C669.245 391.291 669.405 391.371 669.725 391.392L670.349 391.456L670.398 392ZM679.123 391.568L679.075 391.952L676.691 392.24V391.168H676.643C676.003 391.872 675.251 392.224 674.387 392.224C673.533 392.224 672.819 391.888 672.243 391.216C671.677 390.533 671.395 389.675 671.395 388.64C671.395 387.52 671.752 386.581 672.467 385.824C673.181 385.056 674.099 384.672 675.219 384.672C675.656 384.672 676.136 384.768 676.659 384.96H676.691V382.16C676.691 382 676.643 381.904 676.547 381.872L675.299 381.584L675.363 381.2L677.827 380.848V391.008C677.827 391.179 677.88 391.28 677.987 391.312L679.123 391.568ZM676.691 390.528V386.24C676.072 385.621 675.459 385.312 674.851 385.312C674.2 385.312 673.667 385.584 673.251 386.128C672.845 386.661 672.643 387.36 672.643 388.224C672.643 389.141 672.851 389.877 673.267 390.432C673.683 390.987 674.237 391.264 674.931 391.264C675.56 391.264 676.147 391.019 676.691 390.528ZM685.129 384.848C685.289 384.997 685.369 385.189 685.369 385.424C685.369 385.659 685.299 385.856 685.161 386.016C685.033 386.165 684.851 386.24 684.617 386.24C684.286 386.24 684.03 386.069 683.849 385.728C683.582 385.899 683.289 386.155 682.969 386.496C682.659 386.837 682.409 387.195 682.217 387.568V391.168C682.217 391.307 682.361 391.381 682.649 391.392L683.497 391.456L683.545 392H679.977L680.025 391.456L680.665 391.392C680.931 391.381 681.065 391.301 681.065 391.152V386.624C681.065 386.261 681.033 386.027 680.969 385.92C680.915 385.813 680.782 385.733 680.569 385.68L679.913 385.584L679.945 385.152L682.217 384.624V386.704H682.281C682.739 385.925 683.134 385.381 683.465 385.072C683.795 384.763 684.131 384.608 684.473 384.608C684.75 384.608 684.969 384.688 685.129 384.848ZM692.779 391.248C692.235 391.909 691.739 392.24 691.291 392.24C690.981 392.24 690.731 392.144 690.539 391.952C690.357 391.749 690.267 391.451 690.267 391.056H690.203C689.467 391.845 688.8 392.24 688.203 392.24C687.669 392.24 687.211 392.064 686.827 391.712C686.443 391.36 686.251 390.917 686.251 390.384C686.251 389.723 686.565 389.184 687.195 388.768C687.824 388.352 688.869 387.963 690.331 387.6V387.456C690.341 386.645 690.208 386.085 689.931 385.776C689.664 385.456 689.253 385.296 688.699 385.296C688.411 385.296 688.128 385.344 687.851 385.44C687.573 385.536 687.435 385.627 687.435 385.712L687.595 385.952C687.701 386.123 687.755 386.288 687.755 386.448C687.755 386.64 687.68 386.811 687.531 386.96C687.381 387.099 687.195 387.168 686.971 387.168C686.747 387.168 686.56 387.104 686.411 386.976C686.272 386.837 686.203 386.667 686.203 386.464C686.203 386.08 686.533 385.675 687.195 385.248C687.867 384.821 688.523 384.608 689.163 384.608C690.059 384.608 690.677 384.832 691.019 385.28C691.36 385.728 691.509 386.544 691.467 387.728L691.339 390.784C691.317 391.157 691.435 391.344 691.691 391.344C691.861 391.344 692.133 391.195 692.507 390.896L692.779 391.248ZM690.203 390.512L690.299 388.112C689.253 388.389 688.512 388.683 688.075 388.992C687.637 389.301 687.419 389.675 687.419 390.112C687.419 390.485 687.536 390.784 687.771 391.008C688.005 391.232 688.293 391.344 688.635 391.344C689.072 391.344 689.595 391.067 690.203 390.512ZM704.163 384.864L704.115 385.392L703.619 385.472C703.416 385.504 703.267 385.573 703.171 385.68C703.086 385.776 702.984 386 702.867 386.352L701.011 392.112H700.227L698.483 387.456L696.643 392.112H695.859L693.747 385.968C693.694 385.797 693.63 385.68 693.555 385.616C693.48 385.552 693.358 385.509 693.187 385.488L692.707 385.408L692.659 384.864H695.859L695.811 385.392L695.283 385.472C694.984 385.515 694.883 385.669 694.979 385.936L696.595 390.736L698.147 386.64L697.907 385.968C697.843 385.797 697.768 385.685 697.683 385.632C697.608 385.568 697.48 385.525 697.299 385.504L696.803 385.392L696.755 384.864H700.003L699.955 385.392L699.443 385.472C699.134 385.504 699.027 385.659 699.123 385.936L700.851 390.768L702.195 386.368C702.291 386.08 702.312 385.867 702.259 385.728C702.216 385.589 702.078 385.504 701.843 385.472L701.347 385.392L701.299 384.864H704.163ZM721.123 392H717.043L717.091 391.456L718.131 391.376C718.248 391.355 718.323 391.189 718.355 390.88C718.397 390.56 718.403 389.968 718.371 389.104L718.147 382.896H718.035L714.819 391.68H714.147L711.027 383.216H710.867L710.595 389.056C710.541 390.091 710.52 390.731 710.531 390.976C710.552 391.211 710.621 391.333 710.739 391.344L711.795 391.456L711.843 392H708.275L708.339 391.456L709.411 391.344C709.507 391.333 709.576 391.285 709.619 391.2C709.672 391.115 709.72 390.907 709.763 390.576C709.816 390.235 709.859 389.728 709.891 389.056L710.163 383.792C710.195 383.163 710.04 382.805 709.699 382.72L708.563 382.544L708.515 382H711.939L714.771 389.712H714.851L717.619 382H720.963L720.931 382.544L719.747 382.624C719.576 382.635 719.48 382.763 719.459 383.008L719.683 389.104C719.693 389.712 719.715 390.181 719.747 390.512C719.789 390.843 719.832 391.067 719.875 391.184C719.928 391.301 719.992 391.365 720.067 391.376L721.075 391.456L721.123 392ZM729.222 388.272C729.222 389.392 728.865 390.336 728.15 391.104C727.446 391.861 726.571 392.24 725.526 392.24C724.491 392.24 723.649 391.883 722.998 391.168C722.358 390.453 722.038 389.552 722.038 388.464C722.038 387.376 722.395 386.464 723.11 385.728C723.835 384.992 724.715 384.624 725.75 384.624C726.774 384.624 727.606 384.971 728.246 385.664C728.897 386.347 729.222 387.216 729.222 388.272ZM727.974 388.752C727.974 387.451 727.686 386.496 727.11 385.888C726.673 385.451 726.166 385.232 725.59 385.232C724.929 385.232 724.379 385.499 723.942 386.032C723.515 386.555 723.302 387.248 723.302 388.112C723.302 389.424 723.595 390.379 724.182 390.976C724.587 391.403 725.089 391.616 725.686 391.616C726.337 391.616 726.881 391.355 727.318 390.832C727.755 390.299 727.974 389.605 727.974 388.752ZM738.447 392H735.039L735.087 391.456L735.743 391.392C736.01 391.381 736.143 391.301 736.143 391.152V387.664C736.143 386.907 736.015 386.373 735.759 386.064C735.503 385.755 735.119 385.6 734.607 385.6C733.989 385.6 733.354 385.867 732.703 386.4V391.168C732.703 391.307 732.847 391.381 733.135 391.392L733.871 391.456L733.919 392H730.463L730.511 391.456L731.151 391.392C731.418 391.381 731.551 391.301 731.551 391.152V386.624C731.551 386.261 731.519 386.027 731.455 385.92C731.402 385.813 731.269 385.733 731.055 385.68L730.383 385.584L730.399 385.152L732.703 384.624V385.776H732.783C733.69 385.008 734.543 384.624 735.343 384.624C735.898 384.624 736.346 384.795 736.687 385.136C737.082 385.531 737.279 386.123 737.279 386.912V391.152C737.279 391.291 737.439 391.371 737.759 391.392L738.399 391.456L738.447 392ZM745.551 390.432C745.263 390.997 744.869 391.44 744.367 391.76C743.866 392.069 743.301 392.224 742.671 392.224C741.743 392.224 740.975 391.888 740.367 391.216C739.759 390.533 739.455 389.675 739.455 388.64C739.455 387.488 739.813 386.533 740.527 385.776C741.242 385.008 742.106 384.624 743.119 384.624C743.866 384.624 744.463 384.837 744.911 385.264C745.359 385.691 745.583 386.251 745.583 386.944C745.583 387.264 745.557 387.547 745.503 387.792L740.687 387.728C740.677 387.771 740.671 387.899 740.671 388.112C740.671 389.019 740.906 389.765 741.375 390.352C741.855 390.928 742.458 391.216 743.183 391.216C744.005 391.216 744.687 390.891 745.231 390.24L745.551 390.432ZM744.303 387.232C744.346 386.613 744.229 386.117 743.951 385.744C743.685 385.371 743.311 385.184 742.831 385.184C742.373 385.184 741.941 385.371 741.535 385.744C741.141 386.117 740.879 386.619 740.751 387.248H741.023H741.663C741.983 387.248 742.282 387.248 742.559 387.248C742.837 387.237 743.114 387.232 743.391 387.232H744.063C744.234 387.232 744.314 387.232 744.303 387.232ZM754.111 384.864L754.063 385.392L753.535 385.504C753.364 385.525 753.231 385.589 753.135 385.696C753.049 385.803 752.937 386.021 752.799 386.352L750.847 391.664L750.079 394.096C749.844 394.832 749.588 395.365 749.311 395.696C749.033 396.027 748.665 396.192 748.207 396.192C747.887 396.192 747.631 396.112 747.439 395.952C747.257 395.803 747.167 395.605 747.167 395.36C747.167 395.125 747.231 394.933 747.359 394.784C747.487 394.635 747.673 394.56 747.919 394.56C748.324 394.56 748.628 394.752 748.831 395.136C749.065 395.029 749.3 394.619 749.535 393.904L750.143 392.16V392.144L747.359 385.968C747.284 385.797 747.209 385.685 747.135 385.632C747.071 385.579 746.943 385.536 746.751 385.504L746.287 385.408L746.223 384.864H749.519L749.471 385.392L748.927 385.472C748.628 385.493 748.537 385.637 748.655 385.904L750.639 390.624L752.159 386.288C752.255 386.021 752.281 385.829 752.239 385.712C752.196 385.595 752.068 385.525 751.855 385.504L751.263 385.392L751.215 384.864H754.111Z" fill="#828282"/>
<rect x="622" y="366" width="147" height="45" stroke="#828282" stroke-width="2"/>
<rect x="340" y="158" width="94" height="45" fill="white"/>
<path d="M359.928 184H355.704L355.752 183.456L356.744 183.36C357.021 183.328 357.16 183.253 357.16 183.136V174.848C357.16 174.784 357.133 174.741 357.08 174.72C357.027 174.688 356.915 174.661 356.744 174.64L355.752 174.544L355.704 174H359.928L359.88 174.544L358.888 174.64C358.611 174.672 358.472 174.747 358.472 174.864V183.152C358.472 183.259 358.611 183.328 358.888 183.36L359.88 183.456L359.928 184ZM369.25 184H365.843L365.891 183.456L366.547 183.392C366.813 183.381 366.946 183.301 366.946 183.152V179.664C366.946 178.907 366.818 178.373 366.562 178.064C366.307 177.755 365.923 177.6 365.411 177.6C364.792 177.6 364.157 177.867 363.507 178.4V183.168C363.507 183.307 363.65 183.381 363.938 183.392L364.674 183.456L364.722 184H361.266L361.314 183.456L361.954 183.392C362.221 183.381 362.354 183.301 362.354 183.152V178.624C362.354 178.261 362.322 178.027 362.258 177.92C362.205 177.813 362.072 177.733 361.858 177.68L361.186 177.584L361.202 177.152L363.507 176.624V177.776H363.586C364.493 177.008 365.346 176.624 366.147 176.624C366.701 176.624 367.149 176.795 367.49 177.136C367.885 177.531 368.082 178.123 368.082 178.912V183.152C368.082 183.291 368.242 183.371 368.562 183.392L369.203 183.456L369.25 184ZM377.538 180.192C377.538 181.312 377.197 182.267 376.514 183.056C375.842 183.845 374.952 184.24 373.842 184.24C373.33 184.24 372.813 184.144 372.29 183.952H372.258V187.104C372.258 187.243 372.408 187.317 372.706 187.328L373.538 187.392L373.586 187.936H370.002L370.05 187.392L370.706 187.328C370.973 187.317 371.106 187.237 371.106 187.088V178.624C371.106 178.261 371.074 178.027 371.01 177.92C370.957 177.813 370.824 177.733 370.61 177.68L369.938 177.584L369.97 177.152L372.258 176.624V177.84H372.322C373.026 177.083 373.8 176.704 374.642 176.704C375.506 176.704 376.205 177.035 376.738 177.696C377.272 178.357 377.538 179.189 377.538 180.192ZM376.306 180.64C376.306 179.744 376.109 179.024 375.714 178.48C375.32 177.936 374.802 177.664 374.162 177.664C373.448 177.664 372.813 177.984 372.258 178.624V182.736C372.888 183.323 373.501 183.616 374.098 183.616C374.717 183.616 375.24 183.339 375.666 182.784C376.093 182.229 376.306 181.515 376.306 180.64ZM386.665 183.568L386.617 183.952L384.217 184.24V183.072H384.137C383.209 183.851 382.356 184.24 381.577 184.24C381.022 184.24 380.574 184.064 380.233 183.712C379.838 183.328 379.641 182.741 379.641 181.952L379.673 177.696C379.673 177.653 379.668 177.621 379.657 177.6C379.657 177.579 379.652 177.563 379.641 177.552C379.63 177.531 379.609 177.515 379.577 177.504L379.481 177.488C379.449 177.488 379.401 177.488 379.337 177.488C379.273 177.477 379.214 177.467 379.161 177.456L378.553 177.392L378.505 176.864H380.889L380.777 181.184C380.777 181.952 380.905 182.491 381.161 182.8C381.417 183.109 381.801 183.264 382.313 183.264C382.953 183.264 383.588 182.992 384.217 182.448V177.696C384.217 177.557 384.073 177.477 383.785 177.456L382.985 177.392L382.937 176.864H385.369V183.008C385.369 183.179 385.417 183.28 385.513 183.312L386.665 183.568ZM392.175 183.328C391.919 183.595 391.604 183.813 391.231 183.984C390.858 184.155 390.495 184.24 390.143 184.24C389.567 184.24 389.114 184.069 388.783 183.728C388.463 183.387 388.308 182.864 388.319 182.16L388.415 177.648L387.151 177.584L387.167 177.12L388.255 176.464L389.007 175.456L389.567 175.52L389.551 176.88H392.143L392.031 177.616H389.551L389.455 181.872C389.423 182.843 389.85 183.328 390.735 183.328C391.13 183.328 391.578 183.189 392.079 182.912L392.175 183.328ZM405.108 176.736C405.108 177.739 404.74 178.528 404.004 179.104C403.279 179.669 402.361 179.952 401.252 179.952C400.825 179.952 400.372 179.925 399.892 179.872V183.152C399.892 183.259 400.031 183.328 400.308 183.36L401.444 183.456L401.492 184H397.284L397.332 183.456L398.164 183.36C398.441 183.328 398.58 183.253 398.58 183.136V174.848C398.58 174.731 398.441 174.661 398.164 174.64L397.332 174.544L397.284 174H401.156C402.436 174 403.412 174.256 404.084 174.768C404.767 175.28 405.108 175.936 405.108 176.736ZM403.7 176.992C403.7 176.245 403.465 175.659 402.996 175.232C402.537 174.795 401.908 174.581 401.108 174.592L399.892 174.608V179.232C400.34 179.339 400.772 179.392 401.188 179.392C401.956 179.392 402.564 179.179 403.012 178.752C403.471 178.315 403.7 177.728 403.7 176.992ZM408.589 174.288C408.589 174.533 408.514 174.747 408.365 174.928C408.226 175.099 408.029 175.184 407.773 175.184C407.517 175.184 407.314 175.099 407.165 174.928C407.026 174.747 406.957 174.533 406.957 174.288C406.957 174.043 407.026 173.835 407.165 173.664C407.314 173.483 407.517 173.392 407.773 173.392C408.029 173.392 408.226 173.477 408.365 173.648C408.514 173.819 408.589 174.032 408.589 174.288ZM409.677 184H406.253L406.301 183.456L406.973 183.392C407.24 183.381 407.373 183.301 407.373 183.152V178.656C407.373 178.283 407.341 178.043 407.277 177.936C407.213 177.819 407.064 177.733 406.829 177.68L406.189 177.584L406.221 177.152L408.509 176.624V183.168C408.509 183.307 408.658 183.381 408.957 183.392L409.629 183.456L409.677 184ZM418.743 184H415.335L415.383 183.456L416.039 183.392C416.306 183.381 416.439 183.301 416.439 183.152V179.664C416.439 178.907 416.311 178.373 416.055 178.064C415.799 177.755 415.415 177.6 414.903 177.6C414.284 177.6 413.65 177.867 412.999 178.4V183.168C412.999 183.307 413.143 183.381 413.431 183.392L414.167 183.456L414.215 184H410.759L410.807 183.456L411.447 183.392C411.714 183.381 411.847 183.301 411.847 183.152V178.624C411.847 178.261 411.815 178.027 411.751 177.92C411.698 177.813 411.564 177.733 411.351 177.68L410.679 177.584L410.695 177.152L412.999 176.624V177.776H413.079C413.986 177.008 414.839 176.624 415.639 176.624C416.194 176.624 416.642 176.795 416.983 177.136C417.378 177.531 417.575 178.123 417.575 178.912V183.152C417.575 183.291 417.735 183.371 418.055 183.392L418.695 183.456L418.743 184Z" fill="#828282"/>
<rect x="340" y="158" width="94" height="45" stroke="#828282" stroke-width="2"/>
<path d="M441.323 181L468.5 181" stroke="#1F2024" stroke-width="1.5" stroke-linecap="round"/>
<path d="M470.547 180.28L465.516 177.153C464.913 176.778 464.136 177.134 464.016 177.781C463.995 177.894 464.02 178.01 464.059 178.119L465.098 181L464.059 183.881C464.02 183.99 463.995 184.106 464.016 184.219C464.134 184.857 464.893 185.215 465.495 184.86L470.527 181.897C471.149 181.531 471.16 180.661 470.547 180.28Z" fill="#1F2024"/>
<path d="M436.5 181C436.5 179.619 437.619 178.5 439 178.5C440.381 178.5 441.5 179.619 441.5 181C441.5 182.381 440.381 183.5 439 183.5C437.619 183.5 436.5 182.381 436.5 181Z" fill="white" stroke="#1F2024" stroke-width="3"/>
<path d="M583.323 181L610.5 181" stroke="#1F2024" stroke-width="1.5" stroke-linecap="round"/>
<path d="M612.547 180.28L607.516 177.153C606.913 176.778 606.136 177.134 606.016 177.781C605.995 177.894 606.02 178.01 606.059 178.119L607.098 181L606.059 183.881C606.02 183.99 605.995 184.106 606.016 184.219C606.134 184.857 606.893 185.215 607.495 184.86L612.527 181.897C613.149 181.531 613.16 180.661 612.547 180.28Z" fill="#1F2024"/>
<path d="M578.5 181C578.5 179.619 579.619 178.5 581 178.5C582.381 178.5 583.5 179.619 583.5 181C583.5 182.381 582.381 183.5 581 183.5C579.619 183.5 578.5 182.381 578.5 181Z" fill="white" stroke="#1F2024" stroke-width="3"/>
<path d="M581 178C579.333 178 578 179.333 578 181C578 182.667 579.333 184 581 184C582.667 184 584 182.667 584 181C584 179.333 582.667 178 581 178Z" fill="white"/>
<path d="M579 181C579 179.886 579.886 179 581 179V177C578.781 177 577 178.781 577 181H579ZM581 179C582.114 179 583 179.886 583 181H585C585 178.781 583.219 177 581 177V179ZM583 181C583 182.114 582.114 183 581 183V185C583.219 185 585 183.219 585 181H583ZM581 183C579.886 183 579 182.114 579 181H577C577 183.219 578.781 185 581 185V183ZM600 198V367H602V198H600ZM600 367C600 378.598 609.402 388 621 388V386C610.507 386 602 377.493 602 367H600ZM584 182C592.837 182 600 189.163 600 198H602C602 188.059 593.941 180 584 180V182Z" fill="#53554E"/>
<path d="M581 178C579.333 178 578 179.333 578 181C578 182.667 579.333 184 581 184C582.667 184 584 182.667 584 181C584 179.333 582.667 178 581 178Z" fill="white"/>
<path d="M579 181C579 179.886 579.886 179 581 179V177C578.781 177 577 178.781 577 181H579ZM581 179C582.114 179 583 179.886 583 181H585C585 178.781 583.219 177 581 177V179ZM583 181C583 182.114 582.114 183 581 183V185C583.219 185 585 183.219 585 181H583ZM581 183C579.886 183 579 182.114 579 181H577C577 183.219 578.781 185 581 185V183ZM600 198V264H602V198H600ZM600 264C600 275.598 609.402 285 621 285V283C610.507 283 602 274.493 602 264H600ZM584 182C592.837 182 600 189.163 600 198H602C602 188.059 593.941 180 584 180V182Z" fill="#53554E"/>
</svg>
