<svg width="24" height="24" viewBox="0 0 24 24" fill="none" xmlns="http://www.w3.org/2000/svg">
<path d="M6.01417 3.9978C3.80516 3.9978 2.01416 5.7888 2.01416 7.9978V15.9978C2.01416 18.2068 3.80516 19.9978 6.01417 19.9978H18.0142C20.2232 19.9978 22.0142 18.2068 22.0142 15.9978V7.9978C22.0142 5.7888 20.2232 3.9978 18.0142 3.9978H6.01417ZM6.01417 5.9978H18.0142C19.0222 5.9978 19.8552 6.73781 19.9932 7.70781C19.0352 8.60081 17.6112 9.6968 16.6702 10.3728C14.5052 11.9278 12.6002 12.9978 12.0142 12.9978C11.4282 12.9978 9.52317 11.9288 7.35816 10.3728C6.41716 9.6968 5.49217 8.9658 4.79517 8.3728C4.49817 8.1198 4.27816 7.9158 4.10816 7.7478C4.24616 6.7778 5.00616 5.9978 6.01417 5.9978ZM4.02417 10.3518C6.56218 12.4048 10.2812 14.9858 12.0142 14.9978C13.1432 15.0058 15.0742 13.9278 17.0442 12.5668C18.0632 11.8618 19.1972 11.0248 20.0152 10.3378L20.0142 15.9978C20.0142 17.1028 19.1192 17.9978 18.0142 17.9978H6.01417C4.90916 17.9978 4.01416 17.1028 4.01416 15.9978L4.02417 10.3518Z" fill="#E8E8E8"/>
</svg>
