<svg width="1440" height="800" viewBox="0 0 1440 800" fill="none" xmlns="http://www.w3.org/2000/svg">
<g clip-path="url(#clip0_235_1037)">
<rect width="1440" height="800" fill="url(#paint0_linear_235_1037)"/>
<g opacity="0.6">
<path opacity="0.1" fill-rule="evenodd" clip-rule="evenodd" d="M197.809 1.20515C198.108 0.894535 198.397 0.573173 198.674 0.241699L261.252 66.991C260.968 67.3198 260.696 67.659 260.436 68.008L197.809 1.20515ZM262.029 91.349L196.889 152.418C197.173 152.742 197.446 153.076 197.706 153.42L262.966 92.2394C262.643 91.9538 262.33 91.6568 262.029 91.349ZM168.215 154.524C167.972 154.899 167.743 155.284 167.528 155.678L103 86.8482C103.337 86.58 103.665 86.2999 103.982 86.0087L168.215 154.524ZM107.11 63.2553L172.576 1.88106C172.261 1.58766 171.956 1.2831 171.663 0.968024L106.38 62.1706C106.636 62.5227 106.88 62.8845 107.11 63.2553Z" fill="#1E2931" fill-opacity="0.9"/>
<path opacity="0.1" fill-rule="evenodd" clip-rule="evenodd" d="M197.809 157.286C198.108 156.975 198.397 156.654 198.674 156.322L261.251 223.071C260.968 223.4 260.696 223.739 260.436 224.088L197.809 157.286ZM262.029 247.43L196.889 308.498C197.173 308.822 197.446 309.157 197.706 309.5L262.966 248.32C262.643 248.034 262.33 247.737 262.029 247.43ZM168.215 310.604C167.972 310.979 167.743 311.364 167.528 311.758L103 242.929C103.337 242.66 103.665 242.38 103.982 242.089L168.215 310.604ZM107.11 219.336L172.576 157.962C172.261 157.668 171.956 157.364 171.663 157.049L106.38 218.251C106.636 218.603 106.88 218.965 107.11 219.336Z" fill="#1E2931" fill-opacity="0.9"/>
<path opacity="0.1" fill-rule="evenodd" clip-rule="evenodd" d="M197.809 313.366C198.108 313.056 198.397 312.734 198.674 312.403L261.251 379.152C260.968 379.481 260.696 379.82 260.436 380.169L197.809 313.366ZM262.029 403.51L196.889 464.579C197.173 464.903 197.446 465.237 197.706 465.581L262.966 404.401C262.643 404.115 262.33 403.818 262.029 403.51ZM168.215 466.685C167.972 467.06 167.743 467.445 167.528 467.839L103 399.009C103.337 398.741 103.665 398.461 103.982 398.17L168.215 466.685ZM107.11 375.416L172.576 314.042C172.261 313.749 171.956 313.444 171.663 313.129L106.38 374.332C106.636 374.684 106.88 375.046 107.11 375.416Z" fill="#1E2931" fill-opacity="0.9"/>
<path opacity="0.1" fill-rule="evenodd" clip-rule="evenodd" d="M197.809 469.447C198.108 469.136 198.397 468.815 198.674 468.483L261.252 535.233C260.968 535.562 260.696 535.901 260.436 536.25L197.809 469.447ZM262.029 559.591L196.889 620.66C197.173 620.984 197.446 621.318 197.706 621.662L262.966 560.481C262.643 560.196 262.33 559.898 262.029 559.591ZM168.215 622.765C167.972 623.141 167.743 623.526 167.528 623.919L103 555.09C103.337 554.822 103.665 554.542 103.982 554.25L168.215 622.765ZM107.11 531.497L172.576 470.123C172.261 469.829 171.956 469.525 171.663 469.21L106.38 530.412C106.636 530.764 106.88 531.126 107.11 531.497Z" fill="#1E2931" fill-opacity="0.9"/>
<path opacity="0.1" fill-rule="evenodd" clip-rule="evenodd" d="M197.809 625.527C198.108 625.217 198.397 624.895 198.674 624.564L261.251 691.313C260.968 691.642 260.696 691.981 260.436 692.33L197.809 625.527ZM262.029 715.671L196.889 776.74C197.173 777.064 197.446 777.398 197.706 777.742L262.966 716.562C262.643 716.276 262.33 715.979 262.029 715.671ZM168.215 778.846C167.972 779.221 167.743 779.606 167.528 780L103 711.17C103.337 710.902 103.665 710.622 103.982 710.331L168.215 778.846ZM107.11 687.577L172.576 626.203C172.261 625.91 171.956 625.605 171.663 625.29L106.38 686.493C106.636 686.845 106.88 687.207 107.11 687.577Z" fill="#1E2931" fill-opacity="0.9"/>
</g>
<g opacity="0.6">
<path opacity="0.1" fill-rule="evenodd" clip-rule="evenodd" d="M395.809 -146.875C396.109 -147.186 396.397 -147.507 396.674 -147.839L459.251 -81.0898C458.968 -80.7609 458.696 -80.4217 458.436 -80.0727L395.809 -146.875ZM460.029 -56.7316L394.889 4.33733C395.173 4.66124 395.446 4.99545 395.706 5.33931L460.966 -55.8412C460.643 -56.1268 460.33 -56.4238 460.029 -56.7316ZM366.215 6.44306C365.972 6.81836 365.743 7.20326 365.528 7.59708L301 -61.2325C301.337 -61.5007 301.665 -61.7807 301.982 -62.072L366.215 6.44306ZM305.11 -84.8254L370.576 -146.2C370.261 -146.493 369.956 -146.797 369.663 -147.113L304.38 -85.9101C304.636 -85.5579 304.88 -85.1961 305.11 -84.8254Z" fill="#1E2931" fill-opacity="0.9"/>
<path opacity="0.1" fill-rule="evenodd" clip-rule="evenodd" d="M395.809 9.20515C396.108 8.89453 396.397 8.57317 396.674 8.2417L459.252 74.991C458.968 75.3198 458.696 75.659 458.436 76.008L395.809 9.20515ZM460.029 99.349L394.889 160.418C395.173 160.742 395.446 161.076 395.706 161.42L460.966 100.239C460.643 99.9538 460.33 99.6568 460.029 99.349ZM366.215 162.524C365.972 162.899 365.743 163.284 365.528 163.678L301 94.8482C301.337 94.58 301.665 94.2999 301.982 94.0087L366.215 162.524ZM305.11 71.2553L370.576 9.88106C370.261 9.58766 369.956 9.2831 369.663 8.96802L304.38 70.1706C304.636 70.5227 304.88 70.8845 305.11 71.2553Z" fill="#1E2931" fill-opacity="0.9"/>
<path opacity="0.1" fill-rule="evenodd" clip-rule="evenodd" d="M395.809 165.286C396.108 164.975 396.397 164.654 396.674 164.322L459.251 231.071C458.968 231.4 458.696 231.739 458.436 232.088L395.809 165.286ZM460.029 255.43L394.889 316.498C395.173 316.822 395.446 317.157 395.706 317.5L460.966 256.32C460.643 256.034 460.33 255.737 460.029 255.43ZM366.215 318.604C365.972 318.979 365.743 319.364 365.528 319.758L301 250.929C301.337 250.66 301.665 250.38 301.982 250.089L366.215 318.604ZM305.11 227.336L370.576 165.962C370.261 165.668 369.956 165.364 369.663 165.049L304.38 226.251C304.636 226.603 304.88 226.965 305.11 227.336Z" fill="#1E2931" fill-opacity="0.9"/>
<path opacity="0.1" fill-rule="evenodd" clip-rule="evenodd" d="M395.809 321.366C396.108 321.056 396.397 320.734 396.674 320.403L459.251 387.152C458.968 387.481 458.696 387.82 458.436 388.169L395.809 321.366ZM460.029 411.51L394.889 472.579C395.173 472.903 395.446 473.237 395.706 473.581L460.966 412.401C460.643 412.115 460.33 411.818 460.029 411.51ZM366.215 474.685C365.972 475.06 365.743 475.445 365.528 475.839L301 407.009C301.337 406.741 301.665 406.461 301.982 406.17L366.215 474.685ZM305.11 383.416L370.576 322.042C370.261 321.749 369.956 321.444 369.663 321.129L304.38 382.332C304.636 382.684 304.88 383.046 305.11 383.416Z" fill="#1E2931" fill-opacity="0.9"/>
<path opacity="0.1" fill-rule="evenodd" clip-rule="evenodd" d="M395.809 477.447C396.108 477.136 396.397 476.815 396.674 476.483L459.252 543.233C458.968 543.562 458.696 543.901 458.436 544.25L395.809 477.447ZM460.029 567.591L394.889 628.66C395.173 628.984 395.446 629.318 395.706 629.662L460.966 568.481C460.643 568.196 460.33 567.898 460.029 567.591ZM366.215 630.765C365.972 631.141 365.743 631.526 365.528 631.919L301 563.09C301.337 562.822 301.665 562.542 301.982 562.25L366.215 630.765ZM305.11 539.497L370.576 478.123C370.261 477.829 369.956 477.525 369.663 477.21L304.38 538.412C304.636 538.764 304.88 539.126 305.11 539.497Z" fill="#1E2931" fill-opacity="0.9"/>
<path opacity="0.1" fill-rule="evenodd" clip-rule="evenodd" d="M395.809 633.527C396.108 633.217 396.397 632.895 396.674 632.564L459.251 699.313C458.968 699.642 458.696 699.981 458.436 700.33L395.809 633.527ZM460.029 723.671L394.889 784.74C395.173 785.064 395.446 785.398 395.706 785.742L460.966 724.562C460.643 724.276 460.33 723.979 460.029 723.671ZM366.215 786.846C365.972 787.221 365.743 787.606 365.528 788L301 719.17C301.337 718.902 301.665 718.622 301.982 718.331L366.215 786.846ZM305.11 695.577L370.576 634.203C370.261 633.91 369.956 633.605 369.663 633.29L304.38 694.493C304.636 694.845 304.88 695.207 305.11 695.577Z" fill="#1E2931" fill-opacity="0.9"/>
</g>
<g opacity="0.6">
<path opacity="0.1" fill-rule="evenodd" clip-rule="evenodd" d="M592.809 -140.875C593.109 -141.186 593.397 -141.507 593.674 -141.839L656.251 -75.0898C655.968 -74.7609 655.696 -74.4217 655.436 -74.0727L592.809 -140.875ZM657.029 -50.7316L591.889 10.3373C592.173 10.6612 592.446 10.9955 592.706 11.3393L657.966 -49.8412C657.643 -50.1268 657.33 -50.4238 657.029 -50.7316ZM563.215 12.4431C562.972 12.8184 562.743 13.2033 562.528 13.5971L498 -55.2325C498.337 -55.5007 498.665 -55.7807 498.982 -56.072L563.215 12.4431ZM502.11 -78.8254L567.576 -140.2C567.261 -140.493 566.956 -140.797 566.663 -141.113L501.38 -79.9101C501.636 -79.5579 501.88 -79.1961 502.11 -78.8254Z" fill="#1E2931" fill-opacity="0.9"/>
<path opacity="0.1" fill-rule="evenodd" clip-rule="evenodd" d="M592.809 15.2051C593.108 14.8945 593.397 14.5732 593.674 14.2417L656.252 80.991C655.968 81.3198 655.696 81.659 655.436 82.008L592.809 15.2051ZM657.029 105.349L591.889 166.418C592.173 166.742 592.446 167.076 592.706 167.42L657.966 106.239C657.643 105.954 657.33 105.657 657.029 105.349ZM563.215 168.524C562.972 168.899 562.743 169.284 562.528 169.678L498 100.848C498.337 100.58 498.665 100.3 498.982 100.009L563.215 168.524ZM502.11 77.2553L567.576 15.8811C567.261 15.5877 566.956 15.2831 566.663 14.968L501.38 76.1706C501.636 76.5227 501.88 76.8845 502.11 77.2553Z" fill="#1E2931" fill-opacity="0.9"/>
<path opacity="0.1" fill-rule="evenodd" clip-rule="evenodd" d="M592.809 171.286C593.108 170.975 593.397 170.654 593.674 170.322L656.251 237.071C655.968 237.4 655.696 237.739 655.436 238.088L592.809 171.286ZM657.029 261.43L591.889 322.498C592.173 322.822 592.446 323.157 592.706 323.5L657.966 262.32C657.643 262.034 657.33 261.737 657.029 261.43ZM563.215 324.604C562.972 324.979 562.743 325.364 562.528 325.758L498 256.929C498.337 256.66 498.665 256.38 498.982 256.089L563.215 324.604ZM502.11 233.336L567.576 171.962C567.261 171.668 566.956 171.364 566.663 171.049L501.38 232.251C501.636 232.603 501.88 232.965 502.11 233.336Z" fill="#1E2931" fill-opacity="0.9"/>
<path opacity="0.1" fill-rule="evenodd" clip-rule="evenodd" d="M592.809 327.366C593.108 327.056 593.397 326.734 593.674 326.403L656.251 393.152C655.968 393.481 655.696 393.82 655.436 394.169L592.809 327.366ZM657.029 417.51L591.889 478.579C592.173 478.903 592.446 479.237 592.706 479.581L657.966 418.401C657.643 418.115 657.33 417.818 657.029 417.51ZM563.215 480.685C562.972 481.06 562.743 481.445 562.528 481.839L498 413.009C498.337 412.741 498.665 412.461 498.982 412.17L563.215 480.685ZM502.11 389.416L567.576 328.042C567.261 327.749 566.956 327.444 566.663 327.129L501.38 388.332C501.636 388.684 501.88 389.046 502.11 389.416Z" fill="#1E2931" fill-opacity="0.9"/>
<path opacity="0.1" fill-rule="evenodd" clip-rule="evenodd" d="M592.809 483.447C593.108 483.136 593.397 482.815 593.674 482.483L656.252 549.233C655.968 549.562 655.696 549.901 655.436 550.25L592.809 483.447ZM657.029 573.591L591.889 634.66C592.173 634.984 592.446 635.318 592.706 635.662L657.966 574.481C657.643 574.196 657.33 573.898 657.029 573.591ZM563.215 636.765C562.972 637.141 562.743 637.526 562.528 637.919L498 569.09C498.337 568.822 498.665 568.542 498.982 568.25L563.215 636.765ZM502.11 545.497L567.576 484.123C567.261 483.829 566.956 483.525 566.663 483.21L501.38 544.412C501.636 544.764 501.88 545.126 502.11 545.497Z" fill="#1E2931" fill-opacity="0.9"/>
<path opacity="0.1" fill-rule="evenodd" clip-rule="evenodd" d="M592.809 639.527C593.108 639.217 593.397 638.895 593.674 638.564L656.251 705.313C655.968 705.642 655.696 705.981 655.436 706.33L592.809 639.527ZM657.029 729.671L591.889 790.74C592.173 791.064 592.446 791.398 592.706 791.742L657.966 730.562C657.643 730.276 657.33 729.979 657.029 729.671ZM563.215 792.846C562.972 793.221 562.743 793.606 562.528 794L498 725.17C498.337 724.902 498.665 724.622 498.982 724.331L563.215 792.846ZM502.11 701.577L567.576 640.203C567.261 639.91 566.956 639.605 566.663 639.29L501.38 700.493C501.636 700.845 501.88 701.207 502.11 701.577Z" fill="#1E2931" fill-opacity="0.9"/>
</g>
<g opacity="0.6">
<path opacity="0.1" fill-rule="evenodd" clip-rule="evenodd" d="M789.809 -134.875C790.109 -135.186 790.397 -135.507 790.674 -135.839L853.251 -69.0898C852.968 -68.7609 852.696 -68.4217 852.436 -68.0727L789.809 -134.875ZM854.029 -44.7316L788.889 16.3373C789.173 16.6612 789.446 16.9955 789.706 17.3393L854.966 -43.8412C854.643 -44.1268 854.33 -44.4238 854.029 -44.7316ZM760.215 18.4431C759.972 18.8184 759.743 19.2033 759.528 19.5971L695 -49.2325C695.337 -49.5007 695.665 -49.7807 695.982 -50.072L760.215 18.4431ZM699.11 -72.8254L764.576 -134.2C764.261 -134.493 763.956 -134.797 763.663 -135.113L698.38 -73.9101C698.636 -73.5579 698.88 -73.1961 699.11 -72.8254Z" fill="#1E2931" fill-opacity="0.9"/>
<path opacity="0.1" fill-rule="evenodd" clip-rule="evenodd" d="M789.809 21.2051C790.108 20.8945 790.397 20.5732 790.674 20.2417L853.252 86.991C852.968 87.3198 852.696 87.659 852.436 88.008L789.809 21.2051ZM854.029 111.349L788.889 172.418C789.173 172.742 789.446 173.076 789.706 173.42L854.966 112.239C854.643 111.954 854.33 111.657 854.029 111.349ZM760.215 174.524C759.972 174.899 759.743 175.284 759.528 175.678L695 106.848C695.337 106.58 695.665 106.3 695.982 106.009L760.215 174.524ZM699.11 83.2553L764.576 21.8811C764.261 21.5877 763.956 21.2831 763.663 20.968L698.38 82.1706C698.636 82.5227 698.88 82.8845 699.11 83.2553Z" fill="#1E2931" fill-opacity="0.9"/>
<path opacity="0.1" fill-rule="evenodd" clip-rule="evenodd" d="M789.809 177.286C790.108 176.975 790.397 176.654 790.674 176.322L853.251 243.071C852.968 243.4 852.696 243.739 852.436 244.088L789.809 177.286ZM854.029 267.43L788.889 328.498C789.173 328.822 789.446 329.157 789.706 329.5L854.966 268.32C854.643 268.034 854.33 267.737 854.029 267.43ZM760.215 330.604C759.972 330.979 759.743 331.364 759.528 331.758L695 262.929C695.337 262.66 695.665 262.38 695.982 262.089L760.215 330.604ZM699.11 239.336L764.576 177.962C764.261 177.668 763.956 177.364 763.663 177.049L698.38 238.251C698.636 238.603 698.88 238.965 699.11 239.336Z" fill="#1E2931" fill-opacity="0.9"/>
<path opacity="0.1" fill-rule="evenodd" clip-rule="evenodd" d="M789.809 333.366C790.108 333.056 790.397 332.734 790.674 332.403L853.251 399.152C852.968 399.481 852.696 399.82 852.436 400.169L789.809 333.366ZM854.029 423.51L788.889 484.579C789.173 484.903 789.446 485.237 789.706 485.581L854.966 424.401C854.643 424.115 854.33 423.818 854.029 423.51ZM760.215 486.685C759.972 487.06 759.743 487.445 759.528 487.839L695 419.009C695.337 418.741 695.665 418.461 695.982 418.17L760.215 486.685ZM699.11 395.416L764.576 334.042C764.261 333.749 763.956 333.444 763.663 333.129L698.38 394.332C698.636 394.684 698.88 395.046 699.11 395.416Z" fill="#1E2931" fill-opacity="0.9"/>
<path opacity="0.1" fill-rule="evenodd" clip-rule="evenodd" d="M789.809 489.447C790.108 489.136 790.397 488.815 790.674 488.483L853.252 555.233C852.968 555.562 852.696 555.901 852.436 556.25L789.809 489.447ZM854.029 579.591L788.889 640.66C789.173 640.984 789.446 641.318 789.706 641.662L854.966 580.481C854.643 580.196 854.33 579.898 854.029 579.591ZM760.215 642.765C759.972 643.141 759.743 643.526 759.528 643.919L695 575.09C695.337 574.822 695.665 574.542 695.982 574.25L760.215 642.765ZM699.11 551.497L764.576 490.123C764.261 489.829 763.956 489.525 763.663 489.21L698.38 550.412C698.636 550.764 698.88 551.126 699.11 551.497Z" fill="#1E2931" fill-opacity="0.9"/>
<path opacity="0.06" fill-rule="evenodd" clip-rule="evenodd" d="M789.809 645.527C790.108 645.217 790.397 644.895 790.674 644.564L853.251 711.313C852.968 711.642 852.696 711.981 852.436 712.33L789.809 645.527ZM854.029 735.671L788.889 796.74C789.173 797.064 789.446 797.398 789.706 797.742L854.966 736.562C854.643 736.276 854.33 735.979 854.029 735.671ZM760.215 798.846C759.972 799.221 759.743 799.606 759.528 800L695 731.17C695.337 730.902 695.665 730.622 695.982 730.331L760.215 798.846ZM699.11 707.577L764.576 646.203C764.261 645.91 763.956 645.605 763.663 645.29L698.38 706.493C698.636 706.845 698.88 707.207 699.11 707.577Z" fill="#1E2931" fill-opacity="0.9"/>
</g>
<g opacity="0.6">
<path opacity="0.1" fill-rule="evenodd" clip-rule="evenodd" d="M986.809 -128.875C987.109 -129.186 987.397 -129.507 987.674 -129.839L1050.25 -63.0898C1049.97 -62.7609 1049.7 -62.4217 1049.44 -62.0727L986.809 -128.875ZM1051.03 -38.7316L985.889 22.3373C986.173 22.6612 986.446 22.9955 986.706 23.3393L1051.97 -37.8412C1051.64 -38.1268 1051.33 -38.4238 1051.03 -38.7316ZM957.215 24.4431C956.972 24.8184 956.743 25.2033 956.528 25.5971L892 -43.2325C892.337 -43.5007 892.665 -43.7807 892.982 -44.072L957.215 24.4431ZM896.11 -66.8254L961.576 -128.2C961.261 -128.493 960.956 -128.797 960.663 -129.113L895.38 -67.9101C895.636 -67.5579 895.88 -67.1961 896.11 -66.8254Z" fill="#1E2931" fill-opacity="0.9"/>
<path opacity="0.1" fill-rule="evenodd" clip-rule="evenodd" d="M986.809 27.2051C987.108 26.8945 987.397 26.5732 987.674 26.2417L1050.25 92.991C1049.97 93.3198 1049.7 93.659 1049.44 94.008L986.809 27.2051ZM1051.03 117.349L985.889 178.418C986.173 178.742 986.446 179.076 986.706 179.42L1051.97 118.239C1051.64 117.954 1051.33 117.657 1051.03 117.349ZM957.215 180.524C956.972 180.899 956.743 181.284 956.528 181.678L892 112.848C892.337 112.58 892.665 112.3 892.982 112.009L957.215 180.524ZM896.11 89.2553L961.576 27.8811C961.261 27.5877 960.956 27.2831 960.663 26.968L895.38 88.1706C895.636 88.5227 895.88 88.8845 896.11 89.2553Z" fill="#1E2931" fill-opacity="0.9"/>
<path opacity="0.1" fill-rule="evenodd" clip-rule="evenodd" d="M986.809 183.286C987.108 182.975 987.397 182.654 987.674 182.322L1050.25 249.071C1049.97 249.4 1049.7 249.739 1049.44 250.088L986.809 183.286ZM1051.03 273.43L985.889 334.498C986.173 334.822 986.446 335.157 986.706 335.5L1051.97 274.32C1051.64 274.034 1051.33 273.737 1051.03 273.43ZM957.215 336.604C956.972 336.979 956.743 337.364 956.528 337.758L892 268.929C892.337 268.66 892.665 268.38 892.982 268.089L957.215 336.604ZM896.11 245.336L961.576 183.962C961.261 183.668 960.956 183.364 960.663 183.049L895.38 244.251C895.636 244.603 895.88 244.965 896.11 245.336Z" fill="#1E2931" fill-opacity="0.9"/>
<path opacity="0.1" fill-rule="evenodd" clip-rule="evenodd" d="M986.809 339.366C987.108 339.056 987.397 338.734 987.674 338.403L1050.25 405.152C1049.97 405.481 1049.7 405.82 1049.44 406.169L986.809 339.366ZM1051.03 429.51L985.889 490.579C986.173 490.903 986.446 491.237 986.706 491.581L1051.97 430.401C1051.64 430.115 1051.33 429.818 1051.03 429.51ZM957.215 492.685C956.972 493.06 956.743 493.445 956.528 493.839L892 425.009C892.337 424.741 892.665 424.461 892.982 424.17L957.215 492.685ZM896.11 401.416L961.576 340.042C961.261 339.749 960.956 339.444 960.663 339.129L895.38 400.332C895.636 400.684 895.88 401.046 896.11 401.416Z" fill="#1E2931" fill-opacity="0.9"/>
<path opacity="0.1" fill-rule="evenodd" clip-rule="evenodd" d="M986.809 495.447C987.108 495.136 987.397 494.815 987.674 494.483L1050.25 561.233C1049.97 561.562 1049.7 561.901 1049.44 562.25L986.809 495.447ZM1051.03 585.591L985.889 646.66C986.173 646.984 986.446 647.318 986.706 647.662L1051.97 586.481C1051.64 586.196 1051.33 585.898 1051.03 585.591ZM957.215 648.765C956.972 649.141 956.743 649.526 956.528 649.919L892 581.09C892.337 580.822 892.665 580.542 892.982 580.25L957.215 648.765ZM896.11 557.497L961.576 496.123C961.261 495.829 960.956 495.525 960.663 495.21L895.38 556.412C895.636 556.764 895.88 557.126 896.11 557.497Z" fill="#1E2931" fill-opacity="0.9"/>
<path opacity="0.1" fill-rule="evenodd" clip-rule="evenodd" d="M986.809 651.527C987.108 651.217 987.397 650.895 987.674 650.564L1050.25 717.313C1049.97 717.642 1049.7 717.981 1049.44 718.33L986.809 651.527ZM1051.03 741.671L985.889 802.74C986.173 803.064 986.446 803.398 986.706 803.742L1051.97 742.562C1051.64 742.276 1051.33 741.979 1051.03 741.671ZM957.215 804.846C956.972 805.221 956.743 805.606 956.528 806L892 737.17C892.337 736.902 892.665 736.622 892.982 736.331L957.215 804.846ZM896.11 713.577L961.576 652.203C961.261 651.91 960.956 651.605 960.663 651.29L895.38 712.493C895.636 712.845 895.88 713.207 896.11 713.577Z" fill="#1E2931" fill-opacity="0.9"/>
</g>
<g opacity="0.6">
<path opacity="0.1" fill-rule="evenodd" clip-rule="evenodd" d="M1170.81 -128.875C1171.11 -129.186 1171.4 -129.507 1171.67 -129.839L1234.25 -63.0898C1233.97 -62.7609 1233.7 -62.4217 1233.44 -62.0727L1170.81 -128.875ZM1235.03 -38.7316L1169.89 22.3373C1170.17 22.6612 1170.45 22.9955 1170.71 23.3393L1235.97 -37.8412C1235.64 -38.1268 1235.33 -38.4238 1235.03 -38.7316ZM1141.21 24.4431C1140.97 24.8184 1140.74 25.2033 1140.53 25.5971L1076 -43.2325C1076.34 -43.5007 1076.66 -43.7807 1076.98 -44.072L1141.21 24.4431ZM1080.11 -66.8254L1145.58 -128.2C1145.26 -128.493 1144.96 -128.797 1144.66 -129.113L1079.38 -67.9101C1079.64 -67.5579 1079.88 -67.1961 1080.11 -66.8254Z" fill="#1E2931" fill-opacity="0.9"/>
<path opacity="0.1" fill-rule="evenodd" clip-rule="evenodd" d="M1170.81 27.2051C1171.11 26.8945 1171.4 26.5732 1171.67 26.2417L1234.25 92.991C1233.97 93.3198 1233.7 93.659 1233.44 94.008L1170.81 27.2051ZM1235.03 117.349L1169.89 178.418C1170.17 178.742 1170.45 179.076 1170.71 179.42L1235.97 118.239C1235.64 117.954 1235.33 117.657 1235.03 117.349ZM1141.21 180.524C1140.97 180.899 1140.74 181.284 1140.53 181.678L1076 112.848C1076.34 112.58 1076.66 112.3 1076.98 112.009L1141.21 180.524ZM1080.11 89.2553L1145.58 27.8811C1145.26 27.5877 1144.96 27.2831 1144.66 26.968L1079.38 88.1706C1079.64 88.5227 1079.88 88.8845 1080.11 89.2553Z" fill="#1E2931" fill-opacity="0.9"/>
<path opacity="0.1" fill-rule="evenodd" clip-rule="evenodd" d="M1170.81 183.286C1171.11 182.975 1171.4 182.654 1171.67 182.322L1234.25 249.071C1233.97 249.4 1233.7 249.739 1233.44 250.088L1170.81 183.286ZM1235.03 273.43L1169.89 334.498C1170.17 334.822 1170.45 335.157 1170.71 335.5L1235.97 274.32C1235.64 274.034 1235.33 273.737 1235.03 273.43ZM1141.21 336.604C1140.97 336.979 1140.74 337.364 1140.53 337.758L1076 268.929C1076.34 268.66 1076.66 268.38 1076.98 268.089L1141.21 336.604ZM1080.11 245.336L1145.58 183.962C1145.26 183.668 1144.96 183.364 1144.66 183.049L1079.38 244.251C1079.64 244.603 1079.88 244.965 1080.11 245.336Z" fill="#1E2931" fill-opacity="0.9"/>
<path opacity="0.1" fill-rule="evenodd" clip-rule="evenodd" d="M1170.81 339.366C1171.11 339.056 1171.4 338.734 1171.67 338.403L1234.25 405.152C1233.97 405.481 1233.7 405.82 1233.44 406.169L1170.81 339.366ZM1235.03 429.51L1169.89 490.579C1170.17 490.903 1170.45 491.237 1170.71 491.581L1235.97 430.401C1235.64 430.115 1235.33 429.818 1235.03 429.51ZM1141.21 492.685C1140.97 493.06 1140.74 493.445 1140.53 493.839L1076 425.009C1076.34 424.741 1076.66 424.461 1076.98 424.17L1141.21 492.685ZM1080.11 401.416L1145.58 340.042C1145.26 339.749 1144.96 339.444 1144.66 339.129L1079.38 400.332C1079.64 400.684 1079.88 401.046 1080.11 401.416Z" fill="#1E2931" fill-opacity="0.9"/>
<path opacity="0.1" fill-rule="evenodd" clip-rule="evenodd" d="M1170.81 495.447C1171.11 495.136 1171.4 494.815 1171.67 494.483L1234.25 561.233C1233.97 561.562 1233.7 561.901 1233.44 562.25L1170.81 495.447ZM1235.03 585.591L1169.89 646.66C1170.17 646.984 1170.45 647.318 1170.71 647.662L1235.97 586.481C1235.64 586.196 1235.33 585.898 1235.03 585.591ZM1141.21 648.765C1140.97 649.141 1140.74 649.526 1140.53 649.919L1076 581.09C1076.34 580.822 1076.66 580.542 1076.98 580.25L1141.21 648.765ZM1080.11 557.497L1145.58 496.123C1145.26 495.829 1144.96 495.525 1144.66 495.21L1079.38 556.412C1079.64 556.764 1079.88 557.126 1080.11 557.497Z" fill="#1E2931" fill-opacity="0.9"/>
<path opacity="0.1" fill-rule="evenodd" clip-rule="evenodd" d="M1170.81 651.527C1171.11 651.217 1171.4 650.895 1171.67 650.564L1234.25 717.313C1233.97 717.642 1233.7 717.981 1233.44 718.33L1170.81 651.527ZM1235.03 741.671L1169.89 802.74C1170.17 803.064 1170.45 803.398 1170.71 803.742L1235.97 742.562C1235.64 742.276 1235.33 741.979 1235.03 741.671ZM1141.21 804.846C1140.97 805.221 1140.74 805.606 1140.53 806L1076 737.17C1076.34 736.902 1076.66 736.622 1076.98 736.331L1141.21 804.846ZM1080.11 713.577L1145.58 652.203C1145.26 651.91 1144.96 651.605 1144.66 651.29L1079.38 712.493C1079.64 712.845 1079.88 713.207 1080.11 713.577Z" fill="#1E2931" fill-opacity="0.9"/>
</g>
<g opacity="0.6">
<path opacity="0.1" fill-rule="evenodd" clip-rule="evenodd" d="M1354.81 -128.875C1355.11 -129.186 1355.4 -129.507 1355.67 -129.839L1418.25 -63.0898C1417.97 -62.7609 1417.7 -62.4217 1417.44 -62.0727L1354.81 -128.875ZM1419.03 -38.7316L1353.89 22.3373C1354.17 22.6612 1354.45 22.9955 1354.71 23.3393L1419.97 -37.8412C1419.64 -38.1268 1419.33 -38.4238 1419.03 -38.7316ZM1325.21 24.4431C1324.97 24.8184 1324.74 25.2033 1324.53 25.5971L1260 -43.2325C1260.34 -43.5007 1260.66 -43.7807 1260.98 -44.072L1325.21 24.4431ZM1264.11 -66.8254L1329.58 -128.2C1329.26 -128.493 1328.96 -128.797 1328.66 -129.113L1263.38 -67.9101C1263.64 -67.5579 1263.88 -67.1961 1264.11 -66.8254Z" fill="#1E2931" fill-opacity="0.9"/>
<path opacity="0.1" fill-rule="evenodd" clip-rule="evenodd" d="M1354.81 27.2051C1355.11 26.8945 1355.4 26.5732 1355.67 26.2417L1418.25 92.991C1417.97 93.3198 1417.7 93.659 1417.44 94.008L1354.81 27.2051ZM1419.03 117.349L1353.89 178.418C1354.17 178.742 1354.45 179.076 1354.71 179.42L1419.97 118.239C1419.64 117.954 1419.33 117.657 1419.03 117.349ZM1325.21 180.524C1324.97 180.899 1324.74 181.284 1324.53 181.678L1260 112.848C1260.34 112.58 1260.66 112.3 1260.98 112.009L1325.21 180.524ZM1264.11 89.2553L1329.58 27.8811C1329.26 27.5877 1328.96 27.2831 1328.66 26.968L1263.38 88.1706C1263.64 88.5227 1263.88 88.8845 1264.11 89.2553Z" fill="#1E2931" fill-opacity="0.9"/>
<path opacity="0.1" fill-rule="evenodd" clip-rule="evenodd" d="M1354.81 183.286C1355.11 182.975 1355.4 182.654 1355.67 182.322L1418.25 249.071C1417.97 249.4 1417.7 249.739 1417.44 250.088L1354.81 183.286ZM1419.03 273.43L1353.89 334.498C1354.17 334.822 1354.45 335.157 1354.71 335.5L1419.97 274.32C1419.64 274.034 1419.33 273.737 1419.03 273.43ZM1325.21 336.604C1324.97 336.979 1324.74 337.364 1324.53 337.758L1260 268.929C1260.34 268.66 1260.66 268.38 1260.98 268.089L1325.21 336.604ZM1264.11 245.336L1329.58 183.962C1329.26 183.668 1328.96 183.364 1328.66 183.049L1263.38 244.251C1263.64 244.603 1263.88 244.965 1264.11 245.336Z" fill="#1E2931" fill-opacity="0.9"/>
<path opacity="0.1" fill-rule="evenodd" clip-rule="evenodd" d="M1354.81 339.366C1355.11 339.056 1355.4 338.734 1355.67 338.403L1418.25 405.152C1417.97 405.481 1417.7 405.82 1417.44 406.169L1354.81 339.366ZM1419.03 429.51L1353.89 490.579C1354.17 490.903 1354.45 491.237 1354.71 491.581L1419.97 430.401C1419.64 430.115 1419.33 429.818 1419.03 429.51ZM1325.21 492.685C1324.97 493.06 1324.74 493.445 1324.53 493.839L1260 425.009C1260.34 424.741 1260.66 424.461 1260.98 424.17L1325.21 492.685ZM1264.11 401.416L1329.58 340.042C1329.26 339.749 1328.96 339.444 1328.66 339.129L1263.38 400.332C1263.64 400.684 1263.88 401.046 1264.11 401.416Z" fill="#1E2931" fill-opacity="0.9"/>
<path opacity="0.1" fill-rule="evenodd" clip-rule="evenodd" d="M1354.81 495.447C1355.11 495.136 1355.4 494.815 1355.67 494.483L1418.25 561.233C1417.97 561.562 1417.7 561.901 1417.44 562.25L1354.81 495.447ZM1419.03 585.591L1353.89 646.66C1354.17 646.984 1354.45 647.318 1354.71 647.662L1419.97 586.481C1419.64 586.196 1419.33 585.898 1419.03 585.591ZM1325.21 648.765C1324.97 649.141 1324.74 649.526 1324.53 649.919L1260 581.09C1260.34 580.822 1260.66 580.542 1260.98 580.25L1325.21 648.765ZM1264.11 557.497L1329.58 496.123C1329.26 495.829 1328.96 495.525 1328.66 495.21L1263.38 556.412C1263.64 556.764 1263.88 557.126 1264.11 557.497Z" fill="#1E2931" fill-opacity="0.9"/>
<path opacity="0.1" fill-rule="evenodd" clip-rule="evenodd" d="M1354.81 651.527C1355.11 651.217 1355.4 650.895 1355.67 650.564L1418.25 717.313C1417.97 717.642 1417.7 717.981 1417.44 718.33L1354.81 651.527ZM1419.03 741.671L1353.89 802.74C1354.17 803.064 1354.45 803.398 1354.71 803.742L1419.97 742.562C1419.64 742.276 1419.33 741.979 1419.03 741.671ZM1325.21 804.846C1324.97 805.221 1324.74 805.606 1324.53 806L1260 737.17C1260.34 736.902 1260.66 736.622 1260.98 736.331L1325.21 804.846ZM1264.11 713.577L1329.58 652.203C1329.26 651.91 1328.96 651.605 1328.66 651.29L1263.38 712.493C1263.64 712.845 1263.88 713.207 1264.11 713.577Z" fill="#1E2931" fill-opacity="0.9"/>
</g>
<g opacity="0.6">
<path opacity="0.1" fill-rule="evenodd" clip-rule="evenodd" d="M-2.19136 -1.79485C-1.89161 -2.10547 -1.60291 -2.42683 -1.32592 -2.7583L61.2515 63.991C60.9679 64.3198 60.6959 64.659 60.4363 65.008L-2.19136 -1.79485ZM62.0289 88.349L-3.11139 149.418C-2.82714 149.742 -2.55433 150.076 -2.29358 150.42L62.9657 89.2394C62.6429 88.9538 62.3304 88.6568 62.0289 88.349ZM-31.7855 151.524C-32.0282 151.899 -32.2574 152.284 -32.4723 152.678L-97 83.8482C-96.6627 83.58 -96.3353 83.2999 -96.0183 83.0087L-31.7855 151.524ZM-92.8902 60.2553L-27.4243 -1.11894C-27.7393 -1.41234 -28.0437 -1.7169 -28.337 -2.03198L-93.6197 59.1706C-93.3638 59.5227 -93.1205 59.8845 -92.8902 60.2553Z" fill="#1E2931" fill-opacity="0.9"/>
<path opacity="0.1" fill-rule="evenodd" clip-rule="evenodd" d="M-2.19126 154.286C-1.8915 153.975 -1.60282 153.654 -1.32582 153.322L61.2514 220.071C60.9678 220.4 60.6959 220.739 60.4363 221.088L-2.19126 154.286ZM62.0288 244.43L-3.11138 305.498C-2.82714 305.822 -2.55432 306.157 -2.29358 306.5L62.9656 245.32C62.6428 245.034 62.3304 244.737 62.0288 244.43ZM-31.7855 307.604C-32.0282 307.979 -32.2574 308.364 -32.4723 308.758L-97 239.929C-96.6627 239.66 -96.3353 239.38 -96.0183 239.089L-31.7855 307.604ZM-92.8902 216.336L-27.4244 154.962C-27.7394 154.668 -28.0438 154.364 -28.3371 154.049L-93.6197 215.251C-93.3638 215.603 -93.1205 215.965 -92.8902 216.336Z" fill="#1E2931" fill-opacity="0.9"/>
<path opacity="0.1" fill-rule="evenodd" clip-rule="evenodd" d="M-2.19126 310.366C-1.89151 310.056 -1.60282 309.734 -1.32583 309.403L61.2514 376.152C60.9678 376.481 60.6959 376.82 60.4363 377.169L-2.19126 310.366ZM62.0288 400.51L-3.11138 461.579C-2.82713 461.903 -2.55432 462.237 -2.29358 462.581L62.9656 401.401C62.6428 401.115 62.3304 400.818 62.0288 400.51ZM-31.7855 463.685C-32.0282 464.06 -32.2574 464.445 -32.4723 464.839L-97 396.009C-96.6627 395.741 -96.3353 395.461 -96.0183 395.17L-31.7855 463.685ZM-92.8902 372.416L-27.4244 311.042C-27.7394 310.749 -28.0438 310.444 -28.3371 310.129L-93.6197 371.332C-93.3638 371.684 -93.1205 372.046 -92.8902 372.416Z" fill="#1E2931" fill-opacity="0.9"/>
<path opacity="0.1" fill-rule="evenodd" clip-rule="evenodd" d="M-2.19135 466.447C-1.8916 466.136 -1.6029 465.815 -1.32591 465.483L61.2515 532.233C60.9679 532.562 60.6959 532.901 60.4363 533.25L-2.19135 466.447ZM62.0289 556.591L-3.11138 617.66C-2.82713 617.984 -2.55432 618.318 -2.29358 618.662L62.9657 557.481C62.6429 557.196 62.3304 556.898 62.0289 556.591ZM-31.7855 619.765C-32.0282 620.141 -32.2574 620.526 -32.4723 620.919L-97 552.09C-96.6627 551.822 -96.3353 551.542 -96.0183 551.25L-31.7855 619.765ZM-92.8901 528.497L-27.4243 467.123C-27.7392 466.829 -28.0437 466.525 -28.337 466.21L-93.6197 527.412C-93.3638 527.764 -93.1204 528.126 -92.8901 528.497Z" fill="#1E2931" fill-opacity="0.9"/>
<path opacity="0.1" fill-rule="evenodd" clip-rule="evenodd" d="M-2.19126 622.527C-1.8915 622.217 -1.60282 621.895 -1.32582 621.564L61.2514 688.313C60.9678 688.642 60.6959 688.981 60.4363 689.33L-2.19126 622.527ZM62.0288 712.671L-3.11138 773.74C-2.82714 774.064 -2.55432 774.398 -2.29358 774.742L62.9656 713.562C62.6428 713.276 62.3304 712.979 62.0288 712.671ZM-31.7855 775.846C-32.0282 776.221 -32.2574 776.606 -32.4723 777L-97 708.17C-96.6627 707.902 -96.3353 707.622 -96.0183 707.331L-31.7855 775.846ZM-92.8902 684.577L-27.4244 623.203C-27.7394 622.91 -28.0438 622.605 -28.3371 622.29L-93.6197 683.493C-93.3638 683.845 -93.1205 684.207 -92.8902 684.577Z" fill="#1E2931" fill-opacity="0.9"/>
</g>
</g>
<defs>
<linearGradient id="paint0_linear_235_1037" x1="0" y1="800" x2="1440" y2="3.43323e-05" gradientUnits="userSpaceOnUse">
<stop stop-color="#558FFF"/>
<stop offset="1" stop-color="#76E7FF"/>
</linearGradient>
<clipPath id="clip0_235_1037">
<rect width="1440" height="800" fill="white"/>
</clipPath>
</defs>
</svg>
