<svg width="432" height="96" viewBox="0 0 432 96" fill="none" xmlns="http://www.w3.org/2000/svg">
<rect width="96" height="96" fill="#EBF8FF"/>
<path d="M21.504 49.386V48.028H23.128L23.632 45.34H25.172L24.668 48.028H26.348L26.852 45.34H28.392L27.888 48.028H29.176V49.386H27.636L27.356 50.87H28.658V52.228H27.104L26.586 55H25.06L25.564 52.228H23.884L23.38 55H21.826L22.344 52.228H20.986V50.87H22.596L22.876 49.386H21.504ZM26.096 49.386H24.416L24.136 50.87H25.816L26.096 49.386ZM30.6226 55V45.34H36.5446V46.754H32.2466V49.302H36.1246V50.702H32.2466V53.6H36.5446V55H30.6226ZM38.0874 55V45.34H41.1954C43.4821 45.34 44.6254 46.1753 44.6254 47.846C44.6254 48.3407 44.4948 48.7747 44.2334 49.148C43.9814 49.5213 43.6408 49.7873 43.2114 49.946C44.3594 50.2727 44.9334 51.0333 44.9334 52.228C44.9334 53.0307 44.6534 53.6933 44.0934 54.216C43.5428 54.7387 42.6794 55 41.5034 55H38.0874ZM41.2094 50.688H39.7114V53.6H41.4054C42.6748 53.6 43.3094 53.1147 43.3094 52.144C43.3094 51.64 43.1368 51.2713 42.7914 51.038C42.4554 50.8047 41.9281 50.688 41.2094 50.688ZM41.0834 46.74H39.7114V49.288H41.2934C42.4321 49.288 43.0014 48.84 43.0014 47.944C43.0014 47.5147 42.8568 47.2067 42.5674 47.02C42.2874 46.8333 41.7928 46.74 41.0834 46.74ZM46.5093 55V45.34H52.4313V46.754H48.1333V49.526H52.0113V50.926H48.1333V55H46.5093ZM53.3328 52.298C53.3328 51.7847 53.4728 51.318 53.7528 50.898C54.0328 50.4687 54.3781 50.1653 54.7888 49.988C54.3968 49.792 54.0794 49.5027 53.8368 49.12C53.5941 48.7373 53.4728 48.322 53.4728 47.874C53.4728 47.0807 53.7668 46.4367 54.3548 45.942C54.9334 45.4567 55.6334 45.214 56.4548 45.214C57.2854 45.214 57.9854 45.4567 58.5548 45.942C59.1428 46.4367 59.4368 47.0807 59.4368 47.874C59.4368 48.322 59.3154 48.7373 59.0728 49.12C58.8301 49.5027 58.5128 49.792 58.1208 49.988C58.5408 50.1653 58.8861 50.4687 59.1568 50.898C59.4368 51.318 59.5768 51.7847 59.5768 52.298C59.5768 53.1473 59.2734 53.8333 58.6668 54.356C58.0694 54.8693 57.3321 55.126 56.4548 55.126C55.5774 55.126 54.8401 54.8693 54.2428 54.356C53.6361 53.8333 53.3328 53.1473 53.3328 52.298ZM54.9568 52.2C54.9568 52.6293 55.0968 52.9933 55.3768 53.292C55.6661 53.5813 56.0254 53.726 56.4548 53.726C56.8748 53.726 57.2294 53.5767 57.5188 53.278C57.8174 52.9793 57.9668 52.62 57.9668 52.2C57.9668 51.752 57.8081 51.388 57.4908 51.108C57.1828 50.828 56.8374 50.688 56.4548 50.688C56.0534 50.688 55.7034 50.8327 55.4048 51.122C55.1061 51.402 54.9568 51.7613 54.9568 52.2ZM57.8268 47.986C57.8268 47.6127 57.6914 47.2953 57.4208 47.034C57.1594 46.7633 56.8374 46.628 56.4548 46.628C56.0721 46.628 55.7454 46.7587 55.4748 47.02C55.2134 47.2813 55.0828 47.6033 55.0828 47.986C55.0828 48.3687 55.2134 48.6953 55.4748 48.966C55.7454 49.2367 56.0721 49.372 56.4548 49.372C56.8374 49.372 57.1594 49.2367 57.4208 48.966C57.6914 48.6953 57.8268 48.3687 57.8268 47.986ZM61.1792 55V45.34H67.1012V46.754H62.8032V49.526H66.6812V50.926H62.8032V55H61.1792ZM68.5347 55V45.34H74.4567V46.754H70.1587V49.526H74.0367V50.926H70.1587V55H68.5347Z" fill="#021D31"/>
<rect x="112" width="96" height="96" fill="#198DFF"/>
<path d="M133.504 47.386V46.028H135.128L135.632 43.34H137.172L136.668 46.028H138.348L138.852 43.34H140.392L139.888 46.028H141.176V47.386H139.636L139.356 48.87H140.658V50.228H139.104L138.586 53H137.06L137.564 50.228H135.884L135.38 53H133.826L134.344 50.228H132.986V48.87H134.596L134.876 47.386H133.504ZM138.096 47.386H136.416L136.136 48.87H137.816L138.096 47.386ZM144.793 43.34H146.319V53H144.695V45.09L143.309 46.042V44.404L144.793 43.34ZM152.835 53H151.071L153.017 48.898C152.774 49.0287 152.466 49.094 152.093 49.094C151.328 49.094 150.702 48.8233 150.217 48.282C149.732 47.7407 149.489 47.0547 149.489 46.224C149.489 45.2813 149.774 44.544 150.343 44.012C150.912 43.48 151.64 43.214 152.527 43.214C153.414 43.214 154.146 43.4753 154.725 43.998C155.294 44.5113 155.579 45.244 155.579 46.196C155.579 46.728 155.318 47.5727 154.795 48.73L152.835 53ZM153.577 47.316C153.829 47.036 153.955 46.658 153.955 46.182C153.955 45.706 153.829 45.328 153.577 45.048C153.325 44.768 152.975 44.628 152.527 44.628C152.088 44.628 151.743 44.768 151.491 45.048C151.239 45.328 151.113 45.706 151.113 46.182C151.113 46.658 151.239 47.036 151.491 47.316C151.743 47.596 152.088 47.736 152.527 47.736C152.975 47.736 153.325 47.596 153.577 47.316ZM156.72 50.298C156.72 49.7847 156.86 49.318 157.14 48.898C157.42 48.4687 157.765 48.1653 158.176 47.988C157.784 47.792 157.466 47.5027 157.224 47.12C156.981 46.7373 156.86 46.322 156.86 45.874C156.86 45.0807 157.154 44.4367 157.742 43.942C158.32 43.4567 159.02 43.214 159.842 43.214C160.672 43.214 161.372 43.4567 161.942 43.942C162.53 44.4367 162.824 45.0807 162.824 45.874C162.824 46.322 162.702 46.7373 162.46 47.12C162.217 47.5027 161.9 47.792 161.508 47.988C161.928 48.1653 162.273 48.4687 162.544 48.898C162.824 49.318 162.964 49.7847 162.964 50.298C162.964 51.1473 162.66 51.8333 162.054 52.356C161.456 52.8693 160.719 53.126 159.842 53.126C158.964 53.126 158.227 52.8693 157.63 52.356C157.023 51.8333 156.72 51.1473 156.72 50.298ZM158.344 50.2C158.344 50.6293 158.484 50.9933 158.764 51.292C159.053 51.5813 159.412 51.726 159.842 51.726C160.262 51.726 160.616 51.5767 160.906 51.278C161.204 50.9793 161.354 50.62 161.354 50.2C161.354 49.752 161.195 49.388 160.878 49.108C160.57 48.828 160.224 48.688 159.842 48.688C159.44 48.688 159.09 48.8327 158.792 49.122C158.493 49.402 158.344 49.7613 158.344 50.2ZM161.214 45.986C161.214 45.6127 161.078 45.2953 160.808 45.034C160.546 44.7633 160.224 44.628 159.842 44.628C159.459 44.628 159.132 44.7587 158.862 45.02C158.6 45.2813 158.47 45.6033 158.47 45.986C158.47 46.3687 158.6 46.6953 158.862 46.966C159.132 47.2367 159.459 47.372 159.842 47.372C160.224 47.372 160.546 47.2367 160.808 46.966C161.078 46.6953 161.214 46.3687 161.214 45.986ZM167.828 53H164.566V43.34H167.828C170.245 43.34 171.454 44.7587 171.454 47.596V48.744C171.454 51.5813 170.245 53 167.828 53ZM166.19 51.6H167.828C168.519 51.6 169.023 51.3713 169.34 50.914C169.667 50.4567 169.83 49.7333 169.83 48.744V47.596C169.83 46.6067 169.667 45.888 169.34 45.44C169.023 44.9827 168.519 44.754 167.828 44.754H166.19V51.6ZM173.193 53V43.34H179.115V44.754H174.817V47.526H178.695V48.926H174.817V53H173.193ZM180.548 53V43.34H186.47V44.754H182.172V47.526H186.05V48.926H182.172V53H180.548Z" fill="#021D31"/>
<rect x="224" width="96" height="96" fill="#FF99AA"/>
<path d="M245.504 47.386V46.028H247.128L247.632 43.34H249.172L248.668 46.028H250.348L250.852 43.34H252.392L251.888 46.028H253.176V47.386H251.636L251.356 48.87H252.658V50.228H251.104L250.586 53H249.06L249.564 50.228H247.884L247.38 53H245.826L246.344 50.228H244.986V48.87H246.596L246.876 47.386H245.504ZM250.096 47.386H248.416L248.136 48.87H249.816L250.096 47.386ZM254.623 53V43.34H260.545V44.754H256.247V47.526H260.125V48.926H256.247V53H254.623ZM261.978 53V43.34H267.9V44.754H263.602V47.526H267.48V48.926H263.602V53H261.978ZM272.232 53H270.468L272.414 48.898C272.171 49.0287 271.863 49.094 271.49 49.094C270.724 49.094 270.099 48.8233 269.614 48.282C269.128 47.7407 268.886 47.0547 268.886 46.224C268.886 45.2813 269.17 44.544 269.74 44.012C270.309 43.48 271.037 43.214 271.924 43.214C272.81 43.214 273.543 43.4753 274.122 43.998C274.691 44.5113 274.976 45.244 274.976 46.196C274.976 46.728 274.714 47.5727 274.192 48.73L272.232 53ZM272.974 47.316C273.226 47.036 273.352 46.658 273.352 46.182C273.352 45.706 273.226 45.328 272.974 45.048C272.722 44.768 272.372 44.628 271.924 44.628C271.485 44.628 271.14 44.768 270.888 45.048C270.636 45.328 270.51 45.706 270.51 46.182C270.51 46.658 270.636 47.036 270.888 47.316C271.14 47.596 271.485 47.736 271.924 47.736C272.372 47.736 272.722 47.596 272.974 47.316ZM279.546 53H277.782L279.728 48.898C279.485 49.0287 279.177 49.094 278.804 49.094C278.039 49.094 277.413 48.8233 276.928 48.282C276.443 47.7407 276.2 47.0547 276.2 46.224C276.2 45.2813 276.485 44.544 277.054 44.012C277.623 43.48 278.351 43.214 279.238 43.214C280.125 43.214 280.857 43.4753 281.436 43.998C282.005 44.5113 282.29 45.244 282.29 46.196C282.29 46.728 282.029 47.5727 281.506 48.73L279.546 53ZM280.288 47.316C280.54 47.036 280.666 46.658 280.666 46.182C280.666 45.706 280.54 45.328 280.288 45.048C280.036 44.768 279.686 44.628 279.238 44.628C278.799 44.628 278.454 44.768 278.202 45.048C277.95 45.328 277.824 45.706 277.824 46.182C277.824 46.658 277.95 47.036 278.202 47.316C278.454 47.596 278.799 47.736 279.238 47.736C279.686 47.736 280.036 47.596 280.288 47.316ZM285.32 50.998L284.662 53H282.926L286.286 43.34H287.826L291.186 53H289.464L288.806 50.998H285.32ZM288.344 49.598L287.056 45.692L285.768 49.598H288.344ZM293.797 50.998L293.139 53H291.403L294.763 43.34H296.303L299.663 53H297.941L297.283 50.998H293.797ZM296.821 49.598L295.533 45.692L294.245 49.598H296.821Z" fill="#021D31"/>
<rect x="336" width="96" height="96" fill="#82F5BC"/>
<path d="M357.504 47.386V46.028H359.128L359.632 43.34H361.172L360.668 46.028H362.348L362.852 43.34H364.392L363.888 46.028H365.176V47.386H363.636L363.356 48.87H364.658V50.228H363.104L362.586 53H361.06L361.564 50.228H359.884L359.38 53H357.826L358.344 50.228H356.986V48.87H358.596L358.876 47.386H357.504ZM362.096 47.386H360.416L360.136 48.87H361.816L362.096 47.386ZM366.091 50.298C366.091 49.7847 366.231 49.318 366.511 48.898C366.791 48.4687 367.136 48.1653 367.547 47.988C367.155 47.792 366.837 47.5027 366.595 47.12C366.352 46.7373 366.231 46.322 366.231 45.874C366.231 45.0807 366.525 44.4367 367.113 43.942C367.691 43.4567 368.391 43.214 369.213 43.214C370.043 43.214 370.743 43.4567 371.313 43.942C371.901 44.4367 372.195 45.0807 372.195 45.874C372.195 46.322 372.073 46.7373 371.831 47.12C371.588 47.5027 371.271 47.792 370.879 47.988C371.299 48.1653 371.644 48.4687 371.915 48.898C372.195 49.318 372.335 49.7847 372.335 50.298C372.335 51.1473 372.031 51.8333 371.425 52.356C370.827 52.8693 370.09 53.126 369.213 53.126C368.335 53.126 367.598 52.8693 367.001 52.356C366.394 51.8333 366.091 51.1473 366.091 50.298ZM367.715 50.2C367.715 50.6293 367.855 50.9933 368.135 51.292C368.424 51.5813 368.783 51.726 369.213 51.726C369.633 51.726 369.987 51.5767 370.277 51.278C370.575 50.9793 370.725 50.62 370.725 50.2C370.725 49.752 370.566 49.388 370.249 49.108C369.941 48.828 369.595 48.688 369.213 48.688C368.811 48.688 368.461 48.8327 368.163 49.122C367.864 49.402 367.715 49.7613 367.715 50.2ZM370.585 45.986C370.585 45.6127 370.449 45.2953 370.179 45.034C369.917 44.7633 369.595 44.628 369.213 44.628C368.83 44.628 368.503 44.7587 368.233 45.02C367.971 45.2813 367.841 45.6033 367.841 45.986C367.841 46.3687 367.971 46.6953 368.233 46.966C368.503 47.2367 368.83 47.372 369.213 47.372C369.595 47.372 369.917 47.2367 370.179 46.966C370.449 46.6953 370.585 46.3687 370.585 45.986ZM375.673 51.6H379.341V53H373.503V51.852L376.821 47.96C377.474 47.2133 377.801 46.5367 377.801 45.93C377.801 45.5193 377.67 45.1973 377.409 44.964C377.157 44.7213 376.83 44.6 376.429 44.6C376.028 44.6 375.701 44.7213 375.449 44.964C375.206 45.1973 375.076 45.5193 375.057 45.93H373.573C373.573 45.1273 373.853 44.474 374.413 43.97C374.973 43.466 375.664 43.214 376.485 43.214C377.334 43.214 378.03 43.4707 378.571 43.984C379.131 44.5067 379.411 45.1647 379.411 45.958C379.411 46.546 379.238 47.1013 378.893 47.624C378.772 47.8107 378.627 48.016 378.459 48.24L377.955 48.87L375.673 51.6ZM381.252 53V43.34H387.174V44.754H382.876V47.526H386.754V48.926H382.876V53H381.252ZM391.197 47.862C390.693 47.862 390.301 48.1 390.021 48.576H388.551V43.34H393.787V44.866H390.133V46.91C390.506 46.5367 391.001 46.35 391.617 46.35C392.429 46.35 393.054 46.6533 393.493 47.26C393.941 47.8573 394.165 48.716 394.165 49.836C394.165 50.9 393.913 51.7167 393.409 52.286C392.914 52.846 392.186 53.126 391.225 53.126C390.422 53.126 389.75 52.8973 389.209 52.44C388.668 51.9827 388.36 51.3713 388.285 50.606H389.881C390.058 51.3433 390.497 51.712 391.197 51.712C392.093 51.712 392.541 51.1053 392.541 49.892C392.541 48.5387 392.093 47.862 391.197 47.862ZM395.921 53V43.34H399.029C401.316 43.34 402.459 44.1753 402.459 45.846C402.459 46.3407 402.329 46.7747 402.067 47.148C401.815 47.5213 401.475 47.7873 401.045 47.946C402.193 48.2727 402.767 49.0333 402.767 50.228C402.767 51.0307 402.487 51.6933 401.927 52.216C401.377 52.7387 400.513 53 399.337 53H395.921ZM399.043 48.688H397.545V51.6H399.239C400.509 51.6 401.143 51.1147 401.143 50.144C401.143 49.64 400.971 49.2713 400.625 49.038C400.289 48.8047 399.762 48.688 399.043 48.688ZM398.917 44.74H397.545V47.288H399.127C400.266 47.288 400.835 46.84 400.835 45.944C400.835 45.5147 400.691 45.2067 400.401 45.02C400.121 44.8333 399.627 44.74 398.917 44.74ZM411.077 46.336H409.509C409.267 45.1973 408.618 44.628 407.563 44.628C406.891 44.628 406.392 44.866 406.065 45.342C405.739 45.8087 405.575 46.546 405.575 47.554V48.786C405.575 50.7367 406.238 51.712 407.563 51.712C408.114 51.712 408.543 51.5767 408.851 51.306C409.159 51.026 409.379 50.592 409.509 50.004H411.063C410.755 52.0853 409.589 53.126 407.563 53.126C406.415 53.126 405.524 52.762 404.889 52.034C404.264 51.306 403.951 50.2233 403.951 48.786V47.554C403.951 46.1167 404.264 45.034 404.889 44.306C405.524 43.578 406.415 43.214 407.563 43.214C408.543 43.214 409.332 43.48 409.929 44.012C410.536 44.5347 410.919 45.3093 411.077 46.336Z" fill="#021D31"/>
</svg>
