<?xml version="1.0" encoding="utf-8"?>
<!-- Generator: Adobe Illustrator 22.1.0, SVG Export Plug-In . SVG Version: 6.00 Build 0)  -->
<svg version="1.1" id="Layer_1" xmlns="http://www.w3.org/2000/svg" xmlns:xlink="http://www.w3.org/1999/xlink" x="0px" y="0px"
	 viewBox="0 0 256 256" style="enable-background:new 0 0 256 256;" xml:space="preserve">
<style type="text/css">
	.st0{fill:#FF9883;}
	.st1{fill:#FFFFFF;}
	.st2{opacity:5.000000e-02;}
	.st3{fill:#538FF4;}
	.st4{fill:#1AAC60;}
	.st5{opacity:0.1;}
	.st6{fill:none;stroke:#434A54;stroke-width:8;stroke-linecap:round;stroke-linejoin:round;stroke-miterlimit:10;}
	.st7{opacity:0.15;}
	.st8{fill:#70716A;}
	.st9{fill:#00CEFF;}
	.st10{fill:#F4D864;}
	.st11{opacity:7.000000e-02;}
	.st12{fill:#434A54;stroke:#434A54;stroke-miterlimit:10;}
	.st13{fill:#434A54;stroke:#434A54;stroke-width:8;stroke-linecap:round;stroke-linejoin:round;stroke-miterlimit:10;}
	.st14{fill:#D5D5D5;}
	.st15{fill:#FFAD76;}
	.st16{opacity:0.15;fill:none;stroke:#434A54;stroke-width:8;stroke-linecap:round;stroke-linejoin:round;stroke-miterlimit:10;}
	.st17{fill:#73BC7A;}
	.st18{fill:#DB5F4B;}
	.st19{fill:#FFD11D;}
	.st20{fill:#F9D49D;}
	.st21{fill:#AF8052;}
	.st22{fill:#BFE6F8;}
	.st23{fill:#D86464;}
	.st24{fill:#EF9354;}
	.st25{fill:#D37F46;}
	.st26{fill:#F3B220;}
	.st27{fill:none;stroke:#01A8EE;stroke-linecap:round;stroke-linejoin:round;stroke-miterlimit:10;}
	.st28{fill:#F4DED3;}
	.st29{fill:#D1B9AC;}
	.st30{fill:none;}
	.st31{fill:none;stroke:#FFFFFF;stroke-width:8;stroke-linecap:round;stroke-linejoin:round;stroke-miterlimit:10;}
	.st32{fill:#E0E0E0;}
	.st33{fill:none;stroke:#434A54;stroke-width:8;stroke-linecap:round;stroke-linejoin:round;}
	.st34{fill:none;stroke:#434A54;stroke-width:8;stroke-linecap:round;stroke-linejoin:round;stroke-dasharray:15.83,15.83;}
	.st35{fill:none;stroke:#434A54;stroke-width:8;stroke-linecap:round;stroke-linejoin:round;stroke-dasharray:15.6504,15.6504;}
	.st36{fill:none;stroke:#434A54;stroke-width:8;stroke-linecap:round;stroke-linejoin:round;stroke-dasharray:18.1434,18.1434;}
	.st37{fill:none;stroke:#434A54;stroke-width:8;stroke-linecap:round;stroke-linejoin:round;stroke-dasharray:12.9369,12.9369;}
	.st38{opacity:0.1;fill:none;stroke:#434A54;stroke-width:8;stroke-linecap:round;stroke-linejoin:round;stroke-miterlimit:10;}
	.st39{opacity:0.15;fill:none;stroke:#000000;stroke-width:8;stroke-linecap:round;stroke-linejoin:round;stroke-miterlimit:10;}
	.st40{fill:#00C2E2;}
	.st41{fill:#D1D1D1;}
	.st42{fill:#A0642E;}
	
		.st43{opacity:7.000000e-02;fill:#434A54;stroke:#434A54;stroke-width:8;stroke-linecap:round;stroke-linejoin:round;stroke-miterlimit:10;}
	.st44{fill:none;stroke:#434A54;stroke-width:8;stroke-linecap:round;stroke-linejoin:round;stroke-dasharray:11.8056,11.8056;}
	.st45{opacity:0.2;}
	.st46{opacity:7.000000e-02;fill:#231F20;}
	.st47{opacity:0.1;fill:#231F20;}
	.st48{opacity:0.8;}
	.st49{fill:#7F7F7A;}
	.st50{fill:#92D392;}
	.st51{fill:#EAEAEA;}
	.st52{fill:#434A54;}
	.st53{opacity:0.15;fill:#231F20;}
</style>
<g>
	<g>
		<path class="st9" d="M86.2,152.6c-6.6,2.4-11.1,8.3-14,14.4c0,3.5-27,3.5-27,0c0,0,2.6-21.5,15.8-26.3
			c13.2-4.8,27.2-3.1,26.3-12.9c-0.2-2.5-0.9-4.9-1.9-7.2c-2.8-7.1-7.7-12.4-7.7-23.9c0-15.4,6.3-23.6,17.5-23.6
			c5.6,0,10.5,2.3,14,5.6c-3.2,4-5.1,9.7-5.1,17.8c0,8.3,2.1,14.7,4.5,20.4c1.7,4,3.6,7.6,5,11.1c1.2,2.9,2,5.8,2.3,8.9
			c0,0.1,0,0.2,0,0.3C116.8,148.9,102.2,146.8,86.2,152.6z"/>
		<path class="st9" d="M189,184.8c0,8.8-122.1,8.8-122.1,0c0,0,1.1-9.1,5.3-17.7c2.9-6.1,7.4-12,14-14.4
			c15.9-5.8,30.5-3.8,29.7-15.5c0-0.1,0-0.2,0-0.3c-0.3-3-1.2-5.9-2.3-8.9c-1.4-3.5-3.3-7.2-5-11.1c-2.4-5.7-4.5-12.2-4.5-20.4
			c0-8,1.9-13.8,5.1-17.8c4.3-5.3,11-7.4,18.8-7.4c7.8,0,14.5,2.1,18.8,7.4c3.2,4,5.1,9.7,5.1,17.8c0,8.2-2.1,14.7-4.5,20.4
			c-1.7,4-3.6,7.6-5,11.2c-1.2,2.9-2,5.8-2.3,8.9c0,0.1,0,0.2,0,0.3c-0.8,11.7,13.8,9.6,29.7,15.5c6.6,2.4,11.1,8.3,14,14.4
			C187.9,175.7,189,184.8,189,184.8z"/>
		<path class="st9" d="M210.7,167c0,3.5-27,3.5-27,0c-2.9-6.1-7.4-12-14-14.4c-15.9-5.8-30.5-3.8-29.7-15.5c0-0.1,0-0.2,0-0.3
			c0.3-3,1.2-5.9,2.3-8.9c1.4-3.6,3.3-7.2,5-11.2c2.4-5.7,4.5-12.2,4.5-20.4c0-8-1.9-13.8-5.1-17.8c3.5-3.3,8.4-5.6,14-5.6
			c11.2,0,17.5,8.3,17.5,23.6c0,11.5-4.9,16.8-7.7,23.9c-1,2.4-1.7,4.8-1.9,7.2c-0.9,9.9,13.2,8.1,26.3,12.9
			C208.1,145.6,210.7,167,210.7,167z"/>
		<path class="st5" d="M128,71.2c7.8,0,14.5,2.1,18.8,7.4c3.2,4,5.1,9.7,5.1,17.8c0,8.2-2.1,14.7-4.5,20.4c-1.7,4-3.6,7.6-5,11.2
			c-1.2,2.9-2,5.8-2.3,8.9c0,0.1,0,0.2,0,0.3c-0.8,11.7,13.8,9.6,29.7,15.5c6.6,2.4,11.1,8.3,14,14.4c4.2,8.7,5.3,17.7,5.3,17.7
			c0,8.8-122.1,8.8-122.1,0c0,0,0.4-3,1.5-7.2c0,0,14.9,2.5,22.9,2.8s75-0.8,80.2-1.5s0.2-13.8-8.8-15.5s-24.4-4.1-30.2-14.2
			s-2.4-19.4,2.2-30.6s9.1-24.6,6.4-32.6S128,71.2,128,71.2z"/>
		<path class="st5" d="M58.7,169.7c6.7,0,13.5-0.9,13.5-2.6c2.9-6.1,7.4-12,14-14.4c15.9-5.8,30.5-3.8,29.7-15.5c0-0.1,0-0.2,0-0.3
			c-0.3-3-1.2-5.9-2.3-8.9c-1.4-3.6-3.3-7.2-5-11.2c-2.4-5.7-4.5-12.2-4.5-20.4c0-8,1.9-13.8,5.1-17.8c-3.5-3.3-3.5-5.3-9.1-5.3
			c0,0-7.2,8.7-6.2,25.5s14.1,29.8,11,37.2s-17.2,5-26.9,11.5S58.7,169.7,58.7,169.7z"/>
		<path class="st5" d="M197.3,169.7c-6.7,0-13.5-0.9-13.5-2.6c-2.9-6.1-7.4-12-14-14.4c-15.9-5.8-30.5-3.8-29.7-15.5
			c0-0.1,0-0.2,0-0.3c0.3-3,1.2-5.9,2.3-8.9c1.4-3.6,3.3-7.2,5-11.2c2.4-5.7,4.5-12.2,4.5-20.4c0-8-1.9-13.8-5.1-17.8
			c3.5-3.3,3.5-5.3,9.1-5.3c0,0,7.2,8.7,6.2,25.5s-14.1,29.8-11,37.2s17.2,5,26.9,11.5S197.3,169.7,197.3,169.7z"/>
		<path class="st6" d="M86.2,152.6c-6.6,2.4-11.1,8.3-14,14.4c0,3.5-27,3.5-27,0c0,0,2.6-21.5,15.8-26.3
			c13.2-4.8,27.2-3.1,26.3-12.9c-0.2-2.5-0.9-4.9-1.9-7.2c-2.8-7.1-7.7-12.4-7.7-23.9c0-15.4,6.3-23.6,17.5-23.6
			c5.6,0,10.5,2.3,14,5.6c-3.2,4-5.1,9.7-5.1,17.8c0,8.3,2.1,14.7,4.5,20.4c1.7,4,3.6,7.6,5,11.1c1.2,2.9,2,5.8,2.3,8.9
			c0,0.1,0,0.2,0,0.3C116.8,148.9,102.2,146.8,86.2,152.6z"/>
		<path class="st6" d="M189,184.8c0,8.8-122.1,8.8-122.1,0c0,0,1.1-9.1,5.3-17.7c2.9-6.1,7.4-12,14-14.4
			c15.9-5.8,30.5-3.8,29.7-15.5c0-0.1,0-0.2,0-0.3c-0.3-3-1.2-5.9-2.3-8.9c-1.4-3.5-3.3-7.2-5-11.1c-2.4-5.7-4.5-12.2-4.5-20.4
			c0-8,1.9-13.8,5.1-17.8c4.3-5.3,11-7.4,18.8-7.4c7.8,0,14.5,2.1,18.8,7.4c3.2,4,5.1,9.7,5.1,17.8c0,8.2-2.1,14.7-4.5,20.4
			c-1.7,4-3.6,7.6-5,11.2c-1.2,2.9-2,5.8-2.3,8.9c0,0.1,0,0.2,0,0.3c-0.8,11.7,13.8,9.6,29.7,15.5c6.6,2.4,11.1,8.3,14,14.4
			C187.9,175.7,189,184.8,189,184.8z"/>
		<path class="st6" d="M210.7,167c0,3.5-27,3.5-27,0c-2.9-6.1-7.4-12-14-14.4c-15.9-5.8-30.5-3.8-29.7-15.5c0-0.1,0-0.2,0-0.3
			c0.3-3,1.2-5.9,2.3-8.9c1.4-3.6,3.3-7.2,5-11.2c2.4-5.7,4.5-12.2,4.5-20.4c0-8-1.9-13.8-5.1-17.8c3.5-3.3,8.4-5.6,14-5.6
			c11.2,0,17.5,8.3,17.5,23.6c0,11.5-4.9,16.8-7.7,23.9c-1,2.4-1.7,4.8-1.9,7.2c-0.9,9.9,13.2,8.1,26.3,12.9
			C208.1,145.6,210.7,167,210.7,167z"/>
		<g>
			<path class="st6" d="M128,13.3C64.6,13.3,13.3,64.6,13.3,128c0,63.4,51.4,114.7,114.7,114.7S242.7,191.4,242.7,128
				C242.7,64.6,191.4,13.3,128,13.3z"/>
			<line class="st6" x1="252" y1="128" x2="223.9" y2="128"/>
			<line class="st6" x1="32.1" y1="128" x2="4" y2="128"/>
			<line class="st6" x1="128" y1="252" x2="128" y2="223.9"/>
			<line class="st6" x1="128" y1="32.1" x2="128" y2="4"/>
		</g>
	</g>
</g>
</svg>
