<svg width="43" height="41" viewBox="0 0 43 41" fill="none" xmlns="http://www.w3.org/2000/svg">
<path d="M34.9128 31.1125C34.8027 31.647 34.6839 32.1816 34.5459 32.7154L34.3926 33.3092L33.8145 33.5139C33.3827 33.6667 32.9493 33.8067 32.5151 33.9403C36.8377 36.9196 40.1781 38.3278 42.6353 38.2201L42.4737 34.5333C40.7483 34.6089 38.0159 33.2301 34.9128 31.1125Z" fill="#47B26B"/>
<path d="M0.000317369 1.79495C0.205349 4.09768 1.63871 8.95277 2.28226 10.0921L3.66335 12.5372L0.962665 11.7686C0.933248 11.7602 0.90422 11.752 0.875209 11.7442C1.49783 13.6456 3.00489 16.567 4.48477 18.3173L6.65813 20.8879L3.36512 20.1903C3.34578 20.1863 3.3269 20.1823 3.30802 20.1785C4.957 22.5611 7.98973 25.0015 9.14365 25.93C9.30616 26.0607 9.44303 26.171 9.54917 26.2585L12.0123 28.2875L8.9089 28.3016C13.7145 32.0435 21.482 34.3167 30.1253 32.2092C30.8979 32.0209 31.6766 31.801 32.4617 31.5405C32.6121 30.9064 32.7402 30.2722 32.8482 29.6383C33.19 27.6333 33.3203 25.6333 33.2341 23.6661C32.9373 16.8939 30.1361 11.5947 27.174 8.37453L27.3962 11.4189L25.195 9.17876C25.0986 9.08068 24.9767 8.95376 24.8322 8.80324C23.8065 7.73519 21.11 4.92735 18.5923 3.49312C18.5979 3.51158 18.6036 3.53027 18.609 3.54897L19.5921 6.76824L16.8412 4.8281C14.9718 3.50956 11.9214 2.26225 9.97761 1.80745C9.98781 1.83537 9.99856 1.8638 10.0095 1.89215L11.0111 4.51509L8.45485 3.35364C6.99374 2.68922 1.98691 1.81012 0.000317369 1.79495Z" fill="#47B26B"/>
<path d="M18.8405 16.5445L18.8288 20.0585C18.8251 21.1785 18.5004 21.994 17.8547 22.5052C17.2183 23.0165 16.3821 23.2704 15.3462 23.2669C14.3102 23.2635 13.4757 23.0041 12.8427 22.4886C12.2004 21.9732 11.8811 21.1554 11.8848 20.0354L11.8964 16.5355C11.9036 14.3888 13.0644 13.3193 15.3791 13.327C17.6938 13.3347 18.8475 14.4072 18.8405 16.5445ZM14.2056 16.8091L14.1957 19.7771C14.1939 20.3278 14.2812 20.7247 14.4578 20.968C14.6343 21.2112 14.9326 21.3336 15.3526 21.3349C15.7632 21.3363 16.0576 21.2159 16.2358 20.9739C16.4139 20.7225 16.5039 20.3261 16.5057 19.7848L16.5155 16.8168C16.5173 16.2754 16.43 15.8832 16.2534 15.6399C16.0769 15.3873 15.7834 15.2603 15.3727 15.259C14.9527 15.2576 14.6536 15.3779 14.4755 15.62C14.2974 15.8621 14.2074 16.2585 14.2056 16.8091ZM23.2524 18.3651C22.8698 18.3638 22.5843 18.6009 22.3961 19.0763L20.3101 19.0694L20.3286 13.4834L26.1106 13.5026L26.1038 15.5465L22.6038 15.5349L22.5997 16.7669C22.9834 16.4695 23.4412 16.3217 23.9732 16.3235C24.7199 16.326 25.3162 16.6266 25.7622 17.2254C26.2176 17.8149 26.4435 18.6557 26.4399 19.7477C26.4359 20.9517 26.1716 21.8468 25.647 22.4331C25.1317 23.01 24.3514 23.2968 23.3061 23.2933C22.4101 23.2903 21.6502 23.0592 21.0264 22.5998C20.4119 22.1404 20.0642 21.4579 19.9832 20.5523L22.2791 20.5599C22.3987 21.0923 22.7198 21.3594 23.2425 21.3611C23.8212 21.363 24.1121 20.8693 24.1154 19.88C24.1188 18.872 23.8311 18.367 23.2524 18.3651Z" fill="white"/>
</svg>
