<svg width="43" height="41" viewBox="0 0 43 41" fill="none" xmlns="http://www.w3.org/2000/svg">
<path d="M34.9133 31.1125C34.8032 31.647 34.6844 32.1816 34.5464 32.7154L34.393 33.3092L33.815 33.5139C33.3832 33.6667 32.9498 33.8067 32.5156 33.9403C36.8382 36.9196 40.1786 38.3278 42.6358 38.2201L42.4742 34.5333C40.7488 34.6089 38.0163 33.2301 34.9133 31.1125Z" fill="#47B26B"/>
<path d="M-0.000170912 1.79495C0.204861 4.09768 1.63822 8.95277 2.28177 10.0921L3.66286 12.5372L0.962177 11.7686C0.93276 11.7602 0.903732 11.752 0.874721 11.7442C1.49735 13.6456 3.00441 16.567 4.48428 18.3173L6.65764 20.8879L3.36463 20.1903C3.3453 20.1863 3.32641 20.1823 3.30753 20.1785C4.95651 22.5611 7.98924 25.0015 9.14316 25.93C9.30567 26.0607 9.44254 26.171 9.54868 26.2585L12.0119 28.2875L8.90841 28.3016C13.714 32.0435 21.4815 34.3167 30.1248 32.2092C30.8974 32.0209 31.6761 31.801 32.4612 31.5405C32.6116 30.9064 32.7397 30.2722 32.8477 29.6383C33.1895 27.6333 33.3198 25.6333 33.2336 23.6661C32.9368 16.8939 30.1357 11.5947 27.1736 8.37453L27.3957 11.4189L25.1945 9.17876C25.0981 9.08068 24.9762 8.95376 24.8317 8.80324C23.806 7.73519 21.1095 4.92735 18.5918 3.49312C18.5974 3.51158 18.6031 3.53027 18.6085 3.54897L19.5916 6.76824L16.8407 4.8281C14.9713 3.50956 11.9209 2.26225 9.97712 1.80745C9.98732 1.83537 9.99807 1.8638 10.009 1.89215L11.0107 4.51509L8.45437 3.35364C6.99325 2.68922 1.98643 1.81012 -0.000170912 1.79495Z" fill="#47B26B"/>
<path d="M18.84 16.5445L18.8283 20.0585C18.8246 21.1785 18.4999 21.994 17.8542 22.5052C17.2178 23.0165 16.3817 23.2704 15.3457 23.2669C14.3097 23.2635 13.4752 23.0041 12.8422 22.4886C12.1999 21.9732 11.8806 21.1554 11.8844 20.0354L11.896 16.5355C11.9031 14.3888 13.064 13.3193 15.3786 13.327C17.6933 13.3347 18.8471 14.4072 18.84 16.5445ZM14.2051 16.8091L14.1952 19.7771C14.1934 20.3278 14.2808 20.7247 14.4573 20.968C14.6338 21.2112 14.9321 21.3336 15.3521 21.3349C15.7627 21.3363 16.0571 21.2159 16.2353 20.9739C16.4134 20.7225 16.5034 20.3261 16.5052 19.7848L16.5151 16.8168C16.5168 16.2754 16.4295 15.8832 16.253 15.6399C16.0765 15.3873 15.7829 15.2603 15.3722 15.259C14.9522 15.2576 14.6531 15.3779 14.475 15.62C14.2969 15.8621 14.2069 16.2585 14.2051 16.8091ZM22.8014 19.1336L22.0454 19.1311L22.0518 17.1991L22.8078 17.2016C23.1345 17.2027 23.4007 17.1196 23.6066 16.9523C23.8219 16.7757 23.93 16.5287 23.9311 16.2113C23.9321 15.9127 23.8395 15.679 23.6534 15.5104C23.4673 15.3418 23.2202 15.257 22.9122 15.256C22.3522 15.2541 22.0106 15.5376 21.8874 16.1066L19.8854 16.0999C19.9254 15.3067 20.2449 14.6498 20.844 14.1291C21.4524 13.6085 22.1906 13.3496 23.0586 13.3524C23.9639 13.3554 24.719 13.6286 25.3238 14.172C25.9381 14.7153 26.2439 15.351 26.2415 16.079C26.2386 16.975 25.8163 17.6643 24.9747 18.1468C25.9063 18.6539 26.3705 19.4161 26.3671 20.4334C26.3644 21.2641 26.0821 21.9538 25.5202 22.5027C24.9585 23.0328 24.1643 23.2962 23.1376 23.2928C22.1109 23.2894 21.2951 23.03 20.6902 22.5146C20.0852 21.9993 19.7655 21.3169 19.731 20.4675L21.7329 20.4741C21.8243 21.0624 22.234 21.3578 22.962 21.3602C23.3073 21.3613 23.5737 21.2642 23.761 21.0688C23.9577 20.8641 24.0566 20.5938 24.0577 20.2578C24.0601 19.5111 23.6414 19.1364 22.8014 19.1336Z" fill="white"/>
</svg>
