<svg width="20" height="21" viewBox="0 0 20 21" fill="none" xmlns="http://www.w3.org/2000/svg">
<path fill-rule="evenodd" clip-rule="evenodd" d="M5.22007 15.28C5.3607 15.4205 5.55132 15.4993 5.75007 15.4993C5.94882 15.4993 6.13945 15.4205 6.28007 15.28L13.5001 8.06V13.75C13.5001 13.9489 13.5791 14.1397 13.7197 14.2803C13.8604 14.421 14.0512 14.5 14.2501 14.5C14.449 14.5 14.6397 14.421 14.7804 14.2803C14.9211 14.1397 15.0001 13.9489 15.0001 13.75V6.25C15.0001 6.05109 14.9211 5.86032 14.7804 5.71967C14.6397 5.57902 14.449 5.5 14.2501 5.5H6.75007C6.55116 5.5 6.36039 5.57902 6.21974 5.71967C6.07909 5.86032 6.00007 6.05109 6.00007 6.25C6.00007 6.44891 6.07909 6.63968 6.21974 6.78033C6.36039 6.92098 6.55116 7 6.75007 7H12.4401L5.22007 14.22C5.07962 14.3606 5.00073 14.5512 5.00073 14.75C5.00073 14.9488 5.07962 15.1394 5.22007 15.28V15.28Z" fill="white"/>
</svg>
