<svg width="301" height="301" viewBox="0 0 301 301" fill="none" xmlns="http://www.w3.org/2000/svg">
<path d="M119.166 25.2793H128.807V34.9207H119.166V25.2793Z" fill="#021D31" fill-opacity="0.5"/>
<path d="M273.31 222.752C273.31 192.534 249.971 167.666 220.341 165.197V44.5033H177.014V25.2793H152.499C150.206 11.6402 138.272 1.17578 123.986 1.17578C109.7 1.17578 97.766 11.5814 95.4732 25.2793H71.017V44.5621H27.6895V299.824H220.341V280.306C249.971 277.837 273.31 253.028 273.31 222.752ZM80.6584 34.9207H104.762V30.1C104.762 19.4592 113.404 10.8172 124.045 10.8172C134.686 10.8172 143.328 19.4592 143.328 30.1V34.9207H167.431V63.8449H80.6584V34.9207ZM37.3309 290.183V54.1447H71.0758V73.4275H177.072V54.1447H210.817V165.197C198.119 166.255 186.596 171.429 177.543 179.424H109.583V189.066H168.724C161.846 198.589 157.79 210.171 157.79 222.811C157.79 229.571 159.024 236.038 161.141 242.093H109.583V251.735H165.55C174.78 267.667 191.417 278.778 210.7 280.365V290.242H37.3309V290.183ZM215.521 270.9C188.948 270.9 167.372 249.266 167.372 222.752C167.372 196.238 189.007 174.604 215.521 174.604C242.034 174.604 263.669 196.238 263.669 222.752C263.669 249.266 242.093 270.9 215.521 270.9V270.9Z" fill="#021D31" fill-opacity="0.5"/>
<path d="M205.879 235.215L194.827 224.163L188.066 230.982L205.879 248.854L247.855 206.879L241.035 200.059L205.879 235.215ZM51.7344 136.038H90.2412V97.5311H51.7344V136.038ZM61.3758 107.172H80.6586V126.397H61.3758V107.172V107.172ZM109.583 111.993H196.297V121.635H109.583V111.993ZM51.7344 203.469H90.2412V164.962H51.7344V203.469ZM61.3758 174.604H80.6586V193.886H61.3758V174.604V174.604ZM51.7344 266.079H90.2412V227.572H51.7344V266.079ZM61.3758 237.214H80.6586V256.497H61.3758V237.214V237.214Z" fill="#021D31" fill-opacity="0.5"/>
</svg>
