<svg width="274" height="36" viewBox="0 0 274 36" fill="none" xmlns="http://www.w3.org/2000/svg">
<path d="M0.168 31.928V6.584C0.168 5.432 0.472 4.552 1.08 3.944C1.72 3.304 2.616 2.984 3.768 2.984H15.144C18.44 2.984 21.048 3.976 22.968 5.96C24.92 7.912 25.896 10.36 25.896 13.304C25.896 16.216 24.92 18.648 22.968 20.6C21.048 22.552 18.44 23.528 15.144 23.528H6.984V31.928C6.984 32.856 6.648 33.656 5.976 34.328C5.336 35 4.552 35.336 3.624 35.336C2.664 35.336 1.848 35 1.176 34.328C0.504 33.656 0.168 32.856 0.168 31.928ZM14.232 8.84H6.984V17.672H14.232C15.608 17.672 16.728 17.272 17.592 16.472C18.488 15.64 18.936 14.568 18.936 13.256C18.936 11.944 18.488 10.888 17.592 10.088C16.696 9.256 15.576 8.84 14.232 8.84ZM43.2251 12.152C43.7051 12.664 43.9451 13.32 43.9451 14.12C43.9451 14.92 43.6891 15.592 43.1771 16.136C42.6651 16.68 41.9611 17.016 41.0651 17.144C40.1371 17.24 39.1771 17.528 38.1851 18.008C37.2251 18.488 36.5211 19.048 36.0731 19.688V32.264C36.0731 33.096 35.7691 33.816 35.1611 34.424C34.5851 35.032 33.8811 35.336 33.0491 35.336C32.1851 35.336 31.4491 35.032 30.8411 34.424C30.2651 33.816 29.9771 33.096 29.9771 32.264V14.6C29.9771 13.736 30.2651 13 30.8411 12.392C31.4491 11.784 32.1691 11.48 33.0011 11.48C33.8651 11.48 34.6011 11.784 35.2091 12.392C35.8171 12.968 36.1211 13.688 36.1211 14.552L36.0731 14.984C37.2891 13.352 38.5531 12.28 39.8651 11.768C40.5371 11.512 41.0491 11.384 41.4011 11.384C42.1691 11.384 42.7771 11.64 43.2251 12.152ZM45.786 23.384C45.786 19.96 46.906 17.08 49.146 14.744C51.418 12.408 54.378 11.24 58.026 11.24C61.706 11.24 64.666 12.408 66.906 14.744C69.178 17.08 70.314 19.96 70.314 23.384C70.314 26.84 69.178 29.736 66.906 32.072C64.666 34.408 61.706 35.576 58.026 35.576C54.346 35.576 51.386 34.408 49.146 32.072C46.906 29.736 45.786 26.84 45.786 23.384ZM63.978 23.384C63.978 21.464 63.434 19.864 62.346 18.584C61.258 17.304 59.818 16.664 58.026 16.664C56.234 16.664 54.794 17.304 53.706 18.584C52.65 19.832 52.122 21.432 52.122 23.384C52.122 25.336 52.65 26.952 53.706 28.232C54.794 29.512 56.234 30.152 58.026 30.152C59.818 30.152 61.258 29.512 62.346 28.232C63.434 26.952 63.978 25.336 63.978 23.384ZM93.4853 32.552C93.4853 33.288 93.2133 33.944 92.6693 34.52C92.1573 35.064 91.5013 35.336 90.7013 35.336C89.7093 35.336 89.0053 35.032 88.5893 34.424L82.6853 27.128L76.8773 34.328C76.3333 35 75.6293 35.336 74.7653 35.336C73.9653 35.336 73.2933 35.064 72.7493 34.52C72.2373 33.944 71.9813 33.288 71.9813 32.552C71.9813 31.816 72.2213 31.208 72.7013 30.728L79.1333 23L73.1333 16.136C72.6533 15.592 72.4133 14.984 72.4133 14.312C72.4133 13.544 72.6853 12.888 73.2293 12.344C73.8053 11.768 74.4773 11.48 75.2453 11.48C76.1413 11.48 76.8293 11.784 77.3093 12.392L82.7333 18.872L88.1573 12.392C88.5733 11.784 89.2613 11.48 90.2213 11.48C90.9893 11.48 91.6453 11.768 92.1893 12.344C92.7653 12.888 93.0533 13.544 93.0533 14.312C93.0533 14.984 92.8133 15.592 92.3333 16.136L86.3333 23L92.7653 30.728C93.2453 31.272 93.4853 31.88 93.4853 32.552ZM98.1435 6.968C97.4395 6.232 97.0875 5.368 97.0875 4.376C97.0875 3.384 97.4395 2.536 98.1435 1.832C98.8795 1.096 99.7435 0.727998 100.736 0.727998C101.76 0.727998 102.624 1.08 103.328 1.784C104.032 2.488 104.384 3.352 104.384 4.376C104.384 5.368 104.032 6.232 103.328 6.968C102.624 7.672 101.76 8.024 100.736 8.024C99.7435 8.024 98.8795 7.672 98.1435 6.968ZM97.7115 32.264V14.552C97.7115 13.72 97.9995 13 98.5755 12.392C99.1835 11.784 99.9195 11.48 100.784 11.48C101.616 11.48 102.32 11.784 102.896 12.392C103.504 13 103.808 13.72 103.808 14.552V32.264C103.808 33.096 103.504 33.816 102.896 34.424C102.288 35.032 101.568 35.336 100.736 35.336C99.9035 35.336 99.1835 35.032 98.5755 34.424C97.9995 33.816 97.7115 33.096 97.7115 32.264ZM144.748 18.248V32.264C144.748 33.096 144.444 33.816 143.836 34.424C143.228 35.032 142.508 35.336 141.676 35.336C140.844 35.336 140.124 35.032 139.516 34.424C138.908 33.816 138.604 33.096 138.604 32.264V20.36C138.604 17.896 137.452 16.664 135.148 16.664C133.26 16.664 131.66 17.56 130.348 19.352V32.264C130.348 33.096 130.044 33.816 129.436 34.424C128.828 35.032 128.108 35.336 127.276 35.336C126.444 35.336 125.724 35.032 125.116 34.424C124.508 33.816 124.204 33.096 124.204 32.264V20.36C124.204 17.896 123.052 16.664 120.748 16.664C119.82 16.664 118.924 16.936 118.06 17.48C117.196 17.992 116.492 18.632 115.948 19.4V32.264C115.948 33.096 115.644 33.816 115.036 34.424C114.46 35.032 113.756 35.336 112.924 35.336C112.06 35.336 111.324 35.032 110.716 34.424C110.14 33.816 109.852 33.096 109.852 32.264V14.552C109.852 13.688 110.14 12.952 110.716 12.344C111.324 11.736 112.044 11.432 112.876 11.432C113.74 11.432 114.476 11.736 115.084 12.344C115.692 12.952 115.996 13.688 115.996 14.552V14.792C116.636 13.96 117.644 13.16 119.02 12.392C120.428 11.624 121.932 11.24 123.532 11.24C126.86 11.24 129.004 12.648 129.964 15.464C130.732 14.28 131.852 13.288 133.324 12.488C134.796 11.656 136.332 11.24 137.932 11.24C140.14 11.24 141.82 11.832 142.972 13.016C144.156 14.2 144.748 15.944 144.748 18.248ZM170.743 20.024V32.168C170.743 33.032 170.439 33.784 169.831 34.424C169.255 35.032 168.535 35.336 167.671 35.336C166.903 35.336 166.215 35.08 165.607 34.568C165.031 34.056 164.695 33.4 164.599 32.6C162.967 34.584 160.535 35.576 157.303 35.576C155.191 35.576 153.319 34.888 151.687 33.512C150.055 32.136 149.239 30.264 149.239 27.896C149.239 25.496 150.039 23.672 151.639 22.424C153.239 21.144 155.127 20.504 157.303 20.504C160.663 20.504 163.111 21.448 164.647 23.336V20.12C164.647 18.936 164.183 17.992 163.255 17.288C162.327 16.584 161.095 16.232 159.559 16.232C157.799 16.232 156.087 16.744 154.423 17.768C154.071 17.992 153.671 18.104 153.223 18.104C152.583 18.104 152.039 17.88 151.591 17.432C151.143 16.952 150.919 16.392 150.919 15.752C150.919 14.856 151.287 14.184 152.023 13.736C154.551 12.072 157.415 11.24 160.615 11.24C163.623 11.24 166.055 11.928 167.911 13.304C169.799 14.712 170.743 16.952 170.743 20.024ZM164.647 29.432V26.552C163.655 25.208 162.023 24.536 159.751 24.536C158.471 24.536 157.415 24.856 156.583 25.496C155.783 26.136 155.383 26.984 155.383 28.04C155.383 29.064 155.783 29.896 156.583 30.536C157.415 31.144 158.471 31.448 159.751 31.448C162.023 31.448 163.655 30.776 164.647 29.432ZM187.871 29.72C187.871 28.824 188.175 28.072 188.783 27.464C189.423 26.824 190.175 26.504 191.039 26.504C191.743 26.504 192.351 26.696 192.863 27.08C195.327 28.776 198.015 29.624 200.927 29.624C202.623 29.624 203.967 29.288 204.959 28.616C205.983 27.912 206.495 27.048 206.495 26.024C206.495 25 205.999 24.2 205.007 23.624C204.015 23.048 202.351 22.488 200.015 21.944C197.551 21.368 195.519 20.792 193.919 20.216C192.191 19.576 190.783 18.584 189.695 17.24C188.607 15.896 188.063 14.2 188.063 12.152C188.063 9.368 189.199 7.064 191.471 5.24C193.775 3.416 196.847 2.504 200.687 2.504C204.303 2.504 207.615 3.384 210.623 5.144C211.679 5.72 212.207 6.616 212.207 7.832C212.207 8.696 211.887 9.448 211.247 10.088C210.639 10.696 209.919 11 209.087 11C208.447 11 207.903 10.84 207.455 10.52C205.023 9.144 202.607 8.456 200.207 8.456C198.511 8.456 197.215 8.744 196.319 9.32C195.455 9.896 195.023 10.696 195.023 11.72C195.023 12.648 195.471 13.352 196.367 13.832C197.263 14.28 198.943 14.808 201.407 15.416C203.679 15.896 205.695 16.488 207.455 17.192C211.423 18.664 213.407 21.368 213.407 25.304C213.407 28.44 212.287 30.936 210.047 32.792C207.807 34.648 204.655 35.576 200.591 35.576C196.111 35.576 192.351 34.504 189.311 32.36C188.351 31.752 187.871 30.872 187.871 29.72ZM216.364 23.384C216.364 19.96 217.484 17.08 219.724 14.744C221.996 12.408 224.956 11.24 228.604 11.24C232.284 11.24 235.244 12.408 237.484 14.744C239.756 17.08 240.892 19.96 240.892 23.384C240.892 26.84 239.756 29.736 237.484 32.072C235.244 34.408 232.284 35.576 228.604 35.576C224.924 35.576 221.964 34.408 219.724 32.072C217.484 29.736 216.364 26.84 216.364 23.384ZM234.556 23.384C234.556 21.464 234.012 19.864 232.924 18.584C231.836 17.304 230.396 16.664 228.604 16.664C226.812 16.664 225.372 17.304 224.284 18.584C223.228 19.832 222.7 21.432 222.7 23.384C222.7 25.336 223.228 26.952 224.284 28.232C225.372 29.512 226.812 30.152 228.604 30.152C230.396 30.152 231.836 29.512 232.924 28.232C234.012 26.952 234.556 25.336 234.556 23.384ZM252.903 10.664V11.816H255.255C255.991 11.816 256.615 12.088 257.127 12.632C257.671 13.144 257.943 13.768 257.943 14.504C257.943 15.24 257.671 15.864 257.127 16.376C256.615 16.888 255.991 17.144 255.255 17.144H252.903V32.264C252.903 33.096 252.599 33.816 251.991 34.424C251.383 35.032 250.663 35.336 249.831 35.336C248.999 35.336 248.279 35.032 247.671 34.424C247.063 33.816 246.759 33.096 246.759 32.264V17.144H245.271C244.535 17.144 243.895 16.888 243.351 16.376C242.839 15.864 242.583 15.24 242.583 14.504C242.583 13.768 242.839 13.144 243.351 12.632C243.895 12.088 244.535 11.816 245.271 11.816H246.759V10.568C246.759 8.104 247.479 6.152 248.919 4.712C250.359 3.24 252.247 2.504 254.583 2.504C255.447 2.504 256.263 2.6 257.031 2.792C257.575 2.92 258.023 3.192 258.375 3.608C258.727 3.992 258.903 4.472 258.903 5.048C258.903 5.72 258.695 6.28 258.279 6.728C257.863 7.144 257.319 7.352 256.647 7.352L255.783 7.304C254.887 7.304 254.183 7.608 253.671 8.216C253.159 8.792 252.903 9.608 252.903 10.664ZM273.886 32.696C273.886 33.912 273.278 34.712 272.062 35.096C271.198 35.416 270.142 35.576 268.894 35.576C266.75 35.576 265.118 35.032 263.998 33.944C262.878 32.856 262.318 31.288 262.318 29.24V17.144H260.83C260.094 17.144 259.454 16.888 258.91 16.376C258.398 15.864 258.142 15.24 258.142 14.504C258.142 13.768 258.398 13.144 258.91 12.632C259.454 12.088 260.094 11.816 260.83 11.816H262.318V8.216C262.318 7.384 262.622 6.664 263.23 6.056C263.838 5.448 264.574 5.144 265.438 5.144C266.27 5.144 266.974 5.448 267.55 6.056C268.158 6.664 268.462 7.384 268.462 8.216V11.816H270.862C271.598 11.816 272.222 12.088 272.734 12.632C273.246 13.144 273.502 13.768 273.502 14.504C273.502 15.208 273.246 15.832 272.734 16.376C272.222 16.888 271.598 17.144 270.862 17.144H268.462V27.608C268.462 28.376 268.638 29 268.99 29.48C269.374 29.928 269.886 30.152 270.526 30.152C270.686 30.152 270.878 30.136 271.102 30.104C271.326 30.072 271.47 30.056 271.534 30.056C272.238 30.088 272.798 30.36 273.214 30.872C273.662 31.352 273.886 31.96 273.886 32.696Z" fill="#021D31"/>
</svg>
