<svg width="145" height="8" viewBox="0 0 145 8" fill="none" xmlns="http://www.w3.org/2000/svg">
<g opacity="0.8">
<path opacity="0.8" d="M6.46094 4L138.5 3.99999" stroke="#1F2024" stroke-width="1.5" stroke-linecap="round" stroke-dasharray="4 4"/>
<path opacity="0.8" d="M140.547 3.28035L135.516 0.152562C134.913 -0.222171 134.136 0.133851 134.016 0.780589C133.995 0.894278 134.02 1.01018 134.059 1.11895L135.098 4.00003L134.059 6.88111C134.02 6.98989 133.995 7.10578 134.016 7.21947C134.134 7.85706 134.893 8.21483 135.495 7.85977L140.527 4.89661C141.149 4.53065 141.16 3.66082 140.547 3.28035Z" fill="#1F2024"/>
<g opacity="0.8">
<path d="M1.5 4C1.5 2.61929 2.61929 1.5 4 1.5C5.38071 1.5 6.5 2.61929 6.5 4C6.5 5.38071 5.38071 6.5 4 6.5C2.61929 6.5 1.5 5.38071 1.5 4Z" fill="white" stroke="#1F2024" stroke-width="3"/>
</g>
</g>
</svg>
