<svg width="20" height="20" viewBox="0 0 20 20" fill="none" xmlns="http://www.w3.org/2000/svg">
<path d="M6.33334 6.69167C6.56667 7 7.075 7.59167 7.93334 8.00001C8.65 8.33334 9.29167 8.39168 9.66667 8.39168C9.64167 7.49168 10.175 6.68333 10.9833 6.375C11.6917 6.1 12.5167 6.25834 13.1 6.78334C13.4917 6.775 13.8833 6.75834 14.275 6.75001C14.0583 7.05001 13.8333 7.35 13.6167 7.64167C14.0833 9.48333 13.5667 11.4083 12.2417 12.5917C10.5417 14.1167 7.77499 14.1833 5.74999 12.6C5.89999 12.625 6.03333 12.6333 6.15833 12.625C7.11667 12.5833 7.77501 11.825 7.97501 11.5667C7.61667 11.2667 7.075 10.7167 6.68334 9.88334C6.01667 8.475 6.225 7.16667 6.33334 6.69167Z" stroke="#171717" stroke-width="1.5" stroke-linecap="round" stroke-linejoin="round"/>
<path d="M14.2833 17.7083H5.71667C3.825 17.7083 2.29167 16.175 2.29167 14.2833V5.71667C2.29167 3.82501 3.825 2.29167 5.71667 2.29167H14.2833C16.175 2.29167 17.7083 3.82501 17.7083 5.71667V14.2833C17.7083 16.175 16.175 17.7083 14.2833 17.7083Z" stroke="#171717" stroke-width="1.5" stroke-linecap="round" stroke-linejoin="round"/>
</svg>
