<svg width="24" height="24" viewBox="0 0 24 24" fill="none" xmlns="http://www.w3.org/2000/svg">
<path d="M11.9989 1.95312C6.4759 1.95312 1.9989 6.43033 1.9989 11.9531C1.9989 13.3871 2.31889 14.8153 2.93689 16.1406C2.11689 20.3756 2.02991 20.7656 2.02991 20.7656C1.89591 21.4592 2.49189 22.0532 3.18689 21.9219C3.18689 21.9219 3.5659 21.8563 7.8429 21.0469C9.1339 21.6605 10.5649 21.9531 11.9989 21.9531C17.5219 21.9531 21.9989 17.4759 21.9989 11.9531C21.9989 6.43033 17.5219 1.95312 11.9989 1.95312ZM11.9989 3.95313C16.4169 3.95313 19.9989 7.53483 19.9989 11.9531C19.9989 16.3714 16.4169 19.9531 11.9989 19.9531C10.7419 19.9531 9.53489 19.6579 8.43689 19.1093C8.24089 19.0117 8.02591 18.9749 7.81091 19.0156C4.26091 19.6876 4.5429 19.6475 4.2489 19.7031C4.3069 19.4055 4.25689 19.7144 4.93689 16.2031C4.97889 15.9857 4.9419 15.7446 4.8429 15.5469C4.2849 14.4412 3.9989 13.2207 3.9989 11.9531C3.9989 7.53483 7.5809 3.95313 11.9989 3.95313ZM9.18689 6.95313C8.24889 6.95313 6.9989 8.20313 6.9989 9.14063C6.9989 10.3488 8.2489 12.5781 9.4989 13.8281C9.6339 13.9626 9.9889 14.3186 10.1239 14.4531C11.3739 15.7031 13.6029 16.9531 14.8109 16.9531C15.7489 16.9531 16.9989 15.7031 16.9989 14.7656C16.9989 13.8281 15.7489 12.5781 14.8109 12.5781C14.4989 12.5781 13.3679 13.2246 13.2489 13.2031C12.2529 13.0233 10.9569 11.6959 10.7489 10.7031C10.7199 10.5645 11.3739 9.45313 11.3739 9.14063C11.3739 8.20313 10.1239 6.95313 9.18689 6.95313Z" fill="#E8E8E8"/>
</svg>
