<svg width="24" height="24" viewBox="0 0 24 24" fill="none" xmlns="http://www.w3.org/2000/svg">
<path d="M11.94 21.13C10.44 21.13 8.93001 20.73 7.60001 19.97L2.74001 21.24L4.00999 16.5C3.19999 15.11 2.8 13.55 2.8 11.93C2.8 6.90001 6.89999 2.74002 11.93 2.74002C14.42 2.74002 16.73 3.72002 18.46 5.46002C20.19 7.19002 21.23 9.51002 21.23 11.94C21.25 17.03 17.03 21.13 11.94 21.13Z" stroke="#B8C2A9" stroke-width="1.5" stroke-linecap="round" stroke-linejoin="round"/>
<path d="M15.89 13.93C15.39 13.23 15.14 12.87 14.74 12.78C14.27 12.68 13.85 12.92 13.67 13.04C13.39 12.99 12.64 12.8 11.98 12.15C11.32 11.5 11.13 10.76 11.07 10.48C11.16 10.29 11.38 9.80001 11.21 9.26001C11.08 8.81001 10.73 8.58002 10.06 8.11002C9.89999 8.00002 9.72 7.89001 9.49 7.89001C9.23 7.89001 9.03999 8.03002 8.94999 8.11002L8.16999 8.89001C7.38999 9.71001 8.24999 11.88 10.18 13.81C12.11 15.74 14.28 16.64 15.1 15.82L15.88 15.04C15.96 14.95 16.1 14.74 16.1 14.47C16.1 14.24 16 14.07 15.89 13.93Z" stroke="#B8C2A9" stroke-width="1.5" stroke-linecap="round" stroke-linejoin="round"/>
</svg>
